<?xml version="1.0" encoding="utf-8"?>
<!-- Generator: Adobe Illustrator 23.0.2, SVG Export Plug-In . SVG Version: 6.00 Build 0)  -->
<svg version="1.1" id="eed9bbac-8433-4041-b27b-b9dabe773e72"
	 xmlns="http://www.w3.org/2000/svg" xmlns:xlink="http://www.w3.org/1999/xlink" x="0px" y="0px" viewBox="0 0 995.4 609.8"
	 style="enable-background:new 0 0 995.4 609.8;" xml:space="preserve">
<style type="text/css">
	.st0{opacity:0.41;fill:#3DA4B5;enable-background:new    ;}
	.st1{fill:#FAFAFA;}
	.st2{fill:#999DAA;}
	.st3{fill:#AFB3BC;}
	.st4{fill:#5DBFD1;}
	.st5{fill:#128A9A;}
	.st6{fill:#CC9483;}
	.st7{fill:#FFFFFF;}
	.st8{fill:#26282D;}
	.st9{fill:#E0AC9B;}
	.st10{fill:#BA784A;}
	.st11{fill:#A0593A;}
	.st12{fill:#5B250E;}
	.st13{fill:#003A6E;}
	.st14{fill:#0C5187;}
	.st15{fill:#D4D5D6;}
	.st16{fill:#D19780;}
	.st17{fill:url(#SVGID_1_);}
	.st18{fill:#7AA7D6;}
	.st19{fill:#700000;}
	.st20{fill:#96C3F2;}
	.st21{fill:#990000;}
	.st22{opacity:0.67;fill:#FFFFFF;enable-background:new    ;}
	.st23{opacity:0.57;fill:#FFFFFF;enable-background:new    ;}
	.st24{opacity:0.73;}
	.st25{opacity:0.6;}
	.st26{opacity:0.8;}
	.st27{fill:#B0B3B7;}
	.st28{opacity:0.8;fill:#FFFFFF;enable-background:new    ;}
	.st29{opacity:0.4;fill:#FFFFFF;enable-background:new    ;}
	.st30{opacity:0.5;fill:#FFFFFF;enable-background:new    ;}
	.st31{opacity:0.7;fill:#FFFFFF;enable-background:new    ;}
	.st32{opacity:0.4;fill:url(#SVGID_2_);enable-background:new    ;}
	.st33{fill:#CDE3E8;}
	.st34{opacity:0.3;fill:#FFFFFF;enable-background:new    ;}
	.st35{opacity:0.3;fill:#5DBFD1;enable-background:new    ;}
	.st36{opacity:0.4;fill:url(#SVGID_3_);enable-background:new    ;}
	.st37{fill:#1F3E93;}
	.st38{fill:#DBAB9C;}
	.st39{opacity:0.15;fill:#73756A;enable-background:new    ;}
</style>
<g>
	<title>share_opinion</title>
	<rect x="360.4" y="120.3" class="st0" width="380.6" height="250.9"/>
	<rect x="377.4" y="133.1" class="st1" width="346.6" height="225.4"/>
</g>
<g>
	<g>
		<path class="st2" d="M350.4,506.2c0-6.1,4.7-103.2,6.4-117.4l0,0c0.7-6.4,0.7-12.6,1.8-16.8l0,0c1.3-4.2,2.2-5.6,6.7-5.8l0,0
			c11.3,0.1,16.4,2.2,25.5,4.5l0,0l1.5-5.3c-8.6-2.2-14.8-4.7-26.9-4.8l0,0c-7.1-0.2-11.2,4.8-12.2,10l0,0
			c-1.3,5.3-1.2,11.5-1.9,17.5l0,0c-1.7,15-6.4,111.4-6.4,118.1l0,0l0,0H350.4L350.4,506.2z"/>
		<path class="st2" d="M482.6,506.6c0-6.7-4.2-103-5.8-118.1l0,0c-0.7-6-0.5-12.2-1.8-17.5l0,0c-1-5.2-5.1-10.3-12.1-10l0,0
			c-12.1-0.1-18.3,2.4-26.9,4.6l0,0l1.4,5.3c9.1-2.3,14.2-4.4,25.5-4.4l0,0c4.5,0.2,5.4,1.6,6.7,5.9l0,0c1,4.2,1,10.5,1.7,16.8l0,0
			c1.6,14.3,5.8,111.4,5.8,117.5l0,0L482.6,506.6L482.6,506.6z"/>
		<path class="st3" d="M373.9,381.3c0-0.1,0.1-0.3,0.1-0.5l0,0c0.1-0.6,0.4-1.4,1-2.2l0,0c1-1.6,2.5-3.2,5.6-3.5l0,0l0,0l-0.4-4.4
			c-4.7,0.4-7.6,3.2-9,5.7l0,0c-1,1.7-1.3,3.1-1.6,3.9l0,0v0.1l0,0c-0.1,0.1-0.1,0.2-0.1,0.2l0,0c0,0.1,0,0.1,0,0.2l0,0
			c0,0.1,0,0.2-0.1,0.4l0,0v0.1v0.1v0.1l0,0l0,0l0,0c0,0.1,0,0.2,0,0.3l0,0c-0.4,4.8-2.6,31.5-4.8,57.6l0,0
			c-2.5,28.8-4.8,57.3-4.8,57.4l0,0l4.5,0.4C364.3,496.9,373.6,387.9,373.9,381.3L373.9,381.3z"/>
		<path class="st3" d="M465.8,498.8c0-0.1-8.3-104.9-9.1-115l0,0c0-0.1,0-0.2,0-0.3l0,0c0-0.1,0-0.3-0.1-0.4l0,0V383l0,0v-0.1l0,0
			c0-0.1,0-0.2-0.1-0.3l0,0c0,0,0-0.1-0.1-0.2l0,0c-0.2-1-0.6-2.3-1.6-4.1l0,0c-1.4-2.5-4.3-5.2-9-5.7l0,0l0,0l-0.5,4.3
			c5.2,0.5,6.4,5.1,6.7,6.5l0,0c0.5,8,9.1,115.6,9.1,115.7l0,0L465.8,498.8L465.8,498.8z"/>
		<g>
			<path class="st4" d="M371.3,371.7c1.9-12.3,0.6-36.5-2.2-46.1c-2.8-9.6,0.5-16,0.5-16c5.1-6.9,27.2-7.6,43.9-6.8
				c16.7-0.7,38.9,0.1,43.9,7c0,0,3.3,6.4,0.4,16c-2.8,9.6-4.3,33.8-2.5,46c1.9,12.3,11.2,24.7,7.9,29.2c-1.8,2.5-19.9,3.5-36.3,4
				l-27.4-0.1c-16.4-0.6-34.5-1.8-36.3-4.2C360.1,396.3,369.5,384,371.3,371.7z"/>
			<path class="st4" d="M473.8,409.8c-0.8,5.3-5.1,8.2-5.1,8.2c-6.1,0-110,0.1-111.9-1.2c-1.9-1.3-2.8-5.5-3.3-8.7
				c-0.4-3.2,0-12.3,4.2-13.2c4.2-0.9,10.6-0.9,15.3-0.6s83.3-0.1,83.3-0.1s12.3-1.3,15.3,3.4C474.1,401.6,474.1,407.4,473.8,409.8z
				"/>
			<path class="st5" d="M472.2,399.3c-2.3-3.9-6.5-5.3-8.9-4.8c-2.3,0.4-101.6-1.9-104.4-0.5s-4.5,2.8-3.8,3.4
				c2.8,2.7,41.4,1.3,59.7,1.8C433.1,399.7,472.2,399.3,472.2,399.3z"/>
		</g>
		<path class="st6" d="M414.4,287.8c0.4,2.8-3.2,10.1-0.3,13c3,2.9,12.6,5.3,14.4,6s-15.8,10.5-21.4,11.5c-5.7,1-21.2-9.2-21.2-9.2
			s5.1-4.4,7.2-6.8c2.1-2.4,1-8.5,0.7-12C393.4,286.9,414.4,287.8,414.4,287.8z"/>
		<path d="M392.8,373.5c-10.3,8.2-16.5,21-15.5,26.6c0.7,4.1-0.4,13.4-0.4,14.9c0,4.2,54.9,5.3,58.1-2.3c1.6-3.7,0.7-8.4,4.7-11.5
			c3-2.5,7.6-2.5,8.1-2.8c15-7,0.4-21.9-5.6-23.9C436.4,372.7,392.8,373.5,392.8,373.5z"/>
		<path class="st7" d="M389.4,305.4c2.5,3.3,14.7,8.6,14.9,9.3c2.8-1.4,12.6-5.4,14.2-10.9c0,0,10,5.8,16.2,5.5
			c-7.5,16.2-4.2,45.3,1.9,53.7c5.4,7.4,3.3,11,3.3,11l-16.1,0.2l-23-4.5c0,0-12.8,5.3-10.9-0.7c1.9-6-11-49-15.2-52.6L389.4,305.4z
			"/>
		<path class="st8" d="M387.9,305.3c-6.5,3.3-13.4,3.4-15,5.2c0,0,3.3,24.3,4.6,27.2c0.5,1.2,0,7.9,1.6,11.6
			c2.2,5.2,6.2,11.5,5.8,14.9c-0.5,5.9-9.9,18-8.3,26c0.4,2.2,9.4-9.4,19.5-10.9c6.1-0.9,21.8,2.5,21.1-1.3
			c-0.7-3.7-8.1-28.9-8.1-28.9s-13.8-26.8-16.8-30.1C389.4,315.6,387.9,305.3,387.9,305.3z"/>
		<path d="M391.7,301.7l-8.1,3.3v9.3l5.1-1.3l-3,4.8c0,0,2.8,6.8,9,14.1c2.6,3.1,12.7,23.4,12.7,23.4s-2.3-16.1-6.3-23.6
			c-4.4-8.3-8.2-17.6-9.8-21.6C389.8,306.2,391.7,301.7,391.7,301.7z"/>
		<path d="M422.9,304.1c10.9,4.9,17.8,5.6,19.9,6.8c0,0-2.3,30.9-2.6,34.1c-0.2,3.1-1,9.2,1.6,14.7c2.5,5.4,15.9,21.5,15.7,33.8
			c-0.1,2.3-13.8-12.3-28.5-14c-6.2-0.7-21,2.5-21,1.1c0-8.5-0.8-12.1-3.6-33.8c0,0,10.5-28.8,12.1-32.9
			C418.1,309.6,422.9,304.1,422.9,304.1z"/>
		<path class="st8" d="M416,299.9l10.3,5.8l0.1,7.6l-6.5-0.6l3.3,7.1c0,0,1,0.4-5.2,8.6c-2.5,3.2-13.2,24-13.2,24s-1.2-4.1,0.7-12.3
			c2.1-8.9,9-22.7,10.1-26.9C417.7,305.8,416,299.9,416,299.9z"/>
		<g>
			<g>
				<path class="st9" d="M388.4,274.2c-0.7,12.3,5.1,24.4,11.1,25.4c6.6,1.2,18.6-3.9,24-18.8c4.5-12.2,3.3-24.4-12.9-27.3
					C395.4,250.8,389,261.3,388.4,274.2z"/>
			</g>
			<path class="st10" d="M408.4,253.8c1,0.7-7.7-4.2-16.4,1.6c-0.1,0.1-4.2,2.8-6.2,11.7c-1,4.2-5.1,3.6-5.1,3.6s0.8,3.9,2.6,4.3
				c-1,1.1-2.8,2.5-4.2-0.4c-2.2,8.4-3.7,12.1,2.1,17.8c6.2,6.2,13.3,4.2,13.3,4.2s-1.1-1.6-1.5-2.4c0.4,1-6-8.4-1.8-22
				c1.8-6,6.5-5.4,14.8-7.4C406.1,264.5,407.8,253.2,408.4,253.8z"/>
			<path class="st11" d="M437,281.5c-1.7,1.4-5.1,0.3-5.2-0.1c1.9,0.2,4.6-1.6,4.6-1.6s-5.2-0.2-5.4-8.9c-0.1-3.6-2.6-7.2-6.2-11.7
				c-0.6-0.8-1.3-1.6-2.1-2.4s-1.6-1.3-2.3-1.6c0,0-0.1,0-0.1-0.1c-0.1-0.1-0.1,0-0.2-0.1c-8-4.5-15-2.2-14.9,0.1c0,0.8-2.2,8-2.2,8
				c1.6,5.1,12.4,4.9,14,12.1c2.8,11.6,0,12.8-3,14.2c0.5,0.3,1.8,1,2.9,0.8c-1.3,0.9-3.1,1.7-5.7,1.9c1.7,2.4,2.7,4.2,3.5,3.5
				c-0.7,0.7-3.9,0.7-3.9,0.7s3.9,6.8,13.2,3.3C431,297.6,436.3,292.9,437,281.5z"/>
		</g>
		<path class="st9" d="M425.3,380.8c-0.3,0.3-12.6,0.2-12.9,0.5c-2.7,1.9-6.9,2.5-9.6,2.8c-3.6,0.5-2.4,0.1-5.5,2
			c-3.1,1.9-3.8,1.9-4.2,1.5c-0.5-0.5,1.5-1.7,3.1-3.1c1.6-1.3,5.5-2.8,4.8-2.9c-0.8,0-7.6,4.1-8.7,4.6s-3.9,1.1-2.9,0
			c1-1,6.5-4.8,7.4-5.5c0.9-0.7-7.3,4.2-8,4.5c-0.9,0.3-1-0.6,0.3-1.7c0.9-0.8,6.8-4.8,7.4-5.3c0.3-0.2-2.2,0.8-3,1.3
			c-1.5,0.8-2,1.2-2.9,1.6c-1.6,0.9-3.1,0.7-1.3-0.7c1.7-1.3,2.5-2.4,3.3-2.8c0.7-0.3,2.8-1.3,5.2-1.9c0.8-0.2,10.3-1.3,12.6-1.8
			c6.9-1.3,11.2-1.6,12.2-1.8L425.3,380.8z"/>
		<polygon class="st7" points="420.6,370.5 414.5,373.2 417.4,383.9 423.5,384 420.9,371.9 		"/>
		<path d="M439.4,310.6c2.9,0,6.5-0.5,10,14.4c2.7,11.3,10,42.4,7.7,46.6c-4,7.3-31.1,16.1-35.4,15.2c-0.4-1.1-2.9-7.7-3.8-13.2
			l17.7-9.1c0.7-2.2-1.9-22.4-0.4-27.4C436,334,439.4,310.6,439.4,310.6z"/>
		<path class="st9" d="M369.5,362.4c0.2,0.3,12.5,1.3,12.8,1.6c2.5,2.2,6.7,3.1,9.3,3.6c3.6,0.8,2.4,0.3,5.3,2.5
			c2.9,2.1,3.6,2.2,4.1,1.9c0.6-0.5-1.3-1.8-2.8-3.3c-1.4-1.5-5.3-3.3-4.5-3.3c0.8,0.1,7.2,4.8,8.3,5.4c1,0.6,3.7,1.4,2.9,0.3
			c-0.8-1.2-6-5.4-6.8-6.1c-0.8-0.7,6.9,4.8,7.6,5.1c0.9,0.4,1.1-0.5-0.1-1.7c-0.8-0.8-6.3-5.4-6.9-5.9c-0.3-0.2,2.1,1,2.9,1.5
			c1.4,1,1.9,1.3,2.8,1.9c1.4,1,3,1,1.3-0.6c-1.6-1.5-2.3-2.6-3-3.1c-0.7-0.4-2.8-1.5-5.1-2.2c-0.8-0.3-10.1-2.2-12.4-2.8
			c-6.8-1.9-11-2.6-12.1-2.8L369.5,362.4z"/>
		<polygon class="st7" points="380.9,355.4 384.1,356.4 381.8,368.6 376.2,368.1 380.2,356.3 		"/>
		<path d="M374.3,309.6c-2.8-0.8-5.1,3.5-9.9,15c-5.2,12.3-17.5,33.3-14.4,36.9c3.1,3.6,19.7,12.3,24.1,12.6
			c1-3.9,4.7-10.3,6.8-18.7l-12.1-2.8c0-2.3,4-5.5,8.9-11.8C379.7,338.5,374.3,309.6,374.3,309.6z"/>
		<path class="st8" d="M435.4,328.1c0,6.1,1.5,26.5,0.4,32.9c-0.2,1.1-19,10.2-19,10.2l2.5,6.8c0,0,22.7-10.3,24.3-12.1
			c1.6-1.8,0.1-3.7,0.1-3.7l2.2-1.5l-5-1.1l4.4-0.1l-3.7-3.2L435.4,328.1z"/>
		<g>
			<path class="st9" d="M386.2,388.4c15.7-4.5,12.9,8.7,17.4,16c15.7,26,8.2,68.3,16.7,86c3.4,7.1,5.3,11.2,5,14.3
				c-0.4,3.7-3.7,5.4-5.8,5.4c-8.6,0.1-8.6-3.9-9.4-12.6c-0.4-4.5-0.7-5.8-1.8-11c-3.6-17.9-25.3-50.6-24.8-65.8
				c0.5-15.3-3.1-9.2-4.5-19.4C377.4,390.9,386.2,388.4,386.2,388.4z"/>
			<g>
				<path class="st6" d="M403.9,405.1c15.7,26,8.2,68.3,16.7,86c1,2,1.8,3.7,2.5,5.3c0.1,2.7,0.1,5.3,0.2,7.4
					c-1.8-5.1-6.4-12.6-8.9-17.4c-3.4-6.4-6.4-50.2-8.6-59.1c-2.2-8.9-7.1-15.1-6.8-19s0-16.5-6.6-20.1
					C401.5,388.3,400.1,398.8,403.9,405.1z"/>
			</g>
			<path d="M410.2,500.1c3.6,4.9,12.1,5.1,14.2-2.7c5.5,12.3-0.9,17.6-4.4,17.3c-3.6-0.3-8.7-3.9-9.7-8.4
				C409.3,502.3,409.6,499.2,410.2,500.1z"/>
		</g>
		<g>
			<g>
				<path class="st9" d="M412.7,387.7c15.1-1.9,12.2,9.7,16,17.4c13.4,27.2,2.8,68.2,9.7,86.4c6.3,16.6,4,17.1-1.9,18.6
					c-4.8,1.2-9.1,0.5-9.7-8.2c-0.3-4.2-1.2-10.2-1.6-15.5c-1.1-16.5-17.6-53.5-17.6-68.8c0-11.6-3-7.6-3.6-17.9
					C403.7,389.4,412.7,387.7,412.7,387.7z"/>
			</g>
			<g>
				<path class="st6" d="M428.6,405.3c13.4,27.2,2.8,68.2,9.7,86.4c2.1,5.4,3.2,9.1,3.6,11.6c-1.4,2.8-2.5,4.6-2.5,4.6
					s-5.3-15.8-6.5-19.5c-1.3-3.6-1.5-25.6-2.7-49.6c-1.2-24-5.6-25.3-6.5-29.5c-0.9-4.2,1.6-17.2-7.2-21.8l0.4-0.1
					C427.3,388,425.3,398.4,428.6,405.3z"/>
			</g>
			<path d="M426.7,499.7c3.3,5.1,11.8,5.8,14.4-1.8c4.7,12.6-2.1,17.5-5.5,17c-3.6-0.5-8.4-4.5-9.1-9
				C425.6,501.8,426.1,498.8,426.7,499.7z"/>
		</g>
		<g>
			<polygon class="st7" points="381.9,336.5 392.5,334.8 391.5,328.1 380.8,329.7 			"/>
			<polygon class="st4" points="381.6,331.6 391.3,330.1 391.1,328.8 381.4,330.2 			"/>
		</g>
	</g>
	<g>
		<path class="st2" d="M512.7,510.3c0-6.1,4.7-103.1,6.4-117.4l0,0c0.7-6.3,1-14.1,2.5-19.9l0,0c1.6-6.1,3.6-8.9,7.4-8.9l0,0
			c11.3,0.1,16.4,2.2,25.5,4.5l0,0l1.5-5.3c-8.6-2.2-14.8-4.7-26.9-4.8l0,0c-7.8,0-11.4,6.7-12.8,13.2l0,0
			c-1.6,6.7-1.8,14.6-2.5,20.6l0,0c-1.7,15-6.4,111.4-6.4,118.1l0,0l0,0L512.7,510.3L512.7,510.3z"/>
		<path class="st2" d="M646.8,510.6c0-6.6-3-102.7-4.7-117.8l0,0c-0.7-6-1-13.6-2.8-20l0,0c-1.6-6.2-5.4-12.4-13-12.4l0,0
			c-12.2-0.1-17.3,2.9-25.7,5.1l0,0l1.4,5.3c9.4-2.4,13.1-4.9,24.3-4.8l0,0c3.9,0,6,2.7,7.7,8.3l0,0c1.6,5.5,1.9,12.9,2.6,19.2l0,0
			c1.6,14.3,4.7,111,4.7,117.2l0,0H646.8L646.8,510.6z"/>
		<path class="st3" d="M540,385.4c0-0.1,0.1-0.4,0.1-0.6l0,0c0.1-0.6,0.4-1.4,1-2.2l0,0c1-1.6,2.5-3.1,5.6-3.5l0,0l-0.4-4.4
			c-4.7,0.4-7.6,3.2-9,5.7l0,0c-1,1.7-1.4,3.1-1.6,4l0,0l0,0l0,0c-0.1,0.1-0.1,0.2-0.1,0.2l0,0c0,0.1,0,0.1,0,0.2l0,0
			c0,0.1,0,0.2-0.1,0.4l0,0v0.2v0.1l0,0l0,0c0,0.1,0,0.2,0,0.3l0,0c-0.4,4.8-2.6,31.5-4.8,57.6l0,0c-2.5,28.8-4.8,57.3-4.8,57.4l0,0
			l4.5,0.4C530.3,501,539.5,392.6,540,385.4L540,385.4z"/>
		<path class="st3" d="M628.1,502.8c0-0.1-8.3-105.2-9.1-115l0,0c0-0.1,0-0.1,0-0.2l0,0c0-0.1,0-0.3-0.1-0.4l0,0c0-0.1,0-0.1,0-0.2
			l0,0c0-0.1,0-0.2-0.1-0.3l0,0v-0.1l0,0c0-0.1,0-0.1-0.1-0.1l0,0c-0.2-1-0.7-2.3-1.6-4l0,0c-1.4-2.5-4.3-5.2-9-5.7l0,0l-0.5,4.4
			c5.2,0.5,6.4,5.1,6.7,6.5l0,0c0.5,8,9.1,115.6,9.1,115.7l0,0L628.1,502.8L628.1,502.8z"/>
		<g>
			<path class="st4" d="M538.5,374.4c7.2-16.9,2.3-39.6,0.4-51.4c-1.6-9.8,2.2-15.8,2.2-15.8c5.1-6.9,30.4-9.8,47.2-9
				c16.7-0.7,41.4,2.9,46.3,9.8c0,0,3.3,6.4,0.4,16c-2.8,9.6-12.7,39.7-10.9,52c1.9,12.3,5.1,21.9,1.8,26.5
				c-1.8,2.5-16.5,6.2-33,6.8l-27.4-0.1c-16.4-0.6-34.5-1.8-36.3-4.2C526.1,400.4,533.6,385.9,538.5,374.4z"/>
			<path class="st4" d="M639.9,413.9c-0.8,5.3-5.1,8.2-5.1,8.2c-6.1,0-110,0.1-111.9-1.2c-1.9-1.4-2.8-5.5-3.3-8.7s0-12.3,4.2-13.2
				c4.2-0.9,10-6.2,14.7-5.9c4.7,0.3,83.8,0.2,83.8,0.2s12.4,3.6,15.4,8.4C640.2,405.7,640.2,411.5,639.9,413.9z"/>
			<path class="st5" d="M638.2,403.4c-2.3-3.9-6.5-4-8.9-3.6c-2.3,0.4-101.6-1.9-104.4-0.5c-2.8,1.3-4.5,1.5-3.8,2.2
				c2.8,2.7,41.4,1.3,59.7,1.8C599.2,403.7,638.2,403.4,638.2,403.4z"/>
		</g>
		<g>
			<path class="st12" d="M605.9,266.8c2.1,9.4-1.9,17.7-3.9,19.5c-0.5,0.4-2.2,6.8-1.6,6.7c0.7-0.1-4.5-2.2-5.4-3.4
				s-1.6-19.6-0.9-20.4C594.9,268.5,605.9,266.8,605.9,266.8z"/>
			<g>
				<path class="st6" d="M576,277.6c0.9,4.8-1.8,9.6-3.8,13.5c-2,3.9,3.5,16.7,6.1,16.7c2.6,0.1,20.6-12.2,20.6-12.2
					s-3.2,1.9-3-23.2C595.8,268.9,576,277.6,576,277.6z"/>
			</g>
		</g>
		<path class="st7" d="M597.1,296.6l14.5,13.2l-31,73l-30.2-9.2l12.9-70.1l7.4-5.3c0,0,4,5.4,7.4,6.1
			C583.3,305.6,597.1,296.6,597.1,296.6z"/>
		<g>
			<path d="M578,385.6c-4.7-0.9,46,13.2,45.6,11.8c-4.1-16.7-11.5-25.9-12.1-31.4c-0.9-9.4,1.9-21.1,1.9-24.3
				c0.1-8.3,10.3-35.7,9.2-36.7c-5.3-4.9-14.7-1.2-23.3-10.4c0,0,1.1,10.5-1.5,15.5c-2.7,5.1-18.9,47.1-21.5,49.8
				C570.8,370.7,578,385.6,578,385.6z"/>
		</g>
		<path class="st8" d="M597.2,294.4c0-0.4,5.4,3.1,5.4,3.1l6.1,6.2l-8.6,5.2l5.6,7.2l-30,45.2c0,0,13.2-39.4,15.2-45
			C596.1,301.7,597.2,294.4,597.2,294.4z"/>
		<path d="M609.4,373.7c4.7,8.9,7.7,13.9,7.3,20.1c-0.6,8.6-29.5,16.7-29.5,16.7S572,399.1,565,399.1c-7.1,0-32.5,6.9-32.8,4.5
			c-0.3-2.4-14.2-18.1-12.9-20.8c1.2-2.5,20.7-8.9,23.6-9c2-0.1,6.1-1.1,6.8-1.9c1.5-1.4,4.2-6.2,3.5-4.5
			C552.8,368.5,555.1,363.3,609.4,373.7z"/>
		<g>
			<path d="M540,480.9c0.7,5.1,0.6,17.3-2.7,21.4c0,0-2.9,1.8-6.1,1s-3.8,0.4-5.7,2.7c-1.9,2.2-13.7,4.1-19.2,3.1
				c-6.5-1.2-8.3-4.4,0.1-9.4c10-6,15.8-11.6,18.1-17.4C526.9,476.3,540,480.9,540,480.9z"/>
			<path d="M538.5,380.1c-8.7,0.3-16.2,0.2-20.9,3.3c-4.1,1.9-6,11.5-4.4,18.8c1.9,9.2,1,89.7,1,89.7s30.9,0.7,30.9-0.5
				s-0.4-84.8-0.1-87C545.9,398.7,550.2,385.6,538.5,380.1z"/>
		</g>
		<path class="st13" d="M564.2,374.2c0.4-1.9,13.6-67.6,13.6-67.6s0.2,0,0.4,0l1.3-3.4l5,0.1l2.4,4l-6.2,2.8
			c-1.8,11.3-8.3,56.8-8.3,59.1C572.2,371.7,563.5,377,564.2,374.2z"/>
		<path class="st14" d="M559.8,367.4c-0.1-2.7,13.1-51.2,15.5-59l-1.7-3.8l1.3-2.3l4.8,0.9l-15.6,71
			C564.2,374.2,559.9,370.2,559.8,367.4z"/>
		<path class="st15" d="M597.5,290.9c-2,9-16.7,11.5-16.7,11.5l6,14.5l13.6-21.3L597.5,290.9z"/>
		<path class="st15" d="M576.8,302.4l-8.9,11.2c0,0,1-12.9,2-14.8c1.3-2.8,2-5.8,2-5.8s-0.8,3.4,1,6.4
			C575.4,303.2,576.8,302.4,576.8,302.4z"/>
		<g>
			<path class="st9" d="M562.9,281.7c-0.2-1,1-3.3,2.7-7c-0.1-0.9-1-1.9-1-3c0.1-6.5,1.9-10.5,5.7-15.4c3-3.8,15.7-6.5,19-5.7
				c14.7,3.9,7.1,12.6,4.6,21.9c3.9-1,4.2,3.1,2.9,6.7c-1,2.8-1.7,3.6-3.9,4.1c-1.9,4.5-5.7,9.2-8.8,10.8c-2.8,1.4-8.6,1.8-13.1,1.3
				c-3.9-0.4-2.8-2.5-3.9-4.3c-0.9-2.3-1.5-5.1-1.8-7.8C564.4,283.3,563.2,282.9,562.9,281.7z"/>
			<g>
				<path class="st12" d="M606.2,263.8c-0.4-3.3-1.9-8.6-5.8-9.1c0.1-3.3-10.9-8.3-19.6-5.7c-3.9-0.3-12.3,4.5-12.1,5.4
					c0.4,1.4,4.8-1.6,5.4-0.5c-0.2-0.1,0.3,0.3,0.1,0.2c0.7-2-7.5-0.7-9.2,6.8c-0.2,1.9-1.7,1.2-1.3,2c0.3,0.8,1.3,1.6,2.4,1.8
					c7.4,1.6,12.6-2.7,17-1.5c2.2-0.7,4.5-3.1,9.7-3.9c0.7-0.1-10.3,2.8-9.1,5.9c1,2.5,2.2,5.7,2.6,6.8c0.7,2.2,3.9,6.2,3.9,6.2
					l2.2-0.5l2.5-5.3l5.3,3C600.1,275.2,607.4,274.4,606.2,263.8z"/>
			</g>
		</g>
		<path class="st8" d="M551.9,372.8l4.2-14.7c0,0,4.9-14.4,9-42.2l1.6-15.8c-4.8,1.6-9.7,5.1-19.6,6.8c-2.2,0.4,1,17.6,1,17.6
			s2.4,8.6,2.5,12c0.1,5.7-1,21.5-5.1,26.5c-3.9,4.9-7.1,6.6-12,15.2L551.9,372.8z"/>
		<path d="M571.7,295c-1.6,0.9-5.4,4.6-5.4,4.6l-7.3,4.5l6.3,5.1l-9,1.4l-0.4,49c0,0,12.1-54.2,13.8-60
			C570.9,295.8,571.7,295,571.7,295z"/>
		<g>
			<g>
				<g>
					<path class="st9" d="M596.6,366c-0.1-1.7-4.3-3.2-7.1-5.1c0,0-9.6,1.2-15.3,4.6c-1.3,0.8-1.9,1.7-4.2,4.2
						c-1.6,1.8-1,3.1,1.1,1.9c1.7-1,3.3-2.8,3.3-2.8l3.2-1.4c0,0-2.4,1.4-3,1.9c-0.6,0.4-3.2,3.3-4,3.9c-1.1,0.9-0.8,2.7,1.2,1.6
						c2-1,2.9-2.1,3.9-2.7c1.4-0.9,3.9-2.2,3.9-2.2c-2.8,1.9-6.8,4.2-7.4,5.5c-0.6,1.3,0.7,2.3,2.5,0.7c3.3-3,6.4-3.9,6.4-3.9
						l-5.2,3.3c0,0-1.1,2.2,1.6,0.9c6.8-3.2,12.7-4.8,14.6-6.4C593.4,368.7,596.7,367.3,596.6,366z"/>
					<path class="st7" d="M599.1,372.2c-0.4-2.2-5.2-12.8-9-13.5c-1.6,1.2-3.5,1.7-3.5,1.7s6.2,11.5,6.5,15.3L599.1,372.2z"/>
				</g>
			</g>
			<path d="M620.7,303.7c4.3-2.8,9.4,11.3,10.6,16.4c1.1,5.1,12.4,35.3,8,43.2c-3.8,6.7-41.4,12.1-41.4,12.1l-10-16.9
				c0,0,29.8-5.9,29.4-7.7c-0.4-1.4-5.7-18.4-4.3-20.4C614.3,328.5,620.7,303.7,620.7,303.7z"/>
		</g>
		<path d="M547.3,306.9c-3.1,0-5.2,11.2-7.1,16.1c-1.9,4.8-7.9,28.6-9.4,31.5c-3,5.8-6,18.9-5.7,20.2c0.3,1.2,0.9,7,2.2,7.3
			c1.3,0.3,16.7-10.6,16.7-10.6s1.3-6.2,1.9-10.7c1.2-8.6,3.7-13.8,5-22.2C552.7,325.6,547.3,306.9,547.3,306.9z"/>
		<g>
			<path class="st6" d="M536.1,370.1c3.3,1.7,5.8,1.6,6.7,2.2c0.8,0.6,1.8,5.9,0.8,6.3c-1.7,0.8-2.5-3.9-3.6-4.7
				C538.1,372.6,536.1,370.1,536.1,370.1z"/>
			<path class="st9" d="M540.7,371.1c1,1,3.6,6.2,2.2,7.1c-1.2,0.9-3-1.9-3-1.9l-1-1.9c0,0,4.4,4.4,2.4,5.8c-1.5,1-4.9-2.3-4.9-2.3
				s3.5,1.6,2.4,3.3c-1,1.5-4.8-1.9-4.8-1.9s3.9,2.1,2.6,3c-1.3,0.9-5.7-1.7-6.9-3.1c-1-1.2-1.6-1.5-1-3.2c0.1-0.3,0.1-0.4,0.4-0.9
				c0.2-0.3,0.2-1.3,0.9-2.2c0.5-0.7,1.9-1.1,2.2-1.5c0.7-1.9,3-1.7,3.6-1.8C536.6,369.5,537.5,367.7,540.7,371.1z"/>
		</g>
		<g>
			<g>
				<g>
					<g>
						<g>
							<path d="M591.6,477.8c0.7,5,2.4,21.6-2.9,25.4c-1.9,1.3-4.5,0.1-6.2,1.8c-9.1,9.3-20.3,7.1-23.8,5.5c-3.5-1.6-0.1-6.5,4.5-11
								c5.1-5,8.4-4.2,9.9-13.8c0.5-3.5,1.6-9.1,1.6-9.1L591.6,477.8z"/>
						</g>
					</g>
				</g>
			</g>
			<g>
				<path d="M561.5,404.8c-1.6-9.7,1.9-18.8,5.7-19.4c0,0,9.7-10,22.3,3.3c5.6,6,1,10.8,2.9,20.8c1.9,10,1.6,83,1.6,83
					s-11.9,3.3-20.3,2.7c-4-0.3-9.7-3.3-9.7-3.3s-0.6-45.1-1.6-70.7l-0.8-14.8C561.6,405.7,561.6,405.3,561.5,404.8z"/>
				<path class="st8" d="M568.5,382.7c-3.3,0.4-6.5,5.4-6.6,10.9c0,5.5-0.4,11.2-0.4,11.2l2.6,87c0,0,8.7,5.1,9.7,3.3
					c1-1.6,1.3-2.5,1.3-2.5s-6.5-87.6-6-94c0.5-6.4,3.1-14.3,5.5-14.7C576.9,383.6,568.5,382.7,568.5,382.7z"/>
			</g>
		</g>
	</g>
	<g>
		<path class="st2" d="M318.4,508.1L318.4,508.1L318.4,508.1L318.4,508.1z"/>
	</g>
	<g>
		<path class="st3" d="M858.9,516.4c0-0.1-15-101.1-16.5-108.4l0,0c-0.1-0.4,0.1-0.1-0.2-0.8l0,0c-0.2-1-0.7-2.2-1.6-3.9l0,0
			c-1.4-2.5-4.4-5.3-9.1-5.8l0,0l-0.5,4.7c5.1,0.5,6.2,5.1,6.5,6.4l0,0l0,0v0.1l0,0v0.1v0.1v0.1l0,0c0,0,0,0.1,0,0.1l0,0
			c0.1,0.1,0.1,0.3,0.1,0.4l0,0c0,0,0,0,0,0.1l0,0c0.1,0.7,0.3,1.9,0.6,3.4l0,0c0.4,3,1.1,7.2,1.9,12.3l0,0
			c1.6,10.2,3.6,23.8,5.7,37.3l0,0c4.1,27.2,8.1,54.3,8.2,54.3l0,0L858.9,516.4L858.9,516.4z M841.6,410.3
			C841.6,410.2,841.6,410.2,841.6,410.3L841.6,410.3C841.6,410.2,841.6,410.2,841.6,410.3L841.6,410.3z"/>
		<path class="st2" d="M701.2,408.5c1.6-6.8,3.3-13.2,5.7-17.5l0,0c2.5-4.3,5.1-6.3,9.4-6.4l0,0c0.3,0,0.4,0,0.7,0l0,0
			c13.2,0.8,15.8,1.4,25.1,3.5l0,0l1.2-5c-9.1-2.1-12.6-2.8-25.9-3.6l0,0c-0.4,0-0.7,0-1,0l0,0c-6.5-0.1-11.2,3.9-14.1,9.1l0,0
			c-2.9,5.2-4.5,11.8-6.2,18.8l0,0c-3.3,14.7-12.7,94.7-13.3,101.2l0,0l0,0l5.2,0.4C688.5,502.9,698,422.2,701.2,408.5L701.2,408.5z
			"/>
		<g>
			<g>
				<path class="st4" d="M852.6,324.1c4.1,1,6.4,3.9,4.4,10.5c-2.5,8.7-10.8,32.9-12.3,45.6c-1.6,13.4-9.2,27.4-8.8,43.8
					c0.3,10.6-5.8,9.6-5.8,9.6l-82.8-16.2c0,0,2.5-24,5.7-50.7c2.5-19.5,11.1-38.9,15.6-45.6c1.5-2.2,7.5-4.3,9.4-4.5
					C784.2,315.9,836.8,320,852.6,324.1z"/>
				<path class="st5" d="M854.1,326.7c-6.1,0.9-11.6,14.3-14.9,28.9c-3.3,14.6-11.1,59.9-8.3,68c1.3,3.6,4.4,10.2,4.8,5.4
					c0.3-4.8,6.2-37.9,8.9-49.8c4.5-21,13.5-42.9,13.5-46.2C858.2,326.7,854.1,326.7,854.1,326.7z"/>
			</g>
			<path class="st4" d="M694.5,425.3c-3.2,5.6,5.6,6.5,5.6,6.5s74.2,18.3,78.9,15.5c4.7-2.8,9.4-8.5,27.2-9.5
				c5.6-0.3,15.2,5.8,21.5,2.8c0,0,5.4-6.7,0.7-12.2c-4.7-5.5-76.1-17.3-82.6-17.3s-33.8,0.1-41.5,4.5
				C697.6,419.3,696.9,420.9,694.5,425.3z"/>
			<path class="st5" d="M779.4,435.7c4.5-2.6,19.8-8.2,33.6-6.9c12.2,1.1,16.9,2.3,17.6,5.5c0.7,3.1-0.4,6.2-6.8,7.4
				c-6.3,1.2-21.9-5.1-28.3-2.7c-10.3,3.9-11.9,9.7-15,9.7C771.8,448.8,775.6,437.9,779.4,435.7z"/>
		</g>
		<g>
			<g>
				<g>
					<path class="st16" d="M744.5,395c-13.9-1.1-39.1-1.3-43.4,2.9c-6.5,6.4-8.9,11.8-5.7,20.7c1.6,4.5,13,63.9,11.8,71.2
						c-1.6,9-7.1,18.6-18.1,22.5c5.7,4.2,18.6,7.2,24.5-6.2c2.4-5.4,4.5-7.1,6.7-10.1c3.7-5.1-3.3-3.3-2.2-15
						c1-11.8,4.6-31-5.1-59.8c-0.8-2.4,42.4,9.2,56.5-7.4C772.2,410.4,744.5,395,744.5,395z"/>
				</g>
				<path class="st8" d="M720.4,490.5c2.1,1.6,3.4,7.2,2.2,11.3c-1.3,4.1-4.3,12.9-3.6,16.3c-2.2,0.5-2.3,0-2.3,0s1.8-13.2,2.1-14.1
					c0.7-2.2-5.7,9.7-9.4,13.8c-3.9,4.1-10.9,4.5-18.9,2.2c-1.5-0.4-6.1-6.1-2.7-7.4c3.4-1.2,6.4-3.3,6.4-3.3s11.9,4.5,15.8-0.9
					C713.7,503.3,720.4,490.5,720.4,490.5z"/>
			</g>
		</g>
		<g>
			<g>
				<g>
					<path class="st9" d="M754.3,399.6c-17.8-1-43.7-2.2-47.8,2.2c-3,3.1-4.5,6.6-1.5,18.2c1.2,4.6,23.9,65.2,22.6,72.4
						c-1.6,9-4.8,20-15.8,24c5.7,4.2,16.5,4.4,23.1-4.5c3.5-4.8,4.3-8.2,6.5-11.2c3.7-5.1-1.9-7.1-1.8-17c0-11.8,5.3-38.7-7.4-60
						c-1.3-2.2,16.3,6.5,34.1-4.5C770,417,754.3,399.6,754.3,399.6z"/>
				</g>
				<path d="M742.8,494.2c2.1,1.6,3.4,7.2,2.2,11.3c-1.3,4.1-4.3,12.9-3.5,16.3c-2.2,0.5-2.3,0-2.3,0s1.8-13.2,2.1-14.1
					c0.7-2.2-5.7,9.7-9.4,13.8c-3.9,4.1-10.9,4.5-18.9,2.2c-1.5-0.4-6.1-6.1-2.7-7.4c3.4-1.2,6.4-3.3,6.4-3.3s11.9,4.5,15.8-0.9
					C736.2,506.9,742.8,494.2,742.8,494.2z"/>
			</g>
		</g>
		<g>
			<g>
				<path class="st13" d="M810,390c3.3,20.7-1.1,30.5-9.7,34.4c-12.6,5.7-29.2-2.7-45.1,0.1c-4.6,0.8-11.5,16.1-12.1,21.4
					c-0.9,8.5-9.9-27.1-33.3-41.3c-2.2-1.3,37.2-11.9,51.8-19.2C775.6,378.4,808,377.4,810,390z"/>
			</g>
		</g>
		<path class="st14" d="M753.5,384.1c-2,3.3-6,8.7-8.8,8.2c-34.3-6-39.9-1.3-44.6,2.9c-4.7,4.2-4.8,7.9-5.4,8.6
			c-0.7,1,8.8-2.8,14.1,0.6c5.3,3.3,12.1,8.9,13.1,10.7c1,1.9,0.4-14.3,12.2-14.3s43.4,6.2,49.6,0.1c9.7-9.5,5.4-15.5,5.4-15.5
			L753.5,384.1z"/>
		<g>
			<path class="st9" d="M773.8,335.2c0.8-3.7,0.7-9.4,4.9-14.8c1.3-8.7-3.9-10.5-7.1-11.2c0,0,24.1-25.9,25.1-15.2
				c1.3,13.7,4.8,21.5,8.2,25.4c2.1,1.3,8.6,5.4,12.3,6.6C822,333.1,772.1,342.9,773.8,335.2z"/>
			
				<linearGradient id="SVGID_1_" gradientUnits="userSpaceOnUse" x1="752.3669" y1="229.1605" x2="755.8679" y2="252.9019" gradientTransform="matrix(-1 -2.580101e-03 2.580101e-03 -1 1545.6335 559.552)">
				<stop  offset="0" style="stop-color:#FFFFFF"/>
				<stop  offset="0.1275" style="stop-color:#FBFAFA"/>
				<stop  offset="0.2889" style="stop-color:#EEEBEA"/>
				<stop  offset="0.4687" style="stop-color:#D9D2D0"/>
				<stop  offset="0.6604" style="stop-color:#BCB0AC"/>
				<stop  offset="0.7125" style="stop-color:#B3A6A1"/>
			</linearGradient>
			<path class="st17" d="M777,315.3l22.2,25.5l8.5-20.5c0,0-3.1-3-5.7-6.1c-5.3-6.5-9-21.2-9-21.2S785.8,310.2,777,315.3z"/>
		</g>
		<path class="st9" d="M738.6,381.9c-4.5-2.7-11.5-2.9-13.9-2.2c-2.5,0.7-6.8,3.6-7.9,4.4c-1,0.7,15.4,3.2,16.1,2.7
			C733.4,386.2,738.6,381.9,738.6,381.9z"/>
		<path class="st8" d="M771.2,323.9c-5.7,3.4-16.4,42.3-19.5,46.6c-3,4.4-13.3,7-16.4,8c-3,1,8.9,11.2,11.4,11.8
			c2.5,0.5,19.9-30.1,22.4-41.3C771.7,337.7,771.2,323.9,771.2,323.9z"/>
		<path d="M779.7,276.1L779.7,276.1L779.7,276.1L779.7,276.1L779.7,276.1L779.7,276.1z"/>
		<path class="st7" d="M798.2,320c-2.4,1.6-14.8,10.2-17.9,10.2c0,0-5.9-5.1-1.9-10.6c1.4-2-2.3,3-3.7,3c-1.3,0-21.1,58.3-15.8,63.3
			c5.2,4.9,18.3,1.1,22.5-2.4c4.2-3.5,27.4-62.9,27.4-62.9L798.2,320z"/>
		<path d="M803.8,314.2c-1.8-1.7-11.8,16.4-25.1,42.6c-0.8,1.6-5.1,9.7-5.4,26.1c-0.1,5.5-7.3,26.6,3,29.5c8.3,2.4,35,6.4,42.8,2.5
			c3.6-1.8-6.3-18.3-3.6-32.3s7.3-20.4,10-27.4c5.3-13.2,2.2-26.8,2.2-26.8C823.5,324.3,815.8,325.7,803.8,314.2z"/>
		<path d="M778.3,319.7c-2.4,1.9-2.5,0.9-5.5,2.5c-3,1.6-10.3,23.6-10.9,29.8s-3,15.6-6,20c-3,4.4-10.2,8.2-11.7,10.2
			c-1.5,1.9,3.5,4.9,7.5,5.4c4,0.5,10.7-2.4,11.2-5.4c0.5-2.9-0.5-19.2,1.5-28.4C766.3,344.4,778.3,319.7,778.3,319.7z"/>
		<path class="st7" d="M781.7,313.2c-0.7,0.8-9.9,13.2-11.3,14.4c2.6,0.4,4-2.9,5.3-0.1c0.8,1.7,2.1,0.4,2.1,0.4s1-7.9,1.7-9.4
			C780.2,317.1,781.7,313.2,781.7,313.2z"/>
		<path class="st7" d="M782.5,330.6c4.7-2.1,15.3-0.6,17.7,1.2c0,0,8.3-11.9,7.3-13.2c-0.4-0.5-5.7-8.5-5.7-8.5s-1.3,5.4-5.5,9.6
			C791.5,324.4,792.1,324.1,782.5,330.6z"/>
		<g>
			<polygon class="st2" points="787.5,397.4 742,399.6 711.9,382.5 758.1,384.3 			"/>
			<polygon class="st7" points="777.7,394.4 741.7,395.4 721.2,384.5 757.8,386.6 			"/>
		</g>
		<g>
			<g>
				<g>
					<g>
						<g>
							<path class="st7" d="M762.6,372.9c0.3,0.6,0.4,0.8,0.4,1c0,0.1-0.1,0.6-0.6,1.1c-0.4,0.4-2.8,3.1-5,4.1
								c-0.2,0.1-0.3-0.1-0.2-0.2c0-0.2,0.7-1.2,0.9-1.2c0.1,0,0.4,0.1,0.7,0.1c0.2-0.1,2.7-2.9,2.8-3.1c0.1-0.1-0.1-0.3-0.2-0.4
								C761.9,373.7,762.6,372.9,762.6,372.9z"/>
						</g>
					</g>
				</g>
				<path d="M744.5,389.7c0,0-0.2,0.5-0.1,0.6c0.1,0.1,0.6-0.1,0.6-0.1L744.5,389.7z"/>
				<path class="st18" d="M744.5,389.7c0.2-0.6,1.3-2,1.5-2.2l1.2,1c-0.4,0.4-1.9,1.4-2.2,1.6C744.8,389.8,744.5,389.7,744.5,389.7z
					"/>
				<path class="st19" d="M745.9,387.4c0.4-0.7,8.3-9.4,8.3-9.4l2,1.8c0,0-8.4,8.2-9.1,8.7C746.4,387.9,746.1,387.6,745.9,387.4z"/>
				<path class="st20" d="M761.7,372.1L761.7,372.1L761.7,372.1l-1-1c0.1-0.1,1.1-1.3,2.2-0.4l0,0l0,0l0,0l0,0c1,1-0.1,2.1-0.2,2.2
					L761.7,372.1L761.7,372.1L761.7,372.1z"/>
				<path class="st19" d="M755.5,378.7l-0.3-0.2l0.1-0.1l-0.7-0.7c0.1-0.1,6-6.5,6.4-6.8c0.4,0.4,0.8,0.7,1,0.9
					c0.2,0.1,0.5,0.4,1,0.9c-0.2,0.4-6.3,6.6-6.4,6.7l-0.7-0.5l-0.1,0.1L755.5,378.7z"/>
				<g>
					<g>
						<path class="st21" d="M754.2,378.1l1,0.9l-8.6,9.1c-0.3-0.3-0.5-0.4-0.6-0.5C746.4,386.8,754.2,378.1,754.2,378.1z"/>
						<path class="st21" d="M755.2,378.4l-0.7-0.7c0.1-0.1,6.1-6.5,6.5-6.8c0.4,0.4,0.7,0.6,1,0.9l-6.5,6.8L755.2,378.4L755.2,378.4
							z"/>
					</g>
				</g>
				<g>
					<g>
						<g>
							<path class="st7" d="M762.9,370.8l-1,1l-1-0.9C761,370.8,762,370,762.9,370.8z"/>
						</g>
						<g>
							<path class="st7" d="M754.1,378l0.4-0.4h0.1l1,0.9l-0.5,0.6L754.1,378C754.1,378.1,754.1,378,754.1,378z"/>
						</g>
					</g>
				</g>
			</g>
			<path class="st9" d="M779,381c-2.4,0.5-9.1-0.7-11.5-0.8c-4.2-0.1-11.9-2.4-13.3-1.9c-1.4,0.4-3.7,1-5,1.7c-1.9,1-1.9,2.2-1,3
				c0.4,0.4,1.3,0.2,1.3,0.2s-1.5,1-1.5,1.8c0.1,1.6,0.9,1.3,2.1,1.5c-1.4,0.7-1.6,2.5,0.6,2.6c-1.3,1.4-0.4,1.7,3.1,2.4
				c1.9,0.4,12.4-0.7,15.2-1.3c2.8-0.6,10.5-0.3,10.5-0.3L779,381z"/>
			<polygon class="st7" points="769.9,377.7 765.2,379.3 768.2,394.3 775.9,392.6 			"/>
			<path class="st8" d="M824.9,327.2c5.7,1.5,7.4,9.9,6,16.7c-1.5,6.8-6.2,36.3-11.5,41c-7.3,6.4-48.4,13.3-48.4,13.3
				s-1.2-18.5-2.7-19.5c-1.5-1,31.5-5.1,33.5-9c2-3.9,8-31.6,11.8-36.3C816.2,330.2,817.4,325.3,824.9,327.2z"/>
		</g>
		<path class="st9" d="M735.5,381.9c-0.6,1.1-3.7,2-6,1.6c-2.3-0.5-3.6,0.1-5.2,0.3c-1.2,0.1-3-0.4-1.4-1.2c2.2-1.1,4.8-1.9,4.8-1.9
			s4.5-1.4,7.2,0.1L735.5,381.9z"/>
		<g>
			<g>
				<g>
					<path class="st9" d="M796.5,288.6c-1.8-14.4-7.1-22.5-18.7-21.1c-11.7,1.3-15.5,11.2-13.8,25.5c0.3,2.2,2.2,17.9,11.7,25
						c2.3,1.7,4,0.2,6.5-0.5C793.4,314.1,798.2,302.9,796.5,288.6z"/>
					<path class="st8" d="M771.2,284c-4.6,0-7.1,4.1-7.7,8.6c-6-11.9,5.1-24.6,13.6-25.1c6.5-0.3,10.6-0.1,10.5,2
						C787.4,271.7,771.2,284,771.2,284z"/>
					<path d="M768.9,283.7c2.8,0.7,17.4-0.6,21.3,10.6c0,0,3-5.3,4.8-2.8c3.5,5.1-1,9.4-1,9.4l2.3,6.8c0,0,9.4-5.9,9.9-20.7
						c0.6-16.9-18.1-25.2-30.1-20.2C770.2,269.4,768.9,283.7,768.9,283.7z"/>
				</g>
			</g>
			<path d="M793.5,301.2c1,4-3.3,16.7-4.2,17.9c5.6,0.1,16.9-10.7,17.8-13.4c1-2.7,2.4-22.6-3.8-29c-4.3-4.5-2.4,8.3-3,12.7
				C799.7,293.8,793.5,301.2,793.5,301.2z"/>
		</g>
		<path class="st2" d="M782.7,532.4c0-6.1,3-91.4,4.9-105.5l0,0c1-7.4,1.5-15.4,3.7-21.1l0,0c2.4-5.7,5.3-8.9,12.9-9.3l0,0
			c1.2-0.1,2.5-0.1,3.9-0.1l0,0c13.1,0,32.1,1.9,40.4,3.1l0,0l0.8-5.8c-8.6-1.1-27.5-3.1-41.2-3.1l0,0c-1.4,0-2.8,0-4.1,0.1l0,0
			c-9.9,0.1-15.8,6.1-18.2,13.1l0,0c-2.7,7-3,15.3-4,22.4l0,0c-1.9,15.1-4.9,99.5-5,106.2l0,0l0,0L782.7,532.4L782.7,532.4z"/>
	</g>
	<g>
		<polygon class="st15" points="550.7,322.5 561.2,324.5 562.6,317.8 552.1,315.8 		"/>
		<polygon class="st4" points="552.2,317.8 561.8,319.7 562.1,318.3 552.4,316.5 		"/>
	</g>
	<g>
		<g>
			<g>
				<g>
					<path class="st13" d="M640.6,522.8c0,0.7,0.4,1.2,1.1,1.2h8.7c0.6,0,1.1-0.5,1.1-1.2l0.1-69.6c0-0.7-0.5-1.2-1.1-1.2h-8.7
						c-0.6,0-1.1,0.5-1.1,1.2L640.6,522.8z"/>
					<path class="st13" d="M342.8,522c0,0.7,0.5,1.2,1.1,1.2h9.1c0.7,0,1.1-0.5,1.1-1.2l0.1-69.6c0-0.7-0.5-1.2-1.1-1.2h-9.1
						c-0.7,0-1.1,0.5-1.1,1.2L342.8,522z"/>
				</g>
			</g>
			<path class="st14" d="M317.3,451.7c-1.1,0.7,0.7,1.6,1.7,1.6l357.3,0.9c1,0,1.6-1.1,0.3-1.9l-21.8-14.9c-1-0.5-2.5-0.9-3.3-0.9
				l-312.3-0.8c-0.9,0-2.2,0.4-3,0.9L317.3,451.7z"/>
			<g>
				<path class="st13" d="M316.6,472.4c0,1.2,0.7,2.1,1.6,2.1l358.3,0.9c0.9,0,1.6-0.9,1.6-2.1l0.1-18.8c0-1.2-0.7-2.1-1.6-2.1
					l-358.3-0.9c-0.9,0-1.6,1-1.6,2.1L316.6,472.4z"/>
				<path class="st13" d="M665,548.3c0,0.8,0.6,1.5,1.3,1.5h10.4c0.7,0,1.3-0.7,1.3-1.5l0.2-83.2c0-0.8-0.6-1.5-1.3-1.5h-10.4
					c-0.7,0-1.3,0.7-1.3,1.5L665,548.3z"/>
				<path class="st13" d="M316.5,547.5c0,0.8,0.6,1.5,1.3,1.5h10.9c0.7,0,1.3-0.7,1.3-1.5l0.2-83.2c0-0.8-0.6-1.5-1.3-1.5h-10.9
					c-0.7,0-1.3,0.7-1.3,1.5L316.5,547.5z"/>
			</g>
		</g>
		<g>
			<g>
				<path class="st22" d="M619.4,423.1c0,0.5,3.3,1,7.4,1c4.1,0.1,7.5-0.4,7.5-0.9s-3.3-1-7.4-1
					C622.8,422.2,619.4,422.5,619.4,423.1z"/>
				<path class="st23" d="M619.4,423L619.4,423C619.5,423.1,619.4,423.1,619.4,423L619.4,423z M634.3,423.1L634.3,423.1
					C634.3,423.2,634.3,423.2,634.3,423.1L634.3,423.1z M626.8,424.1c3.9,0.1,7.1-0.3,7.4-0.8l-2.8,21l0,0c0,0.4-2.9,0.7-5.7,0.7
					c-2.7,0-4.2-0.4-4.4-0.7l0,0l-2.1-21.2C619.5,423.7,622.8,424.1,626.8,424.1z M634.4,423.3L634.4,423.3L634.4,423.3
					C634.3,423.2,634.4,423.2,634.4,423.3z M619.4,423.1L619.4,423.1L619.4,423.1L619.4,423.1z"/>
			</g>
			<g class="st24">
				<g class="st25">
					<path class="st7" d="M631.5,444.3c0,0.4-2.3,0.7-5.7,0.7c-2.7-0.1-4.2-0.4-4.4-0.7l0,0l-1.6-16.5c2.5,0.7,9.9,1.3,13.8,0.2
						L631.5,444.3C631.5,444.3,631.5,444.3,631.5,444.3z"/>
				</g>
				<g class="st26">
					<path class="st7" d="M621.5,444.3L621.5,444.3l-1.6-16.5c1.3,0.4,4.2,0.7,7.1,0.8l-0.4,16.4c-0.2,0-0.4,0-0.6,0
						C623.2,444.9,621.6,444.6,621.5,444.3z"/>
				</g>
			</g>
		</g>
		<g>
			<g>
				<path class="st22" d="M525.8,420.4c0,0.5,3.3,1,7.4,1c4.1,0.1,7.5-0.4,7.5-0.9s-3.3-1-7.4-1
					C529.1,419.5,525.8,419.9,525.8,420.4z"/>
				<path class="st23" d="M525.8,420.3L525.8,420.3C525.8,420.4,525.8,420.4,525.8,420.3L525.8,420.3z M540.6,420.5L540.6,420.5
					L540.6,420.5L540.6,420.5z M533.2,421.4c3.9,0.1,7.1-0.3,7.4-0.8l-2.8,21l0,0c0,0.4-2.9,0.7-5.7,0.7c-2.7,0-4.2-0.4-4.4-0.7l0,0
					l-2.1-21.2C525.8,421,529.1,421.4,533.2,421.4z M540.7,420.6L540.7,420.6L540.7,420.6C540.6,420.5,540.7,420.5,540.7,420.6z
					 M525.8,420.5C525.8,420.4,525.8,420.4,525.8,420.5C525.8,420.4,525.8,420.4,525.8,420.5L525.8,420.5z"/>
			</g>
			<g class="st24">
				<g class="st25">
					<path class="st7" d="M537.9,441.7c0,0.4-2.3,0.7-5.7,0.7c-2.7-0.1-4.2-0.4-4.4-0.7l0,0l-1.6-16.5c2.5,0.7,9.9,1.3,13.8,0.2
						L537.9,441.7C537.8,441.6,537.9,441.7,537.9,441.7z"/>
				</g>
				<g class="st26">
					<path class="st7" d="M527.8,441.6L527.8,441.6l-1.6-16.5c1.3,0.4,4.2,0.7,7.1,0.8l-0.4,16.4c-0.2,0-0.4,0-0.6,0
						C529.5,442.3,528,441.9,527.8,441.6z"/>
				</g>
			</g>
		</g>
		<g>
			<polygon class="st27" points="555.5,429.8 552.4,442.3 567.3,442.3 			"/>
			<polygon class="st7" points="559.2,446.3 602.9,446.4 599.2,429.9 555.5,429.8 			"/>
			<polygon class="st15" points="556,430.4 599.2,430.3 599.1,429.9 555.7,429.8 			"/>
			<g>
				<polygon class="st15" points="563.2,435.6 594.3,435.6 593.6,433.6 562.6,433.5 				"/>
				<polygon class="st15" points="568.9,440 590.4,440.1 589.8,437.9 568.6,437.9 				"/>
			</g>
		</g>
		<g>
			<polygon class="st27" points="453.7,428.6 456.9,441.1 441.9,441.1 			"/>
			<polygon class="st7" points="450,445 406.3,444.9 410.1,428.5 453.7,428.6 			"/>
			<polygon class="st15" points="453.3,429.2 410,428.9 410.2,428.5 453.6,428.6 			"/>
			<g>
				<polygon class="st15" points="446.1,434.3 415.1,434.2 415.7,432.2 446.7,432.3 				"/>
				<polygon class="st15" points="440.4,438.8 418.9,438.8 419.5,436.5 440.7,436.6 				"/>
			</g>
		</g>
		<g>
			<polygon class="st27" points="478.7,429.6 475.6,442.1 490.6,442.1 			"/>
			<polygon class="st7" points="477,446.1 526.1,446.1 522.4,429.7 478.7,429.6 			"/>
			<polygon class="st15" points="479.2,430.1 522.5,430.1 522.3,429.7 478.9,429.6 			"/>
			<g>
				<polygon class="st15" points="484.9,435.6 516.7,435.6 516,433.6 485.1,433.5 				"/>
				<polygon class="st15" points="490.3,440 512.4,440.1 511.8,437.9 490.6,437.9 				"/>
			</g>
		</g>
		<g>
			<path class="st28" d="M367,442.2c1.2-0.1,1.9-1.5,1.9-3.2l0,0l0.1-23.6c0-1.6-1.9-3.9-3.2-4.8l0,0c-0.3-0.4-0.4-0.2-0.4-1l0,0
				c0-0.2,0-0.5,0-0.8l0,0v-0.2h-0.3c-1.8-0.1-2.5-0.1-2.5,0.1l0,0l-0.2-0.2c0,0,0,0-0.1,0l0,0c-0.1,0-0.1,0-0.4,0.2l0,0l0.2-0.2
				c-0.3,0-1,0-2.8,0.1l0,0H359l0.1,0.3c0.1,0.4,0.1,0.7,0.1,0.9l0,0c0,0.6-0.2,0.6-0.5,0.9l0,0c-1.3,1-3.2,3.1-3.2,4.8l0,0
				l-0.1,23.6c0,1.6,0.7,3.1,1.9,3.2l0,0L367,442.2L367,442.2z M364.8,409.7c0,0.9,0.3,1.1,0.5,1.4l0,0c1.2,0.7,3,3.1,3,4.4l0,0
				l-0.1,23.6c0,1.6-0.7,2.7-1.4,2.7l0,0h-9.6c-0.7,0-1.4-1.1-1.4-2.7l0,0l0.1-23.6c0-1.3,1.8-3.5,3-4.4l0,0l-0.1-0.2l0.2,0.1
				c0.1-0.2,0.6-0.5,0.6-1.3l0,0c0-0.2,0-0.4-0.1-0.7l0,0c1.3-0.1,2-0.1,2.5-0.2l0,0l0.1,0.1l-0.1,0.1c0,0,0,0,0.1,0l0,0
				c0.1,0,0.1,0,0-0.1l0,0l0.1,0.1c0.3,0,1,0,2.5,0.1l0,0C364.8,409.3,364.8,409.5,364.8,409.7L364.8,409.7z M362.2,408.9
				C362.2,408.9,362.2,408.8,362.2,408.9L362.2,408.9c0-0.1,0.1-0.1,0.1-0.1l0,0L362.2,408.9L362.2,408.9z"/>
			<g>
				<path class="st29" d="M358.9,410.9c0.3-0.4,0.8-0.5,0.4-2.1c1.8-0.1,2.5-0.1,2.8-0.1l0,0c0,0,0,0,0.1,0c0.1,0,0.1,0,0.1,0l0,0
					c0.3,0,1,0.1,2.8,0.1c-0.1,1.7,0.1,1.6,0.4,2.1c1,0.4,3.1,3.1,3.1,4.6l-0.1,23.5c0,1.6-0.7,2.9-1.6,2.9h-9.6
					c-0.9,0-1.6-1.3-1.6-2.9l0.1-23.5C355.8,414,357.9,411.4,358.9,410.9z"/>
				<path class="st30" d="M356.4,420.2l-0.1,18.4c0,1.5,0.7,2.8,1.5,2.8h8.7c0.8,0,1.5-1.2,1.5-2.8l0.2-18.4
					C368.3,420.2,363.3,420.8,356.4,420.2z"/>
				<path class="st31" d="M356.4,420.1c0,0.2,2.6,0.4,5.9,0.4c3.3,0,5.9-0.1,5.9-0.3c0-0.1-2.6-0.4-5.9-0.4
					C359.1,419.8,356.4,419.9,356.4,420.1z"/>
				<path class="st15" d="M364.6,438.3l0.1-23.2c0-1.5-2.1-4.1-3.1-4.5c-0.3-0.4-0.4-0.4-0.4-1.6c0.4,0,0.7,0,0.8,0l0,0
					c0,0,0,0,0.1,0c0.1,0,0.1,0,0.1,0l0,0c0.3,0,1,0,2.8,0.1c-0.1,1.7,0.1,1.6,0.4,2c1,0.4,3.1,3.1,3.1,4.5l-0.1,23.2
					c0,1.6-0.7,2.9-1.6,2.9h-9.5c-0.3,0-0.6-0.2-0.9-0.5h6.6C364,441.1,364.6,439.9,364.6,438.3z"/>
				
					<linearGradient id="SVGID_2_" gradientUnits="userSpaceOnUse" x1="1183.5985" y1="144.9536" x2="1183.7277" y2="149.9051" gradientTransform="matrix(-1 -2.580101e-03 2.580101e-03 -1 1545.6335 559.552)">
					<stop  offset="0.1044" style="stop-color:#FFFFFF"/>
					<stop  offset="0.1729" style="stop-color:#EFEFEF"/>
					<stop  offset="0.3064" style="stop-color:#C6C6C6"/>
					<stop  offset="0.4919" style="stop-color:#838383"/>
					<stop  offset="0.7199" style="stop-color:#272727"/>
					<stop  offset="0.8132" style="stop-color:#000000"/>
				</linearGradient>
				<polygon class="st32" points="359.3,409 361.3,413.8 365.5,412.8 364.9,408.9 				"/>
				<g>
					<path class="st33" d="M359,409.4v-2.2c0-0.7,0.4-1.3,0.9-1.3h5.1c0.4,0,0.8,0.6,0.8,1.3v2.2H359z"/>
					<g>
						<path class="st7" d="M359.4,408.8c0,0.1,0.1,0.1,0.1,0.1l0,0c0.1,0,0.1-0.1,0.1-0.1v-1.9c0-0.1-0.1-0.1-0.1-0.1l0,0
							c-0.1,0-0.1,0.1-0.1,0.1V408.8z"/>
						<path class="st7" d="M360,408.8c0,0.1,0.1,0.1,0.1,0.1l0,0c0.1,0,0.1-0.1,0.1-0.1v-1.9c0-0.1-0.1-0.1-0.1-0.1l0,0
							c-0.1,0-0.1,0.1-0.1,0.1V408.8z"/>
						<path class="st7" d="M360.7,408.8c0,0.1,0.1,0.1,0.1,0.1l0,0c0.1,0,0.1-0.1,0.1-0.1v-1.9c0-0.1-0.1-0.1-0.1-0.1l0,0
							c-0.1,0-0.1,0.1-0.1,0.1V408.8z"/>
						<path class="st7" d="M361.3,408.8c0,0.1,0.1,0.1,0.1,0.1l0,0c0.1,0,0.1-0.1,0.1-0.1v-1.9c0-0.1-0.1-0.1-0.1-0.1l0,0
							c-0.1,0-0.1,0.1-0.1,0.1V408.8z"/>
						<path class="st7" d="M361.9,408.8c0,0.1,0.1,0.1,0.1,0.1l0,0c0.1,0,0.1-0.1,0.1-0.1v-1.9c0-0.1-0.1-0.1-0.1-0.1l0,0
							c-0.1,0-0.1,0.1-0.1,0.1V408.8z"/>
						<path class="st7" d="M362.5,408.8c0,0.1,0.1,0.1,0.1,0.1l0,0c0.1,0,0.1-0.1,0.1-0.1v-1.9c0-0.1-0.1-0.1-0.1-0.1l0,0
							c-0.1,0-0.1,0.1-0.1,0.1V408.8z"/>
						<path class="st7" d="M363.1,408.8c0,0.1,0.1,0.1,0.1,0.1l0,0c0.1,0,0.1-0.1,0.1-0.1v-1.9c0-0.1-0.1-0.1-0.1-0.1l0,0
							c-0.1,0-0.1,0.1-0.1,0.1V408.8z"/>
						<path class="st7" d="M363.7,408.8c0,0.1,0.1,0.1,0.1,0.1l0,0c0.1,0,0.1-0.1,0.1-0.1v-1.9c0-0.1-0.1-0.1-0.1-0.1l0,0
							c-0.1,0-0.1,0.1-0.1,0.1V408.8z"/>
						<path class="st7" d="M364.3,408.8c0,0.1,0.1,0.1,0.1,0.1l0,0c0.1,0,0.1-0.1,0.1-0.1v-1.9c0-0.1-0.1-0.1-0.1-0.1l0,0
							c-0.1,0-0.1,0.1-0.1,0.1V408.8z"/>
						<path class="st7" d="M364.9,408.8c0,0.1,0.1,0.1,0.1,0.1l0,0c0.1,0,0.1-0.1,0.1-0.1v-1.9c0-0.1-0.1-0.1-0.1-0.1l0,0
							c-0.1,0-0.1,0.1-0.1,0.1V408.8z"/>
					</g>
				</g>
			</g>
		</g>
		<g>
			<path class="st28" d="M651.5,414.2c0.3-0.4,0.8-0.5,0.4-2.1c1.8-0.1,2.5-0.1,2.8-0.1l0,0c0,0,0,0,0.1,0c0.1,0,0.1,0,0.1,0l0,0
				c0.3,0,1,0.1,2.8,0.1c-0.1,1.7,0.1,1.6,0.4,2.1c1.3,0.8,3.1,3.1,3.1,4.6l-0.1,23.6c0,1.6-0.7,2.9-1.6,2.9h-9.6
				c-0.9,0-1.6-1.3-1.6-2.9l0.1-23.6C648.4,417.3,650.2,415.2,651.5,414.2z"/>
			<g>
				<path class="st34" d="M649,423.6l-0.1,18.4c0,1.5,0.7,2.8,1.5,2.8h8.7c0.8,0,1.5-1.2,1.5-2.8l0.2-18.4
					C660.8,423.5,655.9,424.2,649,423.6z"/>
				<path class="st30" d="M649.1,423.4c0,0.2,2.6,0.4,5.9,0.4c3.2,0,5.9-0.1,5.9-0.3c0-0.1-2.6-0.4-5.9-0.4S649.1,423.3,649.1,423.4
					z"/>
				<path class="st35" d="M657.3,441.7l0.1-23.2c0-1.5-2.1-4.1-3.1-4.5c-0.3-0.4-0.4-0.4-0.4-1.6c0.4,0,0.7,0,0.8,0l0,0
					c0,0,0,0,0.1,0c0.1,0,0.1,0,0.1,0l0,0c0.3,0,1,0.1,2.8,0.1c-0.1,1.7,0.1,1.6,0.4,2c1,0.4,3.1,3.1,3.1,4.5l-0.1,23.2
					c0,1.6-0.7,2.9-1.6,2.9h-9.5c-0.3,0-0.6-0.2-0.9-0.5h6.6C656.5,444.5,657.3,443.2,657.3,441.7z"/>
				
					<linearGradient id="SVGID_3_" gradientUnits="userSpaceOnUse" x1="890.982" y1="142.3681" x2="891.1111" y2="147.319" gradientTransform="matrix(-1 -2.580101e-03 2.580101e-03 -1 1545.6335 559.552)">
					<stop  offset="0.1044" style="stop-color:#FFFFFF"/>
					<stop  offset="0.1729" style="stop-color:#EFEFEF"/>
					<stop  offset="0.3064" style="stop-color:#C6C6C6"/>
					<stop  offset="0.4919" style="stop-color:#838383"/>
					<stop  offset="0.7199" style="stop-color:#272727"/>
					<stop  offset="0.8132" style="stop-color:#000000"/>
				</linearGradient>
				<polygon class="st36" points="651.8,412.4 653.9,417.2 658.2,416.1 657.5,412.3 				"/>
				<g>
					<path class="st37" d="M651.6,412.7v-2.2c0-0.7,0.4-1.3,0.9-1.3h5.1c0.4,0,0.9,0.6,0.9,1.3v2.2H651.6z"/>
					<g>
						<path class="st7" d="M652.1,412.1c0,0.1,0.1,0.1,0.1,0.1l0,0c0.1,0,0.1-0.1,0.1-0.1v-1.9c0-0.1-0.1-0.1-0.1-0.1l0,0
							c-0.1,0-0.1,0.1-0.1,0.1V412.1z"/>
						<path class="st7" d="M652.7,412.1c0,0.1,0.1,0.1,0.1,0.1l0,0c0.1,0,0.1-0.1,0.1-0.1v-1.9c0-0.1-0.1-0.1-0.1-0.1l0,0
							c-0.1,0-0.1,0.1-0.1,0.1V412.1z"/>
						<path class="st7" d="M653.3,412.1c0,0.1,0.1,0.1,0.1,0.1l0,0c0.1,0,0.1-0.1,0.1-0.1v-1.9c0-0.1-0.1-0.1-0.1-0.1l0,0
							c-0.1,0-0.1,0.1-0.1,0.1V412.1z"/>
						<path class="st7" d="M653.9,412.1c0,0.1,0.1,0.1,0.1,0.1l0,0c0.1,0,0.1-0.1,0.1-0.1v-1.9c0-0.1-0.1-0.1-0.1-0.1l0,0
							c-0.1,0-0.1,0.1-0.1,0.1V412.1z"/>
						<path class="st7" d="M654.5,412.1c0,0.1,0.1,0.1,0.1,0.1l0,0c0.1,0,0.1-0.1,0.1-0.1v-1.9c0-0.1-0.1-0.1-0.1-0.1l0,0
							c-0.1,0-0.1,0.1-0.1,0.1V412.1z"/>
						<path class="st7" d="M655.1,412.1c0,0.1,0.1,0.1,0.1,0.1l0,0c0.1,0,0.1-0.1,0.1-0.1v-1.9c0-0.1-0.1-0.1-0.1-0.1l0,0
							c-0.1,0-0.1,0.1-0.1,0.1V412.1z"/>
						<path class="st7" d="M655.7,412.1c0,0.1,0.1,0.1,0.1,0.1l0,0c0.1,0,0.1-0.1,0.1-0.1v-1.9c0-0.1-0.1-0.1-0.1-0.1l0,0
							c-0.1,0-0.1,0.1-0.1,0.1V412.1z"/>
						<path class="st7" d="M656.4,412.1c0,0.1,0.1,0.1,0.1,0.1l0,0c0.1,0,0.1-0.1,0.1-0.1v-1.9c0-0.1-0.1-0.1-0.1-0.1l0,0
							c-0.1,0-0.1,0.1-0.1,0.1V412.1z"/>
						<path class="st7" d="M657,412.1c0,0.1,0.1,0.1,0.1,0.1l0,0c0.1,0,0.1-0.1,0.1-0.1v-1.9c0-0.1-0.1-0.1-0.1-0.1l0,0
							c-0.1,0-0.1,0.1-0.1,0.1V412.1z"/>
						<path class="st7" d="M657.6,412.1c0,0.1,0.1,0.1,0.1,0.1l0,0c0.1,0,0.1-0.1,0.1-0.1v-1.9c0-0.1-0.1-0.1-0.1-0.1l0,0
							c-0.1,0-0.1,0.1-0.1,0.1V412.1z"/>
					</g>
				</g>
			</g>
		</g>
	</g>
</g>
<g>
	<g>
		<path class="st8" d="M309,302.8c-2.5-22.5-9.2-70.7-11.5-74.1l0,0c-2.5-3.1-24.1-14.9-24.3-15l0,0l-0.9,1.6c0,0,5.5,3.1,11.2,6.3
			l0,0c5.7,3.3,11.8,7.2,12.4,8.1l0,0c1.6,1.9,8.9,51.2,11.2,73.3l0,0L309,302.8L309,302.8z"/>
		<path class="st8" d="M263.9,212.2c0,3,2.5,5.4,5.6,5.4s5.6-2.4,5.6-5.4s-2.5-5.4-5.6-5.4S263.9,209.2,263.9,212.2z"/>
	</g>
	<path d="M195.7,231.1c-2.1-1.6-4.2,3.5-8.6,15c-8.2,21.6-22.4,54.7-17.2,58.7c0,0,7,6.3,16.8-0.3c4.3-2.9,6.2-6.8,8.9-15.8
		c3.3-11.5,7.7-24.9,7.4-27.5C202.5,256.6,195.7,231.1,195.7,231.1z"/>
	<path class="st12" d="M226.7,183.5c-22.9-6.9-16.5,51.5-10,72.2c5.2,16.7-4.2,27.8-4.2,28.4c0.8,5.5,10,0.7,10,0.7
		c29-64.6,5.2-95.3,3.9-98.2C225.1,183.7,226.7,183.5,226.7,183.5z"/>
	<path class="st9" d="M248.8,249.5L220,224c0,0,10.2-0.7,8.9-30.5l9.7,8.8l0,0h0.1h0.1l0,0l11.4,0.6c-4.9,21.2,5.5,21.1,5.5,21.1
		L248.8,249.5z"/>
	<path class="st9" d="M239.4,202L239.4,202L239.4,202L239.4,202L239.4,202l10.1,0.5c0,0.7,1,4.2,1.4,7.3
		c-2.5,3.6-24.3,25.2-29.1,25.6c-1.7,0.1-3.9-8.2-1.1-10.9c5.7-5.5,7-10.6,7.5-14.7c0.2-1.9,0.4-9.3,0.4-12.2L239.4,202z"/>
	<g>
		<path class="st9" d="M223.4,187.9c1.2,14.1,14.1,26.2,23.8,25.2c6.8-0.7,12.4-8.9,16.4-26.8c3.3-14.7-1.2-27.6-20.6-28.3
			C224.6,157.3,222.1,173.1,223.4,187.9z"/>
	</g>
	<path class="st12" d="M237.9,173c8.7-5.1,25.1,1.7,26,8c3.8-7-1.9-22.1-13.5-24.3c-13.7-2.6-17.5-1.5-18,2.8
		C231.9,165.1,237.9,173,237.9,173z"/>
	<path class="st12" d="M232.7,158.3c-6.2-2.2-21.4,7.6-15.2,30c3.5,12.8,10,15.3,10,15.3l1.1-19.5l10.3-12.1L232.7,158.3z"/>
	<path class="st38" d="M231,183.2c-1.7-1.2-4.8-2.5-5.4-0.2c-0.5,2.2-0.7,11,1.9,11.8C230.3,195.6,231,183.2,231,183.2z"/>
	<path class="st9" d="M213.4,525.4c2.4,19.8-3.2,25.5-5.7,31.2c-2.5,5.4,15,6.5,15,6.5s8-6.8,7.7-14.5c-0.1-2.4-1.1-8-1.1-10.5
		c0.1-4.7-0.7-11.9,0-15.9C231,512.5,213.4,525.4,213.4,525.4z"/>
	<path class="st8" d="M208.9,552.8c0,6,0.6,7.1,4.7,7.6c3,0.3,13.8-3.3,16.1-16.9c5.1,13.7-0.3,12.5-0.4,15.8
		c-0.4,8.3-11.7,13.8-19.2,13.8c-4.2,0-5-5.1-4.6-11.6C205.8,556.2,208.9,552.8,208.9,552.8z"/>
	<path d="M218.4,322.6c-5.2,4.7-16.6,15.6-17,34.5c-0.4,18.9,2.5,36.7,2.5,36.7c0,4.3,3.8,58.5,3.8,58.5s-11.8,40.8,3.9,91.4
		c6.5,6,15.8,3.5,23-1.9c-0.5-14.4-1.6-55.8,0.6-91.4c0.7-10.2,8.3-68.4,10.9-79.4c5.6-23.7,5-36.4,5-36.4L218.4,322.6z"/>
	<g>
		<g>
			<path class="st38" d="M288.6,518.7c1.9,21.7,7.9,28.4,20,34.2c5.6,2.7-3.4,9.9-3.4,9.9s-17.2-4.3-24.8-8.3
				c-10.2-5.5-4.3-10.2-4.8-31.8C275.3,512.9,288.6,518.7,288.6,518.7z"/>
			<path d="M307.1,551.7c1.9,2.5,1.3,5-2.3,5.6c-5.3,0.8-19.9-3.6-30.9-12.7c-5.7,18.3,1.9,17.3,13,16.4c2.5-0.1,12.9,12.1,34.5,5.1
				c3.9-1.3-0.7-6.1-6.7-9.4C308.9,553.6,307.1,551.7,307.1,551.7z"/>
		</g>
		<path d="M265.1,315.6c7.1,15.1,10.6,43.7,10.6,43.7s7.2,82.5,9,93.8c7.2,45.8,12.9,88.7,12.9,88.7l-29.3,8.6
			c0,0-18-74.3-14.4-91.3c-8.1-40.9-13.5-54.8-18-86.9l-8.4-25.8L265.1,315.6z"/>
	</g>
	<g>
		<path d="M271.6,264.9c-0.4-16.1,1.6-36.2,8.3-34c0.9,0.3,3.8,0.7,5,3.9c5.7,15.5,11.5,47.9,14.1,55.6c5,14.4,0,21.6,0,21.6
			l-26.8-5.1c0,0,3.9-14.4,2.5-15.9C274.7,290.9,272,279.9,271.6,264.9z"/>
	</g>
	<g>
		<path class="st8" d="M206.5,451.9c0,0-4.8-54.4-4.8-58.7c0,0-0.6-17.2-0.1-36c0.4-18.9,4.8-32.5,10-37.1l9.4,8.3
			c-12.9,36.7-11.5,102-7.1,120.9c1.9,8.1,1,16.9,0.4,21.9c-2,17.3-1,55,3.5,76c-1.3-0.5-7.4-1.1-9.7-3.9
			C200.2,506.7,206.5,451.9,206.5,451.9z"/>
	</g>
	<path class="st7" d="M270.8,231.6c1.6,3.1-1.6,28.6-1.6,33.6s-7.8,60.1-12.9,63.5c-5.8,3.2-22.9,4.2-38.8-2.3c0,0-4-10-3.5-30.9
		c0.7-31.7-15.4-61.4-11.8-62.3c15.1-4,16.8-10.2,19.3-11.6c0,0,3.9,9.8,12.2,11.5c15.5,3,21.5-13.7,19.8-11.2
		C252.7,222.9,269.6,229.3,270.8,231.6z"/>
	<path d="M200.6,296.5c0,1.1-13.8,14.2-28.2,9.2c-2.9-8.6,2-18.4,4.9-20.3c2.9-1.9,18.7-6.7,18.7-6.7L200.6,296.5z"/>
	<path d="M257.9,223.6c3.9,1.1,21.2,6.8,21.2,6.8s-9,21.6-6.8,41.6c0,0-3.3,29.5-2.5,34.4c0.8,4.9,10.6,37.4,8.6,39.7
		s-34.9,2.5-39.6,1.3s-3.8-46.2-3.8-53c0-6.8-0.2-14.6,3.5-21C249.8,253.5,257.9,223.6,257.9,223.6z"/>
	<path d="M215.7,223.6c-3.9,1.1-20.9,7.8-20.9,7.8s8.7,20.5,6.5,40.5c0,0,6.7,31,5.9,35.9c-0.8,4.9-13.7,34.4-11.8,36.7
		c1.9,2.2,33,6.4,37.6,5.3c4.7-1.1,3.4-52.6,3.4-59.4c0-6.8-1.5-17.1-5.2-23.5C219.9,247.1,215.7,223.6,215.7,223.6z"/>
	<path class="st8" d="M218.7,219.8L208.5,230l4.7,1.7l-7.1,1.9c0,0,16.1,32.7,30.2,46.3c0,0-7.3-24.4-10.2-32.3
		c-3-8-3.8-28.8-2.9-29.3C224.6,217.4,218.7,219.8,218.7,219.8z"/>
	<g>
		<path class="st9" d="M201.2,273.8c1.2-1.5,4.1-3.1,6.3-3.7c0,0-1.6,11.4,0.6,13.5c0.9,0.9-4.3,1.2-6.5,0.9
			c-4.7,2.5-5.4,5.4-6.7,5.3c-1-0.1-2.7-2.9-3.1-4.5C190.8,281.3,191.4,282.5,201.2,273.8z"/>
		<path class="st9" d="M208.1,270c1.4,0.1,3.3,0.9,4.9,1.5s6.2,2.8,5.9,3.6c-0.3,0.9-3.3-0.4-6.2-1c-3.1-0.7-3.1-0.4-3.8,0
			c0,0,2.5,0.4,4.7,1c1.6,0.4,6.2,1.3,5.7,2.9c-0.4,1.2-3.5-0.4-5.8-0.5c-2.3-0.1-5.1-0.4-5.1-0.4s2.2,0.4,4.5,1
			c2.5,0.7,5.3,1,5.2,1.9c-0.1,0.9-3.2,0.7-5.9,0.8c-2.2,0.1-4.4,0.6-4.4,0.6s9.6,0.2,8.3,1.6c-1.3,1.3-7.7,1.5-11.2,1
			c-1.7-0.2-1.8-4.3-1.3-7.9C204.4,270,208.1,270,208.1,270z"/>
	</g>
	<g>
		<path class="st9" d="M282.1,290.3c-1,1-1.4,2.3-2.1,3.7c-0.7,1.4-2.5,6.1-1.6,6.5c0.9,0.4,2-2.5,3.7-4.8c1.8-2.5,1.9-2.4,2.7-2.6
			c0,0-1.4,2-2.6,3.9c-0.9,1.4-3.6,5.1-2,5.9c1.1,0.6,2.2-2.6,3.8-4.2c1.6-1.6,3.3-3.7,3.3-3.7s-1.3,1.8-2.5,3.7
			c-1.3,2.2-3,4.2-2.4,4.8s2.8-1.7,4.8-3.3c1.6-1.4,3.6-2.5,3.6-2.5s-6.7,6.6-4.8,6.7c1.9,0.1,6.5-2.6,8.9-5.4
			c1.1-1.3-1.9-5.7-4.8-8C285.1,287.2,282.1,290.3,282.1,290.3z"/>
	</g>
	<path class="st8" d="M254.8,219.8l10.3,10.2l-4.7,1.7l7.1,1.9c0,0-18.5,33.3-32.7,46.9c0,0,9.7-24.9,12.6-32.9
		c3-8,3.8-28.8,2.9-29.3C248.9,217.4,254.8,219.8,254.8,219.8z"/>
	<path class="st8" d="M190.4,276.1c-3.1,1.5-12.6,6-13.3,8c-0.8,1.9,10.2-3.8,10.2-3.8L190.4,276.1z"/>
	<path class="st8" d="M195.7,231.1c2.2,2.7,1.8,4.8,0.6,6.7c-1.2,1.9-29.8,50.1-22,63.3c-2.7,1-4.8-3.3-4.8-3.3s2.1-16,12.8-39.5
		c6-13.2,9.7-26.6,11.3-26.9C195.1,231.1,195.7,231.1,195.7,231.1z"/>
	<g>
		<g>
			<path class="st5" d="M185.3,336.8c0.2,0.6,2.5,1.1,5,1.1h92.2c2.5,0,4.8-0.5,5.2-1.1l2.3-4c0.4-0.7-1.5-1.2-4.2-1.2h-97.4
				c-2.7,0-5.2,0.7-4.9,1.4L185.3,336.8z"/>
		</g>
		<g>
			<rect x="199.6" y="319.6" class="st5" width="74.1" height="252.9"/>
			<path class="st4" d="M213.2,551.1c0,0.4,0.4,0.8,0.9,0.8h45.3c0.5,0,0.9-0.4,0.9-0.8V343.2c0-0.4-0.4-0.8-0.9-0.8h-45.3
				c-0.5,0-0.9,0.4-0.9,0.8L213.2,551.1L213.2,551.1z"/>
		</g>
		<g>
			<g>
				<path class="st5" d="M321.7,305.5c2.2-1.8,1.6-3.3-1.3-3.3H152.8c-2.9,0-3.3,1.3-1,2.8l15.3,14.7c2.4,1.6,3,2.8,6,2.8h132.3
					c2.9,0,2.9-1.5,5.1-3.3L321.7,305.5z"/>
			</g>
			<path class="st4" d="M150.3,302.3c0,0.5,0.4,0.9,1,0.9h170.9c0.5,0,1-0.4,1-0.9v-1.9c0-0.5-0.4-0.9-1-0.9h-171
				c-0.5,0-1,0.4-1,0.9L150.3,302.3L150.3,302.3z"/>
		</g>
		<g>
			<path class="st4" d="M183,330.9c0,2.8,2.2,5,4.8,5h97.6c2.7,0,4.8-2.2,4.8-5v-17.3c0-2.8-2.2-5-4.8-5H188c-2.7,0-4.8,2.2-4.8,5
				L183,330.9L183,330.9z"/>
		</g>
	</g>
</g>
<path class="st39" d="M612.3,208.7H407.8c-6.1,0-11.1-5-11.1-11.1l0,0c0-6.1,5-11.1,11.1-11.1h204.4c6.1,0,11.1,5,11.1,11.1l0,0
	C623.4,203.7,618.4,208.7,612.3,208.7z"/>
<path class="st39" d="M486.7,173.3h-79.5c-6.2,0-11.3-5-11.3-11.1l0,0c0-6.1,5.1-11.1,11.3-11.1h79.5c6.2,0,11.3,5,11.3,11.1l0,0
	C498,168.3,492.9,173.3,486.7,173.3z"/>
<path class="st39" d="M530.7,242.2H413.7c-9.1,0-16.6-5-16.6-11.1s7.5-11.1,16.6-11.1h117.1c9.1,0,16.6,5,16.6,11.1
	C547.3,237.3,539.9,242.2,530.7,242.2z"/>
</svg>
