<?xml version="1.0" encoding="utf-8"?>
<!-- Generator: Adobe Illustrator 23.0.2, SVG Export Plug-In . SVG Version: 6.00 Build 0)  -->
<svg version="1.1" id="ec16f1a7-6162-4648-9d10-380c89c40baf"
	 xmlns="http://www.w3.org/2000/svg" xmlns:xlink="http://www.w3.org/1999/xlink" x="0px" y="0px" viewBox="0 0 1144 774.7"
	 style="enable-background:new 0 0 1144 774.7;" xml:space="preserve">
<style type="text/css">
	.st0{opacity:0.1;fill:#3DA4B5;enable-background:new    ;}
	.st1{fill:#3DA4B5;}
	.st2{fill:#444053;}
	.st3{fill:#FFFFFF;}
	.st4{opacity:0.41;fill:#005767;enable-background:new    ;}
	.st5{fill:url(#SVGID_1_);}
	.st6{fill:#65617D;}
	.st7{opacity:0.1;enable-background:new    ;}
	.st8{fill:#FBBEBE;}
	.st9{fill:#3F3D56;}
	.st10{opacity:0.2;}
	.st11{fill:#E0E0E0;enable-background:new    ;}
	.st12{fill:url(#SVGID_2_);}
	.st13{opacity:5.000000e-02;enable-background:new    ;}
	.st14{fill:#EE8E9E;}
	.st15{fill:#E3E8F4;}
	.st16{fill:#E6E8EC;}
	.st17{fill:#565387;}
	.st18{opacity:0.1;}
	.st19{fill:#F1F1F1;}
	.st20{fill:#2F2E41;}
	.st21{fill:url(#SVGID_3_);}
	.st22{fill:#BE6F72;}
	.st23{fill:#F3F5F9;}
	.st24{fill:#67647E;}
	.st25{fill:none;}
</style>
<title>Group chat</title>
<path class="st0" d="M1144,461.3c0-71.1-30.1-133.9-76-171.6c0.6-7.2,1-14.5,1-21.9c0-115.4-79.2-209-177-209
	c-31.2,0-60.5,9.5-85.9,26.2C736.9,32.1,646.6,0,547.7,0C386.9,0,248.6,84.9,187.3,206.7c-3.4-0.2-6.8-0.4-10.3-0.4
	c-97.7,0-177,93.6-177,209c0,42.4,10.7,81.9,29.1,114.9v0c0,103.9,84.2,188,188,188h753.1c81.5,0,147.6-66.1,147.6-147.6v0
	C1134.4,538.8,1144,501.4,1144,461.3z"/>
<path class="st1" d="M651.5,664.6c0,0-12.3-8.1-24.5-2.3c0,0,3.8,7.2,19.2,6.5L651.5,664.6z"/>
<path class="st1" d="M653,665.1c0,0,3.7,14.2-5.6,23.9c0,0-5.6-5.9,0-20.3L653,665.1z"/>
<path class="st1" d="M668.4,651.4c0,0-0.9-12.1-28.3-8.1c0,0-0.1,7.8,9.5,11.5S663.6,655.4,668.4,651.4z"/>
<path class="st1" d="M670,651.3c0,0,11.6,3.7,1.3,29.4c0,0-7.6-1.7-9-11.9S665,655,670,651.3z"/>
<path class="st1" d="M685.5,634.1c0,0,1.6-19.9-26.4-17.9c0,0-2,18,21.4,22.7L685.5,634.1z"/>
<path class="st1" d="M704,611.6c0,0-3.8-22.6-31.8-15.9c0,0-0.1,19.5,27.2,21.2L704,611.6z"/>
<path class="st1" d="M717.5,588.4c0,0-6.4-22-34.1-15.4c0,0,6.6,19.8,32.3,19.5L717.5,588.4z"/>
<path class="st1" d="M730.3,565.7c0,0-6.3-22.8-33-16c0,0,8.9,21.7,31.2,19.9L730.3,565.7z"/>
<path class="st1" d="M738.6,544.1c0,0-4.8-27.9-29.7-21.7c0,0,7.2,25.4,27.9,25.8L738.6,544.1z"/>
<path class="st1" d="M746.3,518c0,0-5.8-28.1-31-20c0,0,9.9,26.6,29.2,23.8L746.3,518z"/>
<path class="st1" d="M751.1,493.7c0,0-9.2-28.1-28.7-27.4c0,0,9.4,29.7,27.1,33L751.1,493.7z"/>
<path class="st1" d="M754.2,470.1c0,0-10-33.9-25.9-31.3c0,0,6.9,25.9,25.3,36.5L754.2,470.1z"/>
<path class="st1" d="M755.9,441.8c0,0-9.4-28.2-25-29.4c0,0,6.4,27.8,24.7,36.7L755.9,441.8z"/>
<path class="st1" d="M757.8,415.4c0,0-11.7-28.3-22-28.9c0,0,5.1,27.8,21,33.5L757.8,415.4z"/>
<path class="st1" d="M759.1,390.9c0,0-7.2-30.7-17.5-33.2c0,0,1.4,25.1,16.5,35.5L759.1,390.9z"/>
<path class="st1" d="M763,358.8c0,0-7.6-24.5-15.9-28.2c0,0,1.7,28.8,14,34.2L763,358.8z"/>
<path class="st1" d="M766.2,337.8l1.5-43.1c0,0-15.6,32.6-2.7,50.7L766.2,337.8z"/>
<path class="st1" d="M778.3,294.9c0,0,11.3-31.5,14-33.3c0,0-22.1,20.4-19.9,46.7L778.3,294.9z"/>
<path class="st1" d="M686.3,634c0,0,19.8-2.6,19.2,25.4c0,0-17.9,2.9-23.8-20.2L686.3,634z"/>
<path class="st1" d="M704.9,610.9c0,0,22.9-0.1,21,28.6c0,0-19.2,3.4-25.6-23.2L704.9,610.9z"/>
<path class="st1" d="M717.7,590.2c0,0,20.8-9.7,34.1,15.4c0,0-19.2,8.1-35.9-11.4L717.7,590.2z"/>
<path class="st1" d="M730.8,565.9c0,0,21.3-10.4,33.8,14.2c0,0-22.2,7.6-35.5-10.3L730.8,565.9z"/>
<path class="st1" d="M738.3,544.7c0,0,20.5-19.6,36.8,0.2c0,0-20.9,16.1-37.8,4.1L738.3,544.7z"/>
<path class="st1" d="M745.2,517.3c0,0,20.6-20,36.8,0.9c0,0-23.1,16.4-37.6,3.3L745.2,517.3z"/>
<path class="st1" d="M749,492.9c0,0,15.9-25,34.6-19.4c0,0-16.5,26.5-34.4,25.3L749,492.9z"/>
<path class="st1" d="M753.7,469.9c0,0,16-31.5,31.1-26c0,0-11.5,24.2-31.5,31.3L753.7,469.9z"/>
<path class="st1" d="M754.8,440.2c0,0,16.5-24.8,31.9-21.8c0,0-13.4,25.1-33.5,28.9L754.8,440.2z"/>
<path class="st1" d="M756,414.9c0,0,12.7-27.8,23.1-28c0,0-6.1,27.6-22.3,32.7L756,414.9z"/>
<path class="st1" d="M758.6,390.3c0,0,14.2-28.2,24.8-28.2c0,0-7.3,24.1-24.3,30.7L758.6,390.3z"/>
<path class="st1" d="M760.7,360.6c0,0,10.6-23.3,19.4-25.9c0,0-5.3,28.4-18.2,32.1L760.7,360.6z"/>
<path class="st1" d="M767.5,337l23.7-36.1c0,0-6.1,35.6-27.1,43L767.5,337z"/>
<path class="st1" d="M783.7,297.8c0,0,27.5-19,28.5-22.1c0,0-14,26.6-40,31.3L783.7,297.8z"/>
<path class="st1" d="M785.4,289.3c0,0,31.6-30.4,39.7-30.4c0,0-26.1,1.2-40.4,28.7L785.4,289.3z"/>
<path class="st2" d="M761,365.1l1.2,0.1c5.9-46.5,14.6-74,24.4-77.4l-0.4-1.1C775.8,290.4,767.1,317.4,761,365.1z"/>
<path class="st2" d="M752.3,476.3l1.7,0.1c0.4-4.3,0.6-8.8,0.8-13.2c1.7-38.5,4.2-73.8,7.6-100.3l-1-1.2c-3.4,26.5-6.7,63-8.3,101.5
	C752.9,467.5,752.6,471.9,752.3,476.3z"/>
<path class="st2" d="M619.1,686.8c0.3-0.1,30.9-13.8,62.7-46.4c18.6-19.1,34.1-41,45.9-65c14.7-29.9,23.7-66.7,26.7-102.4l-1.8,0.9
	c-6.7,80.2-43.3,135-72.3,164.8c-31.5,32.3-61.8,45.9-62.1,46L619.1,686.8z"/>
<path class="st3" d="M629.7,302.1v377.8c0,11.2-10.8,20.4-24.2,20.4H92.9c-13.4,0-24.2-9.1-24.2-20.4V302.1
	c0-11.3,10.8-22.7,24.2-22.7h512.6C618.8,279.4,629.7,290.9,629.7,302.1z"/>
<path class="st4" d="M629.7,303.6V363h-561v-59.4c0-13.4,10.8-24.2,24.2-24.2c0,0,0,0,0,0h512.6
	C618.8,279.4,629.7,290.2,629.7,303.6C629.7,303.6,629.7,303.6,629.7,303.6z"/>
<circle class="st3" cx="99.4" cy="321.2" r="16.2"/>
<circle class="st3" cx="146.6" cy="321.2" r="16.2"/>
<circle class="st3" cx="193.7" cy="321.2" r="16.2"/>
<linearGradient id="SVGID_1_" gradientUnits="userSpaceOnUse" x1="158.3623" y1="-63.3558" x2="158.3623" y2="192.364" gradientTransform="matrix(1 0 0 -1 -28 711.3557)">
	<stop  offset="0" style="stop-color:#808080;stop-opacity:0.25"/>
	<stop  offset="0.5351" style="stop-color:#808080;stop-opacity:0.12"/>
	<stop  offset="1" style="stop-color:#808080;stop-opacity:0.1"/>
</linearGradient>
<path class="st5" d="M204.8,699.6c0,0-15.7,3.8-21.9,10.9c-2.3,2.4-5.2,4.2-8.3,5.3V705c3.6-6,7.2-12.7,7.2-12.7
	c0.2-0.3,1.5-4.9,1.5-4.9c2.9-2.3-0.2-10.4-0.2-10.4s1.8-5.1,0.8-6.1s-0.2-3.6,0.7-4.8c0.6-1.1,0.8-2.4,0.7-3.6c0-1-1.3-2.5-3.4-3.3
	s0.2-2.1,1.5-2.5s1.6-3.5,0.2-5.1s0.2-2.6,1-4.4s-2.6-1.5-2.6-1.5v-16.6l0,0c0,0-1-5.4-2-15c-1-9.6-4.7-10.5-4.7-10.5
	c-2-0.6-4-1.4-5.9-2.3c-2-0.9-4.1-1.7-6.2-2.3c-2.7,0-5.4-0.4-8-1.1c-1.8-0.6-3.6-1-5.5-1.2c-0.2-0.1-0.4-0.2-0.6-0.3
	c-4.4-2.2-7.9-5.9-9.9-10.5c-0.1-0.2-0.2-0.4-0.3-0.7c1-1.1,1.8-2.2,2.6-3.5l0,0c0,0.2,0,0.3,0,0.5c0,0.1,0,0.1,0,0.2
	c0,0.4,0,0.8,0,1.2l0,0l0,0c2.6-4.6,10.1-5.6,10.9-10.9c0-0.2,0-0.5,0-0.7l0,0c0-0.2,0-0.4,0-0.5c-0.1-1.5-0.6-2.9-0.7-4.4
	c0-0.4,0-0.8,0-1.3l0,0c0.3-4.1,3.4-7.6,4.8-11.6c0.4-1.1,0.6-2.2,0.7-3.3l0,0c0-0.3,0.1-0.7,0.1-1c0-0.1,0-0.2,0-0.3
	c0-0.2,0-0.5,0-0.7c-0.1-4.3-1.9-8.3-5.1-11.1c-2.6-2.3-6-3.7-7.8-6.6c-0.8-1.4-1.3-3-2.2-4.3c-1.7-2.5-4.9-3.5-7.9-3.9
	s-6.1-0.2-8.9-1.2c-2-0.7-3.9-1.8-5.9-2.4c-4.6-1.2-9.4,0.5-12.2,4.4c-1.1,1.6-1.8,3.5-3.2,4.7c-3,2.5-8.1,1.4-10.7,4.3
	c-1.4,1.6-1.6,3.8-1.4,6l0,0.1c0,0.2,0,0.3,0,0.5c0,0.1,0,0.2,0,0.2c0,0.1,0,0.2,0,0.3c0.1,0.8,0.2,1.6,0.3,2.4c0,0.1,0,0.2,0,0.4
	c0,0.2,0.1,0.5,0.1,0.7c0,0.2,0,0.3,0,0.5c0,0.2,0,0.4,0,0.6c0,0.2,0,0.3,0,0.5c0.3,6.1-1,12.1-3.7,17.6c-2.5,4.8-6.1,9.3-6.8,14.7
	c-0.1,0.9-0.1,1.8-0.1,2.7c0,0.1,0,0.2,0,0.3c0,0.2,0,0.3,0,0.5c0,0.2,0,0.4,0.1,0.6c0,0.1,0,0.2,0,0.3c0,0.2,0.1,0.5,0.1,0.7
	c0,0.1,0,0.1,0,0.2c0.6,3.7,2.1,7.3,2.9,11c0.3,1.4,0.5,2.8,0.6,4.2l0,0c0,0.4,0.1,0.9,0.1,1.3c0,0.6,0,1.2,0,1.8
	c-1.2,0.5-2.5,0.9-3.8,1.2c-2.3,0.3-9,6.3-8.5,7.7c0.5,1.5-3,11.9-3.1,12.2l0,0l0,0l0,0l-5.5,37.9c0,0-2.9,2.8-2,4.6
	s-0.2,4.9-0.2,4.9s-4.9,2.1-3.8,3.5s0.6,3.8-0.2,5.4s-2,4.6,0,5.1s0.3,6.9,0.3,6.9s6.9-0.8,6.4,3.3c-0.2,1.3,4.8,4.9,6.9,6.3v19.7
	c-2.8-0.7-5.5-1.7-8.2-2.8c-4.2-2-28.1-5.8-33.3,5.6s7.2,26.5,10.3,28.2c0,0,2.9,2.3,3.6,3.5s4.4,1.5,4.4,1.5s3.9,1.8,4.9,2.8
	c0.7,0.7,6.7,2.6,13.8,4.1l0,0c0,0-5.7,13.1,3.6,12.1s13.9-5.7,20.4-5.7c2.6,0,7.5-0.4,12.4-0.8c1.2,0.2,2.4,0.5,3.6,0.9
	c2.8,0.9,5.6,1.5,8.5,1.8c0,0,7.3,4,11.3,3c0.3-0.1,0.6-0.3,0.9-0.5c0,0,0.1,0,0.1,0c1-0.4,1.8-1.1,2.4-2c4.9,0.5,10.5,1.2,12.6,2
	c4.1,1.6,33.1-0.6,33.1-0.6s18.7,0.4,24.1,2s3.5-16.6-6.4-18.6c-2.7-0.5-5.4-0.7-8.1-0.7c0.7-0.7,1.3-1.5,1.9-2.3
	c3.6-0.3,5.9-0.5,5.9-0.5s9.5-4.6,14.8-7.4c3.4-1.9,6.5-4.3,9.1-7.2c0,0,4.7-3,6.7-4.1s2.9-4.9,2.9-4.9
	C242.5,695.1,204.8,699.6,204.8,699.6z M162.3,657.4c0-0.6,0-1.1,0-1.7C162.8,656.1,162.8,656.7,162.3,657.4L162.3,657.4z
	 M162.5,669.1c0.4,0.5,0.8,1,1.1,1.3c1.1,1.4-0.9,2-0.7,4.3c0,0.5,0.1,1.2,0.1,2h0C162.7,673.5,162.6,670.8,162.5,669.1L162.5,669.1
	z"/>
<path class="st6" d="M77.6,721.1c0,0-9.1-2.1-13.4-4.1s-28.1-5.7-33.3,5.5s7.2,26.3,10.3,27.9s33.3-20.7,33.3-20.7l23.8,10l4.6-15.6
	L77.6,721.1z"/>
<path class="st6" d="M104.2,724.2h70.4c9.2,0,16.6,7.4,16.6,16.6v2.9c0,9.2-7.4,16.6-16.6,16.6h-70.4c-9.2,0-16.6-7.4-16.6-16.6
	v-2.9C87.6,731.6,95.1,724.2,104.2,724.2z"/>
<path class="st7" d="M191.2,742.2c0,10-8.1,18-18,18h-67.6c-10,0-18-8.1-18-18c0-9.9,8.1-18,18-18h67.6
	C183.2,724.2,191.2,732.2,191.2,742.2L191.2,742.2z"/>
<path class="st8" d="M134.8,743.2c0,0-10.4,2.7-18.9,2.5s-48.1,16.4-48.1,16.4s-5.7,13,3.6,11.9s13.9-5.6,20.4-5.6
	s27.2-2.3,27.2-2.3l19.9-14.7L134.8,743.2z"/>
<path class="st8" d="M141.3,620.4l-18.6,3.7l-1.2,0.2c0,0-14.7-3.9-15.2-4.2c-0.5-0.3-13.9-18.3-13.9-18.3s6.8,0.1,12.1-3
	c0.2-0.1,0.4-0.2,0.6-0.3c2.3-1.4,4.1-3.6,5-6.2c0.1-0.3,0.2-0.5,0.3-0.8c0.6-2.6,0.6-5.4-0.2-8c-1.8-7.6,2.4-9.7,7.9-9.5
	c8,0.3,19,5.3,19,5.3c0.1,2.6,0.7,5.1,1.7,7.4c0.1,0.2,0.2,0.4,0.3,0.7c2,4.5,5.5,8.2,9.9,10.4c0.2,0.1,0.4,0.2,0.6,0.3
	c0.6,0.3,1.2,0.6,1.9,0.8C165.6,604.1,141.3,620.4,141.3,620.4z"/>
<path class="st7" d="M139.1,587.3c-7.3,8.3-19.4,10.3-29,5c0.9-2.9,0.9-6,0.1-8.9c-4.4-18.6,26.9-4.2,26.9-4.2
	C137.2,582,137.9,584.7,139.1,587.3z"/>
<path class="st8" d="M145,570.7c0,4.4-1.2,8.7-3.6,12.4c-0.8,1.2-1.6,2.4-2.6,3.4c-4.1,4.5-9.8,7.2-15.9,7.6c-0.5,0-0.9,0-1.4,0
	c-13,0-23.5-10.5-23.5-23.5c0-13,10.5-23.5,23.5-23.5C134.5,547.3,145,557.8,145,570.7L145,570.7z"/>
<path class="st7" d="M141.3,620.4l-18.6,3.7l-1.2,0.2c0,0-14.7-3.9-15.2-4.2c-0.5-0.3-13.9-18.3-13.9-18.3s6.8,0.1,12.1-3
	c0.2-0.1,0.4-0.2,0.6-0.3c4.1,4.4,9.9,6.9,15.9,7c1.1,0,2.2-0.1,3.3-0.3c2.6-0.4,5.3-0.7,7.9-0.9c5-0.5,12.8-2.1,16.8-6.5
	c0.2,0.1,0.4,0.2,0.6,0.3c0.6,0.3,1.2,0.6,1.9,0.8C165.6,604.1,141.3,620.4,141.3,620.4z"/>
<path class="st1" d="M162.4,668.1c0.2,3.6,2.8,44,2.8,44H83.8l0.6-25.5l0.4-20.4l0.1-6.7l0.7-23.2l-2.4-2.1L70.4,623l0,0
	c0.1-0.3,3.6-10.6,3.1-12.1c-0.5-1.5,6.2-7.3,8.5-7.7c1.3-0.3,2.6-0.7,3.8-1.2c3.8-1.4,9-3.3,9.5-3c0.8,0.4,8.8-0.3,9.1-0.3h0
	c4.1,4.8,10.1,7.6,16.5,7.6c1.1,0,2.2-0.1,3.3-0.3c2.6-0.4,5.3-0.7,7.9-0.9c5.3-0.6,13.6-2.2,17.4-7.2c1.9,0.2,3.7,0.6,5.5,1.2
	c2.6,0.7,5.3,1.1,8,1.1c2.1,0.6,4.2,1.4,6.2,2.3c1.9,0.9,3.9,1.7,5.9,2.3c0,0,3.8,1,4.7,10.4c1,9.5,2,14.8,2,14.8l-19.4,16.8
	C162.4,646.9,162.2,664.5,162.4,668.1z"/>
<polygon class="st8" points="70.4,696.3 73.2,700.8 83.9,704.6 91.3,691.2 84.5,686.6 73.6,682.4 67.4,686 "/>
<path class="st6" d="M161.6,718.8c0,0,15.2-1.1,21.4-8.2s21.9-10.8,21.9-10.8s37.7-4.4,22.8,28.9c0,0-1,3.8-2.9,4.9
	s-6.7,4.1-6.7,4.1l-57.9-5.1L161.6,718.8z"/>
<path class="st7" d="M191.2,742.2c0,3.5-1,7-3,10c-9.7,0.9-31.3,2.9-35.8,4.1c-5.5,1.5-16.8-1.1-18-1.4c-0.1,0-0.1,0-0.1,0
	s-2.2-6.6-3.2-10.8c-0.5-1.9-0.7-3.3-0.4-3.4c1-0.3,10-2.8,9.8-1.4c-0.2,1.4,26.9-10.5,26.9-10.5l0.8,10.4
	C171,742.3,191.2,737.7,191.2,742.2z"/>
<path class="st6" d="M219.1,733.5l-1.1,4.2c-2.6,2.9-5.7,5.3-9.1,7.2c-5.4,2.8-14.8,7.3-14.8,7.3s-34.7,2.9-40.6,4.6
	s-18.1-1.5-18.1-1.5s-4.6-13.9-3.6-14.2s9.9-2.8,9.8-1.4s26.9-10.5,26.9-10.5L219.1,733.5z"/>
<path class="st8" d="M122.4,770c0,0,17.1,1.2,21.1,2.7s33.1-0.6,33.1-0.6s18.7,0.4,24.1,2s3.5-16.4-6.4-18.5s-23.9,1-23.9,1
	s-15.8-2-17.7-2.3s-14.5,0.1-14.5,0.1L122.4,770z"/>
<path class="st7" d="M55.3,725c0,0,22.6,2,28.8,5.7L55.3,725z"/>
<path class="st7" d="M196.1,710.2c0,0-17.7,4.3-24.6,10.6L196.1,710.2z"/>
<path class="st7" d="M56.6,719.9c0.4,0.1,10.4,1.4,10.1,2.4S56.6,719.9,56.6,719.9z"/>
<path class="st7" d="M40.9,745l1.3,4.9c1.3,1,2.5,2.1,3.6,3.4c0.7,1.1,4.4,1.5,4.4,1.5s3.9,1.8,4.9,2.8s11.6,4.1,21.5,5.4
	s28.4,3.8,32.3,5.1c2.8,0.9,5.6,1.5,8.5,1.8c0,0,7.3,3.9,11.3,2.9s10.6-18.8,10.6-18.8s-25.8-6-26.6-8S87,734.9,87,734.9l-14.7,0.3
	L40.9,745z"/>
<path class="st6" d="M39.9,745.5l1.3,4.9c1.3,1,2.5,2.1,3.6,3.4c0.7,1.1,4.4,1.5,4.4,1.5s3.9,1.8,4.9,2.8s11.6,4.1,21.5,5.4
	s28.4,3.8,32.3,5.1c2.8,0.9,5.6,1.5,8.5,1.8c0,0,7.3,3.9,11.3,2.9s10.6-18.8,10.6-18.8s-25.8-6-26.6-8s-37.2-16.8-37.2-16.8
	L63,727.1L39.9,745.5z"/>
<path class="st1" d="M73.2,621.4l-2.9,1.6l-5.5,37.5c0,0-2.9,2.8-2,4.6s-0.2,4.9-0.2,4.9s-4.9,2.1-3.8,3.4s0.6,3.8-0.2,5.4
	s-2,4.6,0,5.1s0.3,6.9,0.3,6.9s6.9-0.8,6.4,3.3c-0.2,1.6,7.8,6.9,7.8,6.9s-9.1-16.5,11.3-14.2l1.7-9.3c0,0,1.7-5.2,0-6.9
	s0.4-9.4,0.4-9.4l0.4-33.7L73.2,621.4z"/>
<path class="st7" d="M68.8,669.9c0.4,0.6,11.3,1.8,12.1,3.8S68.8,669.9,68.8,669.9z"/>
<path class="st7" d="M65.3,679.2c0,0,1.5-4.7,5-3.8S65.3,679.2,65.3,679.2z"/>
<path class="st7" d="M63.4,686c0,0,2.6-6.2,6.2-5.7S63.4,686,63.4,686z"/>
<path class="st8" d="M182.9,685.8l-1.1,6.9c0,0-11.7,21.5-13.9,21.9s-13.7-14.4-13.7-14.4l-3.1-14.4l12.2-2.3l5.4-5.4
	C168.7,678.2,182.4,679.5,182.9,685.8z"/>
<path class="st1" d="M177.4,627l4.4,3.1v16.5c0,0,3.4-0.3,2.6,1.5s-2.4,2.8-1,4.4s1.1,4.7-0.2,5.1s-3.6,1.6-1.5,2.4s3.4,2.3,3.4,3.3
	c0.2,1.2-0.1,2.5-0.7,3.6c-0.8,1.1-1.6,3.8-0.7,4.7s-0.8,6-0.8,6s3.1,8,0.2,10.3c0,0-1.3,4.6-1.5,4.9c0,0,2.1-15.9-18.5-9.2
	c0,0-0.4-6.1-0.5-8.3s1.8-2.9,0.7-4.2s-3.7-4.4-2.4-5.2s0.8-2.3,0.3-3.4s-2.2-1.1-0.7-2.5s2.5-2.7,1.6-3.3s-2.5-2.8-1.2-3.8
	s1.3-15.2,1.3-15.2S167.6,616.7,177.4,627z"/>
<path class="st7" d="M175.3,655c0,0,6.3-1.7,6.5,0S175.3,655,175.3,655z"/>
<path class="st7" d="M168.3,659.7c0,0,8.6-2.1,9.7-0.5S168.3,659.7,168.3,659.7z"/>
<path class="st7" d="M166.4,664.2c0,0,12.9-1.8,13.7,0.8S166.4,664.2,166.4,664.2z"/>
<path class="st7" d="M168.3,669.9c0.5,0.1,12.4,1,12.7,3.2S168.3,669.9,168.3,669.9z"/>
<path class="st9" d="M82.8,677.2h81.3c5.8,0,10.5,4.7,10.5,10.5v37.1c0,5.8-4.7,10.5-10.5,10.5H82.8c-5.8,0-10.5-4.7-10.5-10.5
	v-37.1C72.3,681.9,77,677.2,82.8,677.2z"/>
<circle class="st1" cx="123.5" cy="706.2" r="3.8"/>
<path class="st7" d="M89.5,641.6c0,0,9.8,7.5,17.4,1.8C106.8,643.4,94,644.6,89.5,641.6z"/>
<path class="st7" d="M139.1,643.6c0,0,9.8,7.5,17.4,1.8C156.5,645.4,143.7,646.6,139.1,643.6z"/>
<path class="st7" d="M145,570.7c0,4.4-1.2,8.7-3.6,12.4c-0.2-6.5-1.7-13.1-5.3-18.5c-3.3-5-13.2-13.8-20-11.3
	c-1.4,0.5-2.5,1.7-3,3.2c-0.7,2.6,1.3,3.6,2.6,5.7c2.2,3.5,3,7.7,2.4,11.7c-0.1,0.5-0.2,1.1-0.3,1.6c-1.1,4-3.5,8.6-1,11.9
	c1.8,2.3,5.6,3.1,6.1,5.9c0,0.3,0.1,0.5,0,0.8c-0.1,1.9-1.8,3.6-2.5,5.5c-0.8,2.2-0.4,4.4,0.5,6.7c1.1,2.9,2.9,5.9,3.4,8.9
	c0.4,3-0.5,5.9-1.6,8.8c-1.2,2.7-2.1,5.4-2.7,8.3c-0.8,5.4,1.2,11.7-2.2,16c-0.3,0.5-0.9,0.9-1.5,1c-2.2,0.2-1.8-3.7-3.6-5
	c0.2,2.3,0.4,4.7-0.5,6.8c-0.8,2.1-3,3.9-5.3,3.6c-0.3-1.7-0.5-3.4-0.8-5.1c-1.5,1.5-3.4,2.7-5.4,3.4c0.8-5.5,2.7-10.7,5.7-15.3
	c-5.7,2.8-9.1,8.8-12.1,14.4c-1.9,3.5-3.8,7.4-3.1,11.3c0.3,1.6,1,3.1,1.1,4.7s-0.4,3.5-1.9,4.1c-1.4,0.4-2.9,0-3.8-1.2
	c-0.1-0.1-0.1-0.1-0.2-0.2c-0.1-0.1-0.2-0.2-0.3-0.4c-0.2-0.2-0.3-0.5-0.4-0.8c-0.4-1-0.7-2-0.9-3l-0.1-0.4
	c-1.5-6.7-2.9-13.5-1.8-20.3c0.4-2.5,1.2-4.9,1.1-7.5c-0.1-1.4-0.4-2.8-0.9-4.2c-1.3-3.7-3.9-7.2-5.4-10.9c0,0,0-0.1,0-0.1
	c-0.8-2-1.1-4.5,0.3-6.1c0.8-0.7,1.7-1.4,2.7-1.8c2.8-1.8,4.1-5.4,4.6-8.7c0.2-1.5,0.4-3,0.4-4.6c3.8-1.4,9-3.3,9.5-3
	c0.8,0.4,8.8-0.3,9.1-0.3c2.6-1.4,4.6-3.7,5.6-6.5c0.1-0.3,0.2-0.5,0.3-0.8c-11.4-6.2-15.7-20.4-9.5-31.8
	c6.2-11.4,20.4-15.7,31.8-9.5C140.2,554.2,145,562.1,145,570.7L145,570.7z"/>
<path class="st9" d="M117.8,574.5c-1.1,4-3.5,8.6-1,11.9c1.8,2.3,5.6,3.1,6.1,5.9c0.4,2.3-1.6,4.2-2.4,6.3
	c-1.9,5.1,3.1,10.2,3.9,15.6c0.8,5.9-3.5,11.2-4.3,17.1c-0.8,5.4,1.2,11.7-2.2,16c-0.3,0.5-0.9,0.9-1.5,1c-2.2,0.2-1.8-3.7-3.6-5
	c0.2,2.3,0.4,4.7-0.5,6.8s-3,3.9-5.2,3.6l-0.8-5.1c-1.5,1.5-3.4,2.7-5.4,3.4c0.8-5.5,2.7-10.7,5.7-15.3c-5.7,2.8-9.1,8.8-12.1,14.4
	c-1.9,3.5-3.8,7.4-3.1,11.3c0.3,1.6,1,3.1,1.1,4.7s-0.4,3.5-1.9,4.1c-1.5,0.4-3.1-0.1-3.9-1.4c-0.8-1.2-1.4-2.7-1.6-4.1
	c-1.6-6.8-3-13.8-1.9-20.7c0.4-2.5,1.2-4.9,1.1-7.5c-0.2-5.5-4.3-10-6.2-15.2c-0.8-2-1.1-4.5,0.3-6.1c0.8-0.7,1.7-1.4,2.7-1.8
	c2.8-1.9,4.1-5.4,4.6-8.7c0.6-3.6,0.5-7.3-0.3-10.9c-1.1-5.4-3.8-10.6-3.1-16c0.6-5.4,4.3-9.8,6.8-14.6c3.2-6.2,4.4-13.2,3.5-20.1
	c-0.4-3.2-1.2-6.9,1-9.3c2.6-2.9,7.7-1.8,10.7-4.3c1.5-1.2,2.2-3.1,3.2-4.7c2.8-3.8,7.6-5.6,12.2-4.4c2.1,0.6,3.9,1.8,5.9,2.4
	c2.9,0.9,6,0.8,8.9,1.2s6.2,1.4,7.9,3.8c0.9,1.3,1.3,2.9,2.2,4.3c1.8,2.9,5.2,4.3,7.8,6.6c4.6,4.1,6.2,10.5,4.3,16.2
	c-1.6,4.3-5.1,8.1-4.8,12.7c0.1,1.9,0.9,3.7,0.7,5.6c-0.7,5.2-8.3,6.2-10.9,10.8c0.2-7.5-1.2-15.2-5.3-21.4
	c-3.3-5-13.2-13.8-20-11.3c-1.4,0.5-2.6,1.7-3,3.2c-0.7,2.6,1.3,3.6,2.6,5.7C118.2,565.2,118.9,570,117.8,574.5z"/>
<g class="st10">
	<path d="M85.8,600.4c0.1-2.3-0.2-4.7-0.7-7c-1-4.6-3-9-3.2-13.6c-0.3,5.1,2.1,10,3.2,15.1C85.5,596.7,85.7,598.5,85.8,600.4z"/>
	<path d="M105.2,637.4c0.4-0.7,0.8-1.4,1.3-2.2c-5.7,2.8-9.1,8.8-12.1,14.4c-1.7,3.3-3.5,6.8-3.2,10.4c0.2-3.1,1.7-6.1,3.2-9
		C97.2,645.9,100.2,640.4,105.2,637.4z"/>
	<path d="M92.3,666.9c-0.1,1.2-0.8,2.3-1.9,2.9c-1.5,0.4-3.1-0.1-3.9-1.4c-0.8-1.2-1.4-2.7-1.6-4.1c-1.3-4.8-2-9.8-2.3-14.8
		c-0.1,5.4,1,10.9,2.3,16.3c0.2,1.5,0.8,2.9,1.6,4.1c0.9,1.3,2.5,1.8,3.9,1.4c1.5-0.6,2.1-2.5,1.9-4.1
		C92.3,667.1,92.3,667,92.3,666.9z"/>
	<path d="M118.3,569.6c-0.1,1.2-0.2,2.3-0.5,3.5c-0.8,3-2.3,6.3-2.1,9.1c0.2-2.5,1.4-5.2,2.1-7.7C118.2,573,118.4,571.3,118.3,569.6
		z"/>
	<path d="M92.6,547.8c0-1.7-0.1-3.5-0.3-5.2c-0.2-1.3-0.4-2.6-0.4-3.9c0,1.8,0.1,3.6,0.4,5.4C92.4,545.4,92.5,546.6,92.6,547.8z"/>
	<path d="M122.9,592.4c0,0,0-0.1,0-0.1c-0.3,1.7-1.7,3.2-2.4,5c-0.4,1-0.5,2.1-0.4,3.2c0.1-0.6,0.2-1.2,0.4-1.7
		C121.2,596.6,123.3,594.7,122.9,592.4z"/>
	<path d="M84.1,636.1c-0.2-5.5-4.3-10-6.2-15.2c-0.3-0.8-0.5-1.6-0.6-2.5c-0.1,1.4,0.1,2.7,0.6,4c2,5.1,5.9,9.5,6.2,14.9
		C84.1,636.9,84.1,636.5,84.1,636.1z"/>
	<path d="M136.1,562.2c-3.3-5-13.2-13.8-20-11.3c-1.4,0.5-2.6,1.7-3,3.2c-0.2,0.6-0.2,1.1-0.1,1.7c0-0.1,0-0.2,0.1-0.2
		c0.4-1.5,1.5-2.7,3-3.2c6.8-2.4,16.7,6.3,20,11.3c3.7,5.7,5.2,12.5,5.3,19.3C141.5,575.7,140.1,568.3,136.1,562.2z"/>
	<path d="M152.3,572.8c-0.7,5.2-8.2,6.2-10.8,10.8c0,0.5,0,1,0,1.5c2.6-4.6,10.1-5.6,10.9-10.8C152.4,573.8,152.4,573.3,152.3,572.8
		C152.3,572.8,152.3,572.8,152.3,572.8z"/>
	<path d="M156.5,554.5c-1.6,4.3-5.1,8.1-4.8,12.7c0,0.1,0,0.1,0,0.2c0.3-4,3.4-7.5,4.8-11.5c0.6-1.8,0.9-3.7,0.8-5.6
		C157.2,551.8,156.9,553.2,156.5,554.5z"/>
	<path d="M117.8,646c-0.3,0.5-0.9,0.9-1.5,1c-2.2,0.2-1.8-3.7-3.6-5c0,0.5,0.1,1,0.1,1.6c1.6,1.4,1.3,5.1,3.5,4.9
		c0.6-0.1,1.1-0.5,1.5-1c1.9-2.4,2.1-5.5,2.1-8.7C119.8,641.4,119.4,643.9,117.8,646z"/>
	<path d="M112.3,648.8c-0.8,2.1-3,3.9-5.2,3.6c-0.3-1.7-0.5-3.4-0.8-5.1c-1.5,1.4-3.2,2.6-5.2,3.3c-0.1,0.5-0.2,1-0.3,1.6
		c2-0.7,3.9-1.9,5.4-3.4c0.3,1.7,0.5,3.4,0.8,5.1c2.3,0.4,4.4-1.5,5.2-3.6c0.5-1.5,0.7-3.1,0.6-4.6
		C112.8,646.7,112.6,647.7,112.3,648.8z"/>
	<path d="M120,630c-0.2,1.4-0.2,2.8-0.2,4.2c0-0.9,0.1-1.8,0.2-2.7c0.8-5.6,4.7-10.7,4.4-16.3C124.1,620.2,120.7,624.9,120,630z"/>
</g>
<path class="st3" d="M739,205.8V304c0,5.2-5,9.4-11.2,9.4H491.4c-6.2,0-11.2-4.2-11.2-9.4v-98.2c0-5.2,5-10.5,11.2-10.5h236.4
	C734,195.4,739,200.7,739,205.8z"/>
<path class="st4" d="M739,206.5v27.4H480.3v-27.4c0-6.2,5-11.2,11.2-11.2c0,0,0,0,0,0h236.4C734,195.4,739,200.4,739,206.5
	C739,206.5,739,206.5,739,206.5z"/>
<circle class="st3" cx="494.4" cy="214.6" r="7.5"/>
<ellipse transform="matrix(0.3827 -0.9239 0.9239 0.3827 120.3399 609.3814)" class="st3" cx="516.2" cy="214.6" rx="7.5" ry="7.5"/>
<circle class="st3" cx="537.9" cy="214.6" r="7.5"/>
<circle class="st1" cx="688" cy="273" r="29.2"/>
<rect x="502.6" y="253.4" class="st1" width="123.1" height="4.3"/>
<rect x="502.6" y="264" class="st11" width="123.1" height="4.3"/>
<rect x="502.6" y="274.6" class="st11" width="123.1" height="4.3"/>
<rect x="502.6" y="285.2" class="st11" width="123.1" height="4.3"/>
<path class="st1" d="M644.6,451.6c0,0-8.7-2-14.4,3.9c0,0,3.7,3.3,12.2-0.4L644.6,451.6z"/>
<path class="st1" d="M645.5,451.6c0,0,5.1,7.3,1.9,14.7c0,0-4.4-2.1-4.3-11.5L645.5,451.6z"/>
<path class="st1" d="M651.3,440.6c0,0-3.1-6.7-17.7,1.4c0,0,1.6,4.5,7.8,4.5S649.4,443.9,651.3,440.6z"/>
<path class="st1" d="M652.2,440.2c0,0,7.3-0.3,6.9,16.4c0,0-4.7,0.6-7.6-4.8S650.2,443.4,652.2,440.2z"/>
<path class="st1" d="M657.4,427.2c0,0-3.3-11.6-18.7-4.5c0,0,2.7,10.6,16.9,8.3L657.4,427.2z"/>
<path class="st1" d="M663.1,410.5c0,0-6.9-12-21.3-2.3c0,0,4.1,11.1,19.9,6.3L663.1,410.5z"/>
<path class="st1" d="M665.8,394.5c0,0-8.3-11.1-22.6-1.5c0,0,7.9,9.8,22.4,4.2L665.8,394.5z"/>
<path class="st1" d="M668.2,378.9c0,0-8.4-11.6-22.1-2.1c0,0,9.6,10.4,21.9,4.6L668.2,378.9z"/>
<path class="st1" d="M668.4,365c0,0-8.6-14.8-21.4-6c0,0,9.5,12.9,21.3,8.7L668.4,365z"/>
<path class="st1" d="M667.2,348.6c0,0-9.2-14.7-21.8-4.8c0,0,11.2,13,21.6,7.3L667.2,348.6z"/>
<path class="st1" d="M664.8,333.8c0,0-11.2-14-22-9.4c0,0,11.6,14.8,22.3,13L664.8,333.8z"/>
<path class="st1" d="M661.5,319.7c0,0-12.8-17.1-21.3-12.2c0,0,9.4,13.2,22.1,15.3L661.5,319.7z"/>
<path class="st1" d="M656.5,303.4c0,0-11.3-14-20.4-11.3c0,0,9.5,14.4,21.7,15.6L656.5,303.4z"/>
<path class="st1" d="M652,288c0,0-12.6-13.5-18.6-11.7c0,0,8.8,14.7,19,14.5L652,288z"/>
<path class="st1" d="M647.6,273.9c0,0-10.6-15.9-17-15.1c0,0,6.1,13.9,16.9,16.6L647.6,273.9z"/>
<path class="st1" d="M643,254.9c0,0-9.5-12.3-15-12.6c0,0,7,16,15.2,16.4L643,254.9z"/>
<path class="st1" d="M640.4,242.3l-8.3-24.8c0,0-2,21.7,9.2,29.3L640.4,242.3z"/>
<path class="st1" d="M638.1,215.4c0,0-0.3-20.2,0.9-21.8c0,0-8.2,16.2-1.4,30.7L638.1,215.4z"/>
<path class="st1" d="M657.8,426.9c0,0,10.7-5.7,16.3,10.3c0,0-9.5,5.4-17.7-6.4L657.8,426.9z"/>
<path class="st1" d="M663.4,409.9c0,0,13-4.9,18,11.7c0,0-10.2,6-19.4-7.7L663.4,409.9z"/>
<path class="st1" d="M666.3,395.5c0,0,9.7-9.9,22.6,1.5c0,0-9.2,8.7-22.7,1.2L666.3,395.5z"/>
<path class="st1" d="M668.6,378.9c0,0,9.9-10.4,22.1,0.9c0,0-10.9,9-22.3,1.7L668.6,378.9z"/>
<path class="st1" d="M668.3,365.4c0,0,7.5-15.4,20.9-7.7c0,0-8.4,13.5-20.5,10.3L668.3,365.4z"/>
<path class="st1" d="M666.4,348.4c0,0,7.4-15.7,21.1-7.3c0,0-9.6,14.2-20.6,9.8L666.4,348.4z"/>
<path class="st1" d="M663.5,333.8c0,0,3.7-17.5,15.5-18.3c0,0-3.7,18.5-14.1,21.6L663.5,333.8z"/>
<path class="st1" d="M661.2,319.8c0,0,2.4-21.2,12.1-21.3c0,0-1.4,16.1-11.2,24.4L661.2,319.8z"/>
<path class="st1" d="M655.6,302.7c0,0,4.1-17.5,13.4-19.1c0,0-2.3,17.1-12.8,23.5L655.6,302.7z"/>
<path class="st1" d="M650.9,288.1c0,0,1.3-18.4,7.2-20.8c0,0,2.4,16.9-5.7,23.2L650.9,288.1z"/>
<path class="st1" d="M647.2,273.7c0,0,2.1-18.9,8.1-21.2c0,0,1,15.2-7.3,22.5L647.2,273.7z"/>
<path class="st1" d="M642.1,256.4c0,0,1.1-15.4,5.5-18.8c0,0,3,17.2-3.5,22L642.1,256.4z"/>
<path class="st1" d="M640.9,241.5l5.8-25.4c0,0,4.1,21.4-6.3,30.1L640.9,241.5z"/>
<path class="st1" d="M641.8,215.9c0,0,11.6-16.6,11.5-18.5c0,0-2.3,18-16,26.2L641.8,215.9z"/>
<path class="st1" d="M641,210.7c0,0,11.5-23.9,16-25.6c0,0-14.5,6.2-16.8,24.8L641,210.7z"/>
<path class="st2" d="M643.2,258.8l0.7-0.2c-6.5-27.6-7.4-45-2.6-49l-0.4-0.5C635.8,213.4,636.6,230.6,643.2,258.8z"/>
<path class="st2" d="M661.8,323.6l1-0.3c-0.7-2.5-1.5-5.1-2.3-7.7c-7.2-22.1-13.2-42.7-16.9-58.4l-0.8-0.5
	c3.7,15.7,9.5,37.1,16.7,59.2C660.3,318.6,661.1,321.1,661.8,323.6z"/>
<path class="st2" d="M630.9,471.1c0.1-0.1,14.6-14.4,25.7-39.6c6.5-14.8,10.6-30.4,12.2-46.5c2-20.1-0.7-42.8-6.6-63.7l-0.8,0.9
	c13.1,46.8,4.1,85.6-6.1,108.6c-11,25-25.3,39-25.4,39.2L630.9,471.1z"/>
<linearGradient id="SVGID_2_" gradientUnits="userSpaceOnUse" x1="980.324" y1="-50.8347" x2="980.324" y2="216.9951" gradientTransform="matrix(1 0 0 -1 -28 711.3557)">
	<stop  offset="0" style="stop-color:#808080;stop-opacity:0.25"/>
	<stop  offset="0.5351" style="stop-color:#808080;stop-opacity:0.12"/>
	<stop  offset="1" style="stop-color:#808080;stop-opacity:0.1"/>
</linearGradient>
<path class="st12" d="M1064.8,716.3l-27.7-40.1c0,0-0.5-9.9-2.3-12.3s-0.4-7.5-0.4-7.5s1.9-2.8,0.3-3.1s-0.3-6.6-0.3-6.6l-0.1-10.1
	c0,0,1.6-9.7,0.3-12c-0.8-1.3-0.7-2.9,0.1-4.1c0,0,1.6-5.5,0-7s-1.2-10.1-0.8-16.9s-2.7-10.7-2.7-11.7s-10.2-11.1-10.2-12
	s-6.5-4.6-10.3-5.7s-5.8-1.8-5.7-2.3s-6.1-2.6-6.1-2.6s-5.4-0.4-7.5-3.1c-2-2.7-8.4-3.5-8.6-3.5c0-0.2-0.1-0.4-0.1-0.5
	c0-0.2-0.1-0.4-0.1-0.6c0.5-0.8,0.9-1.7,1.4-2.5c0.1-0.3,0.2-0.5,0.4-0.8c2.3,0,4.5-0.7,6.4-2c1.8-1.5,3-3.8,3.1-6.2
	c0.1-2.4-0.4-4.8-1.5-6.9c-1.1-2.3-2.8-4.7-2.2-7.2c0.2-1.1,0.9-2,1.2-3.1c0.5-2.1,0.2-4.3-0.9-6.1c-1-1.9-2.3-3.5-3.4-5.3
	c-1.4-2.3-2.3-4.9-2.7-7.5c-0.1-1.4-0.4-2.8-1-4.1c-0.6-0.9-1.4-1.7-2.3-2.3c-4-2.9-8.9-4.4-13.9-4.2c-3.5,0.1-7,1.1-10.5,0.6
	c-2.1-0.4-4.1-0.9-6.1-1.6c-4.3-1.3-9.3-1.8-13.1,0.7c-3.8,2.5-5.3,7.4-7.8,11.2c-2.3,3.4-5.6,6.2-7.3,9.8c0-0.1,0-0.1,0.1-0.2
	c-0.4,0.8-0.7,1.7-1,2.6c-0.7,2.8-0.1,5.8,0.6,8.6c0.4,1.4,0.8,3,2.1,3.8c1.3,0.8,3,0.6,4.5,0.9c-0.1,0.2-0.1,0.5-0.2,0.7
	c-3.2,15.1,5.7,30.1,20.5,34.5c0,0.3,0,0.5,0,0.8c0,0.7,0,1.5-0.1,2.2l0,0l0,0c0,0-13-2.7-16.5-0.9s-10.3,3.2-11.4,4.3
	s-3.6,0.3-5.9,6.3s-2.6,12.3-5.6,15.1s-4.5,4.8-4.7,6.8s0.4,2.6-0.8,3.2s-2.8,3.4-2.3,4.4c0,0,0.6,2.6-1.4,3.9
	c-1.2,0.9-1.9,2.4-1.8,3.9c0,0-0.8,2.8-2.6,3.5s-3,4.9-3,4.9l-5.9,6.7l-11.6-12.9c-1.8-2-4.9-2.2-6.9-0.4l-5.7,5.1
	c-2.2,0.5-4.2,1.7-5.7,3.4c-1.2,1.3-2.2,2.8-3,4.4l-3.1,2.8c-2,2.5-2.3,6-0.8,8.8l7.4,8.2l0,0.1c-2.6,0.2-5.2,1.2-7.2,2.9
	c-11.1,9.8-11.2,18.8-9.6,23c1.7,4.1,15.8,20,15.8,20s8.2,10.6,20,16.3l0,0c0,0-0.1,0.1-0.1,0.1c-0.2,0.2-0.5,0.5-0.7,0.8
	c-0.1,0.1-0.1,0.2-0.2,0.2c-0.1,0.1-0.1,0.2-0.2,0.3c-0.1,0.1-0.1,0.2-0.2,0.3c-0.1,0.1-0.1,0.2-0.2,0.3c-0.1,0.1-0.1,0.2-0.2,0.4
	c0,0.1-0.1,0.2-0.1,0.2c-0.1,0.2-0.2,0.3-0.3,0.5c0,0.1-0.1,0.1-0.1,0.2c-0.1,0.2-0.2,0.5-0.3,0.7c0,0.1-0.1,0.2-0.1,0.3
	c-0.1,0.2-0.1,0.3-0.2,0.5c0,0.1-0.1,0.2-0.1,0.3c-0.1,0.2-0.1,0.3-0.2,0.5c0,0.1-0.1,0.2-0.1,0.4c-0.1,0.2-0.1,0.4-0.2,0.6
	c0,0.1-0.1,0.2-0.1,0.3c-0.1,0.3-0.1,0.6-0.2,0.9c0,0.1,0,0.2-0.1,0.4c0,0.2-0.1,0.4-0.1,0.7c0,0.2,0,0.3-0.1,0.5
	c0,0.2-0.1,0.4-0.1,0.6c0,0.2,0,0.3,0,0.5c0,0.2,0,0.5-0.1,0.7c0,0.2,0,0.3,0,0.5c0,0.4,0,0.8,0,1.2c-0.3,15.1,0.6,17.3,0.6,17.3
	s1.8,4.8,6.9,5.2c0.7,0.1,1.5,0,2.2-0.1c6.7-1.2,22.5-3.9,28.1-2.8c3.3,0.6,9.5-0.3,13.9-1.1c0.4-0.1,0.8-0.2,1.2-0.2l0.8,2.6
	l2.6-0.7c0.8,0.5,1.6,0.9,2.2,1.3c0.6,0.3,1,0.6,1.4,0.8c2.6,8.7,12.9,5.7,12.9,5.7l2.5,1.4l25,0.6c0,0,5.4,3.2,8.8,4.2
	c0.4,0.1,0.8,0.2,1.3,0.3c2.3,0.2,4.6,0.2,7,0.1c1.9-0.1,3.4-0.1,3.4-0.1s-0.3-6.8-0.6-14.4c9.5-0.4,18-1,23.1-1.9
	c13.3-2.3,18.9-14.5,20.9-20.9c0.6,2.6,1.1,5.3,1.3,8c0.5,2.4,1.2,4.7,2.1,7c0.7,1.8,1.7,3.6,2.8,5.2c9.8-3.4,3.9-8.4,1.8-10.6
	s1.4-4,1.4-4s2.7-1.8,2.5-3.5s-0.4-3.5,8.4-3.4S1064.8,716.3,1064.8,716.3z M928.3,634c0.1,0.7,1.3,8.7,2.4,10.8
	c0.3,1.4,0.4,2.8,0.3,4.2c-5.2-0.4-10.6-0.6-10.6-0.6c0.2,0.2,0.3,0.4,0.3,0.7c-0.3-0.1-0.5-0.1-0.8-0.2c-0.4-0.1-0.8-0.2-1.2-0.3
	L928.3,634L928.3,634z M909.3,664.2l9,1.4l0.8,0.1c-0.3,1.4-0.4,2.8-0.5,4.3c0,0.1,0.2,0.3,0.5,0.5c-0.1,0.7-0.2,1.4-0.2,2.1
	c0.1,0.7,4.4,2.3,9.2,3.5c-0.1,0.3-0.1,0.5-0.2,0.7l0,0c-4.3-2.2-11-3.3-11.8-5s-23.7-9.7-23.7-9.7s-0.8-0.4-2.3-1.1l6,1.1l1.7-0.2
	C901.6,663.1,905.4,663.8,909.3,664.2L909.3,664.2z"/>
<path class="st6" d="M1035.4,722c0,0-3.6,21.7-21.8,24.9s-78.9,2.6-78.9,2.6s-34.7-5-47.3-34.3s-20.6-41-9.9-41.5
	s68.8,19.6,72.2,19.9S1038.6,648.8,1035.4,722z"/>
<path class="st13" d="M1035.4,722c0,0-3.6,21.7-21.8,24.9s-78.9,2.6-78.9,2.6s-34.7-5-47.3-34.3s-20.6-41-9.9-41.5
	s68.8,19.6,72.2,19.9S1038.6,648.8,1035.4,722z"/>
<path class="st9" d="M872.5,746c0,0,1.8,4.8,6.8,5.1c0.7,0.1,1.5,0,2.2-0.1c6.7-1.2,22.3-3.8,27.8-2.8c3.3,0.6,9.4-0.3,13.8-1.1
	c2.9-0.5,5-1.1,5-1.1s-5.1-17-5.8-17.6c-0.6-0.5-23.1-14-23.1-14l-17.8-1.3l-0.1,0c-2.4,0.4-4.5,1.6-6,3.5c-1.9,2.3-3.5,6-3.6,12.1
	C871.6,743.9,872.5,746,872.5,746z"/>
<path class="st13" d="M872.5,746c0,0,1.8,4.8,6.8,5.1c-1.7-2.3-3.4-4.6-4.8-7l0.1-12.4c-0.7-6.9,1.9-13.8,7-18.5l-0.1,0
	c0,0-9.4,0.6-9.6,15.6S872.5,746,872.5,746z"/>
<path class="st7" d="M949.5,718.9l16.5-12.9l26-25.6c0,0-2.8-0.1-7.1-0.3c-1.1,0.7-4,2.8-4.1,5.4c-0.1,3.1-7,0.2-10.6,2
	c-3.6,1.8-21.1,24.3-24.2,24.1c-3.1-0.1-5.5-1.6-6.8,0.6c0,0-0.1,0.1-0.1,0.1L949.5,718.9z"/>
<path class="st7" d="M875.5,716.8c0.6,0.3,1.2,0.6,1.8,0.8c12.6,5.4,28.1,16.7,29.2,18.7c0.7,1.2,9.7,6.7,16.6,10.8
	c2.9-0.5,5-1.1,5-1.1s-5.1-17-5.8-17.6c-0.6-0.5-23.1-14-23.1-14l-17.8-1.3l-0.1,0C879.1,713.6,876.9,714.9,875.5,716.8z"/>
<path class="st6" d="M840.6,680c1.7,4.1,15.6,19.9,15.6,19.9s8.8,11.5,21.4,16.9s28.1,16.7,29.2,18.7c0.7,1.3,10.7,7.3,17.8,11.5
	c0.5,0.3,1.1,0.6,1.6,0.9c1.4,0.8,2.6,1.5,3.5,2c1.2,0.7,1.8,1.1,1.8,1.1s4.3-3.4,8.6-6.9c4.2-3.4,8.4-6.9,8.5-7.1
	c0.1-0.4,1.8-4.7,1.4-5c-0.2-0.1-1.1-1.9-2.7-4c-1.7-2.3-4-4.1-6.5-5.4c-5.9-2.7-8.5-8.8-8.5-8.8s-0.6-0.4-1.4-0.9
	c-1.7-1.2-3.7-2.1-5.8-2.6c-2.8-0.4-8.1-6.1-8.1-6.1s-3.6-2.3-5-5.3c-1.3-2.8-21.2-16.5-23.1-17.7l48.2,30.9l11.5,7.4l16.5-12.9
	l26-25.6c0,0-3.5-0.2-8.6-0.4c-12.6-0.5-35.1-1.4-37.9-0.8c-2.3,0.5-4.7,0.7-7.1,0.5c0,0-6.4,0.3-10.6-1.9s-10.9-3.3-11.7-4.9
	s-23.5-9.6-23.5-9.6s-30.9-16.4-41.9-6.7C839.1,667,838.9,675.9,840.6,680z"/>
<path class="st14" d="M940.2,586l4,13.2l5.1,29.7l18.8,1.3l5.5-9l5.4-9c0,0,3.4-12,5.8-23.6c2.2-10.3,3.6-20.3,1.2-21.3
	c-2.1-1-3.4-4.4-4.3-8.1c-0.1-0.5-0.2-0.9-0.3-1.4c-0.6-3.2-1-6.3-1.2-9.6c0,0-39.5-2-34,14.2c1,2.8,1.5,5.7,1.5,8.7
	c0,0.7,0,1.5-0.1,2.2C947,578.3,944.3,582.9,940.2,586z"/>
<path class="st15" d="M932,583.8l1.4,22.4l3.2,19.1l3.6,8.8l3.2,48.4c0,0,30.9,3.6,38.4-0.1c0.5-0.2,1-0.6,1.4-1.1
	c9.1-13.7,6.1-53.4,6.1-53.4l3.5-25.6l-2.3-13.3l-5.6-0.6l-4.3-0.5c0,0-1,1.2-2.4,3c-3.8,5-10.8,14.9-10.3,19
	c0.6,5.6-0.8,11.4-2.9,12.3c-2.2,0.9-4,2.4-4.4,0.9s-0.8-1.9-0.4-4.1s-1.7-8.8-1.7-8.8s-3.5-7.8-3.2-11.1s-0.4-7.2-1.4-8.1
	c-1-0.9-2.4-1.8-1.3-5.9c1.2-4.1-5.1-12.1-5.1-12.1L932,583.8z"/>
<path class="st7" d="M972.8,639.8l1.3,38.3c0,0,2.9,1.6,7.4,4.1c0.5-0.2,1-0.6,1.4-1.1c9.1-13.7,6.1-53.4,6.1-53.4l3.5-25.6
	l-2.3-13.3l-5.6-0.6c2.2-10.3,3.6-20.3,1.2-21.3c-2.1-1-3.4-4.4-4.3-8.1l0,0l-4,27.1c0,0,0.3,2.4,0.5,5c0.2,1.6,0.1,3.2-0.3,4.8
	c-0.9,2.3-0.3,6.4-0.3,6.4c-2.3,4.1-3.5,11.6-4,18.9C972.5,630.6,972.8,639.8,972.8,639.8z"/>
<path class="st9" d="M981.5,558.1c0,0,6.5,0.8,8.5,3.5s7.4,3.1,7.4,3.1s6.2,2.1,6,2.6s1.8,1.3,5.6,2.3s10.3,4.7,10.3,5.6
	s10.1,10.9,10.1,11.9s3.1,4.9,2.7,11.7s-0.8,15.4,0.8,16.8s0,6.9,0,6.9c-0.8,1.2-0.9,2.8-0.1,4.1c1.3,2.3-0.3,11.9-0.3,11.9l0.1,10
	c0,0-1.4,6.3,0.3,6.5s-0.3,3.1-0.3,3.1s-1.4,5.1,0.4,7.4s2.3,12.2,2.3,12.2l27.4,39.9c0,0,0.4,7.3-8.3,7.2s-8.6,1.7-8.3,3.3
	s-2.4,3.5-2.4,3.5s-3.5,1.8-1.4,4s7.9,7.2-1.8,10.5c-1.2-1.6-2.1-3.3-2.8-5.1c-0.8-2.3-1.5-4.6-2.1-6.9c0,0-0.9-9.7-2.7-11
	s-1.5-7.4-1.5-7.4s2.6-5-1-7s-55.6-30.9-55.6-30.9l-1.3-38.3c0,0-0.9-28.3,4.5-37.8c0,0-0.6-4.1,0.3-6.4s-0.1-9.7-0.1-9.7
	L981.5,558.1z"/>
<path class="st7" d="M947.9,573.5c0,0-12.9-2.7-16.3-0.9s-10.3,3.2-11.3,4.2s-3.6,0.3-5.9,6.3s-2.6,12.2-5.5,15s-4.5,4.7-4.6,6.8
	s0.4,2.6-0.8,3.2s-2.8,3.3-2.3,4.4s26.7,23.6,26.7,23.6s1.3,8.6,2.4,10.8s-1.3,32.2-3.8,34.2s17.3,1.9,17.3,1.9s0.9-19.7,1.7-20.7
	s-0.5-22-0.5-22s-0.1-17.9,1.5-22.7s1.5-20.5,1.5-20.5s1.5-9.5,3.3-11.7S947.9,573.5,947.9,573.5z"/>
<path class="st9" d="M947.5,573.1c0,0-12.9-2.7-16.3-0.9s-10.3,3.2-11.3,4.2s-3.6,0.3-5.9,6.3s-2.6,12.2-5.5,15s-4.5,4.7-4.6,6.8
	s0.4,2.6-0.8,3.2s-2.8,3.3-2.3,4.4s26.7,23.6,26.7,23.6s1.3,8.6,2.4,10.8s-1.3,32.2-3.8,34.2s17.3,1.9,17.3,1.9s0.9-19.7,1.7-20.7
	s-0.5-22-0.5-22s-0.1-17.9,1.5-22.7s1.5-20.5,1.5-20.5s1.5-9.5,3.3-11.7S947.5,573.1,947.5,573.1z"/>
<path class="st7" d="M946.2,562.3c1,2.8,1.5,5.7,1.5,8.7c13,3.8,26.9-1.7,33.7-13.3c-0.6-3.2-1-6.3-1.2-9.6
	C980.2,548,940.7,546,946.2,562.3z"/>
<path class="st14" d="M926.7,542c0,16.2,13.1,29.3,29.3,29.3c16.2,0,29.3-13.1,29.3-29.3c0-16.2-13.1-29.3-29.3-29.3
	c-13.8,0-25.8,9.7-28.7,23.2C926.9,537.9,926.7,540,926.7,542z"/>
<path class="st9" d="M907.9,609.9l-7,2.2c0,0,0.6,2.6-1.4,3.8c-1.2,0.9-1.9,2.3-1.8,3.8c0,0-0.8,2.8-2.6,3.5s-2.9,4.9-2.9,4.9
	l-5.9,6.8c0,0-2.2,1.8-1.8,2.7s-2.3,1.2-2.3,1.2l1.4,22.8l12.2,2.3l7.6-0.8l6.2-2.3l5.4-3.2l2.4-6.3l10.8-16.4L907.9,609.9z"/>
<path class="st14" d="M883.9,640.6c0,0-15.6-22.6-27.3-10.4s4.7,31.9,8.6,31.3s22.2-1.7,22.2-1.7L883.9,640.6z"/>
<path class="st9" d="M851.2,595.3l70.1,35.8c0.8,0.4,1.1,1.3,0.7,2.1L894.5,687c-0.4,0.8-1.3,1.1-2.1,0.7l-70.1-35.8
	c-0.8-0.4-1.1-1.3-0.7-2.1l27.5-53.8C849.5,595.2,850.4,594.9,851.2,595.3z"/>
<rect x="846" y="607" transform="matrix(0.4545 -0.8907 0.8907 0.4545 -95.7196 1126.507)" class="st1" width="51.8" height="68.8"/>
<circle class="st16" cx="838.9" cy="624.6" r="1.1"/>
<circle class="st16" cx="905.2" cy="658.5" r="1.9"/>
<path class="st14" d="M873.8,645.3c-0.1,16.9,34.9,20.5,34.9,20.5l8.9,1.4l4,0.6l1.7-16.5c0,0-1.8-0.3-4.1-0.8
	c-3.4-0.8-7.8-2.2-8.7-4.1C908.9,643.3,873.9,628.4,873.8,645.3z"/>
<path class="st7" d="M927.4,535.9c0.8,0.1,1.6,0.4,2.1,1c1,1,1,2.9,2.3,3.6c0.5,0.2,1,0.3,1.5,0.2c3.4-0.5,5.4-4.3,8.7-5.4
	c1.9-0.5,3.9-0.3,5.7,0.5c0.7,0.2,1.4,0.6,1.9,1.2c1.1,1.4,0.3,3.5,0.8,5.2c0.7,2.4,3.5,3.3,6,3.6s5.2,0.5,6.9,2.3
	c1.1,1.4,1.5,3.2,1.2,5c-0.2,0.6-0.2,1.2,0,1.8c0.7,1.9,4,1.6,4.9,0.1c0.6-1.1,0.4-2,1.9-2.3c1.1-0.1,2.2,0.1,3.1,0.5
	c2.6,0.9,5.4,1.3,8.1,1.2c6.9-14.7,0.6-32.2-14.1-39c-14.7-6.9-32.2-0.6-39,14.1C928.5,531.6,927.8,533.7,927.4,535.9L927.4,535.9z"
	/>
<path class="st9" d="M964.6,554.2c-0.1-0.6-0.1-1.2,0-1.8c0.3-1.8-0.1-3.6-1.2-5c-1.6-1.9-4.4-2-6.9-2.3s-5.3-1.3-6-3.6
	c-0.5-1.7,0.3-3.8-0.8-5.2c-0.5-0.6-1.2-1-1.9-1.2c-1.8-0.8-3.8-1-5.7-0.5c-3.3,1.1-5.2,4.9-8.6,5.4c-0.5,0.1-1,0-1.5-0.2
	c-1.3-0.6-1.3-2.5-2.3-3.6c-1.6-1.6-4.5-0.6-6.4-1.8c-1.2-0.8-1.7-2.4-2.1-3.8c-0.7-2.8-1.2-5.7-0.6-8.5c1.1-4.8,5.4-8,8.1-12.1
	c2.5-3.8,4-8.6,7.8-11.1c3.7-2.5,8.7-1.9,13-0.7c2,0.7,4,1.2,6.1,1.6c3.5,0.4,6.9-0.5,10.4-0.6c4.9-0.2,9.8,1.3,13.8,4.2
	c0.9,0.6,1.7,1.4,2.2,2.3c0.6,1.3,0.9,2.7,1,4.1c0.4,2.6,1.3,5.2,2.7,7.5c1.1,1.8,2.4,3.4,3.4,5.3c1.1,1.8,1.4,4,0.9,6.1
	c-0.3,1.1-1,2-1.2,3.1c-0.6,2.5,1.1,4.9,2.2,7.2c1.1,2.1,1.6,4.5,1.5,6.8c-0.1,2.4-1.2,4.6-3.1,6.1c-1.9,1.3-4.2,2-6.5,2
	c-2.8,0.1-5.6-0.3-8.3-1.2c-1-0.4-2.1-0.6-3.1-0.5c-1.5,0.3-1.3,1.2-1.9,2.3C968.6,555.8,965.2,556.1,964.6,554.2z"/>
<path class="st7" d="M948.8,719.6l16.5-12.9l26-25.6c0,0-3.5-0.2-8.6-0.4c-1,0.9-1.7,2.2-1.8,3.5c-0.1,3.1-7,0.2-10.6,2
	c-3.6,1.8-21.1,24.3-24.2,24.1c-3.1-0.1-5.5-1.6-6.8,0.6c0,0-0.1,0.1-0.1,0.1c-0.5,0.6-1.2,1-2,1.2L948.8,719.6z"/>
<path class="st6" d="M915.4,718.8l8.3,26.5l1.3,4.2l4-1.1l8.7-2.4l38.8-10.7c4.9-0.2,9.6-1.5,14-3.7c7.3-4.1,15.7-5.9,24.1-5.3
	c5.1,0.5,10.8-1.7,15.6-10.5c0,0,10.8-31.8-16.4-40.9c-27.2-9.1-28.5,4.8-28.5,4.8s-0.1,0.1-0.4,0.2c-1.1,0.7-4,2.8-4.1,5.4
	c-0.1,3.1-7,0.2-10.6,2c-3.6,1.8-21.1,24.3-24.2,24.1c-3.1-0.1-5.5-1.6-6.8,0.6c0,0-0.1,0.1-0.1,0.1c-0.9,1.3-3.8,1.6-5.7,1.7
	c-1,0-1.8,0-1.8,0l-0.2,0.1l-2,0.6L915.4,718.8z"/>
<path class="st7" d="M917.6,667.2l4,0.6l1.7-16.5c0,0-1.8-0.3-4.1-0.8C919.7,652.8,918.4,661.8,917.6,667.2z"/>
<path class="st7" d="M1022.4,590c0,0,11.9-3.5,9,30.4s-25,55.2-25,55.2s-25.4,11.1-36.8,9.4s-19.7-2.2-19.7-2.2
	c-3.6-1.8-7.5-2.9-11.5-3.1c-6.4-0.3-19.9-4.2-20.1-5.5s3.3-20.1,1.8-21.5c0,0,17.9,0.7,19.7,2s4.4,0.4,6.3,0s7.8-5.5,19.5-1
	c0,0,4,0.4,5.5-0.6s4-0.3,4-0.3c1-0.3,1.9-0.8,2.8-1.4c0.4-0.5,3.5,0,3.5,0c0.7,0.3,1.5,0.1,1.8-0.6c0-0.1,0.1-0.2,0.1-0.3
	c0.4-1.1,1-2,1.8-2.8c0,0,3.5-19.5,10-26.8c0,0,1.9-1.7,1.4-3.7S1007,585.9,1022.4,590z"/>
<path class="st9" d="M1022.1,587.4c0,0,11.9-3.5,9,30.4s-25,55.2-25,55.2s-25.4,11.1-36.8,9.4s-19.7-2.2-19.7-2.2
	c-3.6-1.8-7.5-2.9-11.5-3.1c-6.4-0.3-19.9-4.2-20.1-5.5s3.3-20.1,1.8-21.5c0,0,17.9,0.7,19.7,2s4.4,0.4,6.3,0s7.8-5.5,19.5-1
	c0,0,4,0.4,5.5-0.6s4-0.3,4-0.3c1-0.3,1.9-0.8,2.8-1.4c0.4-0.5,3.5,0,3.5,0c0.7,0.3,1.5,0.1,1.8-0.6c0-0.1,0.1-0.2,0.1-0.3
	c0.4-1.1,1-2,1.8-2.8c0,0,3.5-19.5,10-26.8c0,0,1.9-1.7,1.4-3.7S1006.7,583.3,1022.1,587.4z"/>
<path class="st7" d="M929.5,714.5l16.9,20.5c0,0,0.1-0.1,0.1-0.1c0.1-0.4,1.8-4.7,1.4-5c-0.4-0.3-3.3-6.7-9.2-9.4
	c-3-1.5-5.5-3.8-7.2-6.6L929.5,714.5z"/>
<path class="st7" d="M929.7,750c1.2,0.7,1.8,1.1,1.8,1.1s4.3-3.4,8.6-6.9c4.2-3.4,8.4-6.9,8.5-7.1c0.1-0.4,1.8-4.7,1.4-5
	c-0.2-0.1-1.1-1.9-2.7-4c-11.5-3.2-4.2,4.8-3.2,5.1c0,0-14-3.2-14.7,12C929.3,746.8,929.4,748.4,929.7,750z"/>
<path class="st9" d="M943.9,756.4l2.4,1.4l24.7,0.6c2.8,1.7,5.7,3.1,8.8,4.2c0.4,0.1,0.8,0.2,1.2,0.3c2.3,0.2,4.6,0.2,6.9,0.1
	c1.9,0,3.4-0.1,3.4-0.1s-1.2-31.2-2.1-34.5c-0.4-1.6-2.5-1.2-4.5-0.4c-1.5,0.6-3,1.4-4.4,2.2c0,0-10.5,1-12.2,1.9
	c-1.7,0.9-6.4-0.5-9.4,0s-8.2-3.5-8.2-3.5c-14.4-4.7-6.3,4.1-5.3,4.5c0,0-14-3.2-14.7,12C929.8,760.5,943.9,756.4,943.9,756.4z"/>
<path class="st17" d="M979.6,744.4c0.3,6.5,5.3,14.5,8.3,18.7c1.9,0,3.4-0.1,3.4-0.1s-1.2-31.2-2.1-34.5c-0.4-1.6-2.5-1.2-4.5-0.4
	C982.2,732.7,979.4,739.2,979.6,744.4z"/>
<path class="st7" d="M979.6,744.4c0.3,6.5,5.3,14.5,8.3,18.7c1.9,0,3.4-0.1,3.4-0.1s-1.2-31.2-2.1-34.5c-0.4-1.6-2.5-1.2-4.5-0.4
	C982.2,732.7,979.4,739.2,979.6,744.4z"/>
<path class="st13" d="M975.4,745.2c1.7,6.2,1.7,13.2,4.4,17.5c0.4,0.1,0.8,0.2,1.2,0.3c2.3,0.2,4.6,0.2,6.9,0.1
	c1.9,0,3.4-0.1,3.4-0.1s-1.2-31.2-2.1-34.5c-0.4-1.6-2.5-1.2-4.5-0.4c-1.5,0.6-3,1.4-4.4,2.2C980.3,730.3,973.2,737.3,975.4,745.2z"
	/>
<path class="st7" d="M890.1,682c0,0,12.3,4,22.7,18.2L890.1,682z"/>
<g class="st18">
	<path d="M989.9,528.2c0,0.1,0,0.2-0.1,0.3c-0.1,0.4-0.3,0.7-0.4,1.1C989.5,529.1,989.7,528.7,989.9,528.2z"/>
	<path d="M920.4,522c0.2-0.9,0.5-1.8,1-2.6c-0.1,0.2-0.1,0.4-0.2,0.7c-0.7,2.8-0.1,5.7,0.6,8.5c0.3,1.4,0.8,3,2.1,3.8
		c1.9,1.2,4.9,0.2,6.4,1.8c1,1,1,2.9,2.3,3.6c0.5,0.2,1,0.3,1.5,0.2c3.4-0.5,5.4-4.3,8.6-5.4c1.9-0.5,3.9-0.3,5.7,0.5
		c0.7,0.2,1.4,0.6,1.9,1.2c1.1,1.4,0.3,3.5,0.8,5.2c0.7,2.4,3.5,3.3,6,3.6s5.2,0.5,6.9,2.3c1.1,1.4,1.5,3.2,1.2,5
		c-0.1,0.6-0.2,1.2,0,1.8c0.7,1.9,4,1.6,4.9,0.1c0.6-1.1,0.4-2,1.9-2.3c1.1-0.1,2.2,0.1,3.1,0.5c2.7,0.9,5.5,1.3,8.3,1.2
		c2.3,0,4.6-0.6,6.5-2c0.8-0.7,1.5-1.5,2-2.4c-0.4,1.7-1.4,3.2-2.8,4.3c-1.9,1.3-4.2,2-6.5,2c-2.8,0.1-5.6-0.3-8.3-1.2
		c-1-0.4-2.1-0.6-3.1-0.5c-1.5,0.3-1.3,1.2-1.9,2.3c-0.9,1.5-4.2,1.8-4.9-0.1c-0.1-0.6-0.1-1.2,0-1.8c0.3-1.8-0.1-3.6-1.2-5
		c-1.6-1.9-4.4-2-6.9-2.3s-5.3-1.3-6-3.6c-0.5-1.7,0.3-3.8-0.8-5.2c-0.5-0.6-1.2-1-1.9-1.2c-1.8-0.8-3.8-1-5.7-0.5
		c-3.3,1.1-5.2,4.9-8.6,5.4c-0.5,0.1-1,0-1.5-0.2c-1.3-0.6-1.3-2.5-2.3-3.6c-1.6-1.6-4.5-0.6-6.4-1.8c-1.2-0.8-1.7-2.4-2.1-3.8
		C920.3,527.7,919.8,524.8,920.4,522z"/>
</g>
<path class="st7" d="M991.9,624.6c-2.3,3.2-5,6.1-7.1,9.5s-3.5,7.3-3.1,11.2c2.1-2.2,3.1-5.3,4.5-8c2.3-4.7,5.7-8.7,8.6-13
	c0.6-0.8,4.1-5.6,2.3-5.8C995.6,618.3,992.7,623.5,991.9,624.6z"/>
<ellipse class="st19" cx="311.5" cy="523.9" rx="121" ry="114"/>
<path class="st20" d="M495.1,663.6L395,633.7c-20.8,10-43.5,15.2-66.5,15.1c-78.3,0-142-58.3-142-130s63.7-130,142-130
	s142,58.3,142,130c0,36.2-16.6,70.9-45.6,95.5L495.1,663.6z M394.8,631.6l0.4,0.1l88.7,26.4l-62.3-43.7l1-0.8
	c29.2-24.2,45.9-58.8,45.9-94.8c0-70.6-62.8-128-140-128s-140,57.4-140,128s62.8,128,140,128c22.9,0,45.4-5.1,66-15.1L394.8,631.6z"
	/>
<circle class="st1" cx="281" cy="526.4" r="11"/>
<circle class="st1" cx="313" cy="526.4" r="11"/>
<circle class="st1" cx="345" cy="526.4" r="11"/>
<linearGradient id="SVGID_3_" gradientUnits="userSpaceOnUse" x1="-421.1271" y1="304.507" x2="-421.1271" y2="606.3933" gradientTransform="matrix(-1 0 0 -1 -19.8248 711.3557)">
	<stop  offset="0" style="stop-color:#808080;stop-opacity:0.25"/>
	<stop  offset="0.5351" style="stop-color:#808080;stop-opacity:0.12"/>
	<stop  offset="1" style="stop-color:#808080;stop-opacity:0.1"/>
</linearGradient>
<path class="st21" d="M263.7,403.9c6.9,4.6,17.3,2.4,17.3,2.4s15.8-7.5,20.4-7.5s16-4.6,16-4.6l-0.4-3.1l-1.2-9.4
	c7.2,5.6,15.2,3.7,19.1,3.3c4.2-0.4,26.8-13.8,28.9-14.7c0.8-0.5,1.5-1.2,2-2h0c1.5-2.2,2.7-4.6,3.8-7l0,0c1.4-1.2,2.4-2.2,2.4-2.5
	c0.3-1.3,0.8-2.5,1.4-3.7c2.4-0.3,4.8-1.2,6.8-2.5c0.3-0.3,0.7-0.6,0.9-1c0.9-1.1,1.3-2.5,1.3-3.9c0,0,22-22.2,19.1-31.4
	s7.1-9.5,7.1-9.5s15.3-6.6,17.5-10.6c1.3-2.4,12.8-7.8,21.5-11.5c0.4-0.2,0.7-0.3,1.1-0.5c3.4,7.4,20.4,1.7,23.8-1.4
	c3.6-3.3,14-4.8,14-4.8s0.4-43.1,3.8-48.6c1.6-2.6,2-11.1,1.9-19.3c0-0.3,0-0.6,0-0.9c4.7-0.9,15.8-3,20.9-3.5
	c3.3-0.3,6.7-2.4,9.3-4.3c0.2,0.2,0.3,0.4,0.3,0.4c0.9,0.4,1.9,0.5,2.8,0.5c0.9,0.1,1.7-0.1,2.5-0.5c2-1.1,9.3-3.3,12-4.4
	s-0.4-9-2.4-10.6s-3.3-3.5-2.2-4.4s-2.7-3.1-4.9-3.5s-8.9-3.5-8.9-3.5s-2.4-5.1-6.4-5.1s-9.3-4-9.3-4c-0.2-1.8-4.4-2-4.4-2
	s-16-12.3-18.7-10.8s-10-2.4-10-2.4s-9,1-11.1-0.6l0,0c0-0.5-0.2-1.1-0.5-1.5c-0.5-1.5-2.8-3.5-5.1-5.2c0.2-1,0.3-2.1,0.3-3.2
	c0-0.5,0-0.9,0-1.4c0-0.1,0-0.2,0-0.2c0.1-1,0.2-2.1,0.3-3.1c0-1,0.3-2,0.8-2.9c0.4-0.6,0.9-1,1.3-1.6c0.1-0.1,0.2-0.3,0.3-0.4
	c0,0,0-0.1,0.1-0.1c0.1-0.1,0.1-0.2,0.2-0.3c0,0,0-0.1,0.1-0.1c0.1-0.3,0.2-0.6,0.3-0.9c0,0,0-0.1,0-0.1c0-0.1,0-0.3,0.1-0.4l0-0.1
	c0.1-1.3-0.1-2.6-0.5-3.8c-0.7-2.1-1.7-4.1-1.8-6.2c0.1-1.1,0-2.2-0.1-3.2c-0.5-2.4-3-3.9-5.4-4.9c-3.3-1.4-4.9-2.9-7.6-4.9
	c-2.2-1.7-5.9-0.9-8.8-0.7c-6.4,0.4-12.8,2.4-18.9,4.4c-2.4,0.6-4.6,1.8-6.6,3.3c-1.2,1.1-2.1,2.5-2.4,4.1l0,0l0,0
	c-0.1,0.4-0.1,0.7-0.1,1.1c0,0,0,0.1,0,0.1c0,0.1,0,0.3,0,0.4c0,0,0,0.1,0,0.1c0,0.2,0.1,0.3,0.1,0.5l0,0c0.3,0.8,0.7,1.5,1,2.3
	c0.1,0.2,0.1,0.4,0.2,0.5c0,0,0,0,0,0.1c0,0.2,0.1,0.4,0.1,0.5l0,0c0.2,2-0.5,4.1-0.8,6.1c0,0.3-0.1,0.6-0.1,0.9l0,0l0,0
	c-0.1,1.2,0,2.4,0.3,3.5l0,0c0,0.1,0.1,0.3,0.1,0.4c0,0.1,0,0.1,0.1,0.2c0,0.1,0.1,0.2,0.1,0.3c0,0.1,0.1,0.2,0.1,0.2
	c0,0.1,0.1,0.2,0.1,0.3c0,0.1,0.1,0.2,0.1,0.3c0,0.1,0.1,0.2,0.2,0.3c0.1,0.1,0.1,0.2,0.2,0.3c0.1,0.1,0.1,0.2,0.2,0.2
	c0.1,0.1,0.1,0.2,0.2,0.3c0.1,0.1,0.1,0.1,0.2,0.2c0.1,0.1,0.2,0.2,0.2,0.2c0.1,0.1,0.1,0.1,0.2,0.2c0.1,0.1,0.2,0.2,0.3,0.2
	c0.1,0.1,0.1,0.1,0.2,0.2c0.1,0.1,0.2,0.2,0.3,0.2c0.1,0,0.1,0.1,0.2,0.1c0.2,0.1,0.4,0.2,0.6,0.3c1.3,0.6,2.9,0.8,3.7,1.9
	c0.2,0.3,0.3,0.6,0.4,0.9c0,0.1,0,0.2,0,0.2v0.2c0,0.7,0,1.3,0.1,1.9c0,0.3,0,0.7,0.1,1c0,0.3,0.1,0.5,0.2,0.8
	c0.9,4.4,3.3,8.4,6.7,11.3c0.1,0.3,0.1,0.7,0.2,1.2c-2,1.5-4.1,2.6-6.5,3.4c-5.3,1.6-12.9,8.8-12.9,8.8s-3.8,27-4.7,30.3
	c-0.9,3.3-1.6,16-1.6,16s-0.9,5.3-2.2,7.9c-0.9,1.9-0.8,9.8,1.9,14.7c-0.4,1-1,1.8-1.6,2.7c-5.3,6.2-21.3,5.9-26.7,5.9
	c-4.9,0-6.4,3-6.6,3.4c-9.8,2.8-41.4,11.8-45.1,13.4c-4.4,1.9-6.9,21.1-6.9,21.1s-9.3,31.9-8.9,36.1s-3.1,15.8-3.1,15.8
	s0,13.1-1.5,14c0,0,0,0,0,0c-1.6,0.7-1.3,7-1.3,7s1.1,0.3,2.9,0.8c-0.5,3.2-2.2,7.7-3.6,10.9c-0.7-0.9-1.4-1.2-1.8-0.2
	c-1.1,2.8-17.8,22.6-22,22.6c-2,0-5.3,1.6-7.5,3.9C261.1,398.4,260.1,401.5,263.7,403.9z M340.2,289.4c18.9,1.8,39.1-1.3,39.1-1.3
	s-1.6,5.5-2.9,7.7s-5.1,14.7-5.1,17.4s-6,25.3-7.8,26.4c-0.9,0.7-1.5,1.7-1.9,2.8c-0.5,1.1-0.9,2.2-1.2,3.4c0,0.6,0.1,1.1,0.2,1.6
	c-1.3,1.2-2.7,2.5-4,3.6l0,0c0,0-7.9,4.4-10.6,6.8s-15.1,5.4-15.1,5.4c-3.1,1.3-6.1,2.8-8.9,4.6c-3.9,2.3-7.7,5.3-8.7,8.2
	c0.4-4.9,1.1-10.8,1.6-14.6c0.2,0,0.5,0,0.7,0c6.2-0.4,5.3-6.3,5-7.8c0-0.2-0.1-0.3-0.1-0.3c4.4-4.8,14.4-40.9,13.1-44.8
	s1.1-7.5,1.6-7.5s1.2-4.4,0.1-6.8S340.2,289.4,340.2,289.4L340.2,289.4z M492.9,192.4c-0.4,0.1-0.8,0.2-1.2,0.3c0-0.2,0-0.3,0-0.3
	S492.2,192.5,492.9,192.4L492.9,192.4z M428.4,159.3c-0.2,0.2-0.4,0.4-0.5,0.6c-0.1,0.1-0.2,0.2-0.2,0.2c0-0.4,0-0.8,0-1.2
	C427.8,159,428.1,159.2,428.4,159.3L428.4,159.3z M406.1,201.9l0.1,1.2c0,0-0.1,0.8-0.3,2L406.1,201.9z M508.2,189.6l-3.9,0.7
	c0.5-0.2,1.1-0.4,1.6-0.7c0.4-0.2,0.8-0.3,1.2-0.3c0.5,0,1,0.2,1.4,0.3C508.5,189.6,508.4,189.6,508.2,189.6L508.2,189.6z"/>
<path class="st22" d="M377.1,348.3c0,0-4.5,9.2-4.2,9.9s-9.6,8.5-9.6,8.5l-10.7-7.6l1.1-5.2c0,0,12-10.8,12.9-12.1
	S377.1,348.3,377.1,348.3z"/>
<path class="st9" d="M316.1,379.6c7.4,7.2,16.1,5,20.3,4.6s26.3-13.7,28.4-14.6c0.8-0.5,1.5-1.2,1.9-2h0c1.4-2.2,2.7-4.5,3.7-6.9
	c-0.1,0-7.4,2.1-9.2,0c0,0-3.1-3.7-3.7-3.7s-0.1-6.6-0.1-6.6s-7.8,4.4-10.4,6.8s-14.8,5.3-14.8,5.3c-3,1.3-6,2.8-8.8,4.5
	C317.7,370.5,311.9,375.5,316.1,379.6z"/>
<path class="st7" d="M316.1,379.6c7.4,7.2,16.1,5,20.3,4.6s26.3-13.7,28.4-14.6c0.8-0.5,1.5-1.2,1.9-2c-2.6-1.5-19.4,9.2-24.2,11.1
	c-4.7,2-16.7,0.9-23.4-2c-3.4-1.4,0-5.8,4.3-9.8C317.7,370.5,311.9,375.5,316.1,379.6z"/>
<path class="st22" d="M317,356.9c0,0-3.1,23.3-2.3,26.4s-19.5-10.5-19.5-10.5s7.1-14.6,5-18S317,356.9,317,356.9z"/>
<path class="st9" d="M297.6,357.3c0,0,12.7,3.7,19.6,3.3c6.1-0.4,5.2-6.3,4.9-7.7c0-0.2-0.1-0.3-0.1-0.3
	c4.4-4.8,14.2-40.6,12.9-44.5s1.1-7.4,1.6-7.4s1.2-4.4,0.1-6.8s4.8-4.6,4.8-4.6c18.5,1.7,38.4-1.3,38.4-1.3s-1.5,5.5-2.8,7.7
	s-5,14.6-5,17.2s-5.9,25.1-7.6,26.2c-0.9,0.7-1.5,1.7-1.9,2.8c-0.5,1.1-0.8,2.2-1.2,3.3c0.7,14.6,17.2,8.9,19.6,7
	c1.4-1.2,2.2-2.9,2.2-4.8c0,0,21.6-22,18.8-31.2s7-9.4,7-9.4s15.1-6.5,17.1-10.5c1.3-2.4,12.6-7.7,21.1-11.4c5.3-2.3,9.5-4,9.5-4
	l-3.5-12.7l-2.8-10l-5.2-2l-16.8-6.3l-30.1-4.1l-2.8,0.4l-29.3,3.8c0,0-42.8,12.2-47.1,14.1s-6.8,21-6.8,21s-9.2,31.6-8.7,35.8
	s-3.1,15.7-3.1,15.7s0,13-1.5,13.9c0,0,0,0,0,0C297.4,351,297.6,357.3,297.6,357.3z"/>
<path class="st7" d="M341.4,289.3c18.5,1.7,38.4-1.3,38.4-1.3c1.3-4.1,19.6-15.5,19.6-15.5C384.4,268.8,341.4,289.3,341.4,289.3z"/>
<path class="st2" d="M361.3,345.1c0.7,14.6,17.2,8.9,19.6,7c0.3-0.3,0.7-0.6,0.9-1c-5.8,2.1-16.1,3.8-19.4-9.4
	C362,342.9,361.6,344,361.3,345.1z"/>
<path class="st2" d="M297.6,357.3c0,0,12.7,3.7,19.6,3.3c6.1-0.4,5.2-6.3,4.9-7.7c-6.4-0.2-17.4-0.8-23.2-2.5c0,0,0,0,0,0
	C297.4,351,297.6,357.3,297.6,357.3z"/>
<path class="st7" d="M361.3,345.1c0.7,14.6,17.2,8.9,19.6,7c0.3-0.3,0.7-0.6,0.9-1c-5.8,2.1-16.1,3.8-19.4-9.4
	C362,342.9,361.6,344,361.3,345.1z"/>
<path class="st7" d="M297.6,357.3c0,0,12.7,3.7,19.6,3.3c6.1-0.4,5.2-6.3,4.9-7.7c-6.4-0.2-17.4-0.8-23.2-2.5c0,0,0,0,0,0
	C297.4,351,297.6,357.3,297.6,357.3z"/>
<path class="st9" d="M266.4,402.9c6.8,4.6,17,2.4,17,2.4s15.5-7.4,20.1-7.4s15.7-4.6,15.7-4.6l-0.4-3.1l-1.8-14.8c0,0-17-0.4-17.7-2
	c0,0-3.1-7.5-4.1-4.7s-17.5,22.4-21.6,22.4c-2,0-5.2,1.6-7.4,3.8C263.9,397.4,262.9,400.5,266.4,402.9z"/>
<path class="st7" d="M325.1,274c0,0,14.2,8.9,10.3,10.9S325.1,274,325.1,274z"/>
<path class="st7" d="M319.2,291.2c0,0,12.2,11.6,7.6,11.9S319.2,291.2,319.2,291.2z"/>
<path class="st7" d="M306.1,328.1c0,0,6.2,11.7,3.9,13.7S306.1,328.1,306.1,328.1z"/>
<path class="st7" d="M374.4,339.9c-2.2,2.2,20.7-7.2,15.5-7.6S374.4,339.9,374.4,339.9z"/>
<path class="st22" d="M420.2,176.3c0,0,0.3,0,0.7-0.1c2.7-0.4,12.5-2,21.4-3.9c2.2-0.5,4.2-1,6.1-1.5c6.8-1.8,11.3-3.7,8.4-5.2
	c-3.8-2.1-5.8-5.9-6.9-9.1c-0.1-0.3-0.2-0.6-0.3-0.9c-0.5-1.6-0.8-3.3-0.9-5c0,0-24.6-8.7-19.8,0c2.4,4.3,0.8,7.8-1.5,10.2
	c-1.5,1.6-3.3,3-5.3,4L420.2,176.3z"/>
<path class="st7" d="M446.6,169.5c0,0-8.8,6.3-17.8,1.1S408,216.9,408,216.9L395.7,247c0,0-7.9,6.5,1.9,9.4s31.7-2.8,37.2,5.5
	s16,9.6,17.1,9.6s5.2-31.2,5.2-31.2l1.1-45.2L446.6,169.5z"/>
<path class="st23" d="M398.1,254.6c9.8,2.8,31.7-2.8,37.2,5.5c2.3,3.4,5.6,6,9.4,7.6c2.5,1.1,5.1,1.8,7.7,2c0.1,0,0.3-0.6,0.6-1.6
	c1.5-6.3,4.6-29.6,4.6-29.6l1.1-45.2l-10.4-22.5l-1.4-3.1c-1.4,0.9-2.9,1.7-4.5,2.2c-4.4,1.6-9.3,1.2-13.3-1.1
	c-2.6-1.5-5.5,1.8-8.3,7.3c-6.6,13.2-12.5,38.9-12.5,38.9l-12.2,30.1c-0.3,0.2-0.6,0.5-0.8,0.8C393.6,247.8,390.4,252.4,398.1,254.6
	z"/>
<path class="st7" d="M445,256.1c-0.5,3.8-0.6,7.7-0.3,11.5c0.4,5.4,1,10.9,2.1,16.2c0.1,0.3,0.2,0.7,0.3,1c5.3-2.3,9.5-4,9.5-4
	l-3.5-12.7c1.5-6.3,4.6-29.6,4.6-29.6l1.1-45.2l-10.4-22.5c6.8-1.8,11.3-3.7,8.4-5.2c-4.2-2.3-6.2-6.6-7.2-10
	c-1.8,2.5-3.9,4.7-6.2,6.7c-0.1,0.1-0.1,0.1-0.1,0.1l-0.8,7.6l-0.2,2.3l-0.5,4.9c0,0,2.4,57.4,4.1,60.6s0.9,9.6-0.7,17
	C445.2,255.2,445.1,255.7,445,256.1z"/>
<path class="st24" d="M446.1,253.9c-1.5,7.4-0.2,19.6,1.5,29s20.3,3.3,23.8,0s13.7-4.8,13.7-4.8s0.4-42.8,3.7-48.2
	c1.6-2.6,1.9-11,1.9-19.2c0-7.3-0.4-14.4-0.5-16.8c0-0.6-0.1-0.9-0.1-0.9s14.2-24,14-25.7s-4.4-2-4.4-2s-15.7-12.2-18.3-10.7
	s-9.8-2.4-9.8-2.4s-9.1,1-11-0.7c-0.2-0.2-0.4-0.5-0.3-0.8c0.2-2.8-9.3-8.8-9.6-8.9c8,7.2-4.9,18.3-6.4,19.5
	c-0.1,0.1-0.1,0.1-0.1,0.1l-1.5,14.8c0,0,2.4,57.4,4.1,60.6S447.7,246.5,446.1,253.9z"/>
<circle class="st2" cx="447" cy="191.6" r="1.1"/>
<path class="st7" d="M444.7,162.2l6.6,6.4l9.7-16.2c-0.2-0.2-0.4-0.5-0.3-0.8c0.2-2.8-9.3-8.8-9.6-8.9
	C459.2,149.9,446.2,161,444.7,162.2z"/>
<circle class="st7" cx="449.2" cy="226.5" r="1.1"/>
<circle class="st2" cx="449.2" cy="226.1" r="1.1"/>
<path class="st24" d="M444.3,161.4l6.6,6.4l9.7-16.2c-0.2-0.2-0.4-0.5-0.3-0.8c0.2-2.8-9.3-8.8-9.6-8.9
	C458.7,149,445.8,160.2,444.3,161.4z"/>
<path class="st9" d="M450.9,222.8l-11.8-0.3c-0.9,0-1.7-0.8-1.7-1.7l0.7-28.7c0-0.9,0.8-1.7,1.7-1.7l11.8,0.3c0.9,0,1.7,0.8,1.7,1.7
	l-0.7,28.7C452.6,222,451.8,222.8,450.9,222.8z"/>
<path class="st7" d="M450.9,222.8l-11.8-0.3c-0.9,0-1.7-0.8-1.7-1.7l0.7-28.7c0-0.9,0.8-1.7,1.7-1.7l11.8,0.3c0.9,0,1.7,0.8,1.7,1.7
	l-0.7,28.7C452.6,222,451.8,222.8,450.9,222.8z"/>
<path class="st9" d="M451,223.5l-11.8-0.3c-0.9,0-1.7-0.8-1.7-1.7l0.7-28.7c0-0.9,0.8-1.7,1.7-1.7l11.8,0.3c0.9,0,1.7,0.8,1.7,1.7
	l-0.7,28.7C452.7,222.7,451.9,223.5,451,223.5z"/>
<circle class="st24" cx="445.9" cy="200.6" r="2.4"/>
<path class="st7" d="M363.7,252c5.5,2.4,41.2-3.9,46.5-5.5s12.9-13.3,9.2-21.8s1.3-16.8,1.3-16.8s7.9-16.8,9.6-20.1
	s5.4-12.8,5.9-14.4c0-0.4-0.1-0.7-0.3-1c-1.4-2.2-6.9-6-6.9-6c-1.5,0.6-1.7-3.9-1.7-7.1c0-1.8,0.1-3.3,0.1-3.3s-0.7,0.7-1.9,1.7
	c-0.4,0.4-0.9,0.8-1.5,1.2c-2.1,1.6-4.4,2.9-6.9,3.8c-5.2,1.5-12.7,8.7-12.7,8.7l2.2,33.5c0,0-5,31.5-10.3,37.6s-20.9,5.9-26.2,5.9
	S363.7,252,363.7,252z"/>
<path class="st24" d="M363.2,250.7c5.5,2.4,41.2-3.9,46.5-5.5s12.9-13.3,9.2-21.8s1.3-16.8,1.3-16.8s7.9-16.8,9.6-20.1
	s5.4-12.8,5.9-14.4c0-0.4-0.1-0.7-0.3-1c-1.4-2.2-6.9-6-6.9-6c-1.5,0.6-1.7-3.9-1.7-7.1c0-1.8,0.1-3.3,0.1-3.3s-0.7,0.7-1.9,1.7
	c-0.4,0.4-0.9,0.8-1.5,1.2c-2.1,1.6-4.4,2.9-6.9,3.8c-5.2,1.5-12.7,8.7-12.7,8.7l2.2,33.5c0,0-5,31.5-10.3,37.6s-20.9,5.9-26.2,5.9
	S363.2,250.7,363.2,250.7z"/>
<path class="st7" d="M422.6,155.7c0,0,0.2,1.2,0.5,2.9c1.2,6,4,19.1,6,18.6c1.4-0.4,3.9-2.9,5.8-5.1c-1.4-2.2-6.9-6-6.9-6
	c-1.5,0.6-1.7-3.9-1.7-7.1l-1.8-1.5L422.6,155.7z"/>
<path class="st24" d="M423,154.8c0,0,0.2,1.2,0.5,2.9c1.2,6,4,19.1,6,18.6c1.4-0.4,3.9-2.9,5.8-5.1c-1.4-2.2-6.9-6-6.9-6
	c-1.5,0.6-1.7-3.9-1.7-7.1l-1.8-1.5L423,154.8z"/>
<path class="st22" d="M409,219c0,0,10.9-2.2,14-7s23.8-8.9,21.3-3.9S423,229.6,423,229.6l-8.1,11.6l-10.8-2.8l-4.6-8.9L409,219z"/>
<path class="st7" d="M434.8,231.5c0,0-10.6,3.9-12.2,9.2S434.8,231.5,434.8,231.5z"/>
<path class="st7" d="M441.3,237.6c0,0,1,5.5-12.3,5L441.3,237.6z"/>
<path class="st7" d="M498.5,167.8l4.8-0.4c0,0,5.2,3.9,9.2,3.9s6.3,5,6.3,5s6.5,3.1,8.7,3.5s5.9,2.6,4.8,3.5s0.2,2.8,2.2,4.4
	s5,9.4,2.4,10.5s-9.8,3.3-11.8,4.4c-1.4,0.6-3,0.6-4.4,0c0,0-11.6-15.1-17.4-12.2s-14,2.8-14,2.8l-6.3-13.3L498.5,167.8z"/>
<path class="st24" d="M398.1,239.6c0.9,1.5,2.4,2.5,4.1,2.8c4.3,0.5,8.6,0.1,12.7-1.2c0,0-22-7-0.8-24h-5.7l-1.9-0.7l0.9-4.5
	l1.2-40.7l-4.6-1.1c0,0-3.7,26.8-4.6,30.1c-0.9,3.3-1.5,15.9-1.5,15.9s-0.9,5.2-2.2,7.9C394.8,226,395,234.9,398.1,239.6z"/>
<path class="st7" d="M399,239.6c0.9,1.5,2.4,2.5,4.1,2.8c4.3,0.5,8.6,0.1,12.7-1.2c0,0-22-7-0.8-24h-5.7l-1.9-0.7
	C404.3,222,399.4,231.8,399,239.6z"/>
<path class="st25" d="M398.1,239.6c0.9,1.5,2.4,2.5,4.1,2.8c4.3,0.5,8.6,0.1,12.7-1.2c0,0-22-7-0.8-24h-5.7l-1.9-0.7
	C403.4,222,398.5,231.8,398.1,239.6z"/>
<path class="st24" d="M398.1,239.6c0.9,1.5,2.4,2.5,4.1,2.8c4.3,0.5,8.6,0.1,12.7-1.2c0,0-22-7-0.8-24h-5.7l-1.9-0.7
	C403.4,222,398.5,231.8,398.1,239.6z"/>
<path class="st7" d="M427.4,160.8c7.6,3.5,16.6,1.8,22.5-4.3c-0.1-0.3-0.2-0.6-0.3-0.9c-0.5-1.6-0.8-3.3-0.9-5c0,0-24.6-8.7-19.8,0
	C431.3,154.8,429.7,158.3,427.4,160.8z"/>
<path class="st22" d="M415.8,141.8v0.2c0,0.6,0,1.3,0.1,1.9c0.1,0.6,0.2,1.2,0.3,1.8c2.2,10.8,12.6,17.7,23.4,15.6
	c6.9-1.4,12.6-6.3,14.9-13c0.1-0.4,0.3-0.8,0.4-1.2c0.5-1.7,0.7-3.5,0.7-5.3c0-0.5,0-0.9,0-1.4c-0.8-10.9-10.2-19.2-21.2-18.4
	C423.9,122.7,415.8,131.4,415.8,141.8z"/>
<path class="st7" d="M415.8,142c0.1,0.6,0.1,1.3,0.1,1.9c0,0.3,0,0.7,0.1,1c0,0.3,0.1,0.5,0.2,0.8c0.8,1.9,3.4,3.1,5.1,1.9
	c0.7-0.5,1.2-1.2,1.5-2c1.8-3.4,4.4-7.3,8.4-7.4c1.7,0,3.3,0.7,5,1.1c1.6,0.4,3.6,0.5,4.9-0.7c0.9-0.9,1.4-2.3,2.7-2.6
	c1.3-0.3,2.4,0.9,3,2c0.6,1.1,1,2.5,2.2,3.1c0.5,0.3,1.1,0.3,1.7,0.6c2.4,1.3,1.3,5.9,3.7,6.6c0.1,0,0.2,0,0.2,0.1
	c0-0.4,0.1-0.8,0.1-1.2c0.2-2.2,0.4-4.4,0.7-6.7c-0.8-10.9-10.2-19.2-21.2-18.4c-10.4,0.7-18.5,9.4-18.5,19.8V142z"/>
<path class="st9" d="M451.1,112.2c2.3,1,4.8,2.5,5.3,4.9c0.1,1.1,0.2,2.1,0.1,3.2c0.1,2.1,1.1,4.1,1.8,6.2s0.9,4.5-0.4,6.2
	c-0.4,0.5-1,1-1.3,1.6c-0.5,0.9-0.7,1.9-0.8,2.9l-1.1,10.7c-2.8-0.5-1.5-5.3-4-6.6c-0.5-0.3-1.1-0.4-1.7-0.6
	c-1.2-0.6-1.6-1.9-2.2-3.1s-1.7-2.3-3-2c-1.3,0.3-1.7,1.8-2.7,2.6c-1.2,1.1-3.2,1.1-4.9,0.7s-3.3-1.1-5-1.1c-4,0.1-6.6,4-8.4,7.4
	c-0.4,0.8-0.9,1.5-1.5,2c-1.9,1.4-5-0.4-5.4-2.6c-0.2-1.3,0.2-2.7-0.5-3.8c-0.8-1.1-2.3-1.3-3.6-1.9c-3.2-1.5-4.2-5.4-3.6-8.8
	c0.4-2.4,1.3-4.9,0.6-7.2c-0.3-0.8-0.7-1.5-1-2.3c-0.7-2.2,0.4-4.7,2.2-6.3c1.9-1.5,4.1-2.6,6.5-3.2c6-2,12.2-3.9,18.5-4.3
	c2.8-0.2,6.4-1,8.6,0.7C446.2,109.3,447.8,110.8,451.1,112.2z"/>
<circle class="st7" cx="445.9" cy="174.4" r="1.1"/>
<circle class="st2" cx="445.9" cy="174" r="1.1"/>
<circle class="st7" cx="452.9" cy="242.9" r="1.1"/>
<circle class="st2" cx="452.9" cy="242.4" r="1.1"/>
<circle class="st7" cx="449.2" cy="261" r="1.1"/>
<circle class="st2" cx="449.2" cy="260.6" r="1.1"/>
<path class="st7" d="M411.7,191.6c0,0-2.4,16.3,0,19.1S411.7,191.6,411.7,191.6z"/>
<path class="st7" d="M483,221.9c0,0,4.6,9.9,0,19.3s-7.4,13.3-5.9,19.3S483,221.9,483,221.9z"/>
<path class="st7" d="M266.4,402.9c6.8,4.6,17,2.4,17,2.4s15.5-7.4,20.1-7.4s15.7-4.6,15.7-4.6l-0.4-3.1c-4.5,0.9-14.8,2.9-16,4
	c-1.5,1.3-20.3,7.6-20.3,7.6s-12.8-1.6-16.3-6.8C263.9,397.4,262.9,400.5,266.4,402.9z"/>
<g class="st18">
	<path d="M456.5,118.5c0-0.2,0-0.5,0-0.7c0,0.3,0,0.5,0,0.8C456.5,118.6,456.5,118.6,456.5,118.5z"/>
	<path d="M411.9,137.1c1.3,0.6,2.8,0.8,3.6,1.9c0.7,1.1,0.3,2.5,0.5,3.8c0.3,2.3,3.4,4,5.4,2.6c0.7-0.5,1.2-1.2,1.5-2
		c1.8-3.4,4.4-7.3,8.4-7.4c1.7,0,3.3,0.7,5,1.1s3.6,0.5,4.9-0.7c0.9-0.9,1.4-2.3,2.7-2.6c1.3-0.3,2.4,0.9,3,2s1,2.5,2.2,3.1
		c0.5,0.3,1.1,0.3,1.7,0.6c2.4,1.3,1.2,6.1,4,6.6c0.4-3.6,0.7-7.2,1.1-10.7c0-1,0.3-2,0.8-2.9c0.4-0.6,0.9-1,1.3-1.6
		c0.5-0.7,0.8-1.5,0.9-2.3c0.2,1.4-0.1,2.9-0.9,4.1c-0.4,0.5-1,1-1.3,1.6c-0.5,0.9-0.7,1.9-0.8,2.9c-0.4,3.6-0.7,7.2-1.1,10.7
		c-2.8-0.5-1.5-5.3-4-6.6c-0.5-0.3-1.1-0.4-1.7-0.6c-1.2-0.6-1.6-1.9-2.2-3.1s-1.7-2.3-3-2c-1.3,0.3-1.7,1.8-2.7,2.6
		c-1.2,1.1-3.2,1.1-4.9,0.7s-3.3-1.1-5-1.1c-4,0.1-6.6,4-8.4,7.4c-0.4,0.8-0.9,1.5-1.5,2c-1.9,1.4-5-0.4-5.4-2.6
		c-0.2-1.3,0.2-2.7-0.5-3.8c-0.8-1.1-2.3-1.3-3.6-1.9c-2.9-1.3-4-4.8-3.7-7.9C408.3,133.5,409.5,136,411.9,137.1z"/>
	<path d="M407.8,118.8c0.3,0.8,0.7,1.5,1,2.3c0.3,0.9,0.4,1.9,0.2,2.9c0-0.4-0.1-0.8-0.2-1.1c-0.3-0.8-0.7-1.5-1-2.3
		c-0.2-0.7-0.3-1.5-0.1-2.3C407.7,118.4,407.7,118.6,407.8,118.8z"/>
</g>
<path class="st7" d="M471.9,215.8c5-1.1,16.8-4.6,16.8-4.6s0.8-0.2,2.1-0.4c0-7.3-0.4-14.4-0.5-16.8l-0.1,0c0,0-10,3.3-12.4,5
	s-9.8,1.3-9.8,1.3s-11.6,0.7-21.2,11.3S466.8,216.9,471.9,215.8z"/>
<path class="st22" d="M520.9,196.3c1.5,0.7,2.1,2.4,1.4,3.9c-0.2,0.4-0.5,0.8-0.8,1c-2.7,2.2-6.5,4.8-10.2,5.2
	c-6.2,0.6-21,3.6-22.5,3.9c-0.1,0-0.2,0-0.2,0.1c-1.2,0.4-12,3.5-16.7,4.5c-5,1.1-34.7,6.6-25.1-4.1c5.4-6.2,12.8-10.2,20.9-11.3
	c0.1,0,0.3,0,0.4,0c1.1,0.1,7.5,0.3,9.6-1.3c1.1-0.7,2.4-1.3,3.6-1.8c4.7-2,9.7-3.4,14.7-4.3l10.3-1.8c0.6-0.1,1.2,0,1.7,0.2
	L520.9,196.3z"/>
<path class="st24" d="M499.3,167.8l4.8-0.4c0,0,5.2,3.9,9.2,3.9s6.3,5,6.3,5s6.5,3.1,8.7,3.5s5.9,2.6,4.8,3.5s0.2,2.8,2.2,4.4
	s5,9.4,2.4,10.5s-9.8,3.3-11.8,4.4c-1.4,0.6-3,0.6-4.4,0c0,0-11.6-15.1-17.4-12.2s-14,2.8-14,2.8l-6.3-13.3L499.3,167.8z"/>
</svg>
