<?xml version="1.0" encoding="utf-8"?>
<!-- Generator: Adobe Illustrator 23.0.2, SVG Export Plug-In . SVG Version: 6.00 Build 0)  -->
<svg version="1.1" id="ec16f1a7-6162-4648-9d10-380c89c40baf"
	 xmlns="http://www.w3.org/2000/svg" xmlns:xlink="http://www.w3.org/1999/xlink" x="0px" y="0px" viewBox="0 0 1144 774.7"
	 style="enable-background:new 0 0 1144 774.7;" xml:space="preserve">
<style type="text/css">
	.st0{fill:#26282D;}
	.st1{fill:#5B250E;}
	.st2{fill:#CC9483;}
	.st3{fill:#E0AC9B;}
	.st4{fill:url(#SVGID_1_);}
	.st5{fill:#FFFFFF;}
	.st6{fill:#0C5187;}
	.st7{fill:#AFB3BC;}
	.st8{fill:#128A9A;}
	.st9{fill:#873F26;}
	.st10{opacity:0.25;fill:#873F26;enable-background:new    ;}
	.st11{fill:#D4D5D6;}
	.st12{fill:#A380B7;}
	.st13{fill:#0C5195;}
</style>
<title>Group chat</title>
<g>
	<g>
		<path d="M627,227.9c-9.1,0-13.6,7.6-15.1,15.9c-1.5,8.3-21.4,49.1-25.9,52.9c0,0-26.3,21.8-31.5,24.4c-5.2,2.5,8,19.6,14.1,27.9
			c1.4,1.9,1.1,5.9,4.1,4.7c10-4.1,30.8-24,36-29.3c6.8-6.8,16.6-25.4,19.7-44.3C631.3,261.1,627,227.9,627,227.9z"/>
		<path class="st0" d="M554.1,321.6c3.8-3.4,24.1,17.2,19.4,30.3c-2.8,8-15.5-11.2-20.5-28.1C552.3,321.4,554.1,321.6,554.1,321.6z"
			/>
		<path class="st1" d="M630.9,157.3c-4.3,18.1-3.8,61.6-14.1,60.4c4,4.3,10.9-0.7,9.5-3.2c-2.6,6.9-11.3,7.4-11.3,7.4
			c5.2,8.3,10.2,6.6,14.7,3.8c0.8,5-10.6,4.2-13.1,5.5c6.4-0.1,52.7,8.5,50.1-61.7C666.1,150.1,630.9,157.3,630.9,157.3z"/>
		<g>
			<path class="st2" d="M702.2,531.9c7.2,20,3.5,42.3-8.3,91.1c-0.8,5.5-3.9,17.8-3.4,21.2c4.9,31.4,2.6,36.3,0.6,38.1
				c-7.5,6.6-21.5,2.8-21.5-4.4s4.7-27.3,5-33.6c0.3-6.9,0.8-23.2,0.2-33c-1.7-29.7-6.9-67-3.8-80.4c3.1-13.5-9.1-67-9.1-67
				l43.8-1.5L702.2,531.9z"/>
			<path d="M693.7,669.3c-0.5,8-2.9,10.9-11.9,10.6c-7.9-0.3-11.2-5-10.6-12.6c-2.8,10-3.6,13.3-1.9,16.7c1.7,3.4,5.9,9.5,10.3,9.9
				c3.5,0.3,12.3-4.4,14-12C695.4,674.4,693.7,669.3,693.7,669.3z"/>
		</g>
		<g>
			<path class="st3" d="M625.3,529.8c-1.4,19.6-4.5,29.2,6,87.7c0.8,5.5,4.1,23.4,4.4,27.1c0.3,2.8-7.2,22.8-12.5,31.6
				c-5.2,8.6,23,10.4,23,3.1c0-4.7,3.4-16.3,6.1-27.2c1.1-4.7-2.2-14.4-2.3-16.6c-0.4-6.9,13.5-69.9,4.8-103.6
				c-3.4-13.4,7.8-74.3,7.8-74.3l-42.3,9.8L625.3,529.8z"/>
		</g>
		<path d="M708.4,341.7c8.3,22.8,13.2,59.7,9,93.2c-6.1,49-2.7,59.7-3,95.9c0,0-20.3,5-49,1.5c-6.9-0.8-33.3,4.2-43.8-1.9
			c-5.2-56.3-6.7-96.7-6.7-133.4c0-32.5,16.5-62.7,16.5-62.7L708.4,341.7z"/>
		<path class="st3" d="M670,257.9l22.2-36.8c0,0-8.7-37.7-8.4-41.5l-12.6-1.5l0,0h-0.1l0,0l0,0l-18.1,1.7
			c5.5,45.3-10.6,44.3-10.6,44.3l9.6,43.1L670,257.9z"/>
		<g>
			
				<linearGradient id="SVGID_1_" gradientUnits="userSpaceOnUse" x1="1681.7537" y1="-243.7161" x2="1721.442" y2="-332.618" gradientTransform="matrix(-1 0 0 1 2372.7305 486)">
				<stop  offset="0.25" style="stop-color:#FFFFFF"/>
				<stop  offset="0.6429" style="stop-color:#C6C0B9"/>
			</linearGradient>
			<path class="st4" d="M651.4,207c3.5,5.9,10.1,32.8,40.8,50.4c8.9,5.1,14-21.2,18.1-25.2c-9.2-2.2-18.8-11.4-22.2-19.1
				c-3.9-8.9-10.1-24.7-10.1-25.7C678,187.3,652.2,201.9,651.4,207z"/>
		</g>
		<g>
			<g>
				<path class="st3" d="M636.9,173.5c0.2,1.9-1,4.8-0.4,10.6c2.1,19.4,12.2,26,18.5,25.7c11.6-0.5,25.9-9.3,32-31.5
					c6-22.1,4.8-43.4-23.5-43.3C639.1,135,635.4,153.2,636.9,173.5z"/>
			</g>
		</g>
		<path class="st5" d="M624.4,228.4c12.7-2.5,14.1-5.3,22.9-9.2c-2.3,17.4,5.6,37.2,10.6,39.2c5-0.1,32.2-33.7,35.8-40.1
			c0,0,12.4,10,26.3,14.2C666.7,325.8,699,353,699,353l-72.8-3.5C626.2,349.5,630.8,252.8,624.4,228.4z"/>
		<path d="M694.7,215.6c11.7,8,29.9,13.4,33.1,16.2c0,0-8,42.3-9.7,47.6c-1.6,5.3-10.2,33-8.1,43.2c2.2,10.2,14.9,48,12.3,62.1
			c-0.7,4-47.9,6-53.6,2.5c-7.6-4.5,0-103.8,0-103.8s1.6-18.4,11.8-39.5C685.2,234.4,694.7,215.6,694.7,215.6z"/>
		<path class="st0" d="M646.6,216.9c-9.6,7.2-21.8,10.2-25.3,12.7c0,0,1.9,14.2-4.5,44.8c-2.5,11.9,2.2,34.1,0.5,44.3
			c-2.6,15.9-9.7,58.9-9.2,63c0.4,4.1,24.2,8.8,24.6,2.1c0.4-6.7,5.7-104.3,5.7-104.3s-1-11.8,2.3-37
			C641.8,233,646.6,216.9,646.6,216.9z"/>
		<path class="st1" d="M652.7,148.5c-3.8,7.4-13.2-8.6-17.4,16.1c-0.8,4.5-6.9,21-5.7,30.5c-5.8-9.2,0-42.5,6.3-51.1
			c7.8-10.7,19.4-16.1,28.5-11.1C668.4,135.1,652.7,148.5,652.7,148.5z"/>
		<path class="st0" d="M668.5,285.7c-0.8,7.6-5.7,92.9-3.4,97.1s31.7,9.1,49.9,4.9c-15.1,0.6-39.5-2.3-42.5-4.2
			c-3-1.9-4.7-2.3-4.7-6.8S668.5,285.7,668.5,285.7z"/>
		<path class="st0" d="M691.5,222.6l8.3,17.4c0,0-29.8,31.7-32.1,51.4C669.6,265.3,689.3,223.7,691.5,222.6z"/>
		<path d="M646.6,216.9l-17,15.5l8.7,57c0,0,2.3-57.8,6-63.1c3.8-5.3,5.7-9.8,5.7-9.8L646.6,216.9z"/>
		<path d="M651.4,641.2l-0.5,8.1c-0.9,5.7-0.8,5.9-3.1,13.5c-2.3,7.5-8.7,16.6-15.2,16.2c-4.5-0.3-6.5-3.1-6-11.1
			c0,0-3.8,6.5-5.2,11.3c-2.2,7.5,4.1,13.2,7.6,13.4c4.4,0.2,14.2-5,16.4-8.2c1.1-1.7,2.4-5.7,3.1-10.7l0.5,6h1.5
			c0,0,2.5-21.8,3.6-26.3C655.2,648.7,653.7,644.2,651.4,641.2z"/>
		<g>
			<path class="st6" d="M647.3,219.2c-6.4,3.4-8.2,14.2-6.8,23.4s10.4,51.5,10.4,51.5l4-1.5c0,0-10.1-49.4-10.1-55.4
				C644.9,231.1,647.3,219.2,647.3,219.2z"/>
			<path class="st6" d="M683.3,222.4c-0.6,9.7-30,67.4-30,67.4v6.9c0,0,36.4-69.6,36.4-71.7C689.8,223.1,683.3,222.4,683.3,222.4z"
				/>
			<path class="st7" d="M656.1,296.6c0,2.2-1.6,4-3.5,4s-3.5-1.8-3.5-4s1.6-4,3.5-4S656.1,294.4,656.1,296.6z"/>
			<g>
				<polygon class="st6" points="668.9,321.4 634,319.8 635.1,297 669.9,298.6 				"/>
				
					<rect x="650" y="286.4" transform="matrix(4.442270e-02 -0.999 0.999 4.442270e-02 321.2986 940.5455)" class="st8" width="4.5" height="31.9"/>
			</g>
		</g>
		<path class="st1" d="M660.9,131.4c9.3-5.5,33.1-0.7,39.4,20.1c10.1,33.2,1.5,35.5,11.7,59.3c3,7,14,14.3,21.8,14
			c-4.8,0.1-5.5,1.7-12.7-1.8c-3.6-1.7-2.8-1.6-0.4,0.8c2.4,2.4,13.7,2.7,12.4,3c-3.2,1-13.7,3.6-23.9,3.6c2.2,1,4.2,1.8,5.5,2.4
			c-11.8,2.5-17.4-0.6-17.4-0.6s1.3,3.5,9.7,5.1c-14.7,0.6-23.8-15-23.8-15s0.2,7.2,10.3,15.1c-24.1-8.2-17.8-60.3-28.1-79.7
			c-7.6-14.2-16.8-3.5-18.1-8.6C647.4,149.3,652.5,136.4,660.9,131.4z"/>
		<path class="st3" d="M548.6,325.2c-2.4,0.3-7.4,1-9.8,0.9c-2.4-0.1-5.7,2.6-9.9,2.9c-1.5,0.1-3.1,1.6-1.4,2.5
			c1.7,0.8,4.3,0,6.7,0.5c3,0.6-4,5.5-5.9,6.7c-1.6,1-10.4,8.5-9.5,9.6c1.7,1.9,10.8-7.5,11.3-6.5c0.4,0.8-11.2,9-9.9,10
			c2.7,2,10.3-6.4,12.4-6c0,0-2.2,1.8-4.5,3.7c-2.2,1.8-4.7,3-4.7,3.7c0,5.1,12.1-8.2,13-6c0.6,1.7-7.4,6.8-5.7,8
			c0.9,0.6,9.6-6.8,9.6-6.8s13.7-7.8,17.9-11.7c2.5-2.3,8.7-2.7,8.7-2.7l-9.1-12.2C557.9,321.8,552.7,324.7,548.6,325.2z"/>
		<path class="st5" d="M556.8,321.4l-3.9,2c0,0,10.2,13.2,9.8,21.1c5.3-1.9,8.7-5.6,8.7-5.6S565.3,324.2,556.8,321.4z"/>
		<path class="st9" d="M649.7,149.3c7-5,23.5,2.4,24.4,37.3c1,38.8,17.6,42.1,22.7,43.6c-5.5-6-9.1-12.9-9.1-12.9
			s7.8,11.8,17.6,14.4c-1.3-2-7.8-8.3-8.6-9.6c-0.7-1.2,6.5,6.8,22.7,6c-21.7-6.3-27.3-18.5-30.2-26.7c-8-22.9-0.6-73.1-35.4-60.3
			C648.8,144.7,649.7,149.3,649.7,149.3z"/>
		<path class="st9" d="M649.7,149.3c-4.2-1.9-7.9-4.4-11.3,0.4c-15.1,21.4,2,58.9-8.7,69.3c-6.8,6.6-12.5,4.3-12.5,4.3
			s6.8-1.9,11.5-11l-5.5,3.4c0,0,7.2-3.1,6.4-20.6c-1.5-33.2,2.8-45.4,11.7-52.8c5.9-4.9,12.9-0.9,12.9-0.9L649.7,149.3z"/>
		<g>
			<path class="st1" d="M698.3,513.1c3-1,61.6-6.6,71.7-8.7c10.1-2,11.9-2.3,9.9-14.4c-0.6-3.4-1.6-59.4-12.9-61.3
				c-5.5-0.9-17.9,0.7-31.1,1.8c-15.3,1.3-31.8,2.2-41.7,4c-5,0.9-1.3,14.9-1.5,16.2C690.9,462.4,698.3,513.1,698.3,513.1z"/>
			<path class="st9" d="M690.8,439.7c4.9-6.8,11-0.4,11,3.7c0,4,3.6,69.7-2.5,69.7c-6,0-11.3-2.5-11.1-4.7
				C690.1,491.4,690.8,439.7,690.8,439.7z"/>
			<path class="st9" d="M737,430.2c-19.5,1.6-30.6,2.8-41.4,3.4c-3.3,0.2-4.8,6-4.8,6c0.9-5.8,12.8-7.2,13.2,2.4
				c0.2,5,2.5,34.6,2.5,43.7s77.1-2.5,77.7-6.7c0.2-1.6-6-40.9-7.8-45.6c-1.1-3-3.7-6.5-11.8-6.1C754.3,428,744.6,429.6,737,430.2z"
				/>
			<path class="st10" d="M704.9,440.3l70.8-7.4c0,0-1.7-4.2-8.7-5.5c-5.3,0.3-17.7,1.6-31.4,2.9c-20,1.8-42,3.6-42,3.6
				S703.1,432.4,704.9,440.3z"/>
			<path class="st1" d="M719.8,434.2c0.7,1.1,4,0.7,5.1,0.1s-0.2-11.3,5.7-16.3c2.7-2.3,8.6-2.7,9.9-1.8c7.4,4.9,7.6,14.5,9.3,15.6
				s5.1,0,4.7-1.1c-0.4-1.1-1.6-1.1-2.3-0.9s-2.1-10.3-9.2-14.4c-3.4-2-9.1-2.5-14.7,0.9c-5.2,3.1-5.9,15.3-7,15.9
				C720,432.7,719.4,433.7,719.8,434.2z"/>
		</g>
		<path class="st3" d="M731.5,389.7c0.4,4.2-1.4,10.1-1.8,13.3c-1.7,3.1-5.6,9.4-5.7,12.1c-0.2,3.4-2.8,7.8-3.6,9.3
			c-0.9,1.5,0.9,2.1,2.5,0.7c0.2-0.1,4-7.3,4.2-7.6c0,1.1-1.2,9.4-1,9.9c1.2,3,3.8,0.6,3.8,0.6s2,4.2,5.1,1c0.3-0.3,0.5,1.9,2.8,1.4
			c1.9-0.4,2.9-1.2,3.6-0.8c1.6,0.9,2.1,1,3.5-1c0.8-1.3,2.3-3.4,2.3-6.3c0.1-10.1-1.2-27.5-1.2-27.5L731.5,389.7z"/>
		<path d="M751.1,327.1c-0.1-0.5-0.4-1-0.7-1.4c-5.5-25.6-14.3-64.9-16.3-77.9c-2.5-16.3-8.2-18.8-12.7-17.3c0,0-9.4,41.2-9.2,46.2
			c0.1,4,4.7,41.5,9.4,59.2c3,28.3,4,66.5,4,66.5s19.4,6.4,26.7,3C757.6,403,753.2,335.2,751.1,327.1z"/>
	</g>
	<g>
		<path class="st11" d="M450.1,210c9.5,0.1,35.8,100.4,29.7,157.4c-10.9,20.6-48.5,6.1-58.2,6.1s-32.7-148-26.7-152.8
			c6.1-4.8,7.3-15.8,12.1-15.8C411.9,204.9,442.9,209.9,450.1,210z"/>
		<path class="st3" d="M416,152.4c0.7,7.2-7.2,33.8-11.7,43.9c-4.5,10,19.7,13.7,19.7,13.7l18.1,10c0,0,5.2-17.8,9.9-24.5
			C456.9,188.6,416,152.4,416,152.4z"/>
		<path d="M454.7,213.3c5.2,8.9,14.4,45,19.5,80.9c3,21.3,2.8,61.3,3.2,70.6c1.3,30.6-3.5,54.3-3.5,54.3l14.4-1.5
			c0,0-10.5-157.8-22.8-189.8C463.3,222.1,454.7,213.3,454.7,213.3z"/>
		<g>
			<path d="M365.5,656.6c0,0,21-6.7,23.9,3.8c2.9,10.4,11.4,20.8,26.2,32.3c4.9,3.9,7.4,7,8,9.5c0.7,1.9,1,4.8-1.5,7.2
				c-4.2,4.1-20.5,6.6-38.2-5c-3.7-2.5-4.8-4.4-8.2-3c-1.7,0.7-9.3-1.8-9.3-1.8s-2.2-6.6-1.7-13.4
				C363.2,676.8,364.2,663.2,365.5,656.6z"/>
			<path d="M415.4,636c0,0,22.2-6.9,23.9,3.8c2.5,15.3,18.7,23.5,35.5,30.6c5.8,2.4,6.8,4.4,7.4,6.9c0.7,2,1,4.8-1.5,7.2
				c-4.2,4.1-22.8,4.6-38.4-0.2c-4.2-1.3-5.7-6.2-16.7-3.5c-1.8,0.5-9.3-1.8-9.3-1.8s-2.2-6.7-1.7-13.3
				C413.1,656.2,414.1,642.7,415.4,636z"/>
			<path d="M395.3,371.1c0,0-12.5,39.2-6.8,63.7c6.9,29.8-7.6,98.4-10.4,108.4c-2.9,10.1-22.2,76.5-18.6,135.6
				c0,0,26.5,7.6,48.7-0.4c0-24.5,7.2-111.7,18-127.6c4-5.9,8.6-24.5,8.6-33.2c0-8.6,26.7-110.3,23.8-133.3
				C455.7,361.4,395.3,371.1,395.3,371.1z"/>
			<path d="M477.4,364.8c5.4,16.2-10.9,136-16.8,171.7c-4.1,24.3-0.3,116.3-0.3,123.9c-15.1,3.2-44.7,6.1-44.7,6.1
				s-7.6-85.4,7.9-142.7c5.5-20.5-7.9-120.7-12.2-138C406.8,368.4,477.4,364.8,477.4,364.8z"/>
			<path class="st0" d="M455,429.9c-4.3,16.6-22.3,117.3-23.1,120.8c-2.2,9-4.7,11.6-8.3,24.5c-3.6,13-12.6,84.7-15.4,103.4
				c-11.5,0.7-31.7,2.2-31-1.4c0.7-3.6,13.7-1.4,13.7-5s19.9-95.7,20.6-102.2s9.8-13.1,15-34.3C453.1,426.6,455,429.9,455,429.9z"/>
		</g>
		<path class="st3" d="M438.1,120.8c15.6,0.1,23,6,26.1,29.2c0.2,1.5-1.5,4.8-1.4,6.2c0,0.3,0,0.6,0.1,0.9c2,5.8,5.7,14.6,5.4,16.2
			c-0.2,1.2-3.2,2.6-5.9,2.9c-0.5,3.6-1.2,6.5-1.7,9.2c-1.3,6.8-2.1,8.5-4.1,8.9c-7.5,1.3-16.1-1.1-24.3-2.8
			c-11.3-2.3-12.1-18.9-13.9-30.9C415.3,140.7,418.1,120.7,438.1,120.8z"/>
		<g>
			<path class="st3" d="M419.4,152.7c-2.7-4.3-8.5-3.8-9.7,0c-1.2,3.9,1.6,17.3,8.6,18.2C425.2,171.9,419.4,152.7,419.4,152.7z"/>
		</g>
		<path class="st12" d="M479.4,320.2c-3.7-19.8-26.3-96.7-26.7-100.4c-0.1-1.1,1.8-5,1.4-6.9c-0.9-4.4-4.4-7.6-4.4-7.6
			c-1.1,2.4-2.6,4-3.9,5l0,0c-2.1,1.4-17.2,6.3-17.2,6.3c3.6,2,17.1,7.2,17.1,7.2c3.7,8.4,20.7,101.8,21.1,105.5
			c8.1,4.3,12.6,2.5,12.6,2.5S479.8,322.4,479.4,320.2z"/>
		<path class="st5" d="M405.2,186.7c2.9,4.7,39.5,23.8,39.5,23.8l-4.5,18.6l-41.8-31L405.2,186.7z"/>
		<path class="st0" d="M448.7,207.3c6.6,6,14.7,14.2,14.7,14.2l-0.2,3.2l6.7,10.5l5.5,61.2c0,0-14.2-71.7-20.2-79.5
			s-4.8-7.9-4.8-7.9L448.7,207.3z"/>
		<path d="M461,133.5c3-3,0.2-1.8,3.9-6.8c1.5-2,1.2-6.7,1.2-6.7l-10.5,1.6c0,0,7.7-0.9,9.7-3.1c0.5-0.6-19.1-2.6-19.1-2.6
			s-13.7-5.7-29.8-1.6c-10.7,2.8-12.3,7.9-12.3,7.9s-20.2,13-5.1,45c0,0,5.9,9.9,1.3,14.5c5.3,3,19.8-3.2,19.8-3.2s1.9-8.8,0.2-12.7
			c-3.8-8.3,3.9-12.1,6.1-9.1c0.8,1.1,0.2,6.7,1.7,7.6c1.3,0.7,6.8,6.5,6.4,5.3c-3.6-14.6,5.8-28.9,9.6-32c3.8-3-13.4-8.9-18-9.7
			c-4.5-0.8,7.6-0.7,19.2,7C448,136.5,461,133.5,461,133.5z"/>
		<path class="st3" d="M426.6,153.6c-2-1.3-8.3-3-8.5,2.4c-0.2,5.3,3.2,16.4,7.7,15.9C430.4,171.4,426.6,153.6,426.6,153.6z"/>
		<path d="M398.8,196.1c-6.2,11.5-17.4,22.9-21.1,30.2c-3.6,7.3-7.5,30.9-1.5,62.4s3,57,1.5,77.8c-1.1,16.1-4.4,48.1-4.9,59.4
			c-0.1,3.6,80.8,10.4,88.2,0.5c7.3-9.7,7.3-64.4,5.9-82c-0.6-8.3,1-21.1-3.7-41.3c-5.4-23.1-32.9-66-38.9-77.4
			C414.6,207.2,398.8,196.1,398.8,196.1z"/>
		<path class="st0" d="M402.3,190.2l-7.7,13.1L406,219l13.9-0.5l-3.2,12.9c0,0,25.5,21.9,46.6,71.9c-6.2-19.3-22.9-68.8-30.7-78.6
			C424.8,214.8,402.3,190.2,402.3,190.2z"/>
		<path class="st5" d="M449.5,201.1l4,11.8l2.7,8c0,0-3.4-11.5-9.5-12.4C446.1,208.4,449.5,201.1,449.5,201.1z"/>
		<path class="st0" d="M433.8,168.6c2,2.7,7.7,13.6,9.7,15.6s16.1,5.7,16.1,5.7s1.2,8.9-0.5,9.4s-19.3-1.5-21.3-3
			s-9.7-28.5-9.9-31.2C427.6,162.4,433.8,168.6,433.8,168.6z"/>
		<g>
			<path class="st13" d="M449.5,201.1c2.1,3,6.3,7.4,8.6,14.1c2.2,6.7,14.5,67.8,14.5,67.8l-2.5,0.7c0,0-14.9-68-17.6-71.7
				s-4.7-8.7-4.7-8.7L449.5,201.1z"/>
			<path class="st6" d="M405.2,186.7c-4.1,3.5-6.1,6.9-3.6,9.9s36.2,38.8,49.4,56.5c9.1,12.2,18.6,30.8,18.6,30.8l3.9-1.4
				c0,0-12.4-23-29.3-45.3c-8.9-11.9-28.5-31-36.7-43.1C404.6,189.8,405.2,186.7,405.2,186.7z"/>
			<g>
				<path class="st7" d="M474.1,283.2c0.4,1.7-0.3,3.7-1.6,4.3c-1.3,0.7-2.8-0.3-3.2-2.1c-0.4-1.8,0.3-3.8,1.6-4.3
					C472.3,280.6,473.7,281.5,474.1,283.2z"/>
				<g>
					<polygon class="st6" points="488.2,298.3 464.9,311 459,289.9 482.8,279.8 					"/>
					<polygon class="st8" points="483,285.3 463,294.7 462.3,290.6 482.2,281.8 					"/>
				</g>
			</g>
		</g>
		<g>
			<path class="st2" d="M514.3,324.2c3.2-0.1,9.7-0.3,12.8-1s7.9,1.3,14.7-1.5c1.9-0.7,4.1,0.4,2.1,1.9c-2,1.4-5.9,2.7-8.9,3.8
				c-3.7,1.4,6,7.4,8.7,8.5c2.3,1,15.1,8.3,14.1,9.8c-1.8,2.8-16.3-5.8-15.4-4.6c0.6,0.7,17.1,7.2,15.6,8.7
				c-3.1,3.2-15.5-5.4-18.1-4.4c0,0,3.8,1.3,7.3,3.2c3.1,1.8,6.4,2.1,6.5,3.3c0.3,4-20.2-5.5-18.6-2.9c0.6,1,13.4,2.2,11.4,4.2
				c-1,1-16.6-1.2-16.6-1.2s-19.3-7.1-25.5-11.2c-3.7-2.4-17.2-4.9-17.2-4.9l11.9-15.6C499,320.6,508.9,324.4,514.3,324.2z"/>
			<path class="st11" d="M501,321.4l9.9,2.3c0,0-4.6,25.8-4.5,29.3l-14.3-2.9L501,321.4z"/>
			<path class="st0" d="M414,229.8c-10.3-8.8-24.7-5.5-27.7,2.5c-2.3,6.2-5,12-0.5,25.8c9.4,29,30.2,74.3,42.6,77.8
				c6.1,1.7,67.8,25.8,68.4,22.8c0.6-3.7,8.8-35.9,10.8-41.2c-18.7-5.3-56.4-19-57.8-23.7C446.4,283.5,414,229.8,414,229.8z"/>
		</g>
	</g>
</g>
</svg>
