<svg version="1.1" xmlns="http://www.w3.org/2000/svg" xmlns:xlink="http://www.w3.org/1999/xlink" width="100" height="100" viewBox="0 0 768 768">
	<g id="icomoon-ignore">
		<path fill="rgb(250, 250, 250)" d="M433.2 617.2c11.2-4 22.4-7.8 33.3-12.4 19-8 23.7-26.7 18.7-45.5-0.6-2.2-2.6-4-4.5-5.5-10.1-8.4-15.7-19-16.4-32.3-0.3-4.9-2.3-8.4-6.5-11.5-2.6-1.8-5.1-5.1-5.8-8-2.8-12.1-5.2-24.3 2.3-35.9 1.1-1.7 0.9-4.1 0.9-6.3 0.2-12.6-0.8-25.3 0.3-37.9 1.4-18 6.8-35 23.8-44.2 29.2-15.8 59.7-18 90.2-3.7 18.3 8.4 27.3 24.9 29.6 44.1 1.7 13.7 0.3 27.6 0.5 41.3 0 2.8 1.5 5.4 2.5 8 0.3 0.9 1.2 1.5 1.7 2.5 4.8 8 0.5 34.9-6.3 41.5-2.2 2.2-3.8 5.2-4.5 8-2.6 13.8-5.8 27.2-18 36.2-1.2 0.9-2.2 2.9-2.6 4.6-5.2 19.5 3.2 39.5 21.7 47.9 11.2 5.2 23.2 9.5 35.2 11.8 10.6 2.2 19.8 5.8 27.6 11.2 43.3-57.3 69-128.6 69-206 0-188.9-153.1-342.1-342.1-342.1s-341.9 153.2-341.9 342.2c0 67.6 19.5 130.6 53.3 183.6 7.5-6 16.3-10.4 26.1-13.7 18-6 35.8-12.4 53.3-19.8 22.3-9.4 27.6-31.3 21.8-53.3-0.6-2.5-3.1-4.8-5.1-6.5-12-9.8-18.4-22.3-19.2-37.8-0.3-5.8-2.8-10-7.5-13.5-3.1-2.1-6-5.8-6.8-9.4-3.2-14.1-6.1-28.4 2.6-42.1 1.2-1.8 1.1-4.9 1.1-7.4 0.2-14.7-0.8-29.6 0.3-44.4 1.7-21 7.8-41 27.8-51.8 34.1-18.4 69.9-21 105.5-4.3 21.4 10 31.9 29 34.7 51.5 1.8 16 0.3 32.3 0.6 48.4 0 3.2 1.7 6.3 2.9 9.4 0.5 1.1 1.5 1.8 2 2.8 5.5 9.4 0.5 40.9-7.4 48.5-2.5 2.5-4.5 6-5.2 9.4-3.1 16.1-6.9 31.6-20.9 42.4-1.5 1.2-2.6 3.4-3.1 5.4-6.1 22.9 3.7 46.2 25.3 56.1 13.1 6 27 11.1 41.2 14 28.6 5.7 48.5 21.3 60.5 47.5 14.7 32.1 24 82 26.9 119.8 6-1.2 11.8-2.6 17.7-4.1-3.4-39.5-12.7-89.5-28.3-123.2-2.4-5.4-5.5-10.6-8.8-15.5v0z" />
		<path fill="rgb(61, 164, 181)" d="M365.4 592.9c-14.1-2.8-28.1-7.8-41.2-14-21.7-10-31.5-33.3-25.3-56.1 0.5-2 1.5-4.1 3.1-5.4 14-10.8 18-26.3 20.9-42.4 0.6-3.4 2.8-6.9 5.2-9.4 7.8-7.8 12.9-39.2 7.4-48.5-0.6-1.1-1.7-1.8-2-2.8-1.1-3.1-2.8-6.3-2.9-9.4-0.3-16.1 1.4-32.4-0.6-48.4-2.8-22.4-13.4-41.6-34.7-51.5-35.6-16.6-71.4-14.1-105.5 4.3-20 10.8-26.1 30.7-27.8 51.8-1.1 14.7-0.2 29.5-0.3 44.4 0 2.5 0.2 5.5-1.1 7.4-8.8 13.5-5.8 28-2.6 42.1 0.8 3.5 3.8 7.2 6.8 9.4 4.8 3.5 7.2 7.7 7.5 13.5 0.8 15.4 7.2 28 19.2 37.8 2.1 1.7 4.5 4 5.1 6.5 5.8 22 0.5 43.9-21.8 53.3-17.5 7.4-35.3 13.8-53.3 19.8-9.8 3.2-18.6 7.8-26.1 13.7 60.7 95.2 167.3 158.5 288.6 158.5 23.7 0 46.7-2.5 68.8-6.9-2.9-37.9-12.1-87.7-26.9-119.8-12-26.4-31.9-42.1-60.5-47.9v0z" />
		<path fill="rgb(130, 198, 209)" d="M657.1 631.1c-7.8-5.4-17-9.1-27.6-11.2-12.1-2.5-24-6.8-35.2-11.8-18.4-8.4-26.9-28.4-21.7-47.9 0.5-1.7 1.4-3.5 2.6-4.6 12-9.2 15.4-22.4 18-36.2 0.6-2.9 2.3-6 4.5-8 6.8-6.6 11.1-33.5 6.3-41.5-0.5-0.9-1.4-1.5-1.7-2.5-0.9-2.6-2.5-5.4-2.5-8-0.3-13.8 1.1-27.8-0.5-41.3-2.3-19.2-11.4-35.5-29.6-44.1-30.4-14.3-61-12-90.2 3.7-17 9.2-22.4 26.3-23.8 44.2-0.9 12.6-0.2 25.2-0.3 37.9 0 2.1 0.2 4.8-0.9 6.3-7.5 11.7-5.1 23.8-2.3 35.9 0.6 3.1 3.2 6.1 5.8 8 4.1 3.1 6.1 6.6 6.5 11.5 0.6 13.2 6.1 23.8 16.4 32.3 1.8 1.5 3.8 3.4 4.5 5.5 4.9 18.7 0.3 37.6-18.7 45.5-10.9 4.6-22.1 8.4-33.3 12.4 3.4 4.9 6.5 10.1 9.1 15.8 15.5 33.6 24.9 83.7 28.3 123.2 75.2-19.7 140.5-64.5 186.3-125.1v0z" />
		<path fill="rgb(61, 164, 181)" d="M703.8 60.8c-14.6-18.6-34.6-33.2-59.8-43.9s-52.6-16.1-82.4-16.1c-29.8 0-57.3 5.4-82.5 16.1s-45.2 25.3-59.8 43.9c-14.7 18.6-22 38.7-22 60.7 0 18.9 5.5 36.6 16.6 53s26.3 30.3 45.3 41.5c-1.4 5.1-2.9 9.8-4.8 14.4-1.8 4.5-3.5 8.1-4.9 11.1-1.5 2.9-3.5 6.1-6 9.7s-4.3 6-5.7 7.5c-1.2 1.4-3.4 3.8-6.3 7.2s-4.9 5.5-5.7 6.5c-0.2 0-0.6 0.6-1.4 1.7s-1.2 1.7-1.2 1.7l-1.1 1.7c-0.6 0.9-0.9 1.5-0.8 1.7 0 0.3 0 0.9-0.3 2s-0.3 1.7 0 2.3v0.2c0.5 2.1 1.5 3.8 2.9 5.2 1.4 1.2 3.1 2 4.9 2h0.9c8-1.1 14.9-2.5 20.9-4.1 32.1-8.4 60.2-23.7 84.3-45.6 9.2 1.1 18.1 1.5 26.6 1.5 29.8 0 57.3-5.4 82.5-16.1s45.2-25.3 59.8-43.9 22-38.7 22-60.5c0.1-22.7-7.3-42.8-22-61.4v0z" />
		<path fill="rgb(255, 255, 255)" d="M560.9 77.9c9.5 0 15.2 5.2 15.2 14 0 16-27.8 20.3-27.8 39.6 0 5.2 3.4 10.9 10.1 10.9 10.4 0 9.2-8 13.1-13.7 5.1-7.7 28.7-15.8 28.7-36.9 0-22.9-20-32.6-40.4-32.6-19.4 0-37.2 14.1-37.2 30.1 0 6.5 4.8 9.8 10.3 9.8 15.6 0.1 7.6-21.2 28-21.2v0z" />
		<path fill="rgb(255, 255, 255)" d="M572.2 166.2c0-7.4-5.8-13.4-13.1-13.4s-13.1 6-13.1 13.4c0 7.2 5.8 13.4 13.1 13.4s13.1-6 13.1-13.4v0z" />
	</g>
</svg>
