<?xml version="1.0" encoding="utf-8"?>
<!-- Generator: Adobe Illustrator 23.0.2, SVG Export Plug-In . SVG Version: 6.00 Build 0)  -->
<svg version="1.1" id="Layer_1" xmlns="http://www.w3.org/2000/svg" xmlns:xlink="http://www.w3.org/1999/xlink" width="100px" height="150px" x="0px" y="0px"
	 viewBox="0 0 128 177" style="enable-background:new 0 0 128 177;" xml:space="preserve">
<style type="text/css">
	.st0{opacity:0.61;fill-rule:evenodd;clip-rule:evenodd;fill:#5DBFD1;}
	.st1{opacity:9.000000e-02;fill-rule:evenodd;clip-rule:evenodd;fill:#333333;stroke:#FFFFFF;stroke-miterlimit:10;}
	.st2{fill-rule:evenodd;clip-rule:evenodd;fill:#3DA4B5;}
	.st3{filter:url(#Adobe_OpacityMaskFilter);}
	.st4{fill-rule:evenodd;clip-rule:evenodd;fill:#FFFFFF;}
	.st5{mask:url(#b_1_);fill-rule:evenodd;clip-rule:evenodd;fill:#FFFEFF;}
	.st6{filter:url(#Adobe_OpacityMaskFilter_1_);}
	.st7{opacity:0.67;mask:url(#b_2_);fill-rule:evenodd;clip-rule:evenodd;fill:#3DA4B5;}
	.st8{opacity:8.000000e-02;fill-rule:evenodd;clip-rule:evenodd;fill:#333333;}
</style>
<g>
	<ellipse class="st0" cx="64" cy="173" rx="48" ry="4"/>
	<path class="st1" d="M27,0h62c2.8,0,5,2.2,5,5v91c0,2.8-2.2,5-5,5H24c-2.8,0-5-2.2-5-5V8C19,3.6,22.6,0,27,0z"/>
	<g>
		<path class="st2" d="M64,14L64,14c35.3,0,64,28.7,64,64l0,0c0,35.3-28.7,64-64,64l0,0c-35.3,0-64-28.7-64-64l0,0
			C0,42.7,28.7,14,64,14z"/>
	</g>
	<defs>
		<filter id="Adobe_OpacityMaskFilter" filterUnits="userSpaceOnUse" x="4.4" y="17.3" width="120" height="120.1">
			<feColorMatrix  type="matrix" values="1 0 0 0 0  0 1 0 0 0  0 0 1 0 0  0 0 0 1 0"/>
		</filter>
	</defs>
	<mask maskUnits="userSpaceOnUse" x="4.4" y="17.3" width="120" height="120.1" id="b_1_">
		<g class="st3">
			<path id="a_1_" class="st4" d="M64,14L64,14c35.3,0,64,28.7,64,64l0,0c0,35.3-28.7,64-64,64l0,0c-35.3,0-64-28.7-64-64l0,0
				C0,42.7,28.7,14,64,14z"/>
		</g>
	</mask>
	<path class="st5" d="M116.7,48.8c1.2-2,3.7-2.6,5.7-1.5c2,1.2,2.6,3.7,1.5,5.7c0,0,0,0,0,0l-18,30.5c-0.7,1.3-2.1,2-3.6,2
		c-1.1,0-2.1-0.4-2.9-1.2L86.9,72.2c-1.6-1.6-1.7-4.2-0.1-5.9c0,0,0,0,0,0c1.6-1.6,4.2-1.7,5.9-0.1l8.7,8.4
		C101.4,74.7,116.7,48.8,116.7,48.8z M53.3,94.3h58.9c2.3,0,4.1,1.9,4.1,4.1c0,2.3-1.9,4.1-4.1,4.1H53.3c-2.3,0-4.1-1.9-4.1-4.1
		c0,0,0,0,0,0C49.1,96.2,51,94.3,53.3,94.3C53.3,94.3,53.3,94.3,53.3,94.3L53.3,94.3z M8.8,17.3h31.7c2.3,0,4.1,1.9,4.1,4.1
		c0,0,0,0,0,0c0,2.3-1.9,4.1-4.1,4.1c0,0,0,0,0,0H8.8c-2.3,0-4.1-1.9-4.1-4.1c0,0,0,0,0,0C4.7,19.2,6.5,17.3,8.8,17.3
		C8.8,17.3,8.8,17.3,8.8,17.3z M8.8,34.9h31.7c2.3,0,4.1,1.9,4.1,4.1c0,0,0,0,0,0c0,2.3-1.9,4.1-4.1,4.1c0,0,0,0,0,0H8.8
		c-2.3,0-4.1-1.9-4.1-4.1c0,0,0,0,0,0C4.7,36.7,6.5,34.9,8.8,34.9C8.8,34.9,8.8,34.9,8.8,34.9z M13.8,103.8c0,2.6-2.1,4.8-4.7,4.8
		c0,0,0,0,0,0c-2.6,0-4.7-2.2-4.7-4.8c0-2.5,2-4.6,4.6-4.7C11.6,99.1,13.8,101.2,13.8,103.8C13.8,103.8,13.8,103.8,13.8,103.8
		L13.8,103.8z M30.5,119.9c0-2.3,1.9-4.1,4.1-4.1c2.3,0,4.1,1.9,4.1,4.1c0,0,0,0,0,0c0,9.4-7.7,17.1-17.1,17.1s-17.1-7.7-17.1-17.1
		c0-2.3,1.9-4.1,4.1-4.1c0,0,0,0,0,0c2.3,0,4.1,1.9,4.1,4.1c0,0,0,0,0,0c0,4.8,3.9,8.8,8.8,8.8C26.6,128.7,30.5,124.8,30.5,119.9z
		 M8.8,76.5c-1.1,0-2.1-0.4-2.9-1.2c-1.6-1.6-1.6-4.2,0-5.9c0,0,0,0,0,0l4.3-4.3l-4.3-4.3c-1.6-1.6-1.6-4.2,0-5.9c0,0,0,0,0,0
		c1.6-1.6,4.2-1.6,5.9,0l4.3,4.3l4.3-4.3c1.6-1.6,4.2-1.6,5.9,0c1.6,1.6,1.6,4.2,0,5.9c0,0,0,0,0,0l-4.3,4.3l4.3,4.3
		c1.6,1.6,1.6,4.2,0,5.9c-0.8,0.8-1.8,1.2-2.9,1.2c-1.1,0-2.1-0.4-2.9-1.2L16,71l-4.3,4.3C10.9,76,9.9,76.5,8.8,76.5z M96.1,120.7
		l13.7,9.1c1.9,1.3,2.4,3.8,1.2,5.7c0,0,0,0,0,0c-1.3,1.9-3.8,2.4-5.7,1.2l-11.4-7.6l-11.4,7.6c-1.3,0.9-3,0.9-4.4,0.1l-12.8-7.5
		l-11.1,7.4c-0.7,0.5-1.5,0.7-2.3,0.7c-2.3,0-4.1-1.8-4.1-4.1c0-1.4,0.7-2.7,1.9-3.5l13.2-8.8c1.3-0.9,3-0.9,4.4-0.1l12.8,7.5
		l11.5-7.7C92.9,119.8,94.7,119.8,96.1,120.7L96.1,120.7z M31.2,86.8c0-2.3,1.9-4.1,4.1-4.1c0,0,0,0,0,0c2.3,0,4.1,1.9,4.1,4.1
		c0,0,0,0,0,0v19.4c0,2.3-1.9,4.1-4.1,4.1c0,0,0,0,0,0c-2.3,0-4.1-1.9-4.1-4.1l0,0C31.2,106.2,31.2,86.8,31.2,86.8z"/>
	<defs>
		<filter id="Adobe_OpacityMaskFilter_1_" filterUnits="userSpaceOnUse" x="31" y="12" width="75" height="101">
			<feColorMatrix  type="matrix" values="1 0 0 0 0  0 1 0 0 0  0 0 1 0 0  0 0 0 1 0"/>
		</filter>
	</defs>
	<mask maskUnits="userSpaceOnUse" x="31" y="12" width="75" height="101" id="b_2_">
		<g class="st6">
			<path id="a_2_" class="st4" d="M64,14L64,14c35.3,0,64,28.7,64,64l0,0c0,35.3-28.7,64-64,64l0,0c-35.3,0-64-28.7-64-64l0,0
				C0,42.7,28.7,14,64,14z"/>
		</g>
	</mask>
	<path class="st7" d="M36,12h65c2.8,0,5,2.2,5,5v88c0,4.4-3.6,8-8,8H36c-2.8,0-5-2.2-5-5V17C31,14.2,33.2,12,36,12z"/>
	<path class="st4" d="M30,6h65c2.8,0,5,2.2,5,5v91c0,2.8-2.2,5-5,5H30c-2.8,0-5-2.2-5-5V11C25,8.2,27.2,6,30,6z"/>
	<path class="st8" d="M38,21h49c0.6,0,1,0.4,1,1v3c0,0.6-0.4,1-1,1H38c-0.6,0-1-0.4-1-1v-3C37,21.4,37.4,21,38,21z M38,34h32
		c0.6,0,1,0.4,1,1v3c0,0.6-0.4,1-1,1H38c-0.6,0-1-0.4-1-1v-3C37,34.4,37.4,34,38,34z"/>
</g>
</svg>
