<svg width="128" height="177"><defs><rect id="a" y="14" width="128" height="128" rx="64"></rect></defs><g fill="none" fill-rule="evenodd"><ellipse fill="#F1F2FA" cx="64" cy="173" rx="48" ry="4"></ellipse><path d="M27 0h62a5 5 0 0 1 5 5v91a5 5 0 0 1-5 5H24a5 5 0 0 1-5-5V8a8 8 0 0 1 8-8z" fill="#F1F2FA"></path><mask id="b" fill="#fff"><use xlink:href="#a"></use></mask><use fill="#A2BCFF" xlink:href="#a"></use><path d="M116.708 48.783a4.144 4.144 0 0 1 5.672-1.465 4.138 4.138 0 0 1 1.466 5.667l-17.955 30.462a4.141 4.141 0 0 1-3.57 2.039 4.145 4.145 0 0 1-2.879-1.164l-12.527-12.1a4.138 4.138 0 0 1-.099-5.855 4.144 4.144 0 0 1 5.858-.099l8.747 8.45 15.287-25.935zm-63.446 45.53h58.877a4.141 4.141 0 0 1 4.142 4.139 4.141 4.141 0 0 1-4.142 4.14H53.262a4.141 4.141 0 0 1-4.143-4.14 4.141 4.141 0 0 1 4.143-4.14zM8.793 17.33h31.735a4.141 4.141 0 0 1 4.143 4.14 4.141 4.141 0 0 1-4.143 4.14H8.793a4.141 4.141 0 0 1-4.143-4.14 4.141 4.141 0 0 1 4.143-4.14zm0 17.526h31.735a4.141 4.141 0 0 1 4.143 4.14 4.141 4.141 0 0 1-4.143 4.14H8.793a4.141 4.141 0 0 1-4.143-4.14 4.141 4.141 0 0 1 4.143-4.14zm4.99 68.985a4.74 4.74 0 0 1-4.686 4.794 4.74 4.74 0 0 1-.111-9.477 4.74 4.74 0 0 1 4.798 4.683zm16.757 16.106a4.141 4.141 0 0 1 4.142-4.14 4.141 4.141 0 0 1 4.143 4.14c0 9.416-7.665 17.076-17.087 17.076S4.65 129.363 4.65 119.947a4.141 4.141 0 0 1 4.143-4.14 4.141 4.141 0 0 1 4.143 4.14c0 4.85 3.948 8.796 8.802 8.796 4.853 0 8.802-3.946 8.802-8.796zM8.793 76.46c-1.06 0-2.12-.405-2.93-1.213a4.138 4.138 0 0 1 0-5.855l4.274-4.27-4.273-4.27a4.138 4.138 0 0 1 0-5.855 4.145 4.145 0 0 1 5.859 0l4.273 4.27 4.273-4.27a4.144 4.144 0 0 1 5.858 0 4.138 4.138 0 0 1 0 5.855l-4.273 4.27 4.274 4.27a4.138 4.138 0 0 1-2.93 7.068c-1.06 0-2.12-.405-2.929-1.213l-4.273-4.27-4.273 4.27a4.133 4.133 0 0 1-2.93 1.213zm87.342 44.285l13.678 9.075a4.138 4.138 0 0 1 1.16 5.739 4.144 4.144 0 0 1-5.743 1.159l-11.387-7.555-11.386 7.555a4.143 4.143 0 0 1-4.378.128l-12.844-7.478-11.078 7.35c-.705.468-1.5.691-2.288.691a4.14 4.14 0 0 1-2.295-7.589l13.227-8.776a4.144 4.144 0 0 1 4.377-.128l12.844 7.478 11.53-7.65a4.145 4.145 0 0 1 4.583 0zM31.23 86.814a4.141 4.141 0 0 1 4.142-4.14 4.141 4.141 0 0 1 4.143 4.14v19.402a4.141 4.141 0 0 1-4.143 4.14 4.141 4.141 0 0 1-4.142-4.14V86.814z" fill="#BDCFFF" mask="url(#b)"></path><path d="M36 12h65a5 5 0 0 1 5 5v88a8 8 0 0 1-8 8H36a5 5 0 0 1-5-5V17a5 5 0 0 1 5-5z" fill="#7CA1FF" mask="url(#b)"></path><rect fill="#FFF" x="25" y="6" width="75" height="101" rx="5"></rect><path d="M38 21h49a1 1 0 0 1 1 1v3a1 1 0 0 1-1 1H38a1 1 0 0 1-1-1v-3a1 1 0 0 1 1-1zm0 13h32a1 1 0 0 1 1 1v3a1 1 0 0 1-1 1H38a1 1 0 0 1-1-1v-3a1 1 0 0 1 1-1z" fill="#F1F2FA"></path></g></svg>