<svg height="100%" viewBox="0 0 214 215" width="15rem"><defs><rect id="a" width="141" height="100" rx="15"></rect></defs><g fill="none" fill-rule="evenodd"><path d="M-14-59h272v288H-14z"></path><g transform="translate(53 14)"><mask id="b" fill="#fff"><use xlink:href="#a"></use></mask><use fill="#68DEC2" xlink:href="#a"></use><g mask="url(#b)" fill="#FFF" fill-opacity=".3"><path d="M-64 140.8V91.1h17.1a4 4 0 0 0-.2 1.2v15a4 4 0 0 0 4 4H-27v29.5h-37zm37-40.1v2.6h-12V91.8l12 8.9zm6.4-5.3l-15.8-11.6a4 4 0 0 0-2.4-.8H-68a4 4 0 0 0-4 4v58a4 4 0 0 0 4 4h45a4 4 0 0 0 4-4V98.6a4 4 0 0 0-1.6-3.2zM177-15a4 4 0 0 0-5.6 1.5l-14.8 25.2-8.5-8.2a4 4 0 1 0-5.6 5.8L154.6 21a4 4 0 0 0 6.3-.8l17.4-29.6A4 4 0 0 0 177-15m-10 45.7h-57.2a4 4 0 0 0 0 8H167a4 4 0 0 0 0-8m-110.1 74H23.6a4 4 0 0 0 0 8.1H57a4 4 0 0 0 0-8m-.1 17.4H-.3a4 4 0 0 0 0 8H57a4 4 0 0 0 0-8M30.6 140H-.3a4 4 0 0 0 0 8h30.9a4 4 0 0 0 0-8M-8.8 46h-28.9a4 4 0 0 0 0 8h29a4 4 0 0 0 0-8m-58.4 8h12.4a4 4 0 0 0 0-8h-12.4a4 4 0 0 0 0 8M-10 64.2h-57a4 4 0 0 0 0 8h57a4 4 0 0 0 0-8m77-19.6a4.6 4.6 0 1 0-.2-9.2 4.6 4.6 0 0 0 .1 9.2m-56-24.3a4.6 4.6 0 1 0 .1 9.2 4.6 4.6 0 0 0-.1-9.2M-41.6-6.4a4.6 4.6 0 1 0-9.2 0 4.6 4.6 0 0 0 9.2 0M53 139.5a4.6 4.6 0 1 0 .2 9.2 4.6 4.6 0 0 0-.1-9.2M121-2.8a8.6 8.6 0 1 1 0 17.1 8.6 8.6 0 0 1 0-17m0 25a16.6 16.6 0 1 0 0-33.2 16.6 16.6 0 0 0 0 33.3M26.5-13.5a4 4 0 0 0-4-4 8.6 8.6 0 0 1 0-17 4 4 0 0 0 0-8.1 16.6 16.6 0 0 0 0 33.2 4 4 0 0 0 4-4m-62.4 51.6a4 4 0 0 0 0-8 8.6 8.6 0 0 1 0-17.1 4 4 0 0 0 0-8 16.6 16.6 0 0 0 0 33.1M91.8 51.6a4 4 0 0 0-4 4 8.6 8.6 0 0 1-17.1 0 4 4 0 1 0-8 0 16.6 16.6 0 0 0 33 0 4 4 0 0 0-4-4M11.1 35.2a4 4 0 0 0-4 4v24.6a4 4 0 1 0 8 0V39.3a4 4 0 0 0-4-4m17.4 32.5a4 4 0 0 0 4-4V20a4 4 0 1 0-8 0v43.7a4 4 0 0 0 4 4m17.3-73a4 4 0 0 0-4 4v65a4 4 0 1 0 8 0v-65a4 4 0 0 0-4-4m-71.4-1a4 4 0 0 0 5.7 0l4.1-4.1 4.2 4.1a4 4 0 0 0 5.7 0A4 4 0 0 0-6-12l-4.2-4.1 4.2-4.2a4 4 0 0 0-5.7-5.6l-4.2 4.1-4.1-4.1a4 4 0 1 0-5.7 5.6l4.2 4.2-4.2 4.1a4 4 0 0 0 0 5.7m.1 32.5a4 4 0 0 0 5.7 0l4.1-4.2 4.2 4.2a4 4 0 0 0 5.7 0 4 4 0 0 0 0-5.7l-4.2-4.2 4.2-4.1a4 4 0 0 0-5.7-5.7l-4.2 4.2-4.1-4.2a4 4 0 1 0-5.7 5.7l4.2 4.1-4.2 4.2a4 4 0 0 0 0 5.7m89.4-14a4 4 0 0 0 5.7 0L73.6 8l4.2 4.2a4 4 0 0 0 5.7 0 4 4 0 0 0 0-5.7l-4.2-4.1 4.2-4.2a4 4 0 0 0-5.7-5.7l-4.2 4.2-4.1-4.2a4 4 0 1 0-5.7 5.7l4.1 4.2-4.1 4.1a4 4 0 0 0 0 5.7m100.9 53l-13.3-8.8a4 4 0 0 0-4.4 0L135.8 64l-12.5-7.3a4 4 0 0 0-4.2.1l-12.9 8.5a4 4 0 0 0 4.5 6.7l10.7-7.1 12.5 7.3a4 4 0 0 0 4.3-.2l11-7.3 11 7.3a4 4 0 1 0 4.5-6.7M.6 94.5a4 4 0 0 0 2.2-.7l10.8-7.1L26 94a4 4 0 0 0 4.2-.2l11-7.3 11.1 7.3a4 4 0 1 0 4.5-6.7l-13.3-8.8a4 4 0 0 0-4.5 0l-11 7.5-12.5-7.3a4 4 0 0 0-4.3.1l-12.8 8.5a4 4 0 0 0 2.2 7.4m91.8-75.1a4 4 0 0 0-4 4v18.9a4 4 0 1 0 8 0V23.4a4 4 0 0 0-4-4"></path></g><rect fill="#7CA1FF" mask="url(#b)" x="-41" y="-8" width="69" height="29" rx="7"></rect></g><path d="M145 215c49.4 0 53.7-1.3 53.7-3s-4.3-3-53.7-3c-49.3 0-89.3 1.3-89.3 3s40 3 89.3 3z" fill="#F2F3FA"></path><g transform="translate(7 1)"><path d="M74 13v12c0 3.1-.3 4.3-1 5.4-.5 1.2-1.4 2-2.6 2.7-1.1.6-2.3.9-5.4.9H46v-1.8c0-6.7.7-9 2-11.5s3.2-4.4 5.7-5.7c2.4-1.3 4.8-2 11.5-2H74z" fill="#15C39A"></path><rect fill="#FFF" width="69" height="29" rx="5"></rect><rect fill="#F2F3FA" x="2" y="7" width="19" height="7" rx="2"></rect><rect fill="#F2F3FA" x="29" y="7" width="19" height="7" rx="2"></rect><rect fill="#FFF" x="149" y="45" width="53" height="74" rx="5"></rect><path d="M189.7 46h9.9c2.2 0 3 .2 3.8.7a4 4 0 0 1 2 1.9c.4.8.6 1.6.6 3.8v61.2c0 2.2-.2 3-.7 3.8a4 4 0 0 1-1.9 2c-.8.4-1.6.6-3.8.6h-32.1" stroke="#3B3E4D" stroke-width="2" stroke-linecap="round" stroke-linejoin="round"></path><rect fill="#F2F3FA" x="160" y="57" width="32" height="5" rx="1"></rect><rect fill="#F2F3FA" x="160" y="67" width="32" height="3" rx="1"></rect><rect fill="#F2F3FA" x="160" y="74" width="32" height="3" rx="1"></rect><rect fill="#F2F3FA" x="160" y="81" width="32" height="3" rx="1"></rect><rect fill="#F2F3FA" x="160" y="88" width="32" height="3" rx="1"></rect><path d="M100.1 114.1l-10-64.5-26-5.4L44 27.4l2.4-4.3 21.8 12.5L90 36.8l13.6 1.5 1-5.8-4.5-1.3V13l3.5-7.6 9.5-2.8 9.3 2.8 4.7 7.6h19.7l2.4 14.4 4 9.4 5.6 5.5 2 7.3-2 5.2c0 .7-1.9 1.8-5.6 3.5-5.7 2.6-14.3 1.5-21.2-1.2l24.6 37-3.4 3.5-26-33.8v19.1l12.3 31.2h-39.4z" fill="#FFF"></path><path d="M65.6 43.3c-1-.9-1.3-4.3 4.3-2.8a224 224 0 0 1 15.9 5.1c3.2 1.3 4.8 2.7 4.8 4.3a217 217 0 0 1-25-6.6zM167.9 198l-36-103.5-5-11.8V64.2c1.1-2.3 2.2-2.9 3.3-1.7 11.5 12.6 21.1 28.3 24.4 32.8 1 1.4 1-.7 1.2-.8 1.3-.2-20.8-31.4-20.5-31.6 1-.8-2.1-3-2.3-3.5-2.4-6.2-12.6-10.2-14-8.5-1.9 2-.5 12.6 4 31.8l4 9.3 38 106h2.8zM105.2 5.1c-.8 1.5 2 7.6 6.1 8.8 2.8.8 5-.4 7-3.7V4l-3.5-.8h-5.3c-2.3.3-3.7 1-4.3 2z" fill="#F1F2FA"></path><path fill="#A6ADC9" d="M100.3 18.1v12.6l4 1.9v5.5l3.6 3 3.4.9h6.1l-1-3.9v-5.5l-3.8-.6-4.7-2-2-2v-2.7l1.3-1.6-.5-2-1.6-.7-2.2-1.4-1.6-1.5zM115 201c-2.8 1.8-2.6 3 .3 3.5 3 .5 4.2-.6 3.6-3.5h-4z"></path><path d="M118.3 111.6c0-.8 6.8-2 5.7-2.5-2.6-1.5-14.5-1.8-14.5 0 0 2.5 4.4 4.2 4.4 7.8 0 2.4 1.4 30.4 4.4 84.2h2.3l-2.3-89.5zm3.5-105.4c.7 6.7 2.8 9.6 6.3 8.9 5.3-1.1 9.5-2.1 11.2 1.6 1.6 3.8-6 15.6.9 20.5 6.7 5 18.8 12.5 8.5 21.7l10.3-4.8 1.7-4.4v-3.9l-1.7-3.5-2.3-2.3-4-3.6-3-6-1-10.2L146 10l-4.2-5.2-5.6-3.2H130l-5.8 1.7-2.4 3z" fill="#F1F2FA"></path><path d="M161 198.5c-.1 2.2.5 3.6 2 4.1 2.2.7 7.1.6 6.6-.7a21 21 0 0 0-2.3-4l-6.2.6zM43.3 26.5c-4-.4-6.9-1-8.8-1.9-2-.8-3.3-1-4-.4-3.3-1.4-4-2.4-1.8-2.8 2-.5 6.5-1 13.3-1.7l4.7 3.4-3.4 3.4zm113.8 68.1c1.9.5 3.6 1.3 5 2.6 2.2 2 3.7 4.8 3.3 6-.4 1.1-2.3 6.8-6.6 4.3-2.9-1.8-3.7-3-2.4-3.9l-1.8 1.6-.8-5.4-.7-2.1 4-3z" fill="#A6ADC9"></path></g><path d="M16.6 30H7.4c-2.2 0-3-.2-3.8-.7a4 4 0 0 1-2-1.9c-.4-.8-.6-1.6-.6-3.8V7.4c0-2.2.2-3 .7-3.8a4 4 0 0 1 1.9-2c.8-.4 1.6-.6 3.8-.6h53.7m18.4 0h7m4 0h2m-15 5h4m-61 24h3m77 181.3h41.4m30.2 0h20.3M168.2 101l4 5.6m-6.4-3.6l4.7 6.5m-59.4-76.2v6l-14.2-2-21.6-.4-21.8-13.3-3 4.6 21 16.4 25.4 5.8L120 202h7.6l-2.1-89.5m21.3 44.9l19.8 41.6h8.3a21825.3 21825.3 0 0 0-24.6-71A5945 5945 0 0 0 139 96c-2.4-6.7-3.9-8.8-5-13.3-.6-3-.6-8.9 0-17.5m25.5 33.2l4.1-2.9-18.2-28" stroke="#3B3E4D" stroke-width="2" stroke-linecap="round" stroke-linejoin="round"></path><path d="M113 34l-4-1.4a3 3 0 0 1-2-2.8v-13c.2-8.7 4.2-13 12-13 2.6 0 4.9.4 6.8 1M104 88l19.4 2.3m6.1-85.6c-1.2-1-6.3-.5-4.2 6m3.5-3.9c2.7-3 6.1-4.5 10.3-4.5 6.3 0 13.5 4.4 15.6 13.7 2.1 9.2-.6 17.7 8.3 24.4 9 6.6 4.5 19-7.3 19.7m4.3 38.6l1 1.4v6.8a.3.3 0 0 0 .5.2l1.7-2.2 3.7 5.4M53.1 23.6L48.7 21l-15.6 1.3m17.6 5.2c-1.8 1-5.6-.3-7.5-1.5-1.2-.7-3-1.1-5.4-1.1M104 211.3c0-1.3.9-2.4 2.2-2.7l10.9-2.5c2-.7 3-2 3-4.1m-.8 2.8c1.6.7 3.1.9 4.6.5m44.1-6v7.4m20.6 4.7c.4-1.6-.5-3.3-2-4l-7.4-3.4a8 8 0 0 1-4.4-5" stroke="#3B3E4D" stroke-width="2" stroke-linecap="round" stroke-linejoin="round"></path><path d="M107.1 14.8c0 2.4 1.7 6.4 5.3 7.1 2 .4 2.2 3 .9 3.7-1 .6-1.2 7.5 9.9 7.5m.5-3.5a35 35 0 0 0 2.2 17.4M111 39.5c2.2 1.8 4.4 3 6.6 3.3" stroke="#3B3E4D" stroke-width="2" stroke-linecap="round" stroke-linejoin="round"></path><path stroke="#68DEC2" stroke-width="3" stroke-linecap="round" d="M189.8 109.1l2.8 2.9 9.1-9.1"></path></g></svg>