<?xml version="1.0" encoding="utf-8"?>
<!-- Generated by IcoMoon.io -->
<!DOCTYPE svg PUBLIC "-//W3C//DTD SVG 1.1//EN" "http://www.w3.org/Graphics/SVG/1.1/DTD/svg11.dtd">
<svg version="1.1" xmlns="http://www.w3.org/2000/svg" xmlns:xlink="http://www.w3.org/1999/xlink" width="100" height="100" viewBox="0 0 768 768">
<g id="icomoon-ignore">
</g>
<path fill="rgb(250, 250, 250)" d="M433 615.7c11.2-4 22.3-7.8 33.1-12.4 18.9-7.9 23.5-26.6 18.6-45.2-0.6-2.1-2.6-4-4.4-5.5-10.1-8.4-15.6-18.9-16.3-32.1-0.3-4.9-2.3-8.4-6.4-11.5-2.6-1.8-5-5-5.8-7.9-2.7-12.1-5.2-24.1 2.3-35.7 1.1-1.7 0.9-4.1 0.9-6.3 0.2-12.5-0.8-25.2 0.3-37.7 1.4-17.9 6.7-34.8 23.7-44 29-15.7 59.4-17.9 89.7-3.7 18.2 8.4 27.2 24.7 29.5 43.8 1.7 13.6 0.3 27.5 0.5 41.1 0 2.7 1.5 5.3 2.4 7.9 0.3 0.9 1.2 1.5 1.7 2.4 4.7 7.9 0.5 34.7-6.3 41.2-2.1 2.1-3.8 5.2-4.4 7.9-2.6 13.7-5.8 27-17.9 36.1-1.2 0.9-2.1 2.9-2.6 4.6-5.2 19.4 3.2 39.3 21.5 47.7 11.2 5.2 23.1 9.5 35 11.8 10.5 2.1 19.7 5.8 27.5 11.2 43.1-57 68.6-127.9 68.6-204.8 0-187.9-152.3-340.2-340.2-340.2s-340 152.4-340 340.3c0 67.2 19.4 129.8 53 182.5 7.5-6 16.2-10.4 26-13.6 17.9-6 35.6-12.4 53-19.7 22.1-9.3 27.5-31.2 21.7-53-0.6-2.4-3.1-4.7-5-6.4-11.9-9.8-18.3-22.1-19.1-37.6-0.3-5.8-2.7-9.9-7.5-13.4-3.1-2.1-6-5.8-6.7-9.3-3.2-14.1-6.1-28.3 2.6-41.9 1.2-1.8 1.1-4.9 1.1-7.3 0.2-14.7-0.8-29.5 0.3-44.1 1.7-20.9 7.8-40.8 27.6-51.5 33.9-18.3 69.5-20.9 104.9-4.3 21.2 9.9 31.8 28.9 34.5 51.2 1.8 15.9 0.3 32.1 0.6 48.1 0 3.2 1.7 6.3 2.9 9.3 0.5 1.1 1.5 1.8 2 2.7 5.5 9.3 0.5 40.6-7.3 48.3-2.4 2.4-4.4 6-5.2 9.3-3.1 16-6.9 31.5-20.8 42.2-1.5 1.2-2.6 3.4-3.1 5.3-6.1 22.8 3.7 46 25.2 55.8 13 6 26.9 11 40.9 13.9 28.4 5.7 48.3 21.2 60.2 47.2 14.7 31.9 23.8 81.6 26.7 119.1 6-1.2 11.8-2.6 17.6-4.1-3.4-39.3-12.7-89.1-28.1-122.5-2.6-5.1-5.7-10.3-9-15.2v0z"></path>
<path fill="rgb(61, 164, 181)" d="M365.6 591.6c-14.1-2.7-28-7.8-40.9-13.9-21.5-9.9-31.3-33.1-25.2-55.8 0.5-2 1.5-4.1 3.1-5.3 13.9-10.7 17.9-26.1 20.8-42.2 0.6-3.4 2.7-6.9 5.2-9.3 7.8-7.8 12.8-39 7.3-48.3-0.6-1.1-1.7-1.8-2-2.7-1.1-3.1-2.7-6.3-2.9-9.3-0.3-16 1.4-32.2-0.6-48.1-2.7-22.3-13.3-41.4-34.5-51.2-35.4-16.5-71-14.1-104.9 4.3-19.9 10.7-26 30.6-27.6 51.5-1.1 14.7-0.2 29.3-0.3 44.1 0 2.4 0.2 5.5-1.1 7.3-8.7 13.4-5.8 27.8-2.6 41.9 0.8 3.5 3.8 7.2 6.7 9.3 4.7 3.5 7.2 7.6 7.5 13.4 0.8 15.3 7.2 27.8 19.1 37.6 2.1 1.7 4.4 4 5 6.4 5.8 21.8 0.5 43.7-21.7 53-17.4 7.3-35.1 13.7-53 19.7-9.8 3.2-18.5 7.8-26 13.6 60.3 94.7 166.3 157.6 287 157.6 23.5 0 46.4-2.4 68.4-6.9-2.9-37.7-12.1-87.2-26.7-119.1-11.8-26.2-31.7-41.8-60.1-47.6v0z"></path>
<path fill="rgb(130, 198, 209)" d="M655.7 629.6c-7.8-5.3-17-9-27.5-11.2-12.1-2.4-23.8-6.7-35-11.8-18.3-8.4-26.7-28.3-21.5-47.7 0.5-1.7 1.4-3.5 2.6-4.6 11.9-9.2 15.3-22.3 17.9-36.1 0.6-2.9 2.3-6 4.4-7.9 6.7-6.6 11-33.3 6.3-41.2-0.5-0.9-1.4-1.5-1.7-2.4-0.9-2.6-2.4-5.3-2.4-7.9-0.3-13.7 1.1-27.6-0.5-41.1-2.3-19.1-11.3-35.3-29.5-43.8-30.2-14.2-60.6-11.9-89.7 3.7-17 9.2-22.3 26.1-23.7 44-0.9 12.5-0.2 25.1-0.3 37.7 0 2.1 0.2 4.7-0.9 6.3-7.5 11.6-5 23.7-2.3 35.7 0.6 3.1 3.2 6.1 5.8 7.9 4.1 3.1 6.1 6.6 6.4 11.5 0.6 13.1 6.1 23.7 16.3 32.1 1.8 1.5 3.8 3.4 4.4 5.5 4.9 18.6 0.3 37.4-18.6 45.2-10.8 4.6-22 8.4-33.1 12.4 3.4 4.9 6.4 10.1 9 15.7 15.4 33.5 24.7 83.3 28.1 122.5 75-19.7 140-64.3 185.5-124.5v0z"></path>
<path fill="rgb(61, 164, 181)" d="M702.1 62.5c-14.5-18.5-34.4-33-59.4-43.7-25.1-10.7-52.4-16-82-16s-57 5.3-82 16-45 25.2-59.5 43.7c-14.7 18.5-21.8 38.5-21.8 60.3 0 18.8 5.5 36.4 16.5 52.7s26.1 30.1 45.1 41.2c-1.4 5-2.9 9.8-4.7 14.4-1.8 4.4-3.5 8.1-4.9 11-1.5 2.9-3.5 6.1-6 9.6-2.4 3.5-4.3 6-5.7 7.5-1.2 1.4-3.4 3.8-6.3 7.2s-4.9 5.5-5.7 6.4c-0.2 0-0.6 0.6-1.4 1.7s-1.2 1.7-1.2 1.7l-1.1 1.7c-0.6 0.9-0.9 1.5-0.8 1.7 0 0.3 0 0.9-0.3 2s-0.3 1.7 0 2.3v0.2c0.5 2.1 1.5 3.8 2.9 5.2 1.4 1.2 3.1 2 4.9 2h0.9c7.9-1.1 14.8-2.4 20.8-4.1 31.9-8.4 59.9-23.5 83.9-45.4 9.2 1.1 18 1.5 26.4 1.5 29.6 0 57-5.3 82-16 25.1-10.7 44.9-25.2 59.4-43.7s21.8-38.5 21.8-60.2c0.2-22.5-7.1-42.5-21.8-60.9v0z"></path>
<path fill="rgb(130, 198, 209)" d="M86 78c-10.3 13-15.4 27-15.4 42.7 0 15.2 5.1 29.3 15.3 42.2 10.2 13 24.1 23.2 41.7 30.7s36.8 11.3 57.6 11.3c5.9 0 12.1-0.3 18.5-1.1 16.8 15.3 36.4 25.9 58.8 31.8 4.2 1.2 9 2.1 14.6 2.9h0.6c1.3 0 2.5-0.5 3.4-1.4 1-1 1.7-2.1 2-3.6v-0.1c0.2-0.4 0.2-0.9 0-1.6s-0.2-1.2-0.2-1.4c0.1-0.1-0.1-0.5-0.5-1.2l-0.8-1.2c0 0-0.3-0.4-0.9-1.2-0.5-0.8-0.9-1.2-1-1.2-0.5-0.6-1.9-2.1-4-4.5-2-2.4-3.5-4.1-4.4-5-1-1.1-2.3-2.8-4-5.3s-3.1-4.7-4.2-6.8c-1-2-2.1-4.6-3.4-7.7-1.3-3.2-2.4-6.5-3.3-10.1 13.3-7.8 23.9-17.5 31.6-28.9 7.7-11.5 11.6-23.8 11.6-37 0-15.3-5-29.4-15.3-42.3-10.2-13-24.1-23.2-41.7-30.7s-36.8-11.3-57.6-11.3c-20.8 0-40 3.8-57.6 11.3s-31.2 17.8-41.4 30.7v0z"></path>
<path fill="rgb(255, 255, 255)" d="M485.7 91.9c0 9.9 8 17.9 17.9 17.9s17.9-8 17.9-17.9c0-9.9-8-17.9-17.9-17.9s-17.9 8.1-17.9 17.9z"></path>
<path fill="rgb(255, 255, 255)" d="M485.7 139c0 9.9 8 17.9 17.9 17.9s17.9-8 17.9-17.9c0-9.9-8-17.9-17.9-17.9s-17.9 8-17.9 17.9z"></path>
<path fill="rgb(255, 255, 255)" d="M621.1 139c0 4.9-4 8.9-8.9 8.9h-71.6c-5 0-9-4-9-8.9v0c0-4.9 4-8.9 9-8.9h71.6c4.9 0 8.9 4 8.9 8.9v0z"></path>
<path fill="rgb(255, 255, 255)" d="M652.9 92.1c0 5-4 8.9-8.9 8.9h-103.4c-5 0-9-4-9-8.9v0c0-4.9 4-8.9 9-8.9h103.3c5-0.1 9 3.9 9 8.9v0z"></path>
<path fill="rgb(255, 255, 255)" d="M217.3 96.6c-10.1 10.7-18.6 22.7-26.6 34.9-5.2 7.9-10 16-15.1 24.2-0.2-0.3-0.5-0.6-0.8-1-7.4-10.7-14.8-21.3-22.2-32-0.1-0.1-0.3-0.2-0.4-0.3 0-0.2 0-0.4 0-0.6 1.7-1.6 3.5-3.2 5.3-4.9 6 4.2 11.9 8.5 18.1 12.9 1.3-1.8 2.7-3.5 4.1-5.2 10.8-13.3 22.7-25.5 36.9-35.3 0.2-0.1 0.3-0.3 0.4-0.5 2.5 0 5 0 7.5 0 0.2 0 0.4 0.2 0.6 0.3-2.7 2.6-5.4 4.9-7.8 7.5z"></path>
</svg>
