<?xml version="1.0" encoding="utf-8"?>
<!-- Generator: Adobe Illustrator 23.0.2, SVG Export Plug-In . SVG Version: 6.00 Build 0)  -->
<svg version="1.1" id="ec16f1a7-6162-4648-9d10-380c89c40baf"
	 xmlns="http://www.w3.org/2000/svg" xmlns:xlink="http://www.w3.org/1999/xlink" x="0px" y="0px" viewBox="0 0 1144 774.7"
	 style="enable-background:new 0 0 1144 774.7;" xml:space="preserve">
<style type="text/css">
	.st0{fill:#999DAA;}
	.st1{fill:#E2E2E2;}
	.st2{fill:#0D2263;}
	.st3{fill:#CC9483;}
	.st4{fill:#4A75DD;}
	.st5{fill:#6597EF;}
	.st6{fill:#FFFFFF;}
	.st7{fill:#1F3E93;}
	.st8{fill:#26282D;}
	.st9{fill:url(#SVGID_1_);}
	.st10{fill:#E0AC9B;}
	.st11{fill:url(#SVGID_2_);}
	.st12{fill:#212121;}
	.st13{fill:#D19780;}
	.st14{fill:#AFB3BC;}
	.st15{fill:#5B250E;}
	.st16{fill:#D4D5D6;}
	.st17{fill:#873F26;}
</style>
<title>Group chat</title>
<g>
	<g>
		<path class="st0" d="M524.4,539.9c0,0.7,1.1,1.3,2.5,1.3l0,0c1.4,0,2.5-0.6,2.5-1.3V342.9c0-0.7-1.1-1.3-2.5-1.3l0,0
			c-1.4,0-2.5,0.6-2.5,1.3V539.9z"/>
		<path class="st0" d="M608.8,562.6c0.1,0.8,1.3,1.1,2.7,0.7l0,0c1.3-0.4,2.3-1.3,2.1-2.1l-41.7-212.7c-0.2-0.8-1.3-1.1-2.7-0.7l0,0
			c-1.3,0.4-2.3,1.3-2.1,2.1L608.8,562.6z"/>
		<path class="st0" d="M449.7,558.1c-0.2,0.7-1.3,1.1-2.7,0.7l0,0c-1.3-0.4-2.3-1.3-2.1-2.1L486.7,344c0.1-0.8,1.3-1.1,2.6-0.7l0,0
			c1.3,0.4,2.3,1.3,2.1,2.1L449.7,558.1z"/>
	</g>
	<g>
		<rect x="348.1" y="62.5" class="st1" width="362.7" height="301.5"/>
		<path class="st0" d="M342.4,62.6c0,1.3,1.7,2.3,3.9,2.3h365.9c2.1,0,3.8-1,3.8-2.3V58c0-1.2-1.7-2.3-3.8-2.3H346.3
			c-2.1,0-3.9,1-3.9,2.3V62.6z"/>
		<path class="st0" d="M342.4,362.3c0,1.2,1.7,2.3,3.9,2.3h365.9c2.1,0,3.8-1,3.8-2.3v-4.5c0-1.3-1.7-2.3-3.8-2.3H346.3
			c-2.1,0-3.9,1-3.9,2.3V362.3z"/>
	</g>
</g>
<g>
	<path d="M772.8,628.8c1,5.3,5.3,10.6,1,13.9c-4.3,3.4-8.7,3.4-13.9,1.9c-5.3-1.4-7.2-4.3-10.1-6.7c-2.9-2.4-13.1-5.1-15.5-8.4
		c-2.4-3.3-6.4-14.2-2.2-15.6c2.5-0.8,8,0.9,22.7,5L772.8,628.8z"/>
	<path class="st2" d="M765.5,522.2c0,0,14.1,88,13,108.6c-27.6,2.4-41.1-8.2-40.7-14.3c0.3-6.1-15.3-88.3-15.8-92.9
		c-0.5-4.6-7.9-34.3,4.5-40.6C767.6,462,765.5,522.2,765.5,522.2z"/>
	<g>
		<path d="M724.4,622.2c2.5,7.8,7.1,16.9,4.7,21.8c-2.4,5-11.1,4.5-17.9,1.2c-4.1-1.9-19.4-4.4-23.9-5.9
			c-11.7-4.1-15.1-14.6-7.6-15.2c8.3-0.7,19.9-1.1,23.7-4.2C707.1,616.7,724.4,622.2,724.4,622.2z"/>
		<path class="st2" d="M729.2,497.7c-49.4-17.1-53.7,3-45,34.9c4.4,16.2,7.1,82.6,2.8,92.7c20.2,10.6,44.7,11,44.7,11
			s-3.5-79.5-9.1-96.4C719.9,532,729.2,497.7,729.2,497.7z"/>
	</g>
	<path class="st3" d="M794.1,312.7c-0.5,5.6,3.4,24.7,7,32.4c3.6,7.7,15.5,16.7,15.5,16.7L773,379.3c0,0-2.1-31.4-11.7-35.6
		C755.4,341.2,794.1,312.7,794.1,312.7z"/>
	<path class="st3" d="M748.3,303.9c-0.2,2.6,0.7,7.8,0.7,10.5c-0.1,2.2-1.7,4.3-1.7,6.5c0.2,14.5,3.5,25.3,8.7,26
		c3.1,0.4,11.6,4,16.9,2.2c9.2-3.1,18-14.3,21.5-24c5.5-15.4-0.3-32.7-16.1-35.8C761,285.9,749.9,287.6,748.3,303.9z"/>
	<g>
		<polygon class="st4" points="871.9,670.5 876.8,670.5 861.4,538.7 859.1,522.2 775.3,536 780.4,684.1 786.7,683.6 789.7,552.4 
			849.5,542.8 		"/>
		<g>
			<path class="st4" d="M700.8,509.2l51.7-3.6l108.8,9.6l0.3,16.5c0.8,1.8,0,8.8-6.6,9.7c0,0-67.8,14.6-75.9,12.1l-82.5-24.7
				L700.8,509.2z"/>
			<path class="st5" d="M771.5,529.2c11.6,2.6,11.6,0.1,21.5-0.9l55-9.2c20.8-2.2,14.8-3,4.9-7l-8.2-1.8c-8.2-3.2-48.9-8.7-59.8-7.6
				l-79,2.3c-11.6,1.2-5.5,5.2-3.9,5.5L771.5,529.2z"/>
		</g>
		<polygon class="st4" points="701.8,524.1 688.9,662.7 692.7,662.3 713.3,533.3 		"/>
	</g>
	<path class="st6" d="M803.6,345.2c-19.1-2.2-27.7,1.9-38.4,6.3c-2.1,2.7-2.8,11.9-2.8,11.9s40.6-12.6,41.8-14.3
		C805.4,347.4,803.6,345.2,803.6,345.2z"/>
	<path d="M744,287.8c-0.3,3.1,0.9,3.5,1.8,3.6c-2.3-3.1-0.5-9.4-0.5-9.4c7.6,8.6,29.9-14.3,51.8,1.4c2.2,1.6-0.5,2.5,1.3,3.9
		c15,11.3,15.5,18.5,11.7,29.2c-4.2,12-6.1,16.7-4.8,22.8c1.1,4.9-30.8,4.8-30.8,4.8s-6.7-2.9-8.7-7.8c-1.4-3.3-5.2-9.3-4.8-10.4
		c4.8-10.8-2.2-14-4.4-9.2c-1.7,3.7-1,6-1,6l-3.7-2c0,0,2.6-11.7,0-16.9c-0.6-1.2-2.9-4.6-5.4-8C741.8,294.5,744.4,283.6,744,287.8z
		"/>
	<path class="st2" d="M769,520c-6.5,0.3-45.2-12.7-45.2-12.7l-16.5-4.4c0,0,12.6-17.7,19.5-20.3c6.9-2.6,32.9,14.3,32.9,14.3
		L769,520z"/>
	<path class="st2" d="M728.2,388.6c2.5-4.5,9.5-16.5,9.5-16.5s-2.9,2.7,24.1-10.3c9.1-4.4,17.1-7.9,17.1-7.9l26-6.1
		c11.3,9.1,24.9,12.7,32.9,13.9c0,0,6,0.3,7,2.7c13.6,32.7-14.7,58.4-13.3,71.3c6,52.6-10,71.1-11.8,77.8
		c-0.9,3.3-17.1,6.5-36.1,6.8c-10.3,3.2-59.8-11.9-63.3-14.7c-1.7-4.4,13.9-3.9,21.2-47.3c0.9-5.2,0.9-16-1.7-27.7
		C736.8,397.7,716,406.8,728.2,388.6z"/>
	<g>
		<path class="st4" d="M773.6,513.6c-0.1,7.6,7.1,12.4,20,11.4l58.4-9.2c14.8-1.9,12.7-3.3,14.4-11.1l11.5-110.1
			c2.6-11.9-5.1-21.5-22.2-19.9l-53.1,4.7c-16.8,1.5-18.7,10.3-18.9,21.9L773.6,513.6z"/>
		<path class="st5" d="M794,383.1c-5.2-0.3-14.1,5-14.9,13.6c-0.9,8.7-16.7,114.6-12.3,121.5c4.3,6.9,14.8,8,14.3,5
			c-4.3-28.2,8.2-124.8,11.3-130.4C795.3,387.2,794,383.1,794,383.1z"/>
	</g>
	<g>
		<path class="st2" d="M806.2,347l7.6,7.2c0,0-9.9-0.7-16.8,1.1c-14.8,3.8-40.2,11.7-40.2,11.7l3.7-9.1c0,0,15.6-6.4,32.7-10.1
			C799.2,346.3,806.2,347,806.2,347z"/>
		<path class="st7" d="M758,363.6l2.5-5.9c0,0,20.1-9.3,32.7-10.1c-25.5,9.2-24.1,13.6-26.7,14.7C763.8,363.3,758,363.6,758,363.6z"
			/>
	</g>
</g>
<g>
	<path d="M553.9,212c3.9-1.3,8.9-1.5,12.3,6.3c3.5,7.8,13,21.5,18.2,29.3c0,0,23.7,30.7,12.9,42.1c-11.7,12.4-34.2-4.3-42.9-10
		c-8.4-5.5-3.9-17.4-6.5-23C541,242.1,553.9,212,553.9,212z"/>
	<g>
		<path d="M509.8,578.8c-0.3-4.9,2.5-7.9,0.4-32.9c-0.3-3,22.4-4,22.4-4c-1,12.3-4.2,20,7.6,34.7c2.6,3.2,10.1,9.2,12.7,11.8
			c1.9,1.9,4.1,10.5-7.1,10.5c-14.1,0-24.8-4.2-28.4-10.9c-0.3-0.6-1.2-0.3-1.2-0.3S510.7,591.4,509.8,578.8z"/>
		<path d="M475.9,559.8l-21.3-2.9c0,0-0.3,2-1.9,9.4c-3.1,13.6-11,21.1-14.3,24.8c-2.9,3.3-3.5,7.1-2.7,10.3l0,1.6
			c0,0,1.2,6.4,5.6,6.4c4.3,0,22.2-2.9,24.4-6c0.9-1.3,1.2-2.7,1.2-3.9c0.1-0.2,0.2-0.3,0.3-0.5c0,0,1.9-7.5,4.3-6.8
			c0,0,4.2-4.2,1.8-11.1C470.6,574.4,475.9,559.8,475.9,559.8z"/>
		<path d="M547.6,326.3c0.1,2.2,4.1,10.7,4.1,12.8c0.7,23,0,32,0,38c0,6.6-4.2,82.2-9.2,98.8c-5,16.5-5.3,75.1-2.1,80.1
			c3.3,5,1.9,19.1,1.9,19.1s-21.3-7.5-37.7,4.4c0,0-0.6-3.1-1.1-17.6c-1.3-36,1.8-59.2,5.5-86.2c1.3-9.8-1.5-65.5-1.5-75.4
			c0-7.4-13.8,69.8-20.4,92.9c0,0-10.9,49-8.2,70.3c2.5,19.2-3.4,24.2-3.4,24.2s-20.7-10.6-32.3-4c-0.4-6.6-1.2-7.4,0.3-19.3
			c1.9-14.9,4.4-49.6,6.3-70.5c2.2-24.7,9.2-84.5,10.9-114.2c1.6-29.8,10.6-44.1,14.1-50C478.3,323.7,547.6,326.3,547.6,326.3z"/>
		<path class="st8" d="M547.6,378.8c-1.2,33.9-11.4,85.8-15.1,100.7c-3.7,14.9,1.2,9.3-0.6,18c-1.9,8.7-3.4,52.1-3.4,55.2
			c0,3.1-15.4,11.6-11,11c3.1-0.5,12.1-4.9,12.1-3.1c0,1.9-11.2,8.6-11.2,8.6s17.6-4.8,24.1-0.7c1.2,0.8-1.2-8.7-2-15.4
			c-0.8-6.6-1.8-51.4,1.1-68c3.1-17.6,11.1-93.3,9.3-103.9C549.1,370.8,547.6,378.8,547.6,378.8z"/>
		<path class="st8" d="M509,390.2c-6.8,13.6-20.8,83.2-23.9,93.1c-3.1,9.9-8.3,18.8-10.7,21.9c-2.5,3.1-16.4,52.7-14.6,61.4
			c6.2,0.6,12.4-0.6,13,2.5c0.6,3.1-16.1,1.9-16.1,1.9l21.1,11.2c0,0,1.2-10.6,1.2-18.6c0-8.1,1.3-46.1,7.5-66
			c6.2-19.8,9.2-35.9,11.7-53.3C500.7,427,509,390.2,509,390.2z"/>
	</g>
	<g>
		<path class="st3" d="M523.2,185.3c-1.8,6.2-1.9,12.3,0.2,17.8c2.1,5.5-6.8,14.8-10.1,14.5c-3.3-0.2-22.4-17.8-22.4-17.8
			s3.3-18.9,2.6-26.8C493.2,168.1,523.2,185.3,523.2,185.3z"/>
		<g>
			
				<linearGradient id="SVGID_1_" gradientUnits="userSpaceOnUse" x1="785.8649" y1="200.5629" x2="852.6949" y2="154.4408" gradientTransform="matrix(1 0 0 1 -300.0822 0)">
				<stop  offset="0" style="stop-color:#FFFFFF"/>
				<stop  offset="0.5165" style="stop-color:#C6C0B9"/>
			</linearGradient>
			<path class="st9" d="M506.9,177.3L506.9,177.3L506.9,177.3h0.2v0l10.9,1.5c-0.1,0.9,3.8,9.4,4,13c-3.1,3.9-19.4,22.5-24.7,22
				c-4.5-0.4-4.4-6.9-6.9-10.1c1-4.4,4.1-19.5,1.3-29.7L506.9,177.3z"/>
		</g>
	</g>
	<path class="st6" d="M525.9,197.7c-1.5,1.9-11.7,10.5-16.3,10c-4.1-2-16.3-10.4-17.8-13.6c-1.2,1.3-12.4,11.3-12.4,11.3l-2.6,112.1
		h38.1l0,0.3l26.3-0.3l0.6-101.8L525.9,197.7z"/>
	<g>
		<path d="M482.1,159.5c0.4,4.4,6.2,19.5,6.1,20.4c0,0.9,0,3.9-0.9,3.7c-0.9-0.2,7,1.9,8.3,0.4c1.3-1.5,1.2-21.3,0.3-22.4
			C495.2,160.4,482.1,159.5,482.1,159.5z"/>
		<g>
			<path class="st10" d="M493.6,161.7c-1.6-11.9-5.7-23.1,12.6-25.8c2.9-0.4,5.5-0.6,7.7-0.5c1.7-0.5,3.5-0.9,5.7-1.2
				c4.3,0.1,5.9,3.7,9,8.8c4.6,8,4.9,20.3,3.9,28.5c-0.1,0.5-0.2,1.1-0.3,1.6c-0.3,4.2-1.1,8.1-2.5,11.5c-1,2.7-2.5,5-4.6,6.4
				c-1.7,1.4-3.9,3.1-6.3,3.2c-13.1,0.6-20.9-7.1-23.9-17.1c-2.6-0.8-5.1-4.6-5.9-8.2C487.9,164.2,489,159.9,493.6,161.7z"/>
			<g>
				<path class="st8" d="M512.7,135.6l-0.6-1c0,0-5.1-2.2-4.2-2.3c0.5-0.1,2.1-1.8,3.5,0.5l-2.7-3.8l11.5,2.2c0,0,2.4-0.7,4.4,0.5
					c2,1.1,3.5,2.1,3.5,2.1s-0.1,1.8-0.7-0.7c2.6,0.5,4.8,6,5.3,10.2c0.4,1.2,0.7,2.6,1,4.1c1.2,6.2,0.6,13.2,0.6,13.2l-1.8,1.4
					c0,0-1.3-14-7.5-17.6c-6.2-3.6-16.6,0-16.6,0L512.7,135.6z"/>
				<path d="M482.5,148.7c1.4-3.9,2.6-9.2,5.2-10.8c1.1-3.1,10-5,19.4-9.5c0,0-7.6,4.9-7.5,7.2c0,0,0.1,0,0.1,0
					c-0.5-4.3,13.6-9.1,13-7.9c-3.3,6.7,0.1,1.6,1.4,4.2c0.3-0.1-1.9-1.2-1.6-1.2c-0.7-2.7,1.9-3.9,4-4.7c-1.5,5,3.5,3.5,6.7,7.2
					c3.9,3,6.4,8.7,3,11.8c-7.8,7.2-17.2,1.5-22.6,2.4c-5,0.8-6.1,5-7,7c-1.1,2.6-0.9,14.5-0.9,14.5l-2.6-0.8l-3.3-3.5l-5.7,2.2
					C484.1,166.8,479.5,156.6,482.5,148.7z"/>
			</g>
		</g>
	</g>
	
		<linearGradient id="SVGID_2_" gradientUnits="userSpaceOnUse" x1="814.5734" y1="246.7858" x2="806.9606" y2="199.958" gradientTransform="matrix(1 0 0 1 -300.0822 0)">
		<stop  offset="0" style="stop-color:#FFFFFF"/>
		<stop  offset="0.2392" style="stop-color:#FCFCFC"/>
		<stop  offset="0.433" style="stop-color:#F2F2F2"/>
		<stop  offset="0.6109" style="stop-color:#E1E1E1"/>
		<stop  offset="0.7782" style="stop-color:#C9C9C9"/>
		<stop  offset="0.9121" style="stop-color:#B0B0B0"/>
	</linearGradient>
	<path class="st11" d="M533.4,203.9l-1.1,29.9c0,0-41.6,8-47.2-11.1c-5.6-19.1,4.3-27.3,4.3-27.3s12.2,8.2,15.1,9.2
		c3,1,13,3,21.9-4.7C528.9,197.9,533.4,203.9,533.4,203.9z"/>
	<g>
		<g>
			<g>
				<polygon class="st5" points="509.8,212.2 514.7,212.1 513,203.4 506.4,203.5 504.2,206.6 				"/>
				<polygon class="st5" points="509.4,210.9 508,294.6 520.1,302.3 514.4,210.7 				"/>
				<polygon class="st4" points="516.8,211.8 514,211.9 512.8,203.4 519.5,203.3 521.6,205.9 				"/>
				<polygon class="st4" points="517,210.3 528.6,293.9 519.9,302 513.7,210.3 				"/>
			</g>
		</g>
	</g>
	<polygon class="st6" points="518,203.3 526.5,214.2 528,200.5 522.8,192.4 	"/>
	<path class="st6" d="M492.1,189.9c0.3,3.1,9.2,9.1,18.3,13.4c0,0-1.9,1.3-3.3,3.8c-2.2,3.9-4.7,8.5-4.7,8.5s-14.8-13.3-15-17.1
		C487.3,194.7,492.1,189.9,492.1,189.9z"/>
	<g>
		<path class="st12" d="M524.1,370.9l-3.7-1.8l-2.4-94.8c0,0,12.7-22.3,13.6-62.2l-3.4-13.2c7.3,4.4,8.9,7.9,28.3,12.2
			c2,0.4,0.7,12.3,0.7,12.3s-3.6,28.8-4.9,32.6c-1.3,3.9-2.8,25.3-2.6,34.4c0.2,5.2,9.4,55.2,10.1,75.5c0,0.7-0.5,2.2-2.7,2.8
			L524.1,370.9z"/>
		<path d="M525.9,196.9c1.1,0.4,14.3,9.5,14.3,9.5l2.9,7.4l-8.7,1.1l9,4.6l-24.8,55.1c0,0,12.5-50.2,11.6-63.6
			C529.8,203.5,525.9,196.9,525.9,196.9z"/>
		<path d="M538.4,311.5c2.6,1.6,13.2,3.2,14.5,3.5c1.3,0.3,4.1,11.2,2.7,12.2c-1.3,1-13.3-0.2-14.6-1.9
			C539.7,323.7,538.4,311.5,538.4,311.5z"/>
	</g>
	<g>
		<g>
			<path d="M520.4,369.2c0,0-1.3,2.9-3.9,2.7c-13.1-0.9-55.8,0.3-57.3,0.2c-2.2-0.2-3.7-2.2-3.7-3.1c0.4-25.6,9.2-66.2,9.5-77.6
				c0.3-9.1-4.1-29.3-5.4-33.2c-1.3-3.9-6.2-10.5-6.2-10.5s-4-2.1-2.2-10.8c0.8-3.8-5-22.7-1.3-23.4c10.5-2.1,20.4-6.9,34.1-16.1
				c0,0-1.3,17.8,9.9,38.2c3.4,6.3,22,34.1,24.2,40.6C520.5,282.9,520.4,369.2,520.4,369.2z"/>
		</g>
		<path class="st12" d="M490.3,192.4c0.1-0.5-12,9.6-12,9.6l-3.5,10.1l8.7,2.5l-7.9,10.2l41.5,48.1c0,0-28-56.4-29.4-63.7
			C485.8,200,490.3,192.4,490.3,192.4z"/>
		<path class="st12" d="M460.6,320.8c2.8-0.7,22.5-6.1,22.9-5.6c0.3,0.5,0.8,12.7-0.5,13.8c-1.3,1.1-23.4,5.6-24.9,5.6
			C456.6,334.6,460.6,320.8,460.6,320.8z"/>
	</g>
	<g>
		<g>
			<g>
				<path class="st10" d="M433.8,356.2c-2.8,11.3-3.7,15.6-1.2,19.5c1.4,2.2,4,6.1,5.3,7c1.3,0.9,7.3,4.9,8.2,3.6
					c0.9-1.3-6-6.2-6-6.2s-2.4-3.2-2.4-4.5c0-1.3,4.2-9.8,4.2-6.7c0,3.1-0.2,9.6,0.9,9.6c2.4,0,2.9-5.8,3.3-8.5
					c0.5-2.7,3.1-6.7,0-14.7l-0.4-4.5l-8.9-3.1L433.8,356.2z"/>
			</g>
			<path class="st10" d="M443.4,383.6c1.6,0.3,4.2,0,3.1-1.3c-1.1-1.3-5.7-3.1-6.2-3.7c-0.5-0.6-3.7-5-3.7-5s1.1,7.3,2.6,8.3
				C440.6,382.8,443.4,383.6,443.4,383.6z"/>
			<path class="st10" d="M437.2,371.7c2.8,2.9,5.8,5.1,5.7,5.8c-0.1,0.8-1.8,0-1.8,0s4.7,2.1,4,2.9c-0.6,0.8-4.8-0.1-6-1.5
				C435.7,375.3,437.2,371.7,437.2,371.7z"/>
		</g>
		<path d="M454.4,213.5c-8.5,1.3-7.6,4.9-11,21.8c-3.4,16.9-6.8,50.9-8,59.9c-1.1,9-8.2,61.1-8.2,61.1s12.9,7.3,23.1,3.6
			c3.2-8.4,10.3-51.8,10.8-54.4c1-6,2.7-35.5,5-42.2C468.3,256.6,456,213.3,454.4,213.5z"/>
	</g>
	<g>
		<g>
			<path class="st6" d="M572,289c-0.2,1.3-1.4,2.1-2.7,2l-38.1-5.8c-1.3-0.2-2.2-1.4-2-2.7l9.3-61.2c0.2-1.3-0.3-2.2,0.9-2l41.8,6.4
				c1.3,0.2,0.2,0.9,0,2.2L572,289z"/>
		</g>
		<path class="st10" d="M558.2,258.6c0.2-1.1,2.9-1.8,5.8-2.3c2.7-0.5,7.1,0.1,8.5-0.1l-4.5-2.9c-2.7-1.7-5.7-3.8-5.7-4.7
			c0.1-2.1,6,0.7,8.9,2c1.4,0.6,3.6,1.6,6,3.3c0.2,0.1,0.5,0.4,0.8,0.7c3.4,2.6,9.2,12.6,9.2,12.6s1,8.1-1.9,8.8
			c-1.6,0.3-4.8-0.4-7.6-1.5c-2.3-0.5-5.9-2.6-6.9-4.4c-3.7-1.3-8.6-1.4-8.9-3.8c-0.1-0.8,5.6-0.8,8.8-0.6c-0.1-0.2-0.2-0.3-0.3-0.5
			c-5.3-2.1-10.8,0-11.2-2c-0.1-0.8,1.9-2.3,5.9-2.8c3.2-0.2,5.1,0.3,5,0.1c-1.4-0.3-4.6-1.4-6-1.3
			C560.9,259.3,558,260.3,558.2,258.6z"/>
	</g>
</g>
<g>
	<g>
		<path class="st13" d="M426.4,479.2c-1.9,10.5,10.6,34.9,6.3,38.3c-4.3,3.4-31,63.2-31.8,67.7c-2.7,14.8,4.5,29.7,12.7,39.1
			c-7.7,1.9-15.3-1.6-24.2-15.7c-3.6-5.7-9-10.4-9.1-14.6c-0.1-9.6,2.4-3.2,6.6-16.1c4.2-12.9,6.5-53.7,22.1-70.8
			c9.6-10.5,12.6-28.8,15.4-32.6C427.2,470.6,426.4,479.2,426.4,479.2z"/>
	</g>
	<path class="st8" d="M383.3,585.5c-3.2,1.3-6.6,6.5-6.5,12.1c0.1,5.6,3.5,9.5-0.3,22c2.6,1.4,2.8,0.8,2.8,0.8s3.7-15.6,6-13.8
		c2.3,1.8,4,9.8,7.2,16.3c3.2,6.4,20.5,9.7,21.9,8.5c1.5-1.2,4-5.8,0.3-8.6c-3.7-2.7-4.2-4.3-4.2-4.3s-7.9,2.2-12.6-4.8
		C392,604.9,383.3,585.5,383.3,585.5z"/>
</g>
<g>
	<g>
		<polygon class="st5" points="415.2,620.4 419,620.4 408.2,495.2 400.2,495.7 311.6,496.8 311.6,519.5 311.8,519.5 299.3,621 
			303.1,621 324.8,519.5 395,519.5 		"/>
		<path class="st4" d="M316.1,369.2c-3.6-15.5-24.4-12.4-42.6-10.6c-13.1,1.3-16.3,6.6-15.6,19.8l15.6,114.2
			c0.6,13.1,11.3,21.8,23.8,19.3c12.4-2.5,38-10.9,37.1-24L316.1,369.2z"/>
		<polygon class="st4" points="398,643.2 401.1,643.2 389.2,527.9 409,510 351,509.6 282.7,508.9 283,527.9 269.3,643.9 
			271.9,643.9 295.5,527.9 376.1,527.9 		"/>
		<path class="st5" d="M286.6,510.3c-4.7,0-5-1.6-0.8-3.6l34.3-13.2c4.2-2,11.5-3.5,16.2-3.5l69.2,0.3c4.7,0.1,8.7,2.7,5,5.6
			l-14.2,8.3c-3.7,2.9-10.5,5.2-15.1,5.2L286.6,510.3z"/>
	</g>
</g>
<g>
	<g>
		<path class="st10" d="M428.7,482.5c1.3,10.6,7.7,29.8,4.6,34.3c-3.1,4.5-13.9,78.5-13.4,83c1.7,15,12.9,27.1,23.5,33.7
			c-6.8,4.1-15.1,2.9-27.7-8c-5.1-4.4-11.7-7.4-12.9-11.4c-2.8-9.1,1.4-3.8,1.6-17.4c0.3-13.6-9.4-53.3,0.5-74.2
			c6.1-12.8,3.6-31.2,5.2-35.7C411.8,482.4,428.7,482.5,428.7,482.5z"/>
	</g>
	<path d="M403.2,605.2c-2.6,2.2-4.4,8.2-2.7,13.5c1.7,5.3,6.1,8.1,6.2,21.1c2.8,0.6,2.9,0,2.9,0s-1-16,1.7-15
		c2.7,1,6.7,8.2,11.6,13.5c4.9,5.2,22.4,3.4,23.5,1.7c1.1-1.6,2.1-6.7-2.2-8.3c-4.3-1.5-5.3-2.8-5.3-2.8s-6.9,4.4-13.4-1
		C417.3,621.1,403.2,605.2,403.2,605.2z"/>
</g>
<path class="st8" d="M358.8,452.4c0,8.2,11,8.8,24.7,10.3c8.5,1,29,0,42.3,5.9c7.5,3.4,10.1,4.6,18,34.3c6.7,25.1,6.3,27.2,6.3,27.2
	l-43.9,23.8c0,0,11.9-52-21.3-52.7c-13.9-0.3-65.7-3.6-64.6-18.8c1.2-15.2-2-34.7-2-34.7L358.8,452.4z"/>
<g>
	<g>
		<g>
			<g>
				<path d="M328.8,507.9c23.8,3,59.5-4,62.1,12.9c1,10.3,3.6,39.1,3.6,39.1l40.5-21.1c-1.1-18.6-9.2-51.4-15.9-54.9
					c-19.4-10.3-78.9-2.8-81-11.6c-2.4-10.2,0.1-13.4,0.1-13.4l-16-9.3C312.3,469.9,299,504.1,328.8,507.9z"/>
			</g>
		</g>
	</g>
</g>
<path class="st3" d="M384.2,354.3c-11.6,5.4-18.2,13.4-15.5,33.6c0.8,6-5.9-12.7-13.9-18.8c-7-5.4-7.7-6.7-12.6-8.9
	c4.2-3.3,17.8-15.6,17.5-28.3C359.3,319.1,384.2,354.3,384.2,354.3z"/>
<polygon class="st6" points="339.5,362.3 343.2,353.9 365.8,368.4 366.9,383.9 "/>
<path d="M315.7,459.3c1.7-8.2,6.8-35.6,7.1-40.4c1.8-26.5,2.6-28.5,16.2-58.4c1.3,0.7,2.5,1.2,3.8,1.6
	c23.9,11.8,28.3,30.4,28.3,30.4c2.9,6.2,7.4,16.1,8.1,20.8c0.9,6.5-2.2,17.3-4.7,20c-2.6,2.8-4.8,13.5-5.5,17.6
	c-0.7,4.2-1.7,24-1.7,24l-59.3,4.8C306.2,478.8,311,474,315.7,459.3z"/>
<path class="st3" d="M383,310.4c-7.2-9.7-18-12.9-28.6-7.6c-13.4,6.7-21.2,16.9-12.8,33.7c8.4,16.9,31.5,22.3,45.3,16.7
	c4.6-1.8,5.9-6.9,4.5-16.1c1.8-1.3,3.3-2.8,2.5-4.2c-2.6-2.2-4.1-3.8-5.4-5.4c-0.9-2.2,0.7-3.5-0.1-5.8
	C387.5,319,384.9,313,383,310.4z"/>
<g>
	<path d="M355,367.3l15.7,11.6c0,0,0.2,10.4,4.2,23.9C375.9,405.8,355,367.3,355,367.3z"/>
</g>
<g>
	<rect x="706.1" y="490" class="st14" width="19.4" height="201.6"/>
	<rect x="352.6" y="491.6" class="st14" width="19.4" height="201.6"/>
	<polygon class="st14" points="307.8,481.3 307.8,490.4 779.7,490.4 779.7,481.3 703,418.2 390.2,418.2 	"/>
	<rect x="307.8" y="481.3" class="st0" width="472.3" height="17.9"/>
</g>
<path d="M338.4,362.8l1-5.6c0,0,8.4,1.9,13.8,5.6c5.3,3.7,9.8,7.8,9.8,7.8l3.9,11.6c0,0-13.1-12.6-18.6-14.7
	C342.7,365.5,338.4,362.8,338.4,362.8z"/>
<path class="st15" d="M384,306.8c3.7,1.2,2.3,6.8-2.5,11.2c-4.8,4.4-2.5,13.1-2.5,13.1s-3.6-1.2-2.5,3.3c0.7,3,3.7,5.6,3.7,5.6
	s0.9,21.4,12.8,22.1c-2.7,3-38.1,11.6-58.6-3.4c0,0-2.4-35.8,5.5-47c3.2-4.6,10.6-6.5,10.6-6.5s5.1-5,11.4-5.8
	C372.3,297.9,384,306.8,384,306.8z"/>
<path class="st5" d="M263.9,364.3c8.6,1.7,15.7,78.6,24,141.6c0.5,4-11.4,2.9-13.1-9c-1.9-13.3-18.3-118.2-17.2-125.2
	C258.2,367.5,259.1,363.3,263.9,364.3z"/>
<g>
	<path class="st2" d="M751.6,416.3c-4.3,14.7-26.9,33.4-31.2,34.2c-4.3,0.9-16.1,5.7-20.4,2.6c-3-2.2-3.8-4.9-4.3-12.6
		c-0.5-7.7,3.3-17.9,4.4-20.4c1.7-3.9,8.8-8.8,8.8-8.8s22-31,26.3-34.5C739.6,373.5,751.6,416.3,751.6,416.3z"/>
	<path class="st7" d="M737.3,374.7c5-1.3,10.8,2.2,12.1,8.7c1.3,6.5-7.8,5.6-14.3,13c-6.5,7.4-25.6,35.5-32.5,39.9
		c-6.9,4.3-8.7-9.1-7.8-12.6c0.9-3.5,4.3-3.9,6.9-5.2c2.6-1.3,12.6-13.9,18.2-20.8C725.6,390.7,733.8,375.5,737.3,374.7z"/>
</g>
<polygon class="st6" points="651,464.6 553.5,464.5 540.7,447.3 628.3,447.2 "/>
<path d="M649.7,552.9c0,0-0.1,75-1.2,95.7c-27.8,2.4-49.2,3.2-48.8-3c0.3-6.1,3.8-70.8,3.3-75.5c-0.5-4.6-11.3-38.9,1.2-45.3
	C645.7,503.8,649.7,552.9,649.7,552.9z"/>
<path d="M635.7,527.8c-16-5.5-59.9-18.9-70.6-20.3c-22.6-3-33.9,9.3-29.2,31.4c5.3,24.8,59.4,98.3,55.1,108.5
	c20.3,10.6,44,6.5,44,6.5s-32.2-84.4-34.1-92.7C599.1,553,635.7,527.8,635.7,527.8z"/>
<path class="st3" d="M665.2,356.3c-1.6,5.4-1.5,25.1,0.6,33.4c2,8.3,12,19.5,12,19.5l-49.3,8.9c0,0,6.8-31.6-1.8-37.6
	C621.3,376.8,665.2,356.3,665.2,356.3z"/>
<path d="M671.6,391.8c7.8,4.4,19.7,12.1,34.7,19.3c0,0,6.4,2.7,7.5,5.2c13.7,32.9-17.3,47.1-15.8,60.1c6,53-15.2,70.6-17,77.3
	c-0.9,3.3-19.6,7.3-38.7,7.6c-10.3,3.2-53.6-9.6-57.1-12.4c-1.7-4.5-2.7-10.4,0-21.6c6.7-28,7.5-31.2,6.3-45.7
	c-0.9-10.6-12-11.8-15.2-17.7c-3.3-6.1,14.3-53.3,14.3-53.3s16.6-3.6,36.1-14.6c4.8-2.7,21-0.4,21-0.4L671.6,391.8z"/>
<path class="st16" d="M668.3,383.3c-1.5,0.7-24.4,7.7-38.4,6.3c-2.1,2.7,0.4,9.3,0.4,9.3s41.5-5.5,42.8-7.2
	C674.3,390,668.3,383.3,668.3,383.3z"/>
<path d="M671.9,387.2l8.4,11.1c0,0-16.8,0.3-23.8,1.9c-15,3.4-33.8-0.2-33.8-0.2l3.6-8.3c0,0,13.3,1.7,30.6-1.5
	C662.9,389.1,671.9,387.2,671.9,387.2z"/>
<polyline class="st4" points="707.6,716.6 684.6,571.6 696.9,571.6 712.4,716.6 "/>
<polyline class="st4" points="565.3,715.8 584.3,570.9 596.4,570.9 570,715.8 "/>
<g>
	<polygon class="st4" points="679.3,691.8 676.7,691.8 657.4,575.1 668.6,575.1 	"/>
	<polygon class="st4" points="548,689.4 545.4,689.4 559.8,558.9 569.5,572.7 	"/>
</g>
<path class="st4" d="M694.3,564.1c-4.5-4.4-6.3-5.8-9.6-8c-1.5-1-16.8-15.1-16.8-15.1l-102,6c0,0-3,0.6-6.3,1.8
	c-2.2,0.8-3.3,6.7-3,11.7c0.3,5.4,9.4,15.3,17.9,20.6c11.9,7.5,45.3,6.1,50,6.1c0.5,0,5.8,0,6.3,0c4.8,0,53.4,1.2,65.3-6.3
	C700.7,578.1,698.1,567.7,694.3,564.1z"/>
<path d="M554.8,538.9c9.6,8.8,31.1,22.3,39.9,24.7c8.7,2.4,43.1-8.8,47.8-19.1c4.8-10.4-40.7-23.9-55-23.9
	C573.1,520.6,554.8,538.9,554.8,538.9z"/>
<path d="M591.2,410.2c-8.7-0.3-10.3,18.5-16.1,36.6c-6.2,19.6-14.7,40.7-14.7,45.1c0,8.4-4.2,31.9,6.4,30.3
	c15.9-2.4,23.5-17.5,34.3-36.7C611.8,466.4,591.2,410.2,591.2,410.2z"/>
<g>
	<path class="st8" d="M623,348.1l-2.3,8.9c0,0-4.2,1.1-6.4-1c-2.2-2.1-1.7-6.1-1.4-8.1C613.2,345.9,621,346.5,623,348.1z
		 M614.9,355.6c2,1.8,5.7,0.9,5.7,0.9l2-7.9c-1.7-1.4-8.7-1.9-8.9-0.1C613.5,350.2,612.9,353.8,614.9,355.6z"/>
	<path class="st3" d="M617.9,344.4c-1.1,4.3,0.3,4.3-0.3,8.7c-0.2,1.5-1.4,3-1.5,4.4c-1.1,12.4-0.2,23.8,4.9,26.6
		c7.4,4.1,33.3-1.3,41.4-15.7c8-14.4-0.9-36.5-16-42.1C629.8,320.2,622.1,328.4,617.9,344.4z"/>
	<path class="st15" d="M619.8,318.1c3.7,8,38.9-17,54.3,6.6c1.5,2.2,0.5,3.8,1,4.2c0.7,0.6,1.6,0.8,3,1.8c9,6.5,6.3,22.8,1.4,31.7
		c-6.2,11.2-10.5,16.7-8.5,21.6c1.9,4.7-37.3,4.4-37.3,4.4s-6-20.3-4.3-22.8c6.5-9.4,2.8-16.5-0.2-12.1c-2.3,3.4-2.6,3.7-2.6,3.7
		l-1.7,0.6c0,0,3.6-14-1-17.6C616.7,334.6,619.8,318.1,619.8,318.1z"/>
	<path class="st17" d="M643.1,315.2c-5.6,1.1-15.5,5.4-18.8,2.4c2.9,2.2,6.3,2.4,6.3,2.4s-7.4,0.5-9.4-2.5c1,4.3,4.3,4.7,4.3,4.7
		s-6.1-1.6-7-6.2c0.4,7.8,0.2,7.6,4.5,7.7c6.3,0.1,18-7.9,28.7-9.2C654.5,314.2,649.6,314,643.1,315.2z"/>
	<path class="st17" d="M629.8,326.5c-4.7,1.4-13.3,2.1-13.7-6.1c1.6,2.7,10.8,7.4,17.5,3.3C640.2,319.7,629.8,326.5,629.8,326.5z"/>
	<path class="st8" d="M631.1,351.9c0,0-15.8-1.7-17.6-2.9c-1.2-0.8-0.1,3.7-0.1,3.7l15.8,0.8L631.1,351.9z"/>
</g>
<g>
	<path d="M619.6,637.2c1.3-8.2,13-10,17.2-7.5c5.4,3.1,7.2,14.2,6,22.6c-0.7,5,6,13.6,7.5,18.6c1.2,4.1,1.6,11.3-4.1,13.8
		c-3.2,1.4-5.6,3.3-18.4,5.4c-3.3,0.5-6.6,1.6-7.3-2.2c-1-5.2-0.9-12.6-1.2-24.7C619.3,657.8,619.6,637.2,619.6,637.2z"/>
	<polygon class="st8" points="642.4,646.5 624.1,649.3 625,652.9 643,650.8 	"/>
	<path class="st8" d="M640.4,636.9c-3.2-2.6-18.5-1-18.8,4.2c-1.8-5.3,2.2-10.3,9.8-11C639,629.3,640.4,636.9,640.4,636.9z"/>
</g>
<g>
	<path class="st8" d="M619.8,637.4c7.2-4.2,16,3.8,16.7,8.6c1,6.1-6.5,14.5-13.7,19c-4.3,2.6-6.7,13.3-9.7,17.6
		c-6.4,9.3-36.8,5.9-36-3.3c0.6-7.9,6.4-11.8,22.3-25.5C603.6,650.2,619.8,637.4,619.8,637.4z"/>
	<polygon points="627,661 613.2,648.6 611,651.6 624,664.2 	"/>
	<path d="M633.1,653.4c0-4.2-11-15-15.2-12c3-4.8,9.4-4.8,14.8,0.6C638.1,647.4,633.1,653.4,633.1,653.4z"/>
</g>
<path class="st5" d="M624.8,430.3c-6.6,2-22.4,5.9-23.7,21.9c-1.3,15.9-10.6,108.6-8,114.8c3.3,7.7,12.5,7.9,15.8,3.9
	c3.3-4,22.5-133.9,20.5-135.9C627.5,432.9,624.8,430.3,624.8,430.3z"/>
<path class="st4" d="M598.9,564.2c0,8.5,9.1,15,20.4,14.8l62-1.5c11.2-0.3,20.7-7.3,21.4-15.7l13-116.1c0.8-10.1-8.6-18.2-21-18
	l-64.6,2c-12.5,0.2-22.7,8.7-22.7,18.8L598.9,564.2z"/>
<g>
	<g>
		<polygon class="st6" points="483.7,460.9 479.5,446.1 397.4,445.8 381.1,460.5 		"/>
		<g>
			<path class="st3" d="M453.7,452.6c-1.1-0.6-7.9-3.3-8.7-3.6c-0.3-0.1,2.3,0.3,3.3,0.6c1.7,0.5,2.3,0.7,3.2,1c1.7,0.5,3.3,0,1.1-1
				c-2-1-3.1-1.9-4-2c-0.8-0.2-3.1-0.6-5.6-0.7c-0.9,0-6.5,0.6-9,0.2c-3.5-0.6-8.3-2.1-12.9-3.7c-7.5-4.4-10.8,8.3-2.9,8.7
				c0.5,0.1,8.9,2.7,8.9,2.7c3.1,1.4,5.4,1.8,8.1,1.6c3.8-0.3,7.2-0.4,10.7,0.7c3.5,1.1,4.3,1.1,4.6,0.5c0.4-0.6-1.9-1.4-3.8-2.4
				c-1.9-1-6.2-1.6-5.4-1.8c0.8-0.2,8.6,2.4,9.8,2.7c1.2,0.2,4.1,0.2,2.9-0.7c-1.2-0.9-8.6-4-9.7-4.4c-1-0.5,9.3,3.1,10.1,3.2
				C455.3,454.4,455.3,453.5,453.7,452.6z"/>
			<g>
				<polygon class="st6" points="418.8,442.1 426.5,444.9 423.1,460 411.6,456.3 				"/>
				<g>
					<path d="M346.6,376.3c-6-1.6-6.8,13.6-1.7,29.8c7.4,23.5,19.2,35.1,24.8,38.8c8.1,5.3,45.7,14.1,45.7,14.1l6-16.6
						c0,0-35.8-16.7-37-18.5c-3.3-5.4-19.8-33.4-23.8-40.3C356.7,376.6,346.6,376.3,346.6,376.3z"/>
				</g>
			</g>
		</g>
	</g>
	<path class="st12" d="M353.4,381c4.3,0,8.7,3.1,12.8,10.6c8.1,14.9,18.2,32.2,18.2,32.2l37,18.5l-2.4,6c0,0-36.5-17.5-39-18.3
		c-4.1-1.3-4.7-6.4-7.7-10.7c-3-4.3-10.4-26-15.6-31.1C351.7,383.1,353.4,381,353.4,381z"/>
</g>
</svg>
