<?xml version="1.0" encoding="utf-8"?>
<!-- Generator: Adobe Illustrator 23.0.2, SVG Export Plug-In . SVG Version: 6.00 Build 0)  -->
<svg version="1.1" xmlns="http://www.w3.org/2000/svg" xmlns:xlink="http://www.w3.org/1999/xlink" x="0px" y="0px"
	 viewBox="0 0 500 500" style="enable-background:new 0 0 500 500;" xml:space="preserve">
<style type="text/css">
	.st0{fill:#FAFAFA;}
	.st1{opacity:0.56;fill:#C8DEE0;}
	.st2{fill:#122757;}
	.st3{fill:url(#SVGID_1_);}
	.st4{clip-path:url(#SVGID_3_);fill:#FCFDFF;}
	.st5{fill:none;stroke:#1087B3;stroke-width:2;stroke-miterlimit:10;}
	.st6{fill:#FFFFFF;stroke:#1087B3;stroke-width:2;stroke-miterlimit:10;}
	.st7{clip-path:url(#SVGID_5_);}
	.st8{fill:#ED926E;}
	.st9{fill:#FFFFFF;}
	.st10{fill:#E33270;}
	.st11{fill:url(#SVGID_6_);}
	.st12{clip-path:url(#SVGID_8_);}
	.st13{fill:url(#SVGID_9_);}
	.st14{clip-path:url(#SVGID_11_);}
	.st15{fill:#F2F6F9;}
	.st16{fill:none;stroke:#FFFFFF;stroke-width:2;stroke-miterlimit:10;}
	.st17{fill:#FFA587;}
	.st18{fill:#D61E65;}
	.st19{fill:url(#SVGID_12_);}
	.st20{fill:url(#SVGID_13_);}
	.st21{clip-path:url(#SVGID_15_);}
	.st22{fill:#E0AC9B;}
	.st23{opacity:0.15;fill:#292929;}
	.st24{fill:#24C7C1;}
	.st25{fill:#873F26;}
	.st26{fill:#E38266;}
	.st27{fill:#FFFEFC;}
	.st28{fill:url(#SVGID_16_);}
	.st29{fill:none;stroke:#8739C2;stroke-width:0.75;stroke-miterlimit:10;}
	.st30{fill:url(#SVGID_17_);}
	.st31{fill:url(#SVGID_18_);}
	.st32{fill:none;stroke:#000000;stroke-miterlimit:10;}
	.st33{fill:none;stroke:#C9CDD1;stroke-miterlimit:10;}
	.st34{fill:url(#SVGID_19_);}
	.st35{fill:#1A7F8F;}
	.st36{fill:url(#SVGID_20_);}
	.st37{fill:#4641AB;}
	.st38{fill:url(#SVGID_21_);}
	.st39{fill:#0D2263;}
	.st40{fill:none;stroke:#E33270;stroke-width:0.5;stroke-miterlimit:10;}
	.st41{fill:url(#SVGID_22_);}
	.st42{fill:none;stroke:#25333D;stroke-width:0.75;stroke-miterlimit:10;}
	.st43{fill:none;stroke:#110809;stroke-miterlimit:10;}
	.st44{fill:#51B7D6;}
</style>
<g id="BACKGROUND">
	<rect id="XMLID_28_" y="0" class="st0" width="500" height="500"/>
</g>
<g id="OBJEKTS">
	<g>
		<path class="st1" d="M439.4,199.2c-1.8-14.3-6.4-28.6-15.3-40c-14.3-18.1-37.9-26.5-60.9-28.2c-23-1.7-45.9,2.3-68.8,4.7
			c-7.2,0.8-14.5,1.3-21.7,0.2c-8.7-1.4-16.8-5.3-24.6-9.3c-14.9-7.8-29.4-16.4-43.4-25.8c-10.8-7.3-20.7-11.5-33.8-12
			c-32-1.3-63,17.1-80.8,43.7c-17.9,26.5-23.5,60.1-20,91.9c3.5,31.8,15.6,62.1,30.8,90.3c7.1,13.1,18.3,37,32.5,44.3h261.3
			c14.7-4.9,26.2-27.8,30.6-41.1c4-12.1,4-24.7,7.5-36.5c3.8-12.8,5.5-25.5,6.4-38.9C440.3,228,441.2,213.5,439.4,199.2z"/>
		<path class="st1" d="M450.8,206.2c-5.3-10.1-15.2-15.9-23.1-23.7c-8.9-8.8-14.1-20.1-17.5-32c-2.5-8.8-4.1-17.9-6.1-26.8
			c-1.1-4.8-2.3-9.6-3.9-14.3C379.6,48,305.9,61.5,266.6,95.6c-15.2,13.2-27.7,29.4-43.7,41.7c-22,16.8-49.5,25.1-77,29
			c-14.5,2-29.3,3-42.8,8.4C72.6,187,54.8,220.3,51.5,253c-3.3,32.7,5.4,65.3,13.9,97c1.3,4.7,2.7,7.4,4.6,8.9h15.4
			c8-1.1,17-0.4,25.5,0h312.8v0.1c4.1-0.6,7.6-2.2,10.2-6.5c6.1-10,9.4-23.8,13.1-34.9c7.8-23,13.6-47,13.4-71.5
			C460.3,232.1,457.4,218.7,450.8,206.2z"/>
		<g>
			<path class="st2" d="M322,359.7h-91.5c-15,0-27.2-12.2-27.2-27.2v-253c0-15,12.2-27.2,27.2-27.2H322c15,0,27.2,12.2,27.2,27.2
				v253C349.2,347.4,336.9,359.7,322,359.7z"/>
			<linearGradient id="SVGID_1_" gradientUnits="userSpaceOnUse" x1="277.7174" y1="42.0944" x2="275.1616" y2="321.33">
				<stop  offset="0" style="stop-color:#1D3F8F"/>
				<stop  offset="5.028070e-03" style="stop-color:#24C7C1"/>
				<stop  offset="0.9955" style="stop-color:#99FAFF"/>
			</linearGradient>
			<path class="st3" d="M321.6,354.9h-90.8c-12.7,0-23-10.3-23-23V79c0-12.7,10.3-23,23-23h90.8c12.7,0,23,10.3,23,23v253
				C344.6,344.6,334.3,354.9,321.6,354.9z"/>
			<g>
				<defs>
					<path id="SVGID_2_" d="M321.6,354.9h-90.8c-12.7,0-23-10.3-23-23V79c0-12.7,10.3-23,23-23h90.8c12.7,0,23,10.3,23,23v253
						C344.6,344.6,334.3,354.9,321.6,354.9z"/>
				</defs>
				<clipPath id="SVGID_3_">
					<use xlink:href="#SVGID_2_"  style="overflow:visible;"/>
				</clipPath>
				<rect x="199.4" y="51.8" class="st4" width="155.2" height="28.5"/>
				<rect x="198.5" y="323.8" class="st4" width="186.6" height="42.2"/>
				<rect x="191.6" y="234.4" class="st4" width="169.9" height="7.9"/>
				<rect x="191.6" y="156.9" class="st4" width="169.9" height="7.9"/>
			</g>
			<path class="st2" d="M240.6,53.1l0.6,5.9c0.4,3.9,4.1,6.8,8.5,6.8h53.1c4.4,0,8.1-3,8.5-6.8l0.6-5.9H240.6z"/>
			<g>
				<g>
					<line class="st5" x1="278.3" y1="111.6" x2="335.3" y2="111.6"/>
					<line class="st5" x1="278.3" y1="118.5" x2="335.3" y2="118.5"/>
					<line class="st5" x1="278.3" y1="125.4" x2="335.3" y2="125.4"/>
				</g>
				<g>
					<path class="st6" d="M243.5,146.6L243.5,146.6c-13.9,0-25.1-11.2-25.1-25.1l0,0c0-13.9,11.2-25.1,25.1-25.1l0,0
						c13.9,0,25.1,11.2,25.1,25.1l0,0C268.6,135.3,257.4,146.6,243.5,146.6z"/>
					<g>
						<defs>
							<path id="SVGID_4_" d="M243.5,146.6L243.5,146.6c-13.9,0-25.1-11.2-25.1-25.1l0,0c0-13.9,11.2-25.1,25.1-25.1l0,0
								c13.9,0,25.1,11.2,25.1,25.1l0,0C268.6,135.3,257.4,146.6,243.5,146.6z"/>
						</defs>
						<clipPath id="SVGID_5_">
							<use xlink:href="#SVGID_4_"  style="overflow:visible;"/>
						</clipPath>
						<g class="st7">
							<path class="st2" d="M240.5,127.1c0.1,0.5,0.3,0.9,0.6,1.4c0.5,0.8,1.2,1.4,1.5,2.3c0.3,0.9,0.1,1.8,0,2.7
								c-0.7,4.9,0.7,10.6,4,14.3c0.3,0.4,0.7,0.7,1.1,1h13c0.4-0.2,0.8-0.5,1.1-0.8c1.1-0.9,2.2-2,2.9-3.2c0.6-1.1,1-2.4,1.6-3.5
								c0.6-1.4,1.5-2.7,1.9-4.2c0.5-1.5,0.6-3.1-0.2-4.4c-1.1-1.7-3.5-2.5-4-4.5c-0.3-1.3,0.4-2.9-0.4-4c-1.1-1.5-3.8-0.6-5.1-1.9
								c-0.8-0.8-0.8-2-0.9-3.1c-0.1-1.1-0.3-2.3-1.2-2.9c-0.6-0.4-1.4-0.3-2.1-0.6c-1-0.4-1.5-1.5-1.7-2.6
								c-0.2-1.1-0.2-2.2-0.6-3.2c-0.7-2-3.5-2.8-5.5-2.9c-2.1-0.1-4.4,0.2-6.2,1.4c-1.7,1.1-3.7,3.2-3.6,5.3c0.1,2.1,2,3.6,2.8,5.6
								C240.5,121.8,239.8,124.7,240.5,127.1z"/>
							<path class="st8" d="M238.7,117.2C238.7,117.2,238.7,117.1,238.7,117.2c0.3-0.6,0.7-1,1.2-1.3c1.6-1.2,4.3-1.7,6.2-0.7
								c0.9,0.5,1.4,1.5,1.6,2.5c0.1,0.9,0,1.7,0,2.6c-0.2,3.4,0.3,13.4,2.2,13.9c2.5,0.7,1.7,2.9,2.5,2.8c-3,0.6-5.3,5.1-8.3,5.5
								c-3,0.4-6.8-5.2-9.3-7c1.6-0.2,2.8-0.9,3.3-2.5c1.1-3.9,0.8-8.1,0.4-12.2C238.3,119.6,238.2,118.3,238.7,117.2z"/>
							<path class="st9" d="M253.2,148.8c0-0.1,0-0.3-0.1-0.4c-0.2-2.2-0.4-4.4-0.5-6.6c-0.1-1.1-0.1-2.3-0.1-3.4
								c0-0.9,0.2-2.5-0.2-3.2c-1.4,1-2.7,2.5-4,3.7c-1.4,1.3-2.9,2.5-4.4,3.7c-0.2,0.1-7.9-6.5-8.8-7c-0.8,0.6-0.9,3.3-1.1,4.3
								c-0.3,1.6-0.7,3.3-0.7,5c0,1.3,0,2.6,0,3.9H253.2z"/>
							<path class="st10" d="M269.2,148.8c-0.5-2.2-1.1-4.3-2.4-6.1c-3.1-4.6-9.4-6.5-14.4-7.9c-2.4-0.7-2.5,0.7-2.9,3.1
								c-0.3,1.8-0.4,3.6-0.5,5.4c-0.1,1.8-0.2,3.6-0.4,5.5H269.2z"/>
							<path class="st10" d="M224.7,148.8h15.4c-0.4-1.5-0.8-2.9-1.2-4.3c-0.6-2.4-1.6-4.9-2.3-7.3c-0.2-0.7-0.3-1.5-0.6-2.2
								c-1.7,0.1-3.6,1-5.3,1.4c-2.6,0.7-5.5,1.7-6.7,4.1c-1,2-0.5,4.3,0.1,6.5C224.4,147.6,224.6,148.2,224.7,148.8z"/>
							<ellipse class="st8" cx="242.6" cy="116.7" rx="7.8" ry="10.1"/>
							<path class="st8" d="M236.6,116.6c-0.4-0.4-0.9-0.6-1.5-0.6c-0.5,0-1.1,0.2-1.5,0.6c-0.2,0.2-0.3,0.4-0.4,0.7
								c-0.1,0.2-0.2,0.5-0.2,0.8c0,0.5,0.2,1.1,0.6,1.5c0.4,0.4,0.9,0.6,1.5,0.6c0.5,0,1.1-0.2,1.5-0.6c0.2-0.2,0.3-0.4,0.4-0.7
								c0.1-0.2,0.2-0.5,0.2-0.8C237.2,117.5,237.1,117,236.6,116.6z"/>
							<path class="st8" d="M251.9,116.6c-0.4-0.4-0.9-0.6-1.5-0.6c-0.5,0-1.1,0.2-1.5,0.6c-0.2,0.2-0.3,0.4-0.4,0.7
								c-0.1,0.2-0.2,0.5-0.2,0.8c0,0.5,0.2,1.1,0.6,1.5c0.4,0.4,0.9,0.6,1.5,0.6c0.5,0,1.1-0.2,1.5-0.6c0.2-0.2,0.3-0.4,0.4-0.7
								c0.1-0.2,0.2-0.5,0.2-0.8C252.5,117.5,252.3,117,251.9,116.6z"/>
							<path class="st2" d="M251,107.7L251,107.7c0-0.1-0.1-0.1-0.1-0.2c-0.2-0.2-0.4-0.4-0.5-0.6c-1.7-1.8-3.8-3.3-6.3-4
								c-2.7-0.8-5.7-0.8-8.3,0.3c-0.8,0.3-1.6,0.7-2.2,1.3c-0.6,0.6-1.1,1.4-1.1,2.2c0,0.2,0,0.4,0.1,0.7c-0.4,0.4-0.8,0.8-1.1,1.4
								c-0.3,0.6-0.2,1.2,0,1.7c-0.4,0.5-0.7,1-0.7,1.5c0,0.5,0.3,1.1,0.8,1.3c-0.1,0.8,0,1.7,0.6,2.3c1,0.8,2.4,0.9,3.6,0.4
								c3.2-1.2,5.9-3.4,8.8-5c0.6-0.3,1.2-0.6,1.8-0.8c0.6-0.1,1.4-0.1,1.9,0.3c1.6,1.2,0.7,3.7,1.9,5.1c0.2,0.2,0.4,0.4,0.7,0.4
								c0.4,0,0.8-0.2,1.1-0.6C253.6,113.1,252.6,109.7,251,107.7z"/>
							<path class="st2" d="M250.6,148.8c1.4-0.5,4.8-1.8,4.8-1.8l-2.6-12.2l-2.8-0.9c0,0-1.2,5.7-1.6,11c-0.1,1.3-0.2,2.6-0.3,3.9
								H250.6z"/>
							<path class="st2" d="M240.4,148.8c-0.1-0.9-0.3-1.9-0.5-2.8c-0.1-0.7-2.6-11.8-3.2-11.7c0,0-2.8,0.5-2.8,0.5l-0.8,14H240.4z"
								/>
							<path class="st9" d="M240.5,122.3c0.4,2.4,3.4,2.4,4.1,0.1"/>
							<linearGradient id="SVGID_6_" gradientUnits="userSpaceOnUse" x1="243.095" y1="120.6953" x2="246.6006" y2="134.487">
								<stop  offset="0.2654" style="stop-color:#000000;stop-opacity:0.9148"/>
								<stop  offset="0.5554" style="stop-color:#E0AC9B;stop-opacity:0"/>
							</linearGradient>
							<path class="st11" d="M247.7,124.5c0,0.5-1.7,1.2-2.1,1.4c-1.5,0.7-3.1,0.8-4.8,0.7c1.2,1.4,2.5,2.7,3.8,4
								c0.9,0.9,1.8,1.7,2.6,2.6C248.4,132.9,247.7,127.9,247.7,124.5z"/>
						</g>
					</g>
				</g>
			</g>
			<g>
				<g>
					<path class="st6" d="M243.5,223.2L243.5,223.2c-13.9,0-25.1-11.2-25.1-25.1v0c0-13.9,11.2-25.1,25.1-25.1l0,0
						c13.9,0,25.1,11.2,25.1,25.1v0C268.6,211.9,257.4,223.2,243.5,223.2z"/>
					<g>
						<defs>
							<path id="SVGID_7_" d="M243.5,223.2L243.5,223.2c-13.9,0-25.1-11.2-25.1-25.1v0c0-13.9,11.2-25.1,25.1-25.1l0,0
								c13.9,0,25.1,11.2,25.1,25.1v0C268.6,211.9,257.4,223.2,243.5,223.2z"/>
						</defs>
						<clipPath id="SVGID_8_">
							<use xlink:href="#SVGID_7_"  style="overflow:visible;"/>
						</clipPath>
						<g class="st12">
							<path class="st10" d="M240.5,210.5c3.7,0,7.5-0.5,11.1-1.5c3.1-0.8,6.2-2.1,8.3-4.5c1.1-1.2,1.9-3,1.1-4.4
								c-0.7-1.2-2.2-1.5-3.3-2.2c-2.1-1.2-3.3-3.4-4.1-5.6c-0.8-2.2-0.9-5.1-2.4-6.9c-1-1.2-3.1-1.5-4.6-1.6
								c-2.1-0.1-4.4,0.2-6.2,1.4c-2.6,1.7-3.8,4.5-4.4,7.4c-0.3,1.5-0.3,3.1-0.8,4.6c-0.8,2.8-2.8,5.1-4.2,7.6
								c-0.3,0.5-0.6,1.1-0.4,1.7c0.1,0.4,0.4,0.8,0.7,1.1c2.3,2.3,5.9,2.9,9.2,2.9C240.4,210.5,240.4,210.5,240.5,210.5z"/>
							<path class="st8" d="M238.7,193.8C238.7,193.8,238.7,193.8,238.7,193.8c0.3-0.6,0.7-1,1.2-1.3c1.6-1.2,4.3-1.7,6.2-0.7
								c0.9,0.5,1.4,1.5,1.6,2.5c0.1,0.9,0,1.7,0,2.6c-0.2,3.4,0.3,13.4,2.2,13.9c2.5,0.7,1.7,2.9,2.5,2.8c-3,0.6-5.3,5.1-8.3,5.5
								c-3,0.4-6.8-5.2-9.3-7c1.6-0.2,2.8-0.9,3.3-2.5c1.1-3.9,0.8-8.1,0.4-12.2C238.3,196.2,238.2,194.9,238.7,193.8z"/>
							<path class="st2" d="M266.8,219.3c-1.8-2.6-4.4-4.3-7.2-5.5c-1.4-0.6-2.9-1.1-4.4-1.5c-0.7-0.2-1.5-0.4-2.2-0.6
								c-0.7-0.2-1.5-0.5-2.2-0.5c0.1,0.6-0.7,1.4-1.1,1.8c-1.8,1.7-4.5,2.4-6.9,2c-2.5-0.4-4.7-1.7-6.5-3.4c-0.7,0.1-1.4,0.2-2,0.4
								c-1.1,0.2-2.2,0.6-3.4,0.9c-2.6,0.7-5.5,1.7-6.7,4.1c-1,2-0.5,4.3,0.1,6.5c0.2,0.6,0.4,1.2,0.5,1.8h8.5h6.9h8.5h4.5h16
								C268.7,223.3,268.1,221.2,266.8,219.3z"/>
							<ellipse class="st8" cx="242.6" cy="193.3" rx="7.8" ry="10.1"/>
							<path class="st8" d="M236.6,193.2c-0.4-0.4-0.9-0.6-1.5-0.6c-0.5,0-1.1,0.2-1.5,0.6c-0.2,0.2-0.3,0.4-0.4,0.7
								c-0.1,0.2-0.2,0.5-0.2,0.8c0,0.5,0.2,1.1,0.6,1.5c0.4,0.4,0.9,0.6,1.5,0.6c0.5,0,1.1-0.2,1.5-0.6c0.2-0.2,0.3-0.4,0.4-0.7
								c0.1-0.2,0.2-0.5,0.2-0.8C237.2,194.2,237.1,193.6,236.6,193.2z"/>
							<path class="st8" d="M251.9,193.2c-0.4-0.4-0.9-0.6-1.5-0.6c-0.5,0-1.1,0.2-1.5,0.6c-0.2,0.2-0.3,0.4-0.4,0.7
								c-0.1,0.2-0.2,0.5-0.2,0.8c0,0.5,0.2,1.1,0.6,1.5c0.4,0.4,0.9,0.6,1.5,0.6c0.5,0,1.1-0.2,1.5-0.6c0.2-0.2,0.3-0.4,0.4-0.7
								c0.1-0.2,0.2-0.5,0.2-0.8C252.5,194.2,252.3,193.6,251.9,193.2z"/>
							<path class="st10" d="M251,184.3c0-0.1-0.1-0.1-0.1-0.2c-1.2-1.5-2.6-2.5-4.5-2.8c-1.5-0.2-3.1-0.1-4.6,0
								c-2.3,0-4.7-0.2-6.9,0.5c-2.2,0.7-4.1,2.9-3.7,5.1c0.4,2,2.5,3.3,4.5,3.4c2,0.1,4-0.7,5.9-1.4c1.6-0.6,3.2-1.6,4.8-2
								c0.6-0.1,1.4-0.1,1.9,0.3c1.6,1.2,0.7,3.7,1.9,5.1c0.2,0.2,0.4,0.4,0.7,0.4c0.4,0,0.8-0.2,1.1-0.6
								C253.6,189.7,252.6,186.3,251,184.3z"/>
							<path class="st9" d="M240.5,198.9c0.4,2.4,3.4,2.4,4.1,0.1"/>
							<linearGradient id="SVGID_9_" gradientUnits="userSpaceOnUse" x1="243.095" y1="197.3042" x2="246.6006" y2="211.0959">
								<stop  offset="0.2654" style="stop-color:#000000;stop-opacity:0.9148"/>
								<stop  offset="0.5554" style="stop-color:#E0AC9B;stop-opacity:0"/>
							</linearGradient>
							<path class="st13" d="M247.7,201.1c0,0.5-1.7,1.2-2.1,1.4c-1.5,0.7-3.1,0.8-4.8,0.7c1.2,1.4,2.5,2.7,3.8,4
								c0.9,0.9,1.8,1.7,2.6,2.6C248.4,209.5,247.7,204.5,247.7,201.1z"/>
						</g>
					</g>
				</g>
				<g>
					<line class="st5" x1="278.3" y1="187.3" x2="335.3" y2="187.3"/>
					<line class="st5" x1="278.3" y1="194.1" x2="335.3" y2="194.1"/>
					<line class="st5" x1="278.3" y1="201" x2="335.3" y2="201"/>
				</g>
			</g>
			<g>
				<g>
					<line class="st5" x1="278.3" y1="261.9" x2="335.3" y2="261.9"/>
					<line class="st5" x1="278.3" y1="268.8" x2="335.3" y2="268.8"/>
					<line class="st5" x1="278.3" y1="275.7" x2="335.3" y2="275.7"/>
				</g>
				<g>
					<path class="st6" d="M243.5,299.8L243.5,299.8c-13.9,0-25.1-11.2-25.1-25.1v0c0-13.9,11.2-25.1,25.1-25.1l0,0
						c13.9,0,25.1,11.2,25.1,25.1v0C268.6,288.5,257.4,299.8,243.5,299.8z"/>
					<g>
						<defs>
							<path id="SVGID_10_" d="M243.5,299.8L243.5,299.8c-13.9,0-25.1-11.2-25.1-25.1v0c0-13.9,11.2-25.1,25.1-25.1l0,0
								c13.9,0,25.1,11.2,25.1,25.1v0C268.6,288.5,257.4,299.8,243.5,299.8z"/>
						</defs>
						<clipPath id="SVGID_11_">
							<use xlink:href="#SVGID_10_"  style="overflow:visible;"/>
						</clipPath>
						<g class="st14">
							<path class="st2" d="M248.9,254c-0.9-0.2-1.8-0.3-2.7-0.3c-2.3,0.1-4.6,0.9-6.7,1.9c-1.5,0.7-2.9,1.5-4.1,2.5
								c-0.8,0.7-1.5,1.6-2,2.6c-0.5,1.1-0.3,2-0.3,3.2c-0.1,2.8-0.2,5.6,0,8.4c0.2,3.6-0.5,8.2,3.3,10.1c1.4,0.7,3,0.6,4.6,0.4
								c3-0.4,5.9-1.1,8.7-2.1c1.9-0.7,3.9-1.5,4.7-3.6c0.5-1.4,0.8-2.8,1-4.3c0.1-1.4-0.2-2.8,0-4.2c0.3-2.6,0.2-5.3-0.4-7.9
								c-0.4-1.8-1-3.6-2.3-4.9C251.6,255.1,250.3,254.4,248.9,254z"/>
							<path class="st9" d="M270.8,313.5c-0.1-1.2-0.4-2.3-0.7-3.6c-0.3-1.2-0.7-2.4-1.3-3.4c-0.3-0.5-0.6-1.1-0.9-1.6
								c-0.2-0.2-0.4-0.5-0.5-0.7c-0.1-0.3-0.1-0.6-0.2-0.9c-0.1-0.4-0.3-0.7-0.5-1c-0.2-0.3-0.4-0.7-0.6-1
								c-0.1-0.2-0.3-0.5-0.4-0.7c-1.2-1.9-3.3-2.8-5.4-3.4c-2.2-0.6-4.5-0.7-6.8-1.1c-0.6-0.1-1.3-0.2-2-0.3
								c-2.7-0.2-5.5,0.1-8.2,0.4c-1.1,0.1-2.1,0.3-3.2,0.4c-1.4,0.2-2.8,0.4-4.2,0.6c-0.6,0.1-1.2,0.1-1.8,0.2
								c-0.7,0.1-1.4,0.2-2,0.4c-2.5,0.6-4.9,1.2-7.1,2.5c-1.1,0.6-2.1,1.4-3,2.3c-0.4,0.4-0.9,0.7-1.3,1c-0.5,0.3-0.9,0.7-1.3,1.1
								c-1.7,1.5-3.4,3.1-4.7,4.9c-1,1.3-1.8,2.6-2.6,4H270.8z"/>
							<path class="st8" d="M237.7,281c0.7-3.1,4.3-5.6,7.2-6.3c0.9-0.2,1.8-0.3,2.7,0c2.1,0.7,3.1,3.2,3.5,5.2
								c0.5,2.9,0.5,6,0.7,8.9c0.1,1.7,0.3,3.5,1,5c0.9,1.9,2.5,2.6,4.5,2.8c0,1.9-0.9,3.7-1.8,5.3c-1,1.8-2.4,3.5-4.2,4.6
								c-1.9,1.2-4.3,1.6-6.5,1.3c-2.6-0.4-4.9-1.8-6.9-3.6c-1.1-1-2.2-2.2-3-3.5c-0.1-0.2-2-3-1.9-3c0.5-0.1,1-0.2,1.5-0.3
								c0.4-0.1,0.8-0.1,1.1-0.3c1.6-0.7,1.8-2.8,2-4.3c0.3-2.8,0.3-5.6,0.1-8.4c-0.1-0.8-0.2-1.6-0.1-2.5
								C237.6,281.5,237.6,281.3,237.7,281z"/>
							<path class="st8" d="M251.3,263.1c-0.6-0.6-1.4-1.1-2.1-1.6c-1.4-0.9-3-1.6-4.7-1.6c-3.2-0.1-7.1,0.9-8.2,4.3
								c-0.4,1.1-0.5,2.2-0.6,3.4c-0.4,2.7-1.1,5.4-1.3,8.2c-0.1,2.1,0.1,4.2,1.1,6.1c1,2,2.8,3.3,4.9,4.2c4.7,2,11.5,1.1,13-4.4
								c0.4-1.4,0.8-2.7,0.8-4.2c0-1.4-0.5-2.8-0.8-4.2c-0.4-1.9-0.4-3.8-0.6-5.7C252.6,265.9,252.5,264.3,251.3,263.1z"/>
							<path class="st2" d="M233.7,263.4c0.2,1.5,1.7,2.8,4,2.8c4.3,0,13-0.6,15.5-4.9c0.5-0.8,0.5-1.9,0-2.6
								c-0.4-0.6-1.2-0.9-1.9-1.1c-3.5-0.9-7.2,0.2-10.8,0.8c-1.5,0.3-3.1,0.5-4.4,1.2C234.2,260.7,233.5,262.1,233.7,263.4z"/>
							<path class="st15" d="M242.1,277c0,0.8,0.5,1.6,1.3,1.8c0.5,0.1,1.3,0.3,1.8,0.1c0.8-0.2,1.5-1.1,1.8-1.9H242.1z"/>
							<path class="st2" d="M255.3,281c0-0.1,0-0.1,0-0.2c0.2-1.9,0.2-3.8,0.2-5.7c0-1.4-0.1-3.2-0.7-4.4c0-0.1-0.1-0.2-0.1-0.2
								c-0.2-0.3-0.6-0.3-0.9-0.2c-0.8,0.4-0.6,1.7-0.7,2.4c-0.3,2.5,0.1,6-2.5,7.2c-1.2,0.5-2.5,0.5-3.8,0.5
								c-1.3-0.1-2.6-0.3-3.9-0.1c-0.9,0.1-1.7,0.4-2.5,0.5c-2.1,0.2-3.3-1.5-4.1-3.2c-0.6-1.2-0.9-2.5-1.3-3.8
								c-0.4-1.5-0.8-3.1-1.3-4.6c0-0.1-0.1-0.3-0.3-0.3c-0.1,0-0.2,0.2-0.2,0.3c-0.4,1.5-0.4,3.2-0.5,4.7c-0.2,3.4,0.4,6.2,1.6,9.4
								c0.7,1.8,1.4,3.9,3.1,4.9c3.5,1.9,7.8,2.2,11.6,1.1c1.9-0.6,3.8-1.5,4.9-3.2C254.9,284.5,255.1,282.8,255.3,281z"/>
							<path class="st8" d="M251.8,270c-0.7,1.1-0.7,2.7,0.1,3.7c1.7,2.1,4.1-0.1,3.5-2.6C254.9,269.1,252.9,268.3,251.8,270z"/>
							<path class="st2" d="M251.9,277.3c-0.1,0-0.2,0-0.3-0.1c-0.3,0-0.7,0.1-1,0c-0.8-0.2-1-1.1-1.4-1.8c-1.1-1.9-3.8-2.4-5.7-1.9
								c-1,0.3-2,0.9-2.6,1.8c-0.2,0.3-0.3,0.6-0.6,0.8c-0.6,0.6-1.5,0.5-2.3,0.7c-1.6,0.4-3.9,2.6-1.8,4.1c1.5,1,3.7-0.6,4.5-1.8
								c0.5-0.7,0.9-1.4,1.3-2.1c0.4-0.7,0.6-1,1.4-1.1c1.1-0.1,2.3-0.1,3.2,0.5c0.9,0.6,1.4,2.2,1.9,3.2c0.3,0.6,0.6,1.1,1.1,1.5
								c1,0.7,2.7,0,3.2-1.1C253.3,279,253,277.6,251.9,277.3z"/>
							<path class="st8" d="M233.5,270c-0.7,1.1-0.7,2.7,0.1,3.7c1.7,2.1,4.1-0.1,3.5-2.6C236.6,269.1,234.7,268.3,233.5,270z"/>
						</g>
					</g>
				</g>
			</g>
			<g>
				<line class="st16" x1="278" y1="284" x2="321.2" y2="284"/>
				<line class="st16" x1="278" y1="288.5" x2="321.2" y2="288.5"/>
				<line class="st16" x1="278" y1="292.9" x2="321.2" y2="292.9"/>
				<line class="st16" x1="278" y1="297.3" x2="321.2" y2="297.3"/>
			</g>
			<g>
				<line class="st16" x1="278" y1="211.4" x2="321.2" y2="211.4"/>
				<line class="st16" x1="278" y1="215.8" x2="321.2" y2="215.8"/>
				<line class="st16" x1="278" y1="220.2" x2="321.2" y2="220.2"/>
				<line class="st16" x1="278" y1="224.6" x2="321.2" y2="224.6"/>
			</g>
			<g>
				<line class="st16" x1="278" y1="134.8" x2="321.2" y2="134.8"/>
				<line class="st16" x1="278" y1="139.2" x2="321.2" y2="139.2"/>
				<line class="st16" x1="278" y1="143.6" x2="321.2" y2="143.6"/>
				<line class="st16" x1="278" y1="148" x2="321.2" y2="148"/>
			</g>
			<path class="st5" d="M243.5,146.6L243.5,146.6c-13.9,0-25.1-11.2-25.1-25.1l0,0c0-13.9,11.2-25.1,25.1-25.1l0,0
				c13.9,0,25.1,11.2,25.1,25.1l0,0C268.6,135.3,257.4,146.6,243.5,146.6z"/>
			<path class="st5" d="M243.5,223.2L243.5,223.2c-13.9,0-25.1-11.2-25.1-25.1v0c0-13.9,11.2-25.1,25.1-25.1l0,0
				c13.9,0,25.1,11.2,25.1,25.1v0C268.6,211.9,257.4,223.2,243.5,223.2z"/>
			<path class="st5" d="M243.5,299.8L243.5,299.8c-13.9,0-25.1-11.2-25.1-25.1v0c0-13.9,11.2-25.1,25.1-25.1l0,0
				c13.9,0,25.1,11.2,25.1,25.1v0C268.6,288.5,257.4,299.8,243.5,299.8z"/>
		</g>
		<g>
			<g id="XMLID_251_">
				<g id="XMLID_252_">
					<g id="XMLID_253_">
						<g id="XMLID_254_">
							<path class="st17" d="M198.2,162.4c-1.4-3.4-1.5-6.8-1.7-10.3c-1.4-0.4-3.8,0.3-5.6,0.6c-1.1,0.2-4.6,0.3-4.9,1.5
								c-0.4,1.4,1.4,3.6,2,4.7c1.1,2.3,1.8,5.1,1.5,7.6c-0.2,1.5-0.8,3-0.8,4.5c-0.1,0.9,0.1,1.9,0.4,2.7c1.8,4.9,5.3-0.1,8.1-0.6
								c2.3-0.5,6-1,5-4.2C200.6,166.8,199.2,164.7,198.2,162.4z"/>
						</g>
					</g>
				</g>
			</g>
			<g id="XMLID_242_">
				<g id="XMLID_243_">
					<g id="XMLID_244_">
						<g id="XMLID_245_">
							<path class="st17" d="M191.2,157.3c2.6-0.4,2.1,2.3,3.9,0.5c0.4-0.4,2.4-4,2.3-4.6c-0.7-3.7-0.9-8.5-2.6-10.2
								c-2-2-5.7-2.3-8.4-2.5c-1.8-0.2-3.9,0.2-5,1.6c-0.9,1.2-1,2.7-1,4.2c-0.1,3-0.6,6.3,1.4,8.7c1.7,2,4.3,2.6,6.8,2.5
								c1-0.1,1.4-0.3,2.4-0.4c0.1,0,0.3,0,0.4,0.1C191.6,157.3,191.3,157.2,191.2,157.3z"/>
						</g>
					</g>
				</g>
			</g>
			<g id="XMLID_172_">
				<g id="XMLID_179_">
					<path class="st17" d="M172,328.3c0.5,4.3,1,8.6,1.2,13c0.1,3.6-1.6,8.9,1.1,11.8c2.7,2.9,6.5,2,8.7-1
						c3.6-4.8,2.1-12.6,3.1-18.2c1.5-8.3,2.4-16.7,2.9-25.1c0.2-3.7,0.2-7.8-1.9-10.9c-3.5-5.1-11.2-3.9-14.4,0.9
						c-2.3,3.5-2.5,7.8-2.4,11.9C170.5,316.7,171.3,322.5,172,328.3z"/>
				</g>
			</g>
			<g id="XMLID_75_">
				<g id="XMLID_79_">
					<path class="st2" d="M183.3,347.6c-1.6,0.8-3.2,1.5-5,1c-1.7-0.6-3.3-1.7-4.5-3.1c-0.2-0.3-0.4-0.5-0.7-0.7
						c-1-0.7-2.4,0.1-3.1,1.1c-0.7,1-1.1,2.2-2.1,2.9c-0.4,0.3-1,0.5-1.5,0.7c-2,0.7-4,1.5-6,2.2c-1.7,0.6-4.3,2-6,2
						c-0.8,0.3-1.6,0.7-1.9,1.4c-0.3,0.7,0,1.6,0.5,2.2c1.3,1.4,3,1.8,4.8,1.9c2.7,0.1,5.5,0.3,8.2,0.3c2.1,0,4.1-0.9,6.1-1.4
						c2.2-0.6,3.6,0.1,5.7,0.9c9,3.3,10-6.4,7.8-12.6C184.8,346.8,184,347.2,183.3,347.6z"/>
				</g>
			</g>
			<g id="XMLID_74_">
				<path class="st18" d="M181.9,229.4c4.3-4.6,11.6-3.8,17.5-2c8.1,2.4,6,12,3.2,17.8c-1.9,4.1-3.1,6.4-3.8,11
					c-0.8,5.4-2.3,10.6-4.5,15.6c-1,2.1-2.1,4.3-2.2,6.6c-0.1,3.4,2,6.7,1.7,10.1c-0.2,2.6-1.9,4.9-2.2,7.5
					c-0.3,2.1,0.4,4.3,0.8,6.4c0.9,4.3,1.1,8.7,0.5,13c-0.7,5.5-2,4-6.8,4.2c-2.2,0.1-25.9-1.2-25.9-1.4c1.5-8,3-16.1,4.4-24.1
					c0.3-1.6,0.6-3.2,0.7-4.8c0.1-1.9-0.1-3.8-0.2-5.8c-1.2-18.1,4.5-39.4,16.1-53.5C181.6,229.8,181.7,229.6,181.9,229.4z"/>
			</g>
			<g id="XMLID_73_">
				<path d="M205.6,218.5c0-0.3,0-0.5-0.1-0.8c-0.5-7.1-0.5-14.2,0-21.3c0.2-3.3,0.9-6.7,0.7-10c-0.2-3.3-0.6-6.6-1.1-9.9
					c-0.5-3.1-1.7-9.9-5.6-10.3c-3-0.3-8.2-0.4-10.6,1.7c-1.3,1.1-2,3.4-3,4.8c-1.3,1.7-2.9,3.3-4.4,4.9c-3,3.3-5.7,7.7-4.5,11.9
					c0.8,2.8,3.2,5,3.4,7.8c0.1,1.5-0.4,3-0.1,4.5c0.3,1.3,1.3,2.4,2,3.6c1.7,3,1.4,6.6,0.6,9.9c-0.6,2.3-2.9,5.3-1.7,7.7
					c0.9,1.7,3.7,1.6,5.3,1.8c2.6,0.3,5.3,0.5,7.9,0.7c1.5,0.1,3.1,0.4,4.5,0.8c1.4,0.4,3,1.5,4.5,0.6c0.4-0.2,0.7-0.6,0.9-1
					C205.8,223.8,205.7,221.1,205.6,218.5z"/>
			</g>
			<linearGradient id="SVGID_12_" gradientUnits="userSpaceOnUse" x1="190.4117" y1="177.3984" x2="202.3397" y2="208.9223">
				<stop  offset="0.2654" style="stop-color:#000000;stop-opacity:0.9148"/>
				<stop  offset="0.5554" style="stop-color:#0E608F;stop-opacity:0"/>
			</linearGradient>
			<path class="st19" d="M201.7,180.5c0.5,7.5-1.5,15-3.5,22.3c-0.3,1.1-0.6,2.2-1.3,3.2c-0.7,0.9-1.7,1.7-2.9,1.6
				c-4.8-0.3-7.1-12.6-6.1-16.3c1.4-5,9-10.6,13-13.3C201.5,178.7,201.6,179.5,201.7,180.5z"/>
			<linearGradient id="SVGID_13_" gradientUnits="userSpaceOnUse" x1="186.5903" y1="240.6209" x2="198.9686" y2="273.335">
				<stop  offset="0.2654" style="stop-color:#000000;stop-opacity:0.9148"/>
				<stop  offset="0.5554" style="stop-color:#0E608F;stop-opacity:0"/>
			</linearGradient>
			<path class="st20" d="M201.9,241c-1.9-2.2-5.2,1.1-7.1,2.2c-4.5,2.8-9.2,5.6-14.4,6.6c-1.7,0.4-3.6,0.5-5.2,1.3
				c5.7,6.7,11.5,13.3,17.4,19.8c2.2-1.9,3.1-6.4,3.7-8.8c1.1-4.6,2.5-9,3.9-13.5C200.9,246.7,203.5,243,201.9,241z"/>
			<g id="XMLID_72_">
				<path class="st17" d="M163.5,164.2c0.2-1.6,0.5-3.3,0.9-4.9c0.2-1,1.8-0.6,1.5,0.4c-0.1,0.2-0.1,0.5-0.2,0.7
					c0.5,0,0.9,0.4,0.8,1c0,0.2-0.1,0.3-0.1,0.5c0.3,0,0.6,0.1,0.8,0.3c-0.2,0.8-0.6,1.6-0.4,2.5c0.2,0.9,1.6,1.7,1.5,2.1
					c0,0,0,0,0,0c0,0,0.1,0.1,0.1,0.1c0.1,0,0.1,0,0.1-0.1c0,0,0.1,0,0.1-0.1c1.1,1.3,2.7,1.8,2.5,5.8c0,1,0.1,7.8-0.3,7.7
					c-1.3,0-3.7-0.6-5-0.8c-0.3,0-2.2,1.6-2.3,0c-0.1-1.1,2.6-8.1,2.5-8.7c0-0.2,0-0.3-0.1-0.4c-0.2-0.3-0.2-0.7-0.4-1
					c-0.1-0.1-0.2-0.2-0.3-0.3c0,0,0,0,0,0c-0.1-0.1-0.1-0.2-0.2-0.3c-0.5-0.8-1.2-1.8-1.6-2.7c-0.2-0.6-0.1-0.9,0-1.5
					C163.5,164.7,163.4,164.5,163.5,164.2z"/>
			</g>
			<path d="M201.6,174.5c-0.1-0.3-0.2-0.6-0.3-0.9c-0.3-0.8-0.7-1.6-1.3-2.2c-0.7-0.7-1.7-1.1-2.7-1.3c-3.8-0.9-8.1,0.2-10.9,3
				c-1.1,1.1-2,2.4-2.8,3.8c-1,1.7-1.9,3.6-2.6,5.5c-0.3,0.8-0.6,1.7-1.2,2.4c-0.7,0.8-1.6,1.2-2.5,1.7c-3.1,1.7-5.4,4.1-7.4,7
				c-0.5-2.3,0.3-4.6,0.8-6.8c0.7-3,1-6.2,0.8-9.3c0-0.2,0-0.4-0.2-0.5c-0.1-0.1-0.3-0.1-0.5-0.1c-2.1-0.1-4.2-0.1-6.3-0.2
				c-0.3,0-0.6,0-0.8,0.2c-0.2,0.2-0.2,0.5-0.3,0.7c-1,5.8-4.6,11-4.8,16.9c-0.1,2.7,0.6,5.3,1.2,7.9c0.6,2.3,3.6,8.7,6.8,7.7
				c5.2-1.6,10.5-3.8,14.4-7.7c0.8-0.8,1.6-1.7,2.6-2.3c2-1.3,4.6-1.5,6.4-3c1.9-1.5,2.5-4,3.8-5.9c1.5-2.1,3.8-3.5,5.4-5.5
				C201.8,182.3,202.6,178.1,201.6,174.5z"/>
			<path class="st2" d="M170.2,167.9c-1.4-5.4-3.4-10.7-5.3-16c-0.3-1-1.9-0.6-1.6,0.4c0.1,0.2,0.1,0.5,0.2,0.7c0,0.1,0,0.2,0,0.3
				l1,2.9c0.9,2.9,1.8,5.8,3,8.6l0.6,1.6c0.2,0.7,0.4,1.3,0.5,2C168.9,169.3,170.5,168.9,170.2,167.9z"/>
			<g id="XMLID_208_">
				<path class="st17" d="M167.7,166.7c0.2-0.5,0.4-0.2,0.6,0c0,0.2,0.1,0.3,0.2,0.4c0.1,0.1,0.3,0,0.4-0.1c0.3-0.2,0.6-0.7,0.6-1.1
					c0,0,0,0,0,0c-0.1-0.1-0.1-0.2-0.1-0.3c0,0-0.1-0.1-0.1-0.1c-0.4-0.3-0.7-0.5-0.9-0.9l-0.3-1c-0.2-0.6,0.8-1,1.2-0.1
					c0.3,0.6,1,0.6,1.3,0.9c0.4,0.3,0.6,0.7,0.7,1.2c0,0,0,0,0,0c0.1,0.5,0.2,1.3,0.1,2.1c0,0.1,0,0.1,0,0.2
					c0.5,1.4,0.2,2.9-0.8,4.1c-0.1,0.2-0.4-0.1-0.2-0.2c0,0,0.1-0.1,0.1-0.1c0,0,0-0.1,0-0.1c-0.6-0.1-1.6-0.9-2.3-2.4
					c-0.2-0.4-0.4-0.7-0.5-1C167.4,167.7,167.5,167.1,167.7,166.7z"/>
			</g>
			<g id="XMLID_382_">
				<defs>
					<path id="SVGID_14_" d="M191.2,157.3c2.6-0.4,2.1,2.3,3.9,0.5c0.4-0.4,2.4-3.4,2.4-4c0.3-2.9-1.1-9.1-2.8-10.8
						c-1.6-1.6-4.8-1.8-7.1-1.5c-4.6,0.6-7.9,2.3-7.4,9.4c0.3,4.1,3.2,6.5,8.4,6.2c1-0.1,1.4,0.1,2.4,0c0.1,0,0.3,0,0.4,0.1
						C191.6,157.3,191.3,157.2,191.2,157.3z"/>
				</defs>
				<clipPath id="SVGID_15_">
					<use xlink:href="#SVGID_14_"  style="overflow:visible;"/>
				</clipPath>
				<g id="XMLID_377_" class="st21">
					<path class="st2" d="M180,152.6c1,0.6,2.2,0.5,3-0.3c0.3-0.3,0.7,0.2,0.4,0.5c-1.1,0.9-2.6,1-3.8,0.3
						C179.3,152.8,179.6,152.4,180,152.6z"/>
				</g>
			</g>
			<g id="XMLID_71_">
				<path class="st22" d="M189,147.6c0.1-0.2,0.2-0.4,0.4-0.5c0.7,0,1.3,0.4,1.6,1.1c0.3,0.8,0,1.9-0.9,2c-0.4,0.1-0.9-0.1-1.3-0.3
					c0-0.2,0-0.5,0-0.7C188.8,148.6,188.9,148.1,189,147.6z"/>
			</g>
			<g id="XMLID_206_">
				<g id="XMLID_207_">
					<path class="st17" d="M175.3,282.6c0,0.1,0,0.2,0,0.3c0.1,2,1.7,3.5,3.5,4.4c2.9,1.4,6.1,1.7,9,3c0.7,0.3,1.4,0.8,2,1.2
						c0.4,0.3,0.8,0.5,1.1,0.9c0.4,0.5,0.6,1,0.8,1.6c0.5,1.2,1.7,4,3.1,4.4c1.5,0.4,3.1-1.6,3.6-2.8c0.6-1.5,1.5-3.1,2-4.8
						c0.5-1.7,0.4-3.6-0.6-5c-1.5-2.2-4.5-2.6-7-3.5c-2.4-0.9-4.6-2.3-6.9-3.4c-1.9-0.9-4.6-2.5-6.8-2.4c-1.8,0.1-2.7,2.2-3.2,3.9
						C175.5,281.1,175.3,281.8,175.3,282.6z"/>
				</g>
			</g>
			<g id="XMLID_200_">
				<g id="XMLID_201_">
					<path class="st2" d="M195.9,283.4c0.5,2,1.7,4.8,0.8,6.7c-0.6,1.4-1.5,2.3-3,2.7c-0.6,0.2-1.2,0.2-1.9,0.4
						c-0.6,0.2-1.2,0.5-1.5,1.1c-0.3,0.7-0.1,1.5,0.3,2.1c0.8,1.1,2.1,1.5,3,2.5c0.7,0.7,0.9,1.6,1.3,2.4c1.3,2.9,2,5.6,2.7,8.6
						c0.3,1.4,0.9,2.8,2.2,3.4c0.9,0.4,2,0.3,2.9-0.1c4.9-2.5,2.5-11.5,1.2-15.6c-0.5-1.6-1.1-3.2-0.7-4.8c0.3-1.2,1.2-2.1,1.7-3.2
						c0.8-1.9,0.3-5.2-1.8-6.3C202.8,283,195.7,282.7,195.9,283.4z"/>
				</g>
			</g>
			<g id="XMLID_70_">
				<path class="st17" d="M145.8,274c0.4-3.5,3.2-8.8,6.1-11c4.6-3.6,12.6,1.5,16.7,3.8c7.5,4.4,14.7,9.5,22,14.2
					c0.6,0.4,1.2,0.7,1.6,1.3c1.7,2,0.3,5.3-2,6.4c-2.3,1.2-5.1,0.8-7.6,0.4c-8.9-1.5-17.3-4.1-25.8-6.9c-3.1-1-9.1-2.1-10.6-5.3
					C145.8,276.1,145.7,275,145.8,274z"/>
			</g>
			<path class="st2" d="M186.8,133.7c-0.4,0.5-0.7,1-1,1.5c-1.5,2.4-1,4.9,0.3,7.3c0.5,0.8,1.1,1.5,1.4,2.4c0.6,1.7,0,3.7,0.4,5.5
				c0.4,1.7,1.5,3,2.7,4.2c2.2,2.4,3.9,3.8,7.1,3.1c2.2-0.5,5.8-1.8,7.5-3.4c2.3-2.2,1.9-6.6,1.7-9.4c-0.4-8.3-0.5-16.6-0.2-24.8
				c0.1-4,0.7-8.1,0.6-12.1c0-3.1,0.3-6.8-0.8-9.8c-0.8-2.2-2.7-4.2-5.1-4.3c-1.9-0.1-3.8,1-5.2,2.3c-4.3,4.1-5.7,10.9-3.4,16.4
				c0.5,1.3,1.3,2.7,0.5,3.9c-0.3,0.5-0.9,0.9-1.4,1.2c-2.1,1.4-4,3.6-4.1,6.2c-0.1,2.1,1,4.1,0.7,6.2
				C188.4,131.4,187.6,132.6,186.8,133.7z"/>
			<path class="st10" d="M205.6,221.3h-25.1c-0.2,1.5-0.5,3-0.9,4.5c-0.5,2.2-2.4,3-4.4,3.9c-8.5,3.7-17.6,5.8-25.8,10
				c-8.3,4.1-15.9,10.8-18,19.8c-1,4.3-1.5,9.4,1.1,13.1c3.1,4.5,8.1,6.2,12.3,9.5c1.8,1.4,3.2,3.3,5.4,4c1.8,0.6,3.9,0.2,5.6,1
				c2.3,1.1,3.4,4.2,5.9,4.5c1.6-6.7,3.2-13.4,4.7-20.2c0.5-2.2,2.7-5.5,1.1-6.9c-0.8-0.8-10.8-3.3-11.4-2.9c4-2.3,9.1-1.5,13.7-1.4
				c6.9,0.1,13.7-1.6,19.8-4.8c2.9-1.5,5.4-3.6,8.1-5.4c3-1.9,5.8-4.3,7.1-7.7c1.5-3.8,1.4-8,1.2-12
				C206,227.4,205.8,224.3,205.6,221.3z"/>
			<path class="st2" d="M178.5,144.8c-0.1-0.1-0.2-0.2-0.3-0.3c-0.6-0.6-0.9-1.5-1.1-2.3c-0.4-1.3-0.6-2.7-0.3-4
				c0.3-1.3,1.3-2.6,2.7-2.7c0.4,0,0.9,0,1.3-0.1c0.9-0.2,1.6-0.9,2-1.7c0.4-0.8,0.7-1.7,1.2-2.4c0.6-0.9,1.6-1.6,2.5-2.2
				c1.5-0.9,3.3-1.8,5-1.3c1.8,0.6,2.8,2.6,3,4.5c0.2,1.9-0.3,3.8-0.3,5.7c-0.1,1.1,0,2.2-0.2,3.3c-0.6,3.5-4.3,3.4-7.2,3.8
				C184.7,145.3,180.5,146.2,178.5,144.8z"/>
		</g>
		<g>
			<path class="st23" d="M408.6,406.3H272.1c-3.3,0-5.9-2.6-5.9-5.9l0,0c0-3.3,2.6-5.9,5.9-5.9h136.5c3.3,0,5.9,2.6,5.9,5.9l0,0
				C414.5,403.7,411.9,406.3,408.6,406.3z"/>
			<path class="st23" d="M248.5,415.2h-30.4c-2.2,0-3.9-1.8-3.9-3.9l0,0c0-2.2,1.8-3.9,3.9-3.9h30.4c2.2,0,3.9,1.8,3.9,3.9l0,0
				C252.5,413.4,250.7,415.2,248.5,415.2z"/>
			<g>
				<path class="st24" d="M295,401.8h115.1c6.3-2.3,12.2-5.5,17.2-10c13.3-12.1,13.3-30.5,5.9-45.5c-4.7-9.5-7-20.1-6.7-30.7
					c0.2-5.2,0.9-10.3,0.3-15.5c-1.4-10.9-9.2-20.3-19.1-25.1c-9.8-4.8-21.3-5.4-32.1-3.3c-17.4,3.4-31.4,14.3-33,32.6
					c-0.9,10.5,1.1,21.2,0.2,31.7c-0.8,8.9-4.4,18.4-11.5,23.4c-1.3,0.9-2.7,1.7-4.2,2.3c-5,1.9-10.5,1.7-15.5,3.6
					c-3.4,1.3-6.3,3.6-9.2,5.9c-2.3,1.8-4.6,3.8-5.7,6.5c-1.4,3.3-2.5,7.8-3.6,11.3c-1.1,3.6-0.8,7.7,0.8,11.1
					C294.3,400.7,294.6,401.3,295,401.8z"/>
				<path class="st25" d="M359,335.2c-3.3-3.2-6.8-6.1-9.9-9.4c-4.7-5.1-8.5-11.6-7.7-18.5c0.3-2.4,1.1-4.9,0.4-7.2
					c-0.5-1.8-1.9-3.2-2.8-4.8c-2.4-3.9-2.6-9-0.9-13.3c1.7-4.3,5.1-7.8,9.1-10c1.8-1,3.9-1.9,5.3-3.5c4.6-5.2,0.9-13.6,4.7-19.2
					c3.6-5.3,13.6-0.1,17.5,2.4c2,1.3,3.5,2.7,4.4,3.9c2.2,3.2,3.3,7.1,3.9,11c0.4,2.4,0.7,5,2.4,6.7c1.7,1.6,4.1,2,6.3,2.7
					c3.6,1.2,6.7,3.7,8.7,6.9c1.4,2.3,2.4,5.1,4.4,6.8c1.8,1.5,4.3,2,6.5,3c13,5.7,12.8,23.4,10.7,35.1c-1.5,8.3-4.2,17-10.8,22.4
					c-3.1,2.5-7.4,4.3-11.4,4.8c-4.5,0.6-7.8-3.8-12-5.4c-1.2-0.5-2.5-0.9-3.9-1c-1.1-0.1-2.3,0.1-3.4,0c-3.8-0.5-7.5-2-11-3.5
					c-1-0.4-2-0.9-2.9-1.5c-1.2-0.9-2.1-2.1-3-3.2C362.3,338.5,360.7,336.8,359,335.2z"/>
				<path class="st26" d="M348.1,302.8c-4.1,11.9-15.1,21.2-27.5,23.2c1.5,2.6,2.2,5.1,3,8c8.6,0.1,17.5-2.3,23.6-8.3
					c6.1-6,8.5-16.1,4.2-23.5C350.8,301.3,348.4,301.8,348.1,302.8z"/>
				<path class="st27" d="M343.5,297.8c1.4-3.9,4-7.7,5.9-11.3c1.1-2.1,2.1-4.1,3.2-6.2c0.7-1.4,1.6-4.3,3.2-4.9
					c1.3-0.5,2.8,0.6,4,1.1c1.7,0.6,3.5,1.1,5.2,1.7c3.4,1.2,6.9,2.8,9.4,5.5c2.6,2.8,4.4,6.6,4.1,10.5c-0.2,2.2-1.1,4.3-1.7,6.5
					c-0.6,2.6-0.6,5.2-0.5,7.8c0.2,8.1,0.8,16.2,1.9,24.2c0.2,1.4,0.4,2.9-0.2,4.2c-1.4,3.3-10.1,2.4-13.2,2.7
					c-5,0.4-10.7,1.6-15.3-0.6c-0.6-5.1-0.9-10.3-0.9-15.4c0-4.3,1.2-8.6-1.5-12.3c-2.4-3.2-5.1-6.1-4.4-10.4
					C342.8,299.9,343.1,298.9,343.5,297.8z"/>
				<path class="st17" d="M354.3,273.8c0.1-1.3,0.2-2.7,0-4c-0.1-1.1-0.9-1.5-1.7-2.2c-1.6-1.4-2.7-3.3-3.4-5.3
					c-1.7-4.9-1.9-10.9,2.7-14.3c2.6-2,6.4-2.3,9.1-0.5c3.9,2.5,4.4,7.9,4.5,12.5c0.1,3.6,0.2,7.2,0.3,10.8
					c0.1,3.9,0.4,8.7-3.6,10.8c-1.4,0.7-3,0.9-4.6,0.5c-0.9-0.2-1.7-0.7-2.4-1.4C353.8,278.8,354.2,275.9,354.3,273.8z"/>
				<linearGradient id="SVGID_16_" gradientUnits="userSpaceOnUse" x1="361.9608" y1="254.7816" x2="359.7477" y2="283.9955">
					<stop  offset="0.2654" style="stop-color:#000000;stop-opacity:0.9148"/>
					<stop  offset="0.5554" style="stop-color:#E0AC9B;stop-opacity:0"/>
				</linearGradient>
				<path class="st28" d="M355.5,269.2c0.3,0.6,0.8,1.1,1.1,1.7c0.4,0.9,0.7,1.9,1.1,2.8c0.7,1.7,1.8,3.2,3.1,4.4
					c0.6,0.6,1.2,1.1,2,1.3c0.8,0.2,1.7,0,2.2-0.7c0.3-0.4,0.4-0.9,0.4-1.4c0.6-4.5,0.9-9,0-13.5
					C363.2,266.9,359.2,269.2,355.5,269.2z"/>
				<g>
					<path class="st29" d="M352.4,275.2"/>
				</g>
				<linearGradient id="SVGID_17_" gradientUnits="userSpaceOnUse" x1="328.9523" y1="418.8003" x2="342.114" y2="329.9593">
					<stop  offset="0" style="stop-color:#1D3F8F"/>
					<stop  offset="5.028070e-03" style="stop-color:#24C7C1"/>
					<stop  offset="0.9955" style="stop-color:#99FAFF"/>
				</linearGradient>
				<path class="st30" d="M265.9,400.7c0.5,0.4,0.9,0.8,1.4,1.1h122.4c5.4-2.5,10.5-6,14.2-10.6c4.7-6,7-14.3,4.5-21.5
					c-1.3-3.8-3.8-7.1-6.7-10c-7.5-7.7-17.5-12.9-28.1-14.6l6,0.7c-14.1-3.7-28.9-2.7-43.4-1.6c-13.3,1-26.6,1.9-39.9,2.9
					c-8.8,0.6-17.6,0.9-23.8,7.5c-6.6,7.1-10.9,16.3-12.2,25.8C259.3,387.7,260.4,395.9,265.9,400.7z"/>
				<path class="st17" d="M257.8,395.6c1.9-1.9,3.8-3.9,5.7-5.8c2-2.1,4.1-4.2,5.7-6.7c1.4-2.1,2.5-4.4,3.1-6.8
					c0.6-2.1,0.9-4.6-0.2-6.5c-1.2-2.2-3.9-3.2-6.4-3c-2.5,0.2-4.7,1.6-6.6,3.2c-4.3,3.7-7.1,8.7-9.7,13.6
					c-2.7,5.2-5.6,9.9-9.2,14.5c-1.2,1.5-2.4,3.5-1.5,5.2c0.7,1.3,2.4,1.8,3.9,1.9c3.1,0.3,6.1-0.2,8.4-2.6
					C253.2,400.3,255.5,397.9,257.8,395.6z"/>
				<path class="st2" d="M241.7,397.4c-0.4-0.2-0.9-0.3-1.3-0.2c-1.3,0.3-2.2,2-3.4,2.6c-1.8,0.9-3.8,1.5-5.8,1.9
					c-1.2,0.3-2.4,0.5-3.5,0.7c-1.8,0.3-3.6,0.6-5.5,0.9c-1.3,0.2-2.5,0.4-3.7,1c-3.2,1.6-2.8,5.3,0.3,6.7c2.2,1,5.2,1,7.6,0.7
					c6.1-1,12.2,0.7,18.3,0c4.6-0.5,5.9-3.9,7.1-7.9c0.2-0.6,0.4-1.2,0.6-1.8c-1.5-0.6-3.4-0.3-5-0.9c-1.5-0.5-2.9-1.4-4-2.4
					C242.9,398.2,242.3,397.7,241.7,397.4z"/>
				<path d="M378.9,338.1c-0.6-2.4-1.4-4.9-3.2-6.4c-1.8-1.6-4.7-1.8-6.2,0.1c-0.5,0.6-0.8,1.4-1.3,2.1c-1.5,1.9-5.4,0.6-7.4,0.6
					c-3.1-0.1-6.2,0.1-9.3,0.3c-7.5,0.5-15.1,1.2-22.6,1.8c-7,0.6-14.1,1.2-21.1,1.8c-3.6,0.3-7.2,0.8-10.8,1
					c-3.1,0.2-5.7-0.5-8.7,0.9c-2.6,1.2-4.7,3.1-6.9,4.9c-3.2,2.8-6.5,5.5-9.6,8.2c-1.8,1.6-3.6,3.2-5.4,4.9
					c-4.9,4.7-9.4,9.7-13.9,14.8c-3.8,4.3-7.6,8.5-11.4,12.8c7.2,5.6,13.8,12,20.2,18.4c1.1-1,2.3-2.3,3-3c1.7-1.5,3.3-3,4.9-4.6
					c0.8-0.8,1.6-1.7,1.9-2.8c0.3-0.9,0.2-1.8,0.4-2.7c0.6-2.9,3.7-4.3,5.9-6.2c3.2-2.7,3.7-6.6,5.8-10c1.8-3.1,5.6-4.4,8.1-6.9
					c2.3-2.4,3.5-5.7,5.5-8.3c1.6-2.2,5.6-5.2,8.4-3.2c2.2,1.6,1.9,5.3,4.5,6.6c1.8,0.9,4,0.8,5.9,1.2c6.6,1.2,13.4,1.8,20.1,2.5
					c3.8,0.4,7.6,0.7,11.4,1.1c6.4,0.6,12.9,1.2,19-0.6c4.9-1.5,9.6-4.8,12.1-9.6c0.6-1.2,1-2.4,1.3-3.7
					C380.9,349,380.1,342.9,378.9,338.1z"/>
				<path class="st17" d="M384.9,293c7.5,4.2,8.6,13.3,8.9,21.5c0.1,4.2-0.1,8.5-1.7,12.4c-4.2,10.4-17,13-27,12.7
					c-12.9-0.4-25.7-3.1-37.6-7.8c-0.1-2.4,0.2-4.1,0.7-6.5c7.6,2,15.4,3.1,23.3,3.1c5.7,0,11.5-0.5,16.8-2.3
					c3.4-1.2,6.8-3.2,8.3-6.2c2.7-5.5-1.8-11.3-2.4-16.8c-0.2-1.9-0.4-3.9,0.2-5.7c0.3-0.8,0.7-1.5,1.2-2.2c0.7-1,1.4-2.1,2.5-2.7
					c1.6-0.9,3.6-0.8,5.2-0.1C383.9,292.5,384.4,292.7,384.9,293z"/>
				<path class="st2" d="M288.3,338.6h52.6c0.4,0,0.7-0.1,1-0.3l0,0c1.4-0.8,0.7-2.7-1-2.7h-52.6c-0.4,0-0.7,0.1-1,0.3l0,0
					C285.8,336.7,286.5,338.6,288.3,338.6z"/>
				<path class="st2" d="M287.9,338.7h49.9c0.6,0,1-0.7,0.6-1.2l-17-25c-0.1-0.2-0.4-0.3-0.6-0.3h-49.9c-0.6,0-1,0.7-0.6,1.2l17,25
					C287.4,338.6,287.7,338.7,287.9,338.7z"/>
				<path class="st25" d="M354.7,251.7c1.4-0.3,2.8-0.5,4.4,0.1c1.6,0.6,3,1.7,4,3.1c1.2,1.7,1.4,3.2,1.5,5.3
					c0.4,4.7,0.9,9.5,1.3,14.2c0.1,0.8,0.1,1.6,0.5,2.2c0.5,0.9,1.5,1.4,2.5,1.7c1.7,0.6,3.7,0.6,5.3-0.3c1.6-0.9,2.5-2.7,2.8-4.5
					c0.3-1.8,0.1-3.6-0.1-5.4c-0.5-4-0.1-8.9-2.2-12.6c-1.4-2.8-3.5-5.2-5.5-7.5c-2-2.2-4-4.5-6.7-5.8c-1.5-0.7-3.1-1.1-4.7-1.4
					c-3.2-0.6-6.6-0.9-9.5,0.5c-2.8,1.4-6,7.4-2.5,9.7c0.5,0.3,1.1,0.5,1.6,0.7c1.4,0.4,2.9,0.8,4.4,0.6
					C352.9,252.2,353.8,251.9,354.7,251.7z"/>
				<path class="st17" d="M362.2,258c0.8-1.4,2.5-2.3,4-1.4c1.6,1,1.3,3.3,0,4.4c-1.2,1-3.4,0.8-3.9-0.9c-0.1-0.3-0.1-0.6-0.1-0.9
					C362,258.8,361.9,258.4,362.2,258z"/>
				<linearGradient id="SVGID_18_" gradientUnits="userSpaceOnUse" x1="330.9574" y1="409.2447" x2="375.0483" y2="322.3409">
					<stop  offset="0" style="stop-color:#1D3F8F"/>
					<stop  offset="5.028070e-03" style="stop-color:#24C7C1"/>
					<stop  offset="0.9955" style="stop-color:#99FAFF"/>
				</linearGradient>
				<path class="st31" d="M328.4,384.3c-2.6,0.1-5.2,0.3-7.8,0.5c-4.3,0.4-8.9,0.7-12.8-1.2c-1.4-0.7-2.6-1.6-3.8-2.5
					c-23.1-19.7,36.5-29.4,48-27.1c4.5,0.9,8.9,2.6,13.3,3.7c4.5,1.1,9.3,1.5,13.6-0.1c2.8-1.1,5.2-3.1,8.1-4.1
					c5.6-2.1,14.2-0.4,16.3,5.7c2.5,7.3-1.2,13.9-8.1,16.9c-4.5,2-9.5,2.1-14,4c-4.9,2-10.5,2.2-15.8,2.7
					C353.2,383.9,340.8,383.7,328.4,384.3z"/>
				<path class="st27" d="M376.7,308.3c-1.3,0.3-2.5,0.7-3.7,1.3c-1.1-1.7-2.1-3.4-3.2-5.2c-1.9-3.1-3.6-6.5-5.4-9.7
					c-1.3-2.3-1.3-5-0.7-7.6c0.4-1.7,0.3-3.1,0.5-4.7c0.3-2.4,1.2-4.7,1.5-7c0.1-0.5,11.5,3.6,12.8,4.7c7.3,6,12.7,14.3,15.1,23.4
					c-2.6,0.3-5,1.6-7.4,2.5C383.2,307,379.9,307.5,376.7,308.3z"/>
				<path class="st32" d="M355.6,263.7c-1,0.9-2.7,0.9-3.7,0"/>
				<path class="st33" d="M304.5,322.7c-1.3-0.8-2.9-0.4-3.7,0.9c-0.8,1.3-0.4,2.9,0.9,3.7"/>
				<path class="st17" d="M323.2,378.3c-1.3-3.8-2.2-7.9-3.4-11.7c-0.5-1.8-1.2-3.5-2.2-5c-1.1-1.5-2.6-2.8-4.4-3.1
					c-3.1-0.6-6.2,1.6-7.6,4.4c-3.7,7.3-0.5,15.4,4.2,21.3c1.6,2,3.4,3.9,5.1,5.8c1.7,2,2.9,4.6,4.6,6.4c2.7,2.8,7.3,1,9.4-1.6
					c2.6-3.1-0.7-7.2-2.5-9.8C325,382.9,324,380.6,323.2,378.3z"/>
				<path class="st2" d="M327.7,388.6c-0.2,0.2-0.5,0.5-0.8,0.8c-1.6,1.4-3.2,2.9-5.3,3.4c-1,0.2-2.1,0-3.1,0.2
					c-1,0.2-2.1,1.1-1.8,2.1c0.3,1.3,1.2,2,1.4,3.4c0.2,1.7,0.1,3.4-0.1,5.1c-0.4,3.5-1.5,6.9-2.8,10.2c-0.7,1.9-2.1,4.7-0.6,6.5
					c1.1,1.4,3.2,1.2,4.8,0.5c2.4-1.1,4.1-3.1,5.5-5.3c1.3-2.2,2.3-4.6,3.5-6.9c1.1-2.1,2.4-4.2,3.8-6.1c0.7-0.9,1.4-1.8,1.9-2.8
					c1-2.2,0.4-4.8-1.2-6.5c-1.1-1.2-2.4-3.8-3.8-4.6C328.4,388.2,328.1,388.3,327.7,388.6z"/>
				<path d="M292.1,362.5c0.4,1.1,0.6,2.3,1,3.4c0.6,2,1.7,3.8,2.7,5.6c2.6,4.4,5.1,8.8,7.7,13.1l3.9,6.6c0.2,0.3,0.5,0.9,0.8,1.6
					c7-4.1,13.8-8.4,20.4-13c-1.5-2.4-3.2-4.8-3.6-7.6c-0.2-1.4,0-2.9-0.2-4.3c-0.4-3.4-2.9-6.2-5-9c-3.7-5-6.3-10.7-9.4-16.1
					c-0.4-0.6-0.7-1.3-1.1-1.9c-2.2-3.5-4.7-6.9-7.9-9.6c-1.6-1.4-3.3-2.4-5.1-3.4c-1.5-0.9-2.6-2.1-4.2-2.8
					c-7.1-2.9-12.7,2.8-12.9,10c-0.2,5.1,2.1,9.9,4.6,14.4c1.7,3,3.6,6,5.6,8.9C290.5,359.5,291.5,360.9,292.1,362.5z"/>
				<linearGradient id="SVGID_19_" gradientUnits="userSpaceOnUse" x1="377.9136" y1="298.1093" x2="366.6956" y2="312.1673">
					<stop  offset="0.2654" style="stop-color:#000000;stop-opacity:0.9148"/>
					<stop  offset="0.5331" style="stop-color:#FFFEFC;stop-opacity:0"/>
				</linearGradient>
				<path class="st34" d="M369.8,299.5c0.4,5.9-0.2,11.9-1.8,17.6c0.3-1.1,3.3-2.9,4.2-3.8c1-1,3.3-2.7,3.5-4.2
					c0.1-1.3-1.6-3.4-2.3-4.5C372.3,302.9,371.1,301.1,369.8,299.5z"/>
			</g>
		</g>
		<g>
			<path class="st5" d="M163,146.3l-11-6.7H98.6c-5.5,0-9.9-4.5-9.9-10V121c0-5.5,4.4-10,9.9-10h54.5c5.5,0,9.9,4.5,9.9,10V146.3z"
				/>
			<g>
				<ellipse class="st10" cx="136.3" cy="125.3" rx="2.1" ry="2.1"/>
				<ellipse class="st10" cx="123.7" cy="125.3" rx="2.1" ry="2.1"/>
				<ellipse class="st10" cx="111.2" cy="125.3" rx="2.1" ry="2.1"/>
			</g>
		</g>
		<g>
			<path class="st23" d="M215.5,393.6H199c-2,0-3.6-1.6-3.6-3.6l0,0c0-2,1.6-3.6,3.6-3.6h16.5c2,0,3.6,1.6,3.6,3.6l0,0
				C219.1,391.9,217.5,393.6,215.5,393.6z"/>
			<path class="st24" d="M204.1,355.3c-0.9-3.5-2.1-7.2-1.1-10.6c0.7-2.3,2.2-4.3,2.9-6.6c1-3.8-0.5-7.8,0.2-11.7
				c0.7-3.7,3.2-6.7,4.6-10.1c1.8-4.5,1.5-9.7,3.1-14.3c0.5-1.5,1.3-3,2.6-3.8c1.3-0.8,3.4-0.7,4.2,0.6c0.5,0.7,0.5,1.7,0.5,2.6
				c-0.4,9.7-8.2,18.3-6.8,27.9c0.4,2.7,1.6,5.5,0.9,8.1c-0.7,2.6-3,4.5-4.1,7c-1.2,2.7-0.9,5.9-0.5,8.8c0.4,3,0.8,6.1-0.2,8.8
				c-0.5,1.4-5.1,6.4-6.7,3.8c-0.2-0.3,1.2-4,1.2-4.6C205,359.2,204.6,357.2,204.1,355.3z"/>
			<g>
				<path class="st35" d="M200.5,359.5c0-0.1,0-0.1,0-0.2c-0.1-2.3-1.7-4.3-3.5-5.8c-2.9-2.5-5.6-9.1-6.1-12.9
					c-0.3-2.6,0.1-5.3-0.1-7.9c-0.3-4.1-2.1-7.9-3.4-11.8c-1.1-3.6-1.7-7.4-1.8-11.1c0-1.5,0.2-3.2,1.4-4c1.1-0.6,2.5-0.3,3.4,0.6
					c0.9,0.8,1.4,2,1.7,3.2c1.8,5.8,1.1,12.3,3.6,17.9c1.2,2.5,2.9,4.8,3.5,7.6c0.6,3-0.5,6.1,0.3,9c1.2,4.9,6,7.7,6.4,13
					c0,0.6,0,1.2,0.2,1.8c0.3,0.9,0.9,1.6,1.4,2.4c1.3,2,3.4,6.4,1.3,8.2c-3.9,3.2-8.5-3.6-8.6-6.9
					C200.3,361.4,200.5,360.5,200.5,359.5z"/>
				<path class="st35" d="M212.8,352.8c0.4-1.3,0.8-2.7,1.6-3.8c1.5-2.1,4.2-3.3,5-5.7c0.3-1,0.2-2.1,0.4-3.1
					c0.2-1.9,1.2-3.7,2.7-4.8c1.5-1.1,3.7-1.3,5.3-0.3c2.1,1.3,2.7,3.9,3.1,6.3c1.2,7.5,1.8,15.6-1.8,22.2c-0.2,0.3-0.4,0.6-0.7,0.8
					c-0.8,0.5-1.9-0.3-2.4-1.2c-2.2-4.2,0.6-9.8-1.6-14c-0.2-0.3-0.4-0.7-0.8-0.7c-0.3,0-0.6,0.2-0.8,0.4c-1.1,1.3-1.3,3.2-2.4,4.4
					c-1,1.1-2.6,1.6-3.7,2.7c-0.9,0.9-1.2,2.2-1.6,3.4c-0.6,2.2-1.2,11.1-4.5,7.2C207.9,363.3,211.7,356.3,212.8,352.8z"/>
				<path class="st10" d="M207.6,392.1h-0.5c-6.4,0-11.7-4.7-12.5-11.1l-2-16.4h29.2l-1.7,16.1C219.5,387.2,214.1,392.1,207.6,392.1
					z"/>
				<linearGradient id="SVGID_20_" gradientUnits="userSpaceOnUse" x1="206.1703" y1="343.375" x2="208.935" y2="398.115">
					<stop  offset="0.2654" style="stop-color:#000000;stop-opacity:0.9148"/>
					<stop  offset="0.5554" style="stop-color:#E33270;stop-opacity:0"/>
				</linearGradient>
				<path class="st36" d="M206.5,372.6c4.9-1.4,9.9-2.8,14.8-4.3c0.1,0,0.1,0,0.2-0.1l0.4-3.7h-29.2l1.4,11
					C198.2,374.6,202.4,373.8,206.5,372.6z"/>
				<path class="st10" d="M220.6,366.4h-26.4c-1.6,0-3-1.1-3.4-2.7l0,0c-0.6-2.2,1.1-4.4,3.4-4.4h26.4c2.2,0,3.8,1.9,3.5,4.1l0,0
					C223.8,365.1,222.3,366.4,220.6,366.4z"/>
			</g>
		</g>
		<path class="st27" d="M365.3,325.9c0,0.1,0,0.1,0,0.2"/>
		<path class="st37" d="M268.4,424.8"/>
		<g>
			<path class="st23" d="M410.6,437.8h-24.9c-2.2,0-4-1.8-4-4V433c0-2.2,1.8-4,4-4h24.9c2.2,0,4,1.8,4,4v0.8
				C414.6,436,412.8,437.8,410.6,437.8z"/>
			<g>
				<g>
					<path class="st10" d="M380.2,398.4l34.5,0.7l-3.1,24.8c-1.9,6.2-7.7,10.5-14.2,10.6h0c-7.3,0.1-13.7-5.1-15-12.3L380.2,398.4z"
						/>
					<path class="st2" d="M406.9,340.7c0,0,0-0.1,0-0.1c-0.3-3.7,2.3-7.3,1.6-11c-0.1-0.4-0.2-0.8-0.6-1c-0.6-0.3-1.3,0.2-1.7,0.7
						c-2.6,3.2-2.3,7.4-1.8,11.3c0.5,4.1-1.5,7.4-2.2,11.5c-0.5,2.8,0.1,5.3-0.5,8.1c-0.7,3.2-1.1,6.1-0.1,9.3
						c0.4,1.4,1.1,2.7,0.9,4.1c-0.2,1.7-1.4,3.1-2.1,4.8c-1.8,4.3,0.7,9.7-1.8,13.6c-0.3,0.4-0.6,0.8-1.1,0.8
						c-0.6,0-0.9-0.7-1.1-1.2c-2.8-7.5-5.5-16-4.4-24.1c0.2-1.8,0.7-3.5,0.8-5.3c0.1-1.6-0.1-3.3-0.2-4.9c-0.4-3.9-0.8-7.7-1.2-11.6
						c-0.1-0.7-0.2-1.4-0.6-2c-0.4-0.6-1.3-0.9-1.9-0.5c-0.4,0.3-0.6,0.8-0.7,1.3c-0.7,3.9,0.8,7.9,0.5,11.9c-0.2,2.2-1,4.3-1.4,6.5
						c-0.9,4.8,0.6,11.1,1.5,15.9c0.7,3.4,1,6.9,1.4,10.3c0.3,1.9,1,3.6,1.2,5.5c0.2,1.4-1,6-2.4,2.8c-0.6-1.3-0.8-2.8-0.7-4.3
						c0.1-0.8,0.2-1.5,0.1-2.3c-0.1-0.8-0.5-1.5-1.2-1.8c-0.7-0.3-1.6,0-2.3-0.4c-0.8-0.4-1-1.5-1.1-2.4c-0.3-2.7-0.7-5.6,0.3-8.1
						c0.3-0.8,0.7-1.6,0.9-2.5c0.4-2.1-1.3-3-1.7-4.8c-0.4-1.7,0.9-3.1,1.2-4.7c0.2-1.2-0.6-2.5-1.7-3c-0.3-0.2-0.7-0.3-0.9-0.5
						c-0.3-0.4-0.2-1,0-1.5c0.3-1,0.7-2,1.1-2.9c1.2-2.7-2.2-4.9-4.2-2.8c-0.9,0.9-0.9,2.4-0.8,3.7c0.3,7.9,0.7,15.8,2.2,23.5
						c1.1,5.3,2.8,10.5,5.3,15.3c1.2,2.2,2.9,4.2,4,6.5c1.5,3.2,2.5,7.8,7.3,6.8c2.6-0.5,4.7-2.6,6.4-4.7c2.5-3.1,4.8-7.4,3.1-11
						c-0.5-1-1.2-1.8-1.6-2.9c-0.3-0.9-0.3-1.8-0.2-2.7c0.1-3.2,0.5-6.4,1.2-9.5c0.8-3.6,2.3-7.8,1.2-11.5c-0.9-3.1-2-5.6-1.1-9
						c0.8-3.5,3.6-6.6,3.5-10.2C409.3,346.5,407.2,343.8,406.9,340.7z"/>
					<g>
						<path class="st35" d="M386.3,389.9c0.9,2.9,1.4,5.9,1.3,8.9c0,2.2-0.3,4.4-0.1,6.5h25.3c0.8-2.5,1.2-5.1,0.9-7.6
							c-0.4-2.9-1.3-6.2,0.6-8.3c0.7-0.7,1.6-1.2,2.2-1.9c1.5-1.8,0.6-4.5-0.4-6.6c-1.9-3.7-2.9-7.4-0.3-10.9c2-2.7,5.3-4.6,6-8.2
							c1-4.7-3.8-9.8-1.4-14c0.7-1.2,1.8-2,2.6-3c1.5-1.9,1.9-4.6,1.1-6.9c-0.5-1.4-1.9-3.4-3.5-3.9c-2.2-0.7-2.2,0.4-3,2.5
							c-1.4,3.9-2,8.1-1.7,12.3c0.4,6.3-2.1,13.2-3.1,19.5c-0.5,3.4-1.2,6.7-1.9,10.1c-0.4,2.1-0.7,4.2-1.3,6.2
							c-0.3,1-1.8,3-1.8,3.9c-0.7-8.1,3.4-15.8,4.5-23.9c0.1-0.7,0.2-1.5-0.2-2.1c-0.3-0.5-0.7-0.8-1.1-1.3
							c-1.6-2.3,0.5-7.6,0.9-10.3c0.6-4.6,0.8-9.3,1.1-13.9c0.4-5.6,1.2-11,0.5-16.7c0-0.2-0.1-0.5-0.2-0.6
							c-0.2-0.2-0.7-0.1-0.9,0.1c-0.2,0.2-0.3,0.6-0.3,0.9c-1.3,8.2-1.7,16.6-3,24.9c-1.4,9-2.4,18-3.4,27c-1,8.7-3.1,17.4-4.1,26.1
							c-0.2,1.9-0.9,4.3-2.8,4.5c-1.7,0.2-3-1.6-3.2-3.3c-0.6-4.6,3.4-8.3,5.1-12.5c1.2-3.1,1.3-6.6,0.6-9.9c-0.7-3.4-2-7.2,0-9.9
							c0.8-1.1,2.1-1.9,2.7-3.1c0.5-0.9,0.6-2,0.6-3c0.1-3.2,0-6.4-0.3-9.7c-0.3-2.8-1.3-5.8-1.1-8.6c0.5-5.5,2-10.8,1.7-16.3
							c-0.3-4.8-4.1,2.6-4.2,4.6c-0.1,2.5,0.3,5.1-0.1,7.6c-0.4,2.8-1.8,5.6-1.4,8.4c0.1,0.4,0.1,0.8,0,1.1
							c-0.1,0.4-0.5,0.6-0.9,0.5c-0.2-0.1-0.3-0.3-0.3-0.5c-1.9-4.8,2.6-13.3-1.4-17.3c-3.2,3.9-2.4,12.9-2.2,17.6
							c0.5,12.2,2.6,24.6,0.3,36.8c-0.2,0.9-0.4,1.8-1.1,2.4c-1.1,1-3,0.4-3.9-0.7c-0.9-1.1-1.3-2.6-1.6-4.1
							c-0.4-1.4-0.9-2.9-2.1-3.8c-1.2,1.3-1.5,3.2-1.3,4.9C385.1,386.6,385.8,388.2,386.3,389.9z"/>
					</g>
				</g>
				<linearGradient id="SVGID_21_" gradientUnits="userSpaceOnUse" x1="395.8783" y1="400.091" x2="400.1654" y2="430.4306">
					<stop  offset="0.2654" style="stop-color:#000000;stop-opacity:0.9148"/>
					<stop  offset="0.5554" style="stop-color:#E33270;stop-opacity:0"/>
				</linearGradient>
				<polygon class="st38" points="413.3,412.2 384.8,423.6 380.8,405 				"/>
				<path class="st10" d="M414,412.2h-33.3c-2.2,0-3.9-1.7-3.9-3.9V399c0-2.2,1.7-3.9,3.9-3.9H414c2.2,0,3.9,1.7,3.9,3.9v9.3
					C417.9,410.5,416.2,412.2,414,412.2z"/>
			</g>
		</g>
		<g>
			<g>
				<path class="st23" d="M208.3,432.8H57c-3.3,0-5.9-2.6-5.9-5.9l0,0c0-3.3,2.6-5.9,5.9-5.9h151.3c3.3,0,5.9,2.6,5.9,5.9l0,0
					C214.2,430.2,211.5,432.8,208.3,432.8z"/>
				<g>
					<g>
						<path class="st26" d="M107.4,327.1c0.1-2.3-2.6-4.3-4.8-3c-0.9,0.5-1.5,1.4-2.1,2.3c-2.6,3.9-5.3,7.8-7.4,12
							c-1.9,3.5-3.4,7.3-5.6,10.6c-2.2,3.3-5.4,5.5-7.3,9.1c-1.4,2.8-1.8,6.5,0.1,9.4c1.8,2.8,5.3,4.3,8.4,4
							c3.1-0.2,5.7-1.9,7.5-4.2c4.1-4.8,4.5-10.9,5.7-16.9c1.3-6.6,2.9-13.1,4.7-19.5C106.8,330.2,107.3,328.6,107.4,327.1z"/>
						<g id="XMLID_18_">
							<g id="XMLID_88_">
								<path class="st26" d="M124.7,376.9c-0.8-5.9-0.6-11.9,0.8-17.4c0.7-3,2.2-6.3,5.1-7.4c5.4-1.9,9.2,3.6,10.5,7.9
									c0.9,3.2,2.1,6.4,2.9,9.5c1,4,1.5,8.2,2,12.3c1.2,8.3,2.1,16.7,2.9,25.1c0.1,1.5,0.3,2.9-0.1,4.4c-0.6,2.2-2.5,3.8-4.7,4.3
									c-2.2,0.5-4.6-0.2-6.2-1.7c-0.9-0.8-1.5-1.7-2-2.8c-0.5-1.2-0.7-2.4-1-3.7c-0.6-2.7-1.4-5.3-2.5-7.8
									c-1.1-2.5-2.9-4.7-3.8-7.2C126.8,387.5,125.4,382.1,124.7,376.9z"/>
							</g>
						</g>
						<path class="st39" d="M149.7,398c-0.8-4.7-2.4-9.4-3.4-14.2c-1-5-1.9-10-2.8-15c-2.3-12.5-6.7-24.1-13.4-34.9
							c-0.5-0.7-0.9-1.5-1.6-2.1c-1.4-1.3-3.4-1.8-5.3-2c-2.4-0.3-4.8-0.1-7,0.8c-0.9,0.4-1.6,0.9-2.3,1.5c-1.7,0.9-3.3,2.1-4.7,3.4
							C95.7,347,86.6,363,75.3,376.9c-3.2,3.9-6.4,7.9-7.9,12.9c-1.5,5.1-4.5,9.4-5,14.9c0,0.3,0,0.5-0.1,0.8
							c-0.2,3.8,0.6,7.6,2.5,10.9c2.4,4.2,5.9,5.5,10.6,6.1c4,0.5,8.1,0.3,12.1-0.6c3.1-0.7,7.5-1.7,10-3.7c1-0.8,1.9-1.9,2.7-2.9
							c4.9-6.3,9.3-12.6,12.5-20c2.6-6.1,4.4-12.5,6.5-18.7c0.2,0.5,0.4,1.1,0.6,1.6c1.6,4.2,3,9.1,5.4,13c1.2,1.9,2.1,3.7,3,5.8
							c0.5,1.2,1.8,5.9,2.8,6.5c3.9-0.2,7.7-0.5,11.6-0.9c1.5-0.4,3-0.8,4.4-1.1c1.1-0.5,2.1-0.9,3.2-1.4
							C150,399.1,149.8,398.5,149.7,398z"/>
						<path class="st17" d="M135.3,322.7c0,0,0-0.1,0-0.1c-0.1-0.8-0.3-1.6-0.6-2.4c-0.3-1-0.8-2-1.3-2.8c-0.4-0.6-0.7-1.3-1.1-1.9
							c-1-1.8-1.9-3.5-2.5-5.5c-0.5-1.8-0.7-3.7-1.4-5.5c-0.3-0.7-1.4-0.7-1.4,0.2c0.1,2.1,0.3,4.3,0.8,6.4c0,0.1,0,0.2,0,0.2
							c0,0,0,0,0,0.1c-0.1,0.6-0.1,1.3-0.1,1.9c-0.3,0.2-0.6,0.6-0.7,1.3c0,0,0,0,0,0c-1-0.5-1.9,0.9-0.9,1.4c0,0,0,0,0,0
							c-0.6,0.1-1.1,0.8-0.5,1.4c2.6,2.3,4.3,4.4,5.7,7.6c0.2,0.5,0.6,1.1,1.2,1.2c0.6,0.5,1.4,0.7,2.2,0.2c0.3,0,0.6-0.2,0.7-0.4
							c0.2-0.1,0.3-0.4,0.3-0.6c0.1-0.2,0.2-0.5,0.1-0.8C135.6,323.8,135.5,323.2,135.3,322.7z"/>
						<g id="XMLID_49_">
							<g id="XMLID_92_">
								<path class="st17" d="M135.3,322.4c-0.2-0.7-0.4-1.5-0.7-2.2c-1.8-3.4-9.2-4.3-9.9,0.4c0,0,0,0.1,0,0.1
									c0.2,0.8,0.6,1.4,1.3,2.1c0.4,0.4,1.1,0.3,1.5,0.6c0.3,0.2,0.5,0.7,0.6,1.1c1.1,2,0.8,4.5,0.1,6.8c0.4,0,0.9-0.1,1.2-0.2
									c1-0.2,2.2-0.4,3.2-0.1c0.9,0.3,1.4,1.6,2.5,1.4c0.5-0.1,0.7-0.7,0.7-1.3C136.1,328.2,135.9,325.2,135.3,322.4z"/>
							</g>
						</g>
						<g id="XMLID_130_">
							<g id="XMLID_85_">
								<path class="st2" d="M170.5,419.3c-0.2-0.6-0.5-1-0.9-1.3c-0.7-0.5-1.6-0.7-2.4-0.8c-5-1.1-9.6-3.6-13.3-7.1
									c-1.2-1.2-2.9-4.4-4.7-4.3c-1.7,0-2.9,2.2-4.3,3c-3,1.8-7.1,2.3-10.4,1.3c-0.6,3-0.3,6.3-0.1,9.1c0,0.5,0.1,0.9,0.4,1.3
									c0.4,0.6,1.2,0.7,1.9,0.9c7.4,1.3,14.9,1.6,22.4,2.4c2.7,0.3,5.5,0.8,8.2,0.4c1.2-0.2,2.5-0.5,3.2-1.6
									C170.9,421.6,170.9,420.3,170.5,419.3z"/>
							</g>
						</g>
						<g id="XMLID_153_">
							<g id="XMLID_82_">
								<g id="XMLID_154_">
									<g id="XMLID_48_">
										<path class="st17" d="M69.3,319.6c1-1.4,2.1-2.9,3-4.3c2.4-3.8,4.1-8.1,5.5-12.4c0.4-1.5,1.2-3.5,3-3.4
											c1.5,0.1,3.1,1.4,4.5,1.9c3,1.3,6,2.4,9,3.9c0.1,0,0.1,0.1,0.2,0.1c-2.2,7.9-6.3,15.9-9.1,23.7
											c-2.4,6.7-4.5,13.4-6.3,20.2c0,0-0.1,0-0.1,0c-2.5-0.3-6.5-0.7-8.7-2.2c-1.7-1.2-3.2-3.4-4.2-5.2c-2.4-4.2-3-9.5-1.4-14.1
											C65.6,324.7,67.4,322.1,69.3,319.6z"/>
									</g>
								</g>
							</g>
						</g>
						<g id="XMLID_151_">
							<g id="XMLID_76_">
								<g id="XMLID_152_">
									<g id="XMLID_311_">
										<path class="st17" d="M91.1,316.7c-1.7,0-3.4-0.1-5.1-0.3c-0.7-0.1-1.6-0.2-2.4-0.2c-0.8,0-1.5,0-2.1,0.2
											c-2,0.7-2.3,2.7-4.4,0.6c-1.2-1.2-3.1-3-3-4.8c0.1-0.9,0.5-1.8,0.8-2.7c1.3-3,2.3-6.1,3.1-9.3c0.5-2,0.9-4,1.2-6.1
											c0.2-1.5-0.1-2.4,1.1-3.2c1.1-0.7,3.3-0.6,4.5-0.7c2,0,3.8-1.1,5.7-1.6c2.3-0.5,4.4-1.7,6.8-2.1c1.2-0.2,2.6-0.2,3.7,0.5
											c0.8,0.5,1.4,1.4,1.7,2.3c0.8,2,0.9,4.2,0.8,6.3c-0.2,5.9-0.6,13-4.7,17.7c-0.7,0.8-1.6,1.6-2.6,2.1
											C94.8,316.3,93,316.6,91.1,316.7z"/>
									</g>
								</g>
							</g>
						</g>
						<g id="XMLID_169_">
							<path class="st27" d="M92.4,326.8c-1.7-1.6-3.6-3.1-5.5-4.4c-7.9-5.7-16.6-6-23.3,1.4c-10.1,11.1-13.7,26.8-13.4,41.8
								c0.2,9,1.6,18,3.4,26.8c0.9,4.4,1.9,8.9,2.8,13.3c0.7,3.7,0.4,6.9,3.3,9.7c0.8,0.8,2,1.4,2.9,0.8c0.3-0.2,0.5-0.5,0.7-0.8
								c2.1-3.5,3.2-7.4,4.6-11.2c1.7-4.4,3.7-8.3,8.3-9.8c5.4-1.8,10.7-5.6,15.5-8.6c1.3-0.8,2-0.7,1.7-2c-2.2-9.6-1.7-19,0.5-28.5
								c0.9-4,1.5-8.6,3.1-12.4c1.8-4.4,1.6-8.2-1.2-12.3C94.7,329.1,93.6,327.9,92.4,326.8z"/>
						</g>
						<g id="XMLID_46_">
							<g id="XMLID_281_">
								<path class="st17" d="M189.4,418.6c0.6-2.2-1.4-4.8-2.6-6.4c-2.8-3.6-5.3-7.5-7.9-11.3c-2.6-3.8-4.5-7.9-9.4-8.8
									c-3.7-0.7-8.7,1.6-8,6.1c0.4,2.2,1.9,4.1,3.3,5.8c1.3,1.6,2.7,3.3,4,4.9c1.9,2.3,3.7,4.6,5.6,6.8c0.9,1.1,1.8,2.2,3,3.1
									C179.7,420.6,188.3,422.6,189.4,418.6z"/>
							</g>
						</g>
						<g id="XMLID_113_">
							<g id="XMLID_45_">
								<path class="st39" d="M172.5,412.7c2.7-1.5,5.4-3.1,8-4.8c0.9-0.6,1.8-1.2,2.4-2.1c0,0-2.8-4.4-3.1-4.8
									c-1.8-2.5-3.8-5.1-5.7-7.5c-3.8-4.8-7.8-9.5-11.8-14c-4.4-4.9-8.9-9.8-13.5-14.5c-4.1-4.3-7.7-9.1-13.4-11.3
									c0,0-0.1,0-0.1,0c-2.4-0.4-4.9-0.6-7.3-0.4c-9.5,0.6-15.2,5.9-22.2,11.7c-5.1,4.2-10.2,8.5-15.4,12.7
									c-9.8,8.1-19.7,16.2-28.7,25.2c-0.4,0.4-0.8,0.8-1.2,1.3c-0.8,0.9-1.6,1.8-2.1,2.8c-2.1,3.8-0.6,7.6,1.2,11.2
									c3.2,6.5,10.1,9.7,17.2,10.6c8.4,1.1,16.8-1.4,23.9-5.9c3.6-2.3,6-4.8,8.6-8.1c2.8-3.5,6-6.4,8-10.6c1-2.2,1.7-4.5,2.9-6.5
									c1.6-2.7,4.2-4.9,5.4-7.8c0.7-1.8,0.9-3.9,2.1-5.5c2.8-3.9,4.8,0,6.5,2c1.7,1.9,3.3,2.9,5.4,4c2.7,1.4,4.9,3.9,7.4,5.6
									c2.2,1.5,4.5,2.7,6.5,4.5c1.4,1.2,2.6,2.6,3.9,3.9c1.8,1.9,3.8,3.7,5.8,5.3c1,0.8,1.9,1.6,2.9,2.4c0.8,0.6,1.7,2.1,2.7,2.4
									C170.1,414.5,171.5,413.3,172.5,412.7C172.5,412.7,172.5,412.7,172.5,412.7z"/>
							</g>
						</g>
						<g id="XMLID_236_">
							<g id="XMLID_42_">
								<path class="st17" d="M133.5,328.5c-0.4,0.1-0.7,0-1.4-0.1c-0.3,0-3.3-0.2-3.3-0.1c-0.2,2.4-1.2,4.9-2.1,6.7
									c-1.4,2.8-3.1,5.4-4.5,8.2c-0.5,0.9-1,1.9-1.5,2.9c-2,4.6-3.4,9.5-2.7,14.5c0.2,1.1,0.5,2.1,1.1,2.8
									c0.3,0.4,0.8,0.6,1.3,0.7c1.6,0.1,3.1,0.3,4.7,0.1c0.8-0.1,1.5-0.3,2.2-0.6c2.7-2,4.6-5.5,5.6-8.3c1.5-4.1,1.6-8.5,2.3-12.8
									c0.7-4.6,0.6-9.4,0.8-14c0-0.5,0-1.1-0.5-1.3c-0.5-0.2-0.9,0.3-1.2,0.7C134,328.2,133.7,328.4,133.5,328.5z"/>
							</g>
						</g>
						<g id="XMLID_37_">
							<g id="XMLID_41_">
								<g id="XMLID_233_">
									<g id="XMLID_232_">
										<path class="st2" d="M120.5,321.8l4.3,5c0.7,0.8,2,0.4,2.1-0.6l3.7-31.8c0-0.3-0.1-0.7-0.3-0.9l-4.7-5.5
											c-0.5-0.6-1.5-0.3-1.6,0.5l-3.8,32.4C120.2,321.2,120.3,321.6,120.5,321.8z"/>
									</g>
								</g>
							</g>
						</g>
						<g id="XMLID_35_">
							<g id="XMLID_36_">
								<path class="st27" d="M65.8,329.2c0.5-2.9,3.7-4.8,6.1-6.1c7.5-3.8,15.6,0,21.7,4.4c4.2,3,8.5,6.2,10.8,10.9
									c0.6,1.3,1.2,2.8,2.4,3.6c1.8,1.2,4.3,0.4,6.3,1.2c1.7,0.7,3.2,3.3,5,3.5c0.9,0.1,4.1-2.4,3.4-3.1c3.9,3.5,8.3,6.5,12.9,9.2
									c0,0,0,0.1,0,0.1c-0.6,3.8-1.5,7.9-4.4,10.4c-3.5,2.9-8.6,2.5-13,1.6c-8.9-1.7-17.3-4.9-25.9-7.2
									c-10.8-3-25.5-8.2-24.9-21.6C66.2,334.1,65.5,331.1,65.8,329.2z"/>
							</g>
						</g>
						<g id="XMLID_16_">
							<g id="XMLID_34_">
								<path class="st2" d="M176.1,427.4c-0.7-0.1-1.4-0.1-1.8-0.6c-0.3-0.3-0.4-0.7-0.4-1.1c-0.7-3.9-1-6.7,0.2-10.4
									c2.4,0.6,5,1.1,7.5,1c1.4,0,3.7,0,4.9-0.9c0.9-0.7,1.2-3.4,2-3.6c0.3-0.1,0.6,0.1,0.8,0.3c1.6,1.4,2.7,3.4,4.5,4.5
									c1.5,1,3.3,1.4,5.1,1.7c2.3,0.5,4.7,0.9,7,1.4c1.5,0.3,3,0.6,4.1,1.7c2,1.9,1.5,4.1-0.9,5.3c-1.1,0.5-2.3,0.8-3.5,0.9
									c-4.7,0.7-9.8,0.3-14.5,0.3C186.1,427.9,181,427.8,176.1,427.4z"/>
							</g>
						</g>
						<path d="M75.4,302.4c0.1-0.8,0.2-1.6,0.2-2.5c0-2-0.2-4-0.1-6c0.1-3.1,1-6.5,3.5-8.3c1.4-1.1,3.3-1.5,4.8-2.5
							c1.6-1,2.7-2.6,4.2-3.8c1.7-1.4,3.8-2.3,6-2.6c1.9-0.2,3.6,0.6,5.5,0.1c1.4-0.4,2.6-1.3,4-1.9c1.4-0.6,3.1-0.8,4.2,0.2
							c1.3,1.2,0.9,3.3,0.4,5c-0.6,1.7-1.2,3.4-2,5c-0.3,0.6-0.6,1.2-0.6,1.8c0,0.4,0.1,0.8,0.1,1.2c0,0.8-0.7,1.6-1.4,1.9
							c-0.8,0.4-1.6,0.5-2.5,0.5c-2.8,0.3-5.7,0.5-8.5,0.8c-2.2,0.2-4.5,0.6-5.9,2.5c-1.7,2.3-0.4,5.5-2.2,7.7
							c-2,2.5-4.9,4.7-7.5,6.6c-0.5,0.3-1,0.7-1.5,0.6c-0.7-0.1-1.2-0.7-1.3-1.3c-0.1-0.7,0-1.3,0.1-2
							C75,304.5,75.2,303.4,75.4,302.4z"/>
						<path class="st17" d="M83.5,299.9c-1.3-0.6-3.4-0.6-4.5,0.2c-1.1,0.8-1.2,2.6-1,3.8c0.2,1.4,1.2,2.5,2.6,2.7
							c2.9,0.5,3.6-2,4.1-4.2c0.1-0.6,0.3-1.2,0-1.8c-0.1-0.3-0.4-0.4-0.6-0.6C83.9,300.1,83.7,300,83.5,299.9z"/>
						<path class="st17" d="M130.6,320c-0.3,0-0.5,0.1-0.8,0.3c-0.6,0.4-1.1,0.7-1.7,1.1c-0.3,0.2-0.6,0.3-0.9,0.3
							c-0.5-0.1-0.7-0.7-1-1.1c-0.4-0.4-1.3-1-1.8-0.6c-0.9,0.6-0.5,1.7,0.1,2.3c0.8,1.4,2.3,2.4,3.5,3.5c0.4,0.4,1,0.8,1.5,0.6
							c0.2-0.1,0.3-0.2,0.5-0.3c0.8-0.8,1.1-2,1.4-3.1c0.2-0.8,0.6-2.3-0.3-2.8C130.9,320.1,130.7,320,130.6,320z"/>
						<g id="XMLID_60_">
							<path id="XMLID_66_" class="st26" d="M106.5,319.2c-1.6,1.3-1,5.3,0.8,4.1c5-3.5,6.3-6.4,13.2-7.5c2-0.3,2.8-2.5,0.7-2.2
								C113.7,314.7,112.3,314.5,106.5,319.2z"/>
							<path class="st26" d="M118.6,317.8c-0.1,0-0.3,0-0.4,0c-1.1,0-2.2,0.4-3,1.2c-0.6,0.6-1,1.6-2,1.8c-0.2,0-0.4,0-0.6-0.1
								c-0.1-0.1-0.2-0.3-0.2-0.4c-0.1-0.6,0-1.3,0.3-1.8c0.3-0.5,0.8-0.9,1.2-1.3c0.2-0.1,0.4-0.3,0.5-0.5c0.1-0.2,0.3-0.4,0.2-0.6
								c-0.1-1-1.2-1.1-1.9-0.9c-2.4,0.9-4.8,1.9-6.7,3.5c-1.3,1.1-2.4,2.5-3.4,3.9c-1,1.4-1.6,2.9-2.5,4.3
								c-0.5,0.7-0.5,1.7,0.2,2.4c0.8,0.8,1.7,1.7,2.6,2.4c0.9,0.7,1.9,0.9,2.7,1.8c0.1,0,0.1-0.2,0.2-0.3c0.4-1.3,0.7-2.7,1.2-3.9
								c0.4-0.9,1-1.7,1.9-2.1c1-0.5,2.1-0.7,3-1.2c1-0.6,1.8-1.5,2.5-2.4c0.7-0.9,1.4-1.9,2.1-2.7c0.7-0.8,1.7-0.9,2.4-1.6
								c0.2-0.2,0.4-0.6,0.3-0.9C119.3,318,118.9,317.9,118.6,317.8z"/>
						</g>
						<path class="st40" d="M97.3,312.2c-0.1,0.8-0.9,1.5-1.7,1.4"/>
						<path class="st40" d="M81.5,301.9c-0.7-0.1-1.3,0.7-1.2,1.4c0.1,0.7,0.6,1.3,1.1,1.9"/>
						<linearGradient id="SVGID_22_" gradientUnits="userSpaceOnUse" x1="85.3385" y1="346.4344" x2="80.8788" y2="376.4636">
							<stop  offset="0.2654" style="stop-color:#000000;stop-opacity:0.9148"/>
							<stop  offset="0.5554" style="stop-color:#E33270;stop-opacity:0"/>
						</linearGradient>
						<path class="st41" d="M76.1,351.8c5.5,2.7,11.2,5,17,6.8c-1.4,3.6-2.5,7.2-3.5,10.9c-0.3,1.3-0.6,2.6-1.3,3.8
							c-0.1,0.2-0.2,0.4-0.5,0.4c-0.2,0-0.3,0-0.5-0.1c-4.2-2.3-5.8-7.4-8.1-11.5c-1.7-3-4.1-5.8-4.4-9.3
							C74.8,352.3,75.6,351.6,76.1,351.8z"/>
						<path class="st42" d="M126.9,359.3c0.3,0.1,0.6,0.3,0.7,0.6c-1.1,1.8-3.5,2.6-5.4,1.9"/>
					</g>
					<path class="st43" d="M95.5,306.4c1,1.1,2.9,1.3,4.1,0.3"/>
				</g>
			</g>
			<g>
				<path class="st5" d="M123,238.3c0,18.1,0,35.4,0,35.4l-14.9-9.1c-1.5-0.9-3.3-1.4-5.1-1.4H49.3c-5.4,0-9.8-4.4-9.8-9.8v-15.1
					c0-5.4,4.4-9.8,9.8-9.8h63.9C118.6,228.5,123,232.9,123,238.3z"/>
			</g>
			<g>
				<path class="st10" d="M56.7,241.8c0.2-1.7,1.6-3.3,3.3-3.2c1.4,0,2.5,1.1,3.5,2.1h0.1c1-1,2.1-2,3.5-2.1c1.7,0,3.1,1.6,3.3,3.2
					c0.2,1.7-0.5,3.3-1.4,4.8c-1.4,2.1-5.4,5.2-5.4,5.2c0,0-0.1,0-0.1-0.1c0,0-0.1-0.1-0.1-0.1c-2.2-1.2-4.1-2.9-5.4-5
					C57.1,245.1,56.5,243.4,56.7,241.8z"/>
			</g>
			<g>
				
					<rect x="86.2" y="238.6" transform="matrix(-1 -1.224647e-16 1.224647e-16 -1 186.4605 490.8008)" class="st44" width="14" height="13.7"/>
				<line class="st16" x1="97.3" y1="242.7" x2="89.1" y2="242.7"/>
				<line class="st16" x1="97.3" y1="247.4" x2="89.1" y2="247.4"/>
			</g>
		</g>
		<g>
			<g>
				<path class="st5" d="M361.7,170.6c0,20,0,60.9,0,60.9l16.5-10.1c1.7-1,3.7-1.6,5.6-1.6h52.3c6,0,10.8-4.8,10.8-10.8v-38.4
					c0-6-4.8-10.8-10.8-10.8h-63.5C366.6,159.8,361.7,164.6,361.7,170.6z"/>
			</g>
			<g>
				<rect x="385.5" y="171.9" class="st9" width="15.1" height="15.1"/>
				<rect x="385.5" y="193.3" class="st9" width="15.1" height="15.1"/>
				<rect x="413.1" y="171.9" class="st9" width="15.1" height="15.1"/>
				<rect x="413.1" y="193.3" class="st10" width="15.1" height="15.1"/>
				<polyline class="st5" points="386.4,175.1 393.6,183.5 405,167.3 				"/>
				<polyline class="st5" points="386.4,197.4 393.6,205.7 405,189.6 				"/>
				<polyline class="st5" points="413.1,175.1 420.3,183.5 431.8,167.5 				"/>
			</g>
		</g>
	</g>
</g>
<g id="DESIGNED_BY_FREEPIK">
</g>
</svg>
