<?xml version="1.0" encoding="utf-8"?>
<!-- Generator: Adobe Illustrator 23.0.2, SVG Export Plug-In . SVG Version: 6.00 Build 0)  -->
<svg version="1.1" id="f20e0c25-d928-42cc-98d1-13cc230663ea"
	 xmlns="http://www.w3.org/2000/svg" xmlns:xlink="http://www.w3.org/1999/xlink" x="0px" y="0px" width="300px" height="260px" viewBox="0 0 820.2 780.8"
	 style="enable-background:new 0 0 820.2 780.8;" xml:space="preserve">
<style type="text/css">
	.st0{fill:#E0E0E0;}
	.st1{opacity:0.5;}
	.st2{fill:url(#SVGID_1_);}
	.st3{fill:#FAFAFA;}
	.st4{fill:url(#SVGID_2_);}
	.st5{fill:url(#SVGID_3_);}
	.st6{fill:#3DA4B5;}
	.st7{fill:url(#SVGID_4_);}
	.st8{fill:#FFFFFF;}
	.st9{fill:url(#SVGID_5_);}
	.st10{fill:url(#SVGID_6_);}
	.st11{fill:#47E6B1;}
	.st12{opacity:0.5;fill:#4D8AF0;enable-background:new    ;}
	.st13{opacity:0.5;fill:#FDD835;enable-background:new    ;}
	.st14{opacity:0.5;fill:#F55F44;enable-background:new    ;}
	.st15{opacity:0.5;fill:#47E6B1;enable-background:new    ;}
</style>
<title>no data</title>
<rect x="127.6" y="82.9" transform="matrix(0.9777 -0.2098 0.2098 0.9777 -73.0333 81.1731)" class="st0" width="437" height="603.8"/>
<g class="st1">
		<linearGradient id="SVGID_1_" gradientUnits="userSpaceOnUse" x1="594.1138" y1="66.9885" x2="594.1138" y2="650.3985" gradientTransform="matrix(0.9777 -0.2098 -0.2098 -0.9777 -159.532 860.194)">
		<stop  offset="0" style="stop-color:#808080;stop-opacity:0.25"/>
		<stop  offset="0.54" style="stop-color:#808080;stop-opacity:0.12"/>
		<stop  offset="1" style="stop-color:#808080;stop-opacity:0.1"/>
	</linearGradient>
	<polygon class="st2" points="78.5,143.9 491.3,55.3 613.7,625.8 200.9,714.3 	"/>
</g>
<rect x="139.9" y="97.5" transform="matrix(0.9777 -0.2098 0.2098 0.9777 -72.603 81.0318)" class="st3" width="411.5" height="570.5"/>
<linearGradient id="SVGID_2_" gradientUnits="userSpaceOnUse" x1="594.6488" y1="621.3885" x2="594.6488" y2="670.8384" gradientTransform="matrix(0.9777 -0.2098 -0.2098 -0.9777 -159.5326 860.1946)">
	<stop  offset="0" style="stop-color:#808080;stop-opacity:0.25"/>
	<stop  offset="0.54" style="stop-color:#808080;stop-opacity:0.12"/>
	<stop  offset="1" style="stop-color:#808080;stop-opacity:0.1"/>
</linearGradient>
<polygon class="st4" points="181.4,100.9 380.9,58.1 391.3,106.5 191.7,149.3 "/>
<linearGradient id="SVGID_3_" gradientUnits="userSpaceOnUse" x1="594.6273" y1="660.709" x2="594.6273" y2="719.1334" gradientTransform="matrix(0.9777 -0.2098 -0.2098 -0.9777 -159.5319 860.1895)">
	<stop  offset="0" style="stop-color:#808080;stop-opacity:0.25"/>
	<stop  offset="0.54" style="stop-color:#808080;stop-opacity:0.12"/>
	<stop  offset="1" style="stop-color:#808080;stop-opacity:0.1"/>
</linearGradient>
<path class="st5" d="M271,32.3c-15.4,3.3-25.2,18.8-21.8,34.5s18.6,25.9,34,22.6s25.2-18.8,21.8-34.6S286.4,29,271,32.3z
	 M280.7,77.4c-9.1,2.2-18.2-3.4-20.3-12.5s3.4-18.2,12.5-20.3c9.1-2.2,18.2,3.4,20.3,12.5c0,0.1,0,0.2,0.1,0.3
	C295.3,66.4,289.7,75.3,280.7,77.4C280.7,77.4,280.7,77.4,280.7,77.4z"/>
<rect x="185.7" y="76.9" transform="matrix(0.9777 -0.2098 0.2098 0.9777 -14.7413 62.1668)" class="st6" width="199.8" height="47.3"/>
<path class="st6" d="M271,32.3c-15.1,3.2-24.7,18.1-21.4,33.2s18.1,24.7,33.2,21.4c15.1-3.2,24.7-18.1,21.4-33.2
	C300.9,38.7,286.1,29.1,271,32.3C271,32.3,271,32.3,271,32.3z M280.2,75.4c-8.7,1.9-17.3-3.7-19.1-12.4c-1.9-8.7,3.7-17.3,12.4-19.1
	c8.7-1.9,17.3,3.7,19.1,12.4c0,0,0,0,0,0C294.5,65,289,73.5,280.2,75.4z"/>
<rect x="257.9" y="116.9" class="st0" width="437" height="603.8"/>
<g class="st1">
	
		<linearGradient id="SVGID_4_" gradientUnits="userSpaceOnUse" x1="476.405" y1="69.47" x2="476.405" y2="652.88" gradientTransform="matrix(1 0 0 -1 0 780)">
		<stop  offset="0" style="stop-color:#808080;stop-opacity:0.25"/>
		<stop  offset="0.54" style="stop-color:#808080;stop-opacity:0.12"/>
		<stop  offset="1" style="stop-color:#808080;stop-opacity:0.1"/>
	</linearGradient>
	<rect x="265.3" y="127.1" class="st7" width="422.3" height="583.4"/>
</g>
<rect x="270.6" y="131.4" class="st8" width="411.5" height="570.5"/>
<linearGradient id="SVGID_5_" gradientUnits="userSpaceOnUse" x1="476.94" y1="623.87" x2="476.94" y2="673.32" gradientTransform="matrix(1 0 0 -1 0 780)">
	<stop  offset="0" style="stop-color:#808080;stop-opacity:0.25"/>
	<stop  offset="0.54" style="stop-color:#808080;stop-opacity:0.12"/>
	<stop  offset="1" style="stop-color:#808080;stop-opacity:0.1"/>
</linearGradient>
<rect x="374.9" y="106.7" class="st9" width="204.1" height="49.5"/>
<linearGradient id="SVGID_6_" gradientUnits="userSpaceOnUse" x1="666.86" y1="603.56" x2="666.86" y2="662" gradientTransform="matrix(1 0 0 -1 -189.92 720.41)">
	<stop  offset="0" style="stop-color:#808080;stop-opacity:0.25"/>
	<stop  offset="0.54" style="stop-color:#808080;stop-opacity:0.12"/>
	<stop  offset="1" style="stop-color:#808080;stop-opacity:0.1"/>
</linearGradient>
<path class="st10" d="M476.9,58.4c-15.8,0-28.5,13.1-28.5,29.2s12.8,29.2,28.5,29.2s28.5-13.1,28.5-29.2S492.7,58.4,476.9,58.4z
	 M476.9,104.5c-9.3,0.2-17-7.1-17.3-16.5c-0.2-9.3,7.1-17,16.5-17.3s17,7.1,17.3,16.5c0,0.1,0,0.3,0,0.4
	C493.5,96.8,486.1,104.3,476.9,104.5L476.9,104.5z"/>
<rect x="377" y="104.6" class="st6" width="199.8" height="47.3"/>
<path class="st6" d="M476.9,58.4c-15.4,0-27.9,12.5-27.9,27.9s12.5,27.9,27.9,27.9s27.9-12.5,27.9-27.9l0,0
	C504.9,70.9,492.4,58.4,476.9,58.4z M476.9,102.5c-8.9,0-16.1-7.2-16.1-16.1c0-8.9,7.2-16.1,16.1-16.1c8.9,0,16.1,7.2,16.1,16.1
	C493.1,95.2,485.9,102.4,476.9,102.5C476.9,102.4,476.9,102.4,476.9,102.5L476.9,102.5z"/>
<g class="st1">
	<rect x="15.3" y="737" class="st11" width="3.8" height="21.3"/>
	<rect x="6.5" y="745.8" class="st11" width="21.3" height="3.8"/>
</g>
<g class="st1">
	<rect x="451.5" class="st11" width="3.8" height="21.3"/>
	<rect x="442.7" y="8.8" class="st11" width="21.3" height="3.8"/>
</g>
<path class="st12" d="M771.1,772.6c-2.1-0.9-3.3-3.3-2.6-5.6c0.1-0.2,0.1-0.3,0.1-0.5l0,0c0.1-1.3-0.9-2.4-2.2-2.4
	c-0.8,0-1.5,0.3-2,0.9l0,0c-0.1,0.1-0.2,0.3-0.3,0.5c-0.9,2.1-3.3,3.3-5.6,2.6c-0.2-0.1-0.3-0.1-0.5-0.1l0,0
	c-1.3-0.1-2.4,0.9-2.4,2.2c0,0.8,0.3,1.5,0.9,2l0,0c0.1,0.1,0.3,0.2,0.5,0.3c2.1,0.9,3.3,3.3,2.6,5.6c-0.1,0.2-0.1,0.3-0.1,0.5l0,0
	c-0.1,1.3,0.9,2.4,2.2,2.4c0.8,0,1.5-0.3,2-0.9l0,0c0.1-0.1,0.2-0.3,0.3-0.5c0.9-2.1,3.3-3.3,5.6-2.6c0.2,0.1,0.3,0.1,0.5,0.1l0,0
	c1.3,0.1,2.4-0.9,2.4-2.2c0-0.8-0.3-1.5-0.9-2l0,0C771.4,772.7,771.2,772.6,771.1,772.6z"/>
<path class="st13" d="M136.7,567.5c-2.1-0.9-3.3-3.3-2.6-5.6c0.1-0.2,0.1-0.3,0.1-0.5l0,0c0.1-1.3-0.9-2.4-2.2-2.4
	c-0.8,0-1.5,0.3-2,0.9l0,0c-0.1,0.1-0.2,0.3-0.3,0.5c-0.9,2.1-3.3,3.3-5.6,2.6c-0.2-0.1-0.3-0.1-0.5-0.1l0,0
	c-1.3-0.1-2.4,0.9-2.4,2.2c0,0.8,0.3,1.5,0.9,2l0,0c0.1,0.1,0.3,0.2,0.5,0.3c2.1,0.9,3.3,3.3,2.6,5.6c-0.1,0.2-0.1,0.3-0.1,0.5l0,0
	c-0.1,1.3,0.9,2.4,2.2,2.4c0.8,0,1.5-0.3,2-0.9l0,0c0.1-0.1,0.2-0.3,0.3-0.5c0.9-2.1,3.3-3.3,5.6-2.6c0.2,0.1,0.3,0.1,0.5,0.1l0,0
	c1.3,0.1,2.4-0.9,2.4-2.2c0-0.8-0.3-1.5-0.9-2l0,0C137,567.7,136.8,567.6,136.7,567.5z"/>
<path class="st13" d="M665.1,68.2c-2.1-0.9-3.3-3.3-2.6-5.6c0.1-0.2,0.1-0.3,0.1-0.5l0,0c0.1-1.3-0.9-2.4-2.2-2.4
	c-0.8,0-1.5,0.3-2,0.9l0,0c-0.1,0.1-0.2,0.3-0.3,0.4c-0.9,2.1-3.3,3.3-5.6,2.6c-0.2-0.1-0.3-0.1-0.5-0.1l0,0
	c-1.3-0.1-2.4,0.9-2.4,2.2c0,0.8,0.3,1.5,0.9,2l0,0c0.1,0.1,0.3,0.2,0.5,0.3c2.1,0.9,3.3,3.3,2.6,5.6c-0.1,0.2-0.1,0.3-0.1,0.5l0,0
	c-0.1,1.3,0.9,2.4,2.2,2.4c0.8,0,1.5-0.3,2-0.9l0,0c0.1-0.1,0.2-0.3,0.3-0.4c0.9-2.1,3.3-3.3,5.6-2.6c0.2,0.1,0.3,0.1,0.5,0.1l0,0
	c1.3,0.1,2.4-0.9,2.4-2.2c0-0.8-0.3-1.5-0.9-2l0,0C665.4,68.3,665.2,68.2,665.1,68.2z"/>
<circle class="st14" cx="812.6" cy="314.5" r="7.5"/>
<circle class="st14" cx="230.7" cy="746.7" r="7.5"/>
<circle class="st14" cx="735.3" cy="477.2" r="7.5"/>
<circle class="st12" cx="87.1" cy="96.3" r="7.5"/>
<circle class="st15" cx="7.5" cy="301.8" r="7.5"/>
</svg>
