<?xml version="1.0" encoding="utf-8"?>
<!-- Generator: Adobe Illustrator 23.0.2, SVG Export Plug-In . SVG Version: 6.00 Build 0)  -->
<svg version="1.1" id="a1c85ec2-14a6-4651-ae43-a1d11b962a73"
	 xmlns="http://www.w3.org/2000/svg" xmlns:xlink="http://www.w3.org/1999/xlink" x="0px" y="0px" width="100" height="100" viewBox="0 0 716.9 435.6"
	 style="enable-background:new 0 0 716.9 435.6;" xml:space="preserve">
<style type="text/css">
	.st0{fill:#3DA4B5;}
	.st1{fill:#E0E0E0;}
	.st2{fill:#3DA4B5;enable-background:new    ;}
</style>
<title>upvote</title>
<path class="st0" d="M49.8,54.4h260.9c7.8,0,14.1,6.3,14.1,14.1v0c0,7.8-6.3,14.1-14.1,14.1H49.8c-7.8,0-14.1-6.3-14.1-14.1v0
	C35.7,60.8,42,54.4,49.8,54.4z"/>
<path class="st1" d="M48.8,115.2h617c7.8,0,14.1,6.3,14.1,14.1v0c0,7.8-6.3,14.1-14.1,14.1h-617c-7.8,0-14.1-6.3-14.1-14.1v0
	C34.6,121.5,41,115.2,48.8,115.2z"/>
<path class="st1" d="M48.8,175.9h617c7.8,0,14.1,6.3,14.1,14.1v0c0,7.8-6.3,14.1-14.1,14.1h-617c-7.8,0-14.1-6.3-14.1-14.1v0
	C34.6,182.3,41,175.9,48.8,175.9z"/>
<path class="st2" d="M49.8,234.8h260.9c7.8,0,14.1,6.3,14.1,14.1v0c0,7.8-6.3,14.1-14.1,14.1H49.8c-7.8,0-14.1-6.3-14.1-14.1v0
	C35.7,241.2,42,234.8,49.8,234.8z"/>
<path class="st2" d="M48.8,295.6h617c7.8,0,14.1,6.3,14.1,14.1v0c0,7.8-6.3,14.1-14.1,14.1h-617c-7.8,0-14.1-6.3-14.1-14.1v0
	C34.6,301.9,41,295.6,48.8,295.6z"/>
<path class="st1" d="M48.8,356.3h617c7.8,0,14.1,6.3,14.1,14.1v0c0,7.8-6.3,14.1-14.1,14.1h-617c-7.8,0-14.1-6.3-14.1-14.1v0
	C34.6,362.7,41,356.3,48.8,356.3z"/>
</svg>
