<?xml version="1.0" encoding="utf-8"?>
<!-- Generator: Adobe Illustrator 23.0.2, SVG Export Plug-In . SVG Version: 6.00 Build 0)  -->
<svg version="1.1" id="ec16f1a7-6162-4648-9d10-380c89c40baf"
	 xmlns="http://www.w3.org/2000/svg" xmlns:xlink="http://www.w3.org/1999/xlink" x="0px" y="0px" viewBox="0 0 1144 774.7"
	 style="enable-background:new 0 0 1144 774.7;" xml:space="preserve">
<style type="text/css">
	.st0{fill:#E0AC9B;}
	.st1{fill:#D4D5D6;}
	.st2{fill:#4A75DD;}
	.st3{fill:#CC9483;}
	.st4{fill:url(#SVGID_1_);}
	.st5{fill:#26282D;}
	.st6{fill:#FFFFFF;}
	.st7{fill:#6597EF;}
	.st8{fill:#5B250E;}
	.st9{fill:#873F26;}
	.st10{fill:#212121;}
	.st11{fill:url(#SVGID_2_);}
	.st12{fill:#BD9FCE;}
	.st13{fill:#A380B7;}
	.st14{fill:url(#SVGID_3_);}
	.st15{fill:#700000;}
	.st16{fill:#990000;}
	.st17{opacity:0.42;fill:#FFFFFF;}
	.st18{fill:#AFB3BC;}
	.st19{fill:url(#SVGID_4_);}
	.st20{fill:#0D2263;}
	.st21{fill:url(#SVGID_5_);}
	.st22{fill:url(#SVGID_6_);}
	.st23{fill:url(#SVGID_7_);}
	.st24{fill:#1F3E93;}
	.st25{opacity:0.4;fill:#FFFFFF;}
	.st26{opacity:0.68;fill:#FFFFFF;}
	.st27{opacity:0.5;fill:url(#SVGID_8_);}
	.st28{fill:#CAE8FF;}
	.st29{opacity:0.72;fill:#2E9FE5;}
</style>
<title>Group chat</title>
<g>
	<g>
		<g>
			<path class="st0" d="M424.3,268.9c2.3-1,7-3,9.1-4.4c2.1-1.4,6.3-0.8,10.2-2.7c1.4-0.7,3.6-0.2,2.6,1.4c-1,1.6-3.8,2.3-5.7,4
				c-2.3,2.1,6.4,2.7,8.7,2.8c2,0,13.7,2,13.4,3.4c-0.5,2.6-13.5-0.8-13.4,0.3c0,0.9,14.6,2,14,3.5c-1.3,3.2-12.5-0.1-14,1.3
				c0,0,2.9,0.4,5.9,0.9c2.8,0.4,5.7,0.2,6.1,0.8c2.8,4.5-15-0.7-14.6,1.6c0.3,1.8,10.1,2,9.2,4c-0.4,1-12-0.8-12-0.8
				s-16.2,0.4-21.9-0.8c-3.4-0.7-14,1.3-14,1.3l4.2-14.9C412.1,270.7,420.5,270.7,424.3,268.9z"/>
			<path class="st1" d="M415.5,266.8l8.5-0.6c0,0,2.6,21.9,3.5,24.7l-12.2,1.2L415.5,266.8z"/>
			<path d="M357.6,213.4c-9.8-5.8-15.4,3.4-16.8,10.5c-3.2,17,5.3,65.2,28.5,73.9c5,1.9,54,2.6,53.4,0.1c-2.1-7.9-3.7-27.4-2.9-32.1
				c-18.2-1.2-39,0.6-40.9-3C374.7,254.8,357.6,213.4,357.6,213.4z"/>
		</g>
		<path class="st2" d="M290.2,186.8c1.4-2.6,2.5-4.7,5.4-4.2c2.8,0.5,31.4,6.8,32,12c0.6,5.2-6.9,10-11.8,10.5
			C311,205.5,290.2,186.8,290.2,186.8z"/>
		<path class="st3" d="M327.6,179.7c-2.3,6.7-2.6,14.1-0.6,20.2c2,6.2-8.4,15-12.1,14.5c-3.7-0.5-23.9-20.7-23.9-20.7
			s4.9-22.8,6-28.1C298.2,160.4,327.6,179.7,327.6,179.7z"/>
		<g>
			
				<linearGradient id="SVGID_1_" gradientUnits="userSpaceOnUse" x1="292.747" y1="217.8584" x2="297.6223" y2="174.2861" gradientTransform="matrix(0.9987 5.040000e-02 -5.040000e-02 0.9987 25.6338 -33.1699)">
				<stop  offset="0" style="stop-color:#FFFFFF"/>
				<stop  offset="0.5165" style="stop-color:#C6C0B9"/>
			</linearGradient>
			<path class="st4" d="M326.8,182.3c-0.1,1-1.4,5.6-1.5,9.6c-3.7,4.1-26.4,19.6-32.3,18.8c-4.9-0.7-0.3-9-3-12.7
				c1.3-4.8,7-32.6,7.1-33.7L326.8,182.3z"/>
		</g>
		<path class="st2" d="M354.2,212.6L329,196.1c-6.5,19.3-18.3,12.2-18.7,12c-4.2-2.3-18.2-12.7-19.6-16.2l-1.1-2.3
			c-14.2,4.3-25.3,13.5-30.7,13.2c0,0,6.1,40.5,6.7,52.8c0.7,15-6,67.9-6,67.9s37.3,3.5,50.5,2.7l30.3,1.2c0,0-0.8-5.6,0.2-26.1
			c0.3-6.4,8-34.8,6.4-51.8L354.2,212.6z"/>
		<g>
			<path d="M302.9,616c-0.4-5.6,2.9-9.1,0.4-37.8c-0.3-3.5,25.7-4.6,25.7-4.6c-1.1,14.1-4.9,22.9,8.8,39.9
				c3,3.7,11.6,10.5,14.6,13.5c2.1,2.1,4.6,12-8.2,12c-16.2,0-28.5-4.8-32.6-12.5c-0.3-0.6-1.4-0.4-1.4-0.4S303.9,630.5,302.9,616z"
				/>
			<path d="M301.5,413.9c0,11.4-2.6,72.4-3.7,83.7c-4.5,48.3-3.1,66.6-1.2,99.5c1,16.6,2.4,24.7,2.4,24.7c1-7.6,40.4-10.9,40.4-10.9
				s1-14.7-2.9-20.5c-3.8-5.7-2.8-76,2.9-95c5.7-19,7.6-103.6,7.6-111.2c0-7,0.8-17.3,0-43.7c-0.1-2.4-4.6-12.2-4.7-14.7
				c0,0-33.6-5.4-37.5,1.5c-3.9,6.8-0.6-3.5,1.8,39.1L301.5,413.9z"/>
			<path class="st5" d="M344.8,387.5c-1.4,39-6.7,100.4-13.2,111.7c-9,15.8-5.2,13-7.4,23.3c-2.1,10-1.4,60.6-1.4,64.1
				c0,3.6-20.7,7.8-16.4,10.7c4.3,2.9,19.9-2.1,19.9,0c0,2.1-12.1,6.4-12.1,6.4s24.2,1.4,25.7,0.7c1.4-0.7-0.9-6.9-1.9-14.5
				c-1-7.6-6.6-58.9-1-77.4c5.7-18.5,11.2-111.4,9-123.5C343.9,377,344.8,387.5,344.8,387.5z"/>
		</g>
		<g>
			<path d="M250,627.4c-0.4-5.6,2.9-9.1,0.4-37.8c-0.3-3.5,25.7-4.6,25.7-4.6c-1.1,14.1-4.9,22.9,8.8,39.9
				c3,3.7,11.6,10.5,14.6,13.5c2.1,2.1,4.6,12-8.2,12c-16.2,0-28.5-4.8-32.6-12.5c-0.3-0.6-1.4-0.4-1.4-0.4S251.1,641.9,250,627.4z"
				/>
			<path d="M251.5,359.6c-6.1,57.3-4.9,127.5-6.5,138.8c-6.3,45.5-6.3,80.8-4.5,113.8c0.9,16.6,5.6,21,5.6,21
				c0.9-7.6,40.4-10.9,40.4-10.9s1-14.7-2.9-20.4c-3.8-5.7-2.8-76,2.9-95c5.7-19,17.4-100,17.4-107.6c0-7,5.6-21.9,4.9-48.3
				c-0.1-2.4-19.3-11.1-19.4-13.6L251.5,359.6z"/>
			<path class="st5" d="M303.8,406c-7.3,39.1-15.9,85.5-26.3,99.7c-8.9,12.2-4,18.2-6.1,28.2c-2.1,10,0.3,54.5,0.3,58
				c0,3.6-25.6,24.9-21,22.6c17.7-8.8,21.9-9.7,21.9-7.6c0,2.1-11.2,8.2-11.2,8.2s14.2-4.9,25.6,0.7c1.5,0.7-0.9-6.9-1.9-14.5
				c-0.9-7.6-6.6-58.9-0.9-77.4c5.7-18.5,23.6-109.9,21.4-122C303.5,389.8,303.8,406,303.8,406z"/>
		</g>
		<g>
			<g>
				<polygon class="st1" points="321.5,324.8 317.5,204.4 308.4,204.1 305.2,205.8 312.2,213.3 307.9,314.3 				"/>
				<polygon class="st6" points="331.8,315.5 321.7,212.9 325,207.6 323.6,203.7 316.1,204.4 316.8,213.1 316.9,213.1 321.5,324.8 
									"/>
			</g>
		</g>
		<path class="st7" d="M326.1,191.7c0.2,4.3-5.8,12-7.3,12.6c1.9,0.8,10.4,10.7,10.4,10.7l5.1-15.6
			C334.2,199.4,326,189.9,326.1,191.7z"/>
		<path class="st7" d="M292.2,183.4c-0.3,3.2,11.7,17.1,21.4,21.1c-3.1,1.1-15.3,9.3-18.2,12.4c-8.1-9.7-13.4-25.4-12-26.3
			C286.2,188.8,292.2,183.4,292.2,183.4z"/>
		<path class="st8" d="M283.4,145.6c-0.2,4.9,4.2,23.4,4,24.3c-0.1,0.9-0.5,4.3-1.5,4c-1-0.3,6.6,5.9,8.3,4.4
			c1.6-1.6,6-27.9,5.2-29.2C298.6,147.7,283.4,145.6,283.4,145.6z"/>
		<path class="st0" d="M338.6,165.2c2.2-9.1,3.6-22.8-0.4-32.4c-2.6-6.2-17-11.3-20.4-11.2c-20.8,0.6-21.4,13.7-21.2,27.3
			c-4.8-2.7-6.7,2-6.2,7.4c0.4,4.1,2.6,8.7,5.4,10c1.9,11.6,9.9,20.3,24.7,21.4c2.6,0.2,5.5-0.6,7.6-1.8c3.1-1.5,4.7-4.1,6.3-7.8
			C336,174.9,338.4,165.8,338.6,165.2z"/>
		<g>
			<path class="st8" d="M294,121.6c1.6-3.4,11.8-2.2,11.7,0.4c0.1,0,5-0.1,5-0.1c0-4.8-1.4,9.5-1.2,10.5c-12,0.6-7.9,13.6-9.1,15.7
				c-1.6,2.8-0.5,7.6-0.5,7.6l-3.6-2l-1.4-5.8l-10.8,4.9C284.1,152.7,278.6,128.6,294,121.6z"/>
		</g>
		<path class="st9" d="M334.8,121.5c-4.7-3-19.8-10.7-28.4-6.8c-8.7,3.9-5.7,5.7-5.7,5.7l8.8,12c5.4-1.3,9.4,0.4,12.2,3.2
			c8.6,8.6,17,2.4,17,2.5c2.3,2.7,1.9,16.7,1.9,16.7l1.4-0.1c0,0,2.1-7.1,1.5-14.2c-0.1-1.8-0.4-2.1-0.7-3.6
			C345.9,132,339.6,124.5,334.8,121.5z"/>
		<path d="M320,330c-0.1,18.4-1.3,46.8-1.3,46.8s-4,5.5-15.4,8.9c-13.9,4.1-64.3,0.1-64.1-1c3.2-26.4,9.5-47.6,11.6-72.3
			c0.8-10.1,2.1-45.6,0.2-49.7c-2-4.1-2.9-28.2-2.2-38c0.3-4.3-3.5-17.9,0.4-19.2c11.2-3.8,17.5-5.8,36.7-17c0,0-1.1,19.3,3.3,25.8
			c4.4,6.6,25.8,48.6,29.1,55.5C320.4,273.8,320.2,286.1,320,330z"/>
		<polygon class="st5" points="293.8,326.7 258.6,335 259.7,347.3 295.2,341.5 		"/>
		<path class="st5" d="M318.5,277.7c4,14.6,2.5,78.9,2.6,89.2c0.1,11-0.3,15.8-10,18.4c-13.9,3.7-71.9,0.8-71.9,0.8
			s71.4,4.5,76.6-5.8C323.9,364.3,318.5,277.7,318.5,277.7z"/>
		<path class="st5" d="M292.2,182.7c0.1-0.5-13.1,7.4-13.1,7.4l-3.6,11.3l9.9,0.1l-7.8,14.9l42.3,56.4c0,0-28.5-67-30.3-75.1
			C287.3,187.8,292.2,182.7,292.2,182.7z"/>
		<path class="st5" d="M348.4,317.2c-1.3-17.2,2.8-51.3,4.1-62.1c2.1-17,5.5-41.3,0.6-44.4c-0.3-0.2-6.3-2.2-20-13.3l1.2,15.5
			c-2,30.9-16.3,58.8-16.3,58.8s2.3,88.5,3,92c1.7,8.7,1.4,19.8,9.2,20.6c5,0.5,24.2-0.7,24.2-0.7
			C350.9,344.6,350.1,340.2,348.4,317.2z"/>
		<path d="M327.3,192.5c1.2,0.5,14.1,8.9,14.1,8.9l2.8,8.4l-6.3,0.3l9,6.1l-28.4,54.7c0,0,14.5-48.1,15.2-66.7
			C333.9,197.1,327.3,192.5,327.3,192.5z"/>
		<polygon points="339.8,330.2 352.3,334.9 353.7,349.6 340.5,344.7 		"/>
		<g>
			<path class="st0" d="M312.5,303.1c2.6,0,8-0.1,10.5-0.6c2.6-0.5,5.7,0.8,11.3-1.3c1.5-0.6,3.6,0,2,1.1c-1.6,1.1-4.8,2.2-7.3,3.1
				c-3,1.1,6.3,7,8.5,8c1.9,0.8,11.6,6.9,10.8,8.2c-1.5,2.3-11.4-5.3-11.8-4.3c-0.3,0.9,12.7,6.4,11.5,7.7
				c-2.6,2.6-12.6-4.7-14.7-3.9c0,0,2.6,1.6,5.3,3.2c2.5,1.5,6.1,2.3,6.2,3.2c0.2,3.3-15.4-5.5-15.9-3.1c-0.4,1.9,10.7,3.3,9,5
				c-0.8,0.8-13-3-13-3s-15.7-6.1-20.8-9.6c-3-2.1-14-4.3-14-4.3l10-12.6C300,299.9,308,303.2,312.5,303.1z"/>
			<path class="st6" d="M304,300.3l9.2,2.3c0,0-4.8,23.8-4.8,27.1l-13.2-2.9L304,300.3z"/>
			<path d="M265.1,218.5c-3.8-6.9-9-16.9-19.1-10.9c-2.7,1.6-4.6,9.8-6.5,13.3c-6.6,12.4-12.2,61-9.6,84.9c0.7,6.1,6.1,8,8.2,9.5
				c4.8,3.5,63.3,19.7,64,16.9c0.1-0.4,3.6-27.5,7-31.5c-16.8-4.1-52.2-11.9-51.9-16.5C257.8,274.5,265.1,218.5,265.1,218.5z"/>
		</g>
		<path class="st5" d="M257.6,211c5.6,3.5,9.5,13,9.9,18.4c2,29.7-5.5,46.1-4.4,48.4c1,2.4,1.8,4,1.8,4l44.3,19c0,0-2.5,2.6-2.8,6.4
			c-7.5-4.1-39-18.5-45.1-19.2c-6.1-0.7-13.5,1.8-13.5,1.8s8.3-5.5,10.3-5.5c2,0-8.6,0.3-10,0.7c-1.4,0.3,6.7-1.3,8.4-3.6
			c1.7-2.4,10.1-47.5,9.3-52.6c-2.4-15.4-7.7-16.9-12.3-19.4C249.4,207,257.6,211,257.6,211z"/>
	</g>
	<g>
		<g>
			<path d="M744.1,580.6c1.3,7.6,2.1,25.8-1.9,32.1c0,0-3.8,2.9-8,2c-4.4-0.9-5.1,1-7.4,4.4c-2.3,3.4-18,7.1-25.4,5.9
				c-8.8-1.3-11.5-6-0.6-14.2c12.8-9.7,20.2-18.4,22.8-27.3C726.2,574.6,744.1,580.6,744.1,580.6z"/>
			<path d="M780.3,603.3c-0.1-5.2,2.7-8.5,0.4-35.1c-0.3-3.2,23.9-4.3,23.9-4.3c-1.1,13.1-3.2,25.1,9.5,40.8
				c6.5,8.1,13.5,19.6,2.2,21.5c-13.9,2.3-24.1-3.8-27.9-13.2c-0.3-0.6-1.3-0.4-1.3-0.4S780.5,612.6,780.3,603.3z"/>
			<path d="M821.6,324.9c6,15.8,9,19.4,9,45.7c0,26.3-9.5,91.2-11.4,110.9c-0.5,5.8-3.6,110-3.6,117.9c0,7.9-31.9,2-36.7-1.9
				c-4.8-4-3.1-74.2,1.6-111.8c1.7-13.1-1.2-74-1.2-84.5c0-10.5,3.6-73.6,3.6-73.6L821.6,324.9z"/>
			<path class="st10" d="M811.4,327.4c1.8,8.7,0.6,114.4-1.8,147.9L806,601.9c0,0,15.8-0.5,14.6-3c-1.2-2.5-0.2-104.7,1.7-116.6
				c1.8-11.8,11.5-112.1,8.5-122c-3-9.9-7.2-38.5-7.2-38.5L811.4,327.4z"/>
			<path d="M747.4,325.5c-9,14.9-18.7,150.1-19.6,164.2c-1.8,27.2-16.4,117.3-16.4,109.6c10.9,13,41.5,0.6,40.2,7
				c13.4-68.9,17.8-114.7,16.4-107.1l23.9-120.1l6.7-58.4L747.4,325.5z"/>
			<path class="st0" d="M770.4,171.6l-1.6,21.7l-9.4,8.7c0,0,14.4,39.2,24,42.7c9.6,3.5,19-21.5,18.8-28.1
				c-0.2-6.6-2.3-43.1-2.3-43.1L770.4,171.6z"/>
			<linearGradient id="SVGID_2_" gradientUnits="userSpaceOnUse" x1="781.5524" y1="200.6441" x2="782.7839" y2="173.0121">
				<stop  offset="0" style="stop-color:#FFFFFF"/>
				<stop  offset="0.6429" style="stop-color:#C6C0B9"/>
			</linearGradient>
			<path class="st11" d="M767.1,166.1c-2.2-5.7,25.3,4.3,31.7,11.7l-27.3,42.8c-3.6-3.7-3-19.3-4.7-21.2
				C769.2,195.5,771,176,767.1,166.1z"/>
			<path class="st7" d="M801.3,194.9c-1.7,2.1-12.6,12.8-17.7,12.5c0-0.9,0-1.3-0.1-1.3c-5-0.5-13.3-9.6-15-13.2
				c-1.4,1.5-13.8,12.5-13.8,12.5l-1.1,126.5l31.4-3.1v0.1l35.3-3l2.9-116.1L801.3,194.9z"/>
			<g>
				<g>
					<g>
						<polygon points="780.6,214 784.3,214 784,204.3 776.7,204.3 776.7,208.4 						"/>
						<polygon points="780.1,212.5 777.1,310.4 787.5,318.1 784.5,212.5 						"/>
						<polygon class="st10" points="787.1,214 784,214 783.8,204.3 791.2,204.3 791.2,208.4 						"/>
						<polygon class="st10" points="787.6,212.5 797.2,309.3 787.5,318.1 784,212.5 						"/>
					</g>
				</g>
			</g>
			<g>
				<path d="M778.3,387.6c0,0-49.8-9.8-49.8-11.9c0-28.5,10-62.1,10.3-75.2c0.3-10.1,0.9-34.5-0.5-38.9c-1.5-4.3-15-19.2-15-19.2
					s-2.6-12.8-0.6-22.4c0.9-4.2,3.5-9.6,7.5-10.4c11.6-2.3,10.4-1.6,30.9-10.2c0,0-3.6,24-0.1,31c3.6,7.1,11.2,47.6,13.6,54.8
					C777.2,292.7,778.3,387.6,778.3,387.6z"/>
			</g>
			<path class="st10" d="M822.9,339.3L808,281.7c0,0,1.4-21.4,2.5-65.6l-2-16.1c18,8.7,17.5,8.6,29.4,12.7
				c3.8,1.3,1.9,12.3,1.9,12.3s-5.9,31.8-7.3,36.1c-1.5,4.4-1.5,26.1-1.2,36.2c0.2,6,14.5,26.6,14.5,47L822.9,339.3z"/>
			<path class="st10" d="M766.8,194.5c0.1-0.5-13.3,7.1-13.3,7.1l-3.9,11.2l9.6,2.7l-13.3,7.5l25.5,58.3c0,0-6.1-63.8-7.7-71.9
				C761.8,199.4,766.8,194.5,766.8,194.5z"/>
			<path d="M803.2,195.8c1.2,0.4,15.5,10.2,15.5,10.2l3.2,8.2l-9.6,1.2l9.9,5.1L808.1,282c0,0-1.7-65.4-0.8-73.6
				C808.3,200.1,803.2,195.8,803.2,195.8z"/>
			<polygon class="st10" points="755.7,322 732.3,329.8 731.8,342.1 755.2,336.8 			"/>
			<path class="st0" d="M805.4,155.6c-0.6-5.4-1.1-9.7-4.6-9.5c-2.5-13.3-7-24-26.1-20.7c-2.9,0.5-5.4,1.2-7.5,2c0,0,0-0.1,0-0.1
				c-12.9,4.8-13.3,12.4-11.5,24c-0.4,0,0.3,2.1-0.1,2.2c-3.7,0.9-1.2,4.3,0,9.6c1.1,4.7,4.8,9,6,9.2c1.7,3.4,3.7,6.6,6.1,9.3
				c0.2,0.2,0.3,0.4,0.5,0.6c0.4,0.5,0.9,0.9,1.3,1.4c0.5,0.5,1,0.9,1.5,1.4c0.3,0.3,0.6,0.6,0.9,0.8c0.9,0.7,1.8,1.4,2.7,2
				c0.1,0,0.1,0.1,0.2,0.1c3.5,2.1,7.2,3.2,10.8,2.6c9.3-1.4,14.4-14.2,15.7-26.7C803.5,161.9,805.8,159.7,805.4,155.6z"/>
			<g>
				<path d="M767.8,125.6l0.2-1.3c0,0,4.4-4.1,3.4-3.9c-0.5,0.1-2.7-1.2-3.3,1.7l1.4-5l-10.7,6.2c0,0-2.6,0.1-4.2,2
					c-1.5,1.9-2.7,3.4-2.7,3.4s0.7,1.9,0.5-0.9c-2.4,1.4-2.7,8-1.7,12.7c0.1,1.4,0.2,3,0.4,4.7c0.9,7.1,2.7,8.6,2.7,8.6l3,0.2
					c0,0-3.4-9.3,1.5-15.3c4.9-6,16.9-5.3,16.9-5.3L767.8,125.6z"/>
			</g>
			<polygon class="st2" points="786.9,204.5 795.3,214.2 806,196.1 801.5,191.2 			"/>
			<polygon class="st2" points="781.7,204.2 772.3,214.5 763.8,204 763.1,198.4 768.1,192.8 			"/>
			<path d="M725.2,214.8c-7.7,12.7-29.8,66.8-30.2,85.9c0,1.6,17.7,24.4,42.9,27.1c1.8-4.5,8.8-30.3,9.7-33.9
				c-11.1-0.6-18.4-2.7-18.4-2.7c0.9-3.3,14-34.5,10.9-44C737,237.7,725.2,214.8,725.2,214.8z"/>
			<path class="st0" d="M832.5,331.5c-2.7,5-6.8,9.5-9.5,11.8c-2.7,2.3-4.1,5-4.1,5s6.8,10.8,10.9,13.1c2.2,1.2,3.6-5,4.5-8.1
				c0.9-3.2,5.9-10.8,5.9-10.8L832.5,331.5z"/>
			<path d="M837.9,212.5c9,1.4,11.5,8.6,15.1,26.7c3.6,18.1,12.1,56.7,13.2,66.3c1.2,9.6-28.8,57.6-28.8,57.6s-4.1-13.6-16.7-23
				c9-20.5,18.1-36.2,17.6-38.9c-1.1-6.4-3.4-33-5.9-40.3C830.1,253.7,836.3,212.3,837.9,212.5z"/>
			<path class="st10" d="M800.8,162.7c0,0,1.1,10.1-0.1,14.1c-1.2,4-10.3,16.5-11.2,17.7c-0.9,1.2-5.2,2.6-5.2,2.6s-4.4-11-3.1-11.6
				c4.4-1.8,7.9-4,9.3-5.4c1.4-1.4,5.3-5.8,6-8.1c1.5-4.8,1.8-10,1.8-10L800.8,162.7z"/>
			<path d="M761.6,172.2c0,1.4,4.5,12.3,6.2,14.2c1.7,1.9,15.5,11.2,16.5,10.7c1-0.5-1.9-11.7-1.9-11.7s-9.4-1.2-13.9-4.4
				c-2.9-2.1-4-7.4-5.5-8.3C761.6,171.7,761.6,172.2,761.6,172.2z"/>
			<path class="st10" d="M798.9,127.5c-2.8-3.7-5-7.1-8.2-7.9c-2.2-2.9-9.5-5.2-9.9-4.6c-0.2,0.4,2.5-0.3,2.9,3
				c-2.3-2.8-1.8-2.9-12.6-4.5c0,0,6.7,3.9,7.4,6.4c0,0,0,0-0.1,0c-1.2-4-12.9-7.6-11.9-6.5c5.1,5.6,0.1,5.6-1.1,8
				c0.2-2.8,1.9-5.3-0.4-7.9c1.8,3.8-3.6,5.6-5.6,10.7c-2.9,4.5-1.4,9.9,2.9,12.4c2,1.2,13-1.8,18.8-2.7c4.5,0.8,8.5,3.8,10,5.6
				c2,2.4,3.5,8.9,3.5,8.9h0c0.8,3.8,1.5,7.8,1.5,7.8l2.9,1.8c0,0-0.2-7.9,0.5-11.3l1.8-0.6l2.6,0.9
				C803.9,146.9,804.5,134.9,798.9,127.5z M765.5,122.3C765.5,122.3,765.5,122.3,765.5,122.3C765.5,122.3,765.6,122.3,765.5,122.3z"
				/>
			<path class="st10" d="M741.7,295.9c-2.2,0.5-5.9,33.7-2.7,31.6c3.2-2,5.5-20.5,5.9-25.7C745.4,296.5,743.5,295.4,741.7,295.9z"/>
		</g>
		<path d="M855.8,198.1L855.8,198.1L855.8,198.1L855.8,198.1C855.8,198.1,855.8,198.1,855.8,198.1L855.8,198.1z"/>
		<g>
			<path class="st0" d="M861.9,271.5c-2.7,0-10.2,19.7-13.6,24.3c-1.3,1.7-27-12.3-27.2-12.9c-1.2-3.1-1.6-4.8-3.7-8.7
				c-1.1-2-6.3-4.3-6.8-4.8c-0.6-0.6-2.2-1.1-1.2,0.2c1.2,1.5,5,6.1,5,6.1s-2.4-2.3-4.4-3.7c-2.1-1.4-4.5-2.8-5.3-3.3
				c-0.8-0.5-3.4-1.2-5.2-0.9c-1.6,0.2-2,0.9,0,1.4c2.4,0.6,2.5,1,3.6,1.4c0.8,0.3,4.5,3.6,4.5,3.6s-3.7-2.4-5.6-3.1
				c-1.9-0.8-4.6-2.3-4.6-2.3s-4.4,0.6-0.8,2.1c2.4,1,5.2,2.4,5.2,2.4l4.2,3.9c0,0-10.3-6.5-11.2-4.9c-0.4,0.8,0.9,1.9,5.4,4.1
				c3.5,1.6,4.4,3.9,4.4,3.9s-6.5-3.7-8.2-4.4c-1.3-0.6-2.1,1.4-0.2,3.3c0.6,0.6,3.4,1.1,4.5,2.3c2.5,2.8,4.8,5.2,8,7.9
				c1.7,1.4,3,2.1,4.9,3.3c0,0,31.6,23.4,38,23.4c6.4,0,26.8-22.5,29.2-37C881.7,274.2,864.6,271.5,861.9,271.5z"/>
			<path class="st12" d="M883.2,251.8c7,6.6-5.6,39.7-12.8,51c-12.2-9.1-19.6-17.2-19.6-17.2s12.9-25,16.2-30.5
				C872,246.5,877.3,246.1,883.2,251.8z"/>
		</g>
		<g>
			<g>
				<polygon class="st1" points="723.2,247.3 761.6,256.4 768.1,321.6 737.3,314 				"/>
				<polygon class="st6" points="758.8,255.7 803.3,246.4 811.5,314.6 768.1,321.6 				"/>
			</g>
			<path class="st0" d="M750.2,294.3c1.7-2.9,3.3-2.2,5.7-3.2c2.4-1,4.8-5,5.6-5c1.3,0.1,1.3,3-0.7,5.5c-1.7,2.2-1.3,1.9-1.3,1.9
				s4.4,0.2,6.4,0.1c2-0.2,5.3-1.2,6.5-1.9c1.2-0.7,4.8-2.8,5.5-2.1c1.5,1.4-2.4,3.7-4.4,5c-2.1,1.4-5.7,1.7-5.7,1.7
				s5.8-0.2,6.8-0.9c1-0.7,6.9-3.4,7.4-2.2c0.7,1.8-5.2,4.2-6.7,5.2c-1.5,1-6.2,2.3-6.7,2.6c-0.5,0.3,5.4-1.5,7.3-2.3
				c3.2-1.4,4.8-3.5,5.7-2.2c0.6,0.9-3.6,4.5-6,5.6c-2.4,1-5.1,2.7-5.1,2.7s7.4-3.4,8.8-2.8c1.4,0.5-2.7,2.9-5.1,3.9
				c-3.1,1.3-5.9,2.4-7.2,2.8c-1.4,0.3-13-0.9-17.4-2.1c-4.4-1.2-9.4-1-10.4-3.9c-1-2.9-1-9.7,2.4-9.4
				C747.9,294.1,750.2,294.3,750.2,294.3z"/>
			<path class="st6" d="M747.8,293.9l-6.8-1.4c0,0-4,17.8-3.1,23c4.9,1.2,6.5,1.5,6.5,1.5S747.3,294.6,747.8,293.9z"/>
			<path d="M719.1,286.6c4.8,0.7,26.6,6.3,26.6,6.3s-3.7,5.8-6.9,22.6c-1.8,9.7-29.1-20.1-29.1-20.1L719.1,286.6z"/>
		</g>
		<g>
			<path class="st13" d="M871.2,247.5c0.3,2.3-12.6,31.5-12.6,31.5l5.9-1.1l8-28.8L871.2,247.5z"/>
			<g>
				<path class="st3" d="M875.5,462.1c-1.7,11.6,9.4,39.9,12.7,44.8c3.3,5,11.6,80.3,11.6,85.2c0,8.9-13.1,30.3-26.1,36.4
					c7.4,4.6,19.5,2.8,32.5-12.9c4.8-5.7,13.2,0.5,14.7-3.9c3.3-10-2.2-13.3-2.2-28.2c0-14.9,10.5-60.6,0-83.8
					c-6.4-14.2-3.3-34.3-5-39.3C912,455.4,875.5,462.1,875.5,462.1z"/>
			</g>
			<path class="st10" d="M915.8,593.9c2.9,2.3,5.7,9.2,4,14.9c-1.7,5.8-5.5,19.5-4.3,24.1c-3.1,0.7-3.1,0.1-3.1,0.1
				s0.6-20.7-2.3-19.6c-2.9,1.2-7.5,13.2-12.7,19c-5.2,5.7-25.4,4-26.6,2.3c-1.1-1.7-2.3-7.2,2.2-8.9c4.6-1.7,8.6-4.6,8.6-4.6
				s10.6,3.8,15.7-3.7C902.6,610,915.8,593.9,915.8,593.9z"/>
			<path class="st0" d="M882.1,463.7c-1.7,11.6,9.4,39.9,12.7,44.8c3.3,5,11.6,80.3,11.6,85.3c0,8.8-8.7,31.8-21.8,38
				c7.4,4.6,10.6,4.4,28.7-11.6c5.6-4.9,12.6-2.3,14-6.7c3.3-9.9-2.8-8.5-2.8-23.5c0-14.9,11.1-65.3,0.6-88.6
				c-6.4-14.2-3.3-34.3-5-39.3C918.6,457.1,882.1,463.7,882.1,463.7z"/>
			<path d="M926.2,599.2c2.9,2.3,5.7,9.2,4,14.9c-1.7,5.8-5.5,19.5-4.3,24.1c-3.1,0.7-3.1,0-3.1,0s0.6-20.7-2.3-19.5
				c-2.9,1.1-7.5,13.2-12.6,18.9c-5.1,5.7-25.4,4-26.6,2.3c-1.1-1.7-2.4-7.2,2.2-8.9c4.6-1.7,8.6-4.6,8.6-4.6s10.6,3.8,15.7-3.7
				C913,615.2,926.2,599.2,926.2,599.2z"/>
			<path d="M913.8,341.6c2.8,9.7,15.4,24.4,15.4,43.2c0,18.8-3.1,94.4-1,106.3c-18.8,3.5-52.9,2.2-52.9,2.2s-18.4-113.8-8.1-148.8
				C897.1,342.3,913.8,341.6,913.8,341.6z"/>
			<g>
				<path class="st10" d="M929.8,384.8c0-18.8-12.5-33.5-15.4-43.2c0,0,4.4,0-8.6,0.7c6.1,19.8,9.8,15.9,13.4,48.7
					c1.6,14.6-6.1,92.4-4.2,101.1c10.7-0.1,4.5,0.7,13.7-1C926.7,479.3,929.8,403.7,929.8,384.8z"/>
			</g>
			<path d="M905.5,195.7c9.1,4.8,31.3,35.3,31.2,57.4c-0.1,22.2-2.6,35.2,1.3,37.5c-5.5,1.4-11.6,3-15.7-12.9
				c-4.1-15.9-15.7-28-15.9-41c-0.1-13-4.7-34.9-4.7-34.9L905.5,195.7z"/>
			<path class="st13" d="M878.4,233.2c-4.1,2.7-10.8,9.9-10.8,9.9l4.3,14.5l9.8-18.7L878.4,233.2z"/>
			<g>
				<path class="st3" d="M908.9,240.9c-3.1-7-15.3-22.1-17.3-56.2c-0.9-14-29.7,29.1-29.7,29.1c8,4,16.2,13.5,13.9,24.8
					c-6.7,20.8-13.7,38.5-12.5,37.9C859.4,288.7,911.5,242.8,908.9,240.9z"/>
				
					<linearGradient id="SVGID_3_" gradientUnits="userSpaceOnUse" x1="24.5017" y1="269.4432" x2="47.2477" y2="226.9397" gradientTransform="matrix(-0.9926 0.1214 0.1214 0.9926 898.4472 -24.7843)">
					<stop  offset="0" style="stop-color:#FFFFFF"/>
					<stop  offset="0.1275" style="stop-color:#FBFAFA"/>
					<stop  offset="0.2889" style="stop-color:#EEEBEA"/>
					<stop  offset="0.4687" style="stop-color:#D9D2D0"/>
					<stop  offset="0.6604" style="stop-color:#BCB0AC"/>
					<stop  offset="0.7125" style="stop-color:#B3A6A1"/>
				</linearGradient>
				<path class="st14" d="M872.2,223.3l28.7,24.1l7.5-6.2c0,0-3.5-7.9-7-14.2c-5.1-9.5-6.6-25.5-6.6-25.5S883.7,217.1,872.2,223.3z"
					/>
			</g>
			<path class="st13" d="M891,239.4c-3.6,2.6-12.7,7.8-12.7,7.8c-3.2,8.3-10.4,15.3-22,33.7c-3.3,5.2-0.6,17.6,3.9,20.2
				c3.1,1.8,1,20.8,1,24.7c-0.2,27.7,2.5,26.4,2.5,26.4s44.1-4,48.9-5.1c21.5-4.9,0.6-34.4,2.2-71.2c0.5-11.3,5.2-20.3,0-31.5
				c-2.7-3.7-6.4-6.8-11.5-12.8C896.3,234.4,896.4,235.5,891,239.4z"/>
			<path class="st3" d="M847.2,204.1c0-1.4,1.7-2.1,3.3-8.8c-0.1-1.9-0.1-3.3-0.1-3.9c-0.2-19.6,8.3-32,23.9-32.1
				c15.6-0.2,27.5,7.2,27.7,26.8c0.2,19.6-11.6,30.1-20.7,34.9c-3,1.6-18.1,5.2-21.4,3.3c-4.4-2.6-6.7-9.6-8-16.5
				C850.3,207.4,847.3,206.7,847.2,204.1z"/>
			<path d="M907.9,174.4c-5.9-18.2-29.3-20.6-46.4-13c-3.9,1.7-5.8,4.4-6.8,6.7c-8.5,5.9-2.2,8.8,2.2,10.4c4.4,1.5,12.4,4.9,11,12
				c1.6-0.3,3.3-2.6,3.7-5.7c2.3,2.9,6.2,6.9,7,8.4c0.6,1.6,3.2-5,5.8-1.8c3.6,4.3,0.5,12,0.5,12l7.1,10.5
				C891.9,214,916.1,199.9,907.9,174.4z"/>
			<path class="st6" d="M863,269.9c3.7-4.4,12.9-18.6,16.1-24.4c1.9-3.6,3.3-0.6,3.3-0.6L863,269.9z"/>
			<polygon class="st6" points="883.4,254.8 876.6,242.7 901,225.2 905.1,230.9 			"/>
			<path class="st0" d="M907.5,333.6c-5.2,12.1-9.4,35.4-13,48.3c-1.2,1.6-4.7,2.8-8.6,5.8c-1.9,1.5-5.9,8-6.3,8.5
				c-0.6,0.7-1.2,2.9-0.1,2.1c1.1-0.8,4-4.4,4-4.4s-2,3.2-2.7,5.8c-0.6,2.3-0.6,3.6-0.6,4.8c-0.1,1.7,0.7,2.9,1.4,0.9
				c0.7-2,0.9-3.2,1.7-4.7c1.2-2.3,2.3-4.9,2.3-4.9s-0.9,4.2-1.8,6.1c-0.7,1.5-1.5,5.2-1.5,5.6c-0.1,1.8,0.9,1.8,1.6,0.5
				c1.1-2.1,2.2-4.8,2.2-4.8l3-4.5c0,0-5.5,10.4-3.7,11.3c0.9,0.4,0.9-1.7,3.1-5.1c2.2-3.3,3.4-4.6,3.4-4.6s-3.7,6.7-4.4,8.5
				c-0.5,1.4,0.6,1.3,2.5-0.8c1.9-2.1,2.7-5,4.4-6.8c4.2-4.5,8.2-14,8.2-14c12.8-19.6,21.8-43.1,21.4-49.7c0,0,1.8-3,1.1-6.4
				c-1.2-6,2-24.9-6.5-62.1c-1.8-8-18.7-5.9-21-0.5C895.2,274,907.5,333.6,907.5,333.6z"/>
			<path class="st12" d="M912.5,242.3c8.8,1.5,15.2,37.9,13.2,51.9c-8.4,6.9-30,4.6-30,4.6s-2.9-27.9-2.3-34.6
				C894.4,253.9,898.8,240,912.5,242.3z"/>
		</g>
	</g>
	<g>
		<g>
			<path class="st15" d="M564.4,408.8c0,0.7-0.6,1.4-1.4,1.4h-56c-0.8,0-1.4-0.6-1.4-1.4l-2.2-74.8c0-0.8,2.8-2.1,3.5-2.1h56
				c0.8,0,1.4,0.6,1.4,1.4V408.8z"/>
			<path class="st1" d="M563,407.3c0,0.7-2.1,2.8-2.8,2.8l-53.3-0.8c-0.7,0-1.3-0.6-1.3-1.3l-1.5-73.1c0-0.7,2.1-2.2,2.9-2.2h54.8
				c0.7,0,1.3,0.6,1.3,1.3L563,407.3z"/>
			<path class="st16" d="M561.8,410.3c0,0.7-0.6,1.4-1.4,1.4h-56c-0.8,0-1.4-0.6-1.4-1.4v-75.6c0-0.8,0.6-1.4,1.4-1.4h56
				c0.8,0,1.4,0.6,1.4,1.4V410.3z"/>
			<rect x="514.3" y="357.7" class="st17" width="35.3" height="3.4"/>
			<rect x="520.3" y="365.5" class="st17" width="23.4" height="3.4"/>
		</g>
		<g>
			<rect x="408.3" y="430.3" class="st1" width="235.3" height="213.6"/>
			<path class="st1" d="M432,615.7V443.3h189.9v169.9v2.6H432L432,615.7z M619.4,613.1v-2.6V613.1L619.4,613.1z M437.2,610.6h179.6
				V448.4H437.2V610.6L437.2,610.6z"/>
			<polygon class="st18" points="643.6,428.8 643.6,433.7 408.3,433.7 408.3,429.2 432.7,419.9 624,419.9 			"/>
		</g>
		<g>
			<g>
				<linearGradient id="SVGID_4_" gradientUnits="userSpaceOnUse" x1="437.1376" y1="424.2572" x2="516.9432" y2="424.2572">
					<stop  offset="0" style="stop-color:#D4D5D6"/>
					<stop  offset="2.868664e-02" style="stop-color:#DADBDC"/>
					<stop  offset="0.1385" style="stop-color:#EBEBEB"/>
					<stop  offset="0.2753" style="stop-color:#F6F7F7"/>
					<stop  offset="0.4672" style="stop-color:#FDFDFD"/>
					<stop  offset="1" style="stop-color:#FFFFFF"/>
				</linearGradient>
				<rect x="437.1" y="420.7" class="st19" width="79.8" height="7"/>
				<polygon class="st1" points="516.9,427.8 530.5,416.3 530.5,409 516.8,418.4 				"/>
				<polygon class="st20" points="437.1,420.7 457.2,409 530.5,409 516.9,420.7 				"/>
			</g>
			<g>
				<linearGradient id="SVGID_5_" gradientUnits="userSpaceOnUse" x1="431.4666" y1="413.9916" x2="511.2751" y2="413.9916">
					<stop  offset="0" style="stop-color:#D4D5D6"/>
					<stop  offset="2.868664e-02" style="stop-color:#DADBDC"/>
					<stop  offset="0.1385" style="stop-color:#EBEBEB"/>
					<stop  offset="0.2753" style="stop-color:#F6F7F7"/>
					<stop  offset="0.4672" style="stop-color:#FDFDFD"/>
					<stop  offset="1" style="stop-color:#FFFFFF"/>
				</linearGradient>
				<rect x="431.5" y="411.3" class="st21" width="79.8" height="5.4"/>
				<polygon class="st1" points="511.3,416.7 524.8,407.9 524.8,402.2 511.1,409.5 				"/>
				<polygon class="st20" points="431.5,411.3 451.5,402.2 524.8,402.2 511.3,411.3 				"/>
			</g>
			<g>
				<linearGradient id="SVGID_6_" gradientUnits="userSpaceOnUse" x1="441.4975" y1="407.1835" x2="521.3054" y2="407.1835">
					<stop  offset="0" style="stop-color:#D4D5D6"/>
					<stop  offset="2.868664e-02" style="stop-color:#DADBDC"/>
					<stop  offset="0.1385" style="stop-color:#EBEBEB"/>
					<stop  offset="0.2753" style="stop-color:#F6F7F7"/>
					<stop  offset="0.4672" style="stop-color:#FDFDFD"/>
					<stop  offset="1" style="stop-color:#FFFFFF"/>
				</linearGradient>
				<rect x="441.5" y="404.5" class="st22" width="79.8" height="5.4"/>
				<polygon class="st1" points="521.3,409.9 534.8,401.1 534.8,395.4 521.2,402.7 				"/>
				<polygon class="st2" points="441.5,404.5 461.6,395.4 534.8,395.4 521.3,404.5 				"/>
			</g>
			<g>
				<linearGradient id="SVGID_7_" gradientUnits="userSpaceOnUse" x1="436.7021" y1="400.3727" x2="516.5048" y2="400.3727">
					<stop  offset="0" style="stop-color:#D4D5D6"/>
					<stop  offset="0.1588" style="stop-color:#E6E7E8"/>
					<stop  offset="0.3502" style="stop-color:#F4F5F5"/>
					<stop  offset="0.5868" style="stop-color:#FDFDFD"/>
					<stop  offset="1" style="stop-color:#FFFFFF"/>
				</linearGradient>
				<rect x="436.7" y="397.7" class="st23" width="79.8" height="5.4"/>
				<polygon class="st1" points="516.5,403.1 530,394.2 530,388.6 516.4,395.9 				"/>
				<polygon class="st2" points="436.7,397.7 456.8,388.6 530,388.6 516.5,397.7 				"/>
			</g>
			<path class="st24" d="M516.2,385.6l-4.3-0.1l-67.8,6.2l-3.7-6.7c0-0.9-0.5-3.2-1.2-3.2l-3.8-0.4c-0.6,0-1.2,0.7-1.2,1.6v10.3
				c0,0.9,0.5,1.6,1.2,1.6l68.6-0.1L516.2,385.6z"/>
			<polygon class="st6" points="503.6,394 435.1,394 435.2,382.1 503.7,382.1 			"/>
			<polygon class="st1" points="503.6,394 514.5,386 514.2,373.7 503.7,378.1 			"/>
			<polygon class="st24" points="435.2,382.1 435.1,381.6 452.7,373.3 515.6,373.3 503.7,382.1 			"/>
			<g>
				<path class="st13" d="M510.5,372.6l-66.7,4.8l-3.4,1.4v-7.5c0-0.8-0.5-1.5-1.1-1.5h-3.5c-0.6,0-1.1,0.7-1.1,1.5v7.6
					c0,0.8,0.5,1.5,1.1,1.5h3.5c0.1,0,0.1-0.1,0.2-0.1h59.3L510.5,372.6z"/>
				<polygon class="st6" points="498.5,379.5 435.6,379.5 435.7,370.3 498.6,370.3 				"/>
				<polygon class="st1" points="498.5,379.5 509.1,372.8 509.2,363.5 498.5,367.3 				"/>
				<polygon class="st13" points="435.7,370.3 435.5,370 453.1,363.1 510.4,363.1 498.6,370.3 				"/>
			</g>
			<g>
				<polygon class="st2" points="444.8,370.4 468.7,361.3 502,361.4 489.2,370.6 				"/>
				<path class="st2" d="M447.6,369.2c0,0.9-0.5,1.6-1.1,1.6h-2.4c-0.6,0-1.1-0.7-1.1-1.6v-8.3c0-0.9,0.5-1.6,1.1-1.6h2.4
					c0.6,0,1.1,0.7,1.1,1.6V369.2z"/>
				<path class="st2" d="M489.3,370.2c0,0.4-0.2,0.7-0.5,0.7H444c-0.3,0-0.5-0.3-0.5-0.7l0,0c0-0.4,0.2-0.7,0.5-0.7h44.8
					C489.1,369.5,489.3,369.8,489.3,370.2L489.3,370.2z"/>
				<polygon class="st6" points="488.8,369.7 444.8,369.7 444.9,359.2 488.9,359.2 				"/>
				<polygon class="st1" points="488.8,369.7 500.4,361.5 500.4,352.6 488.8,357.4 				"/>
				<polygon class="st2" points="443.8,360.1 443.8,359.3 467.9,352.2 501.8,352.1 489.8,360.1 				"/>
			</g>
		</g>
		<g>
			<path class="st7" d="M620.5,419.3c0,0.7-0.5,1.2-1.2,1.2h-48.9c-0.7,0-1.2-0.5-1.2-1.2l-1.9-65.3c0-0.7,2.4-1.9,3.1-1.9h48.9
				c0.7,0,1.2,0.5,1.2,1.2V419.3z"/>
			<path class="st1" d="M619.3,418c0,0.6-1.8,2.5-2.5,2.5l-46.5-0.7c-0.6,0-1.2-0.5-1.2-1.2l-1.3-63.8c0-0.6,1.9-1.9,2.5-1.9h47.8
				c0.6,0,1.2,0.5,1.2,1.2L619.3,418z"/>
			<path class="st2" d="M618.2,420.6c0,0.7-0.5,1.2-1.2,1.2h-48.9c-0.7,0-1.2-0.5-1.2-1.2v-65.9c0-0.7,0.5-1.2,1.2-1.2H617
				c0.7,0,1.2,0.5,1.2,1.2V420.6z"/>
			<path class="st25" d="M611,392.2c0,0.7-0.5,1.2-1.2,1.2h-35.2c-0.7,0-1.2-0.5-1.2-1.2v-20.9c0-0.7,0.5-1.2,1.2-1.2h35.2
				c0.7,0,1.2,0.5,1.2,1.2V392.2z"/>
			<rect x="576.7" y="374.7" class="st26" width="30.8" height="3"/>
			<rect x="581.9" y="381.6" class="st26" width="20.4" height="3"/>
		</g>
		<g>
			<linearGradient id="SVGID_8_" gradientUnits="userSpaceOnUse" x1="480.6075" y1="418.4294" x2="545.4598" y2="393.1811">
				<stop  offset="0.1044" style="stop-color:#FFFFFF"/>
				<stop  offset="0.1965" style="stop-color:#FAFAFA"/>
				<stop  offset="0.3072" style="stop-color:#EBEBEB"/>
				<stop  offset="0.4276" style="stop-color:#D3D3D3"/>
				<stop  offset="0.5548" style="stop-color:#B1B1B1"/>
				<stop  offset="0.6874" style="stop-color:#858585"/>
				<stop  offset="0.8246" style="stop-color:#505050"/>
				<stop  offset="0.963" style="stop-color:#121212"/>
				<stop  offset="1" style="stop-color:#000000"/>
			</linearGradient>
			<polygon class="st27" points="527.1,356.8 488.8,379.6 491.8,429.5 578.7,423.8 			"/>
			
				<rect x="534.3" y="350.9" transform="matrix(0.9909 -0.1345 0.1345 0.9909 -46.4839 78.7481)" class="st28" width="50.8" height="65.2"/>
			<g>
				<path class="st6" d="M579.2,423.3c0,0.3-0.2,0.5-0.5,0.5h-51.5c-0.3,0-0.5-0.2-0.5-0.5v-66c0-0.3,0.2-0.5,0.5-0.5h51.5
					c0.3,0,0.5,0.2,0.5,0.5V423.3z"/>
				<g>
					<rect x="533.8" y="369" class="st28" width="38.3" height="1.1"/>
					<rect x="533.8" y="372" class="st28" width="38.3" height="1.1"/>
					<rect x="533.8" y="374.9" class="st28" width="38.3" height="1.1"/>
					<rect x="533.8" y="377.9" class="st28" width="38.3" height="1.1"/>
					<rect x="533.8" y="380.9" class="st28" width="38.3" height="1.1"/>
					<rect x="533.8" y="383.9" class="st28" width="38.3" height="1.1"/>
					<rect x="533.8" y="386.9" class="st28" width="38.3" height="1.1"/>
					<rect x="533.8" y="389.9" class="st28" width="38.3" height="1.1"/>
					<rect x="533.8" y="392.9" class="st28" width="38.3" height="1.1"/>
					<rect x="533.8" y="395.9" class="st28" width="38.3" height="1.1"/>
					<rect x="533.8" y="398.9" class="st28" width="38.3" height="1.1"/>
				</g>
				<path class="st29" d="M561,415.3l-0.2-0.2c-0.1-0.2-0.1-0.4-0.1-0.6l0,0c0-0.1,0-0.3,0.1-0.4l0,0c-0.2-0.4-0.3-1.2-0.4-2.1l0,0
					c0-0.9,0.1-2,0.8-2.2l0,0c-0.1-0.3-0.1-0.7-0.1-1l0,0c-0.8,0.4-1.5,1.4-2,2.5l0,0c0,0.1,0,0.2,0,0.4l0,0c0,1.2-0.2,2.3-0.8,3
					l0,0c-0.1,0.1-0.2,0.1-0.3,0.1l0,0c-0.1,0-0.2-0.1-0.2-0.2l0,0c0-0.9,0.3-2.1,0.7-3.3l0,0c0-1.1-0.2-2.2-0.4-3l0,0
					c-0.7,0.1-0.9,1.4-0.9,2.8l0,0c0,0.6,0,1.2,0,1.5l0,0c0,0.1-0.1,0.3-0.3,0.3l0,0c-0.1,0-0.2-0.1-0.2-0.3l0,0c0-0.3,0-0.9,0-1.5
					l0,0c0-1.4,0.1-3.2,1.5-3.3l0,0c0.1,0,0.1,0,0.2,0l0,0l0.2,0.2c0.2,0.6,0.3,1.5,0.4,2.4l0,0c0.5-1,1.3-1.8,2.2-2l0,0
					c0.1,0,0.2,0,0.2,0l0,0c0.1,0,0.1,0.1,0.1,0.2l0,0c0,0.4,0.1,0.8,0.2,1.3l0,0c0,0,0.1,0,0.1,0l0,0c0.5,0.2,0.7,0.7,0.8,1.3l0,0
					c0.4-0.3,0.8-0.4,1.2-0.4l0,0c1.1,0,2.2,0.7,2.2,1.8l0,0c0,0.4-0.2,0.8-0.5,1.1l0,0c-0.1,0.1-0.1,0.1-0.2,0.1l0,0
					c-0.1,0-0.2-0.1-0.2-0.1l0,0c-0.2-0.4-0.8-0.7-1.5-0.7l0,0c-0.4,0-0.8,0.1-1.1,0.2l0,0c0,0.1-0.1,0.3-0.1,0.4l0,0
					c0,0.1-0.2,0.2-0.3,0.2l0,0c-0.1,0-0.2-0.1-0.2-0.2l0,0c0,0,0,0,0,0l0,0c-0.1,0.1-0.2,0.1-0.3,0.2l0,0c-0.1,0.2-0.3,0.4-0.4,0.6
					l0,0c0,0.1-0.1,0.2-0.1,0.4l0,0c0,0.1,0,0.2,0,0.3l0,0c0.1,0,0.2,0,0.4,0l0,0c3.2,0,6.2-3.2,10-3.2l0,0c0.1,0,0.2,0,0.3,0l0,0
					c0.1,0,0.2,0.1,0.2,0.2l0,0c0,0.1,0,0.2,0,0.3l0,0c-0.4,0.5-0.8,1.7-1.9,1.8l0,0c-0.1,0-0.3-0.1-0.3-0.2l0,0
					c0-0.1,0.1-0.3,0.2-0.3l0,0c0.4,0,0.8-0.6,1.2-1.2l0,0c-3.4,0.1-6.4,3.2-9.8,3.2l0,0C561.4,415.4,561.2,415.4,561,415.3
					L561,415.3z M560.9,412c0,0.5,0.1,1.1,0.2,1.5l0,0c0.1-0.1,0.2-0.2,0.2-0.3l0,0c0.1-0.3,0.2-0.7,0.2-1.2l0,0
					c0-0.5-0.1-1.1-0.2-1.7l0,0C561.1,410.6,560.9,411.2,560.9,412L560.9,412z M565.4,413c0.1-0.2,0.2-0.4,0.2-0.6l0,0
					c0-0.7-0.8-1.3-1.7-1.3l0,0c-0.5,0-0.9,0.2-1.2,0.6l0,0c0,0.3,0,0.5,0,0.7l0,0c0.3-0.1,0.7-0.1,1-0.1l0,0
					C564.4,412.4,565,412.5,565.4,413L565.4,413z M562,412c0,0.3,0,0.5-0.1,0.7l0,0c0,0,0,0,0,0l0,0c0-0.4,0.1-0.8,0.3-1.1l0,0
					c0-0.6-0.2-1.2-0.4-1.4l0,0C561.9,410.9,562,411.5,562,412L562,412z"/>
			</g>
		</g>
	</g>
</g>
</svg>
